G04 EAGLE Gerber RS-274X export*
G75*
%MOMM*%
%FSLAX34Y34*%
%LPD*%
%INTop Copper*%
%IPPOS*%
%AMOC8*
5,1,8,0,0,1.08239X$1,22.5*%
G01*
%ADD10R,0.500000X0.300000*%
%ADD11R,1.800000X1.200000*%
%ADD12R,1.550000X0.600000*%
%ADD13R,0.900000X0.700000*%
%ADD14C,0.152400*%
%ADD15C,0.756400*%
%ADD16C,0.304800*%

G36*
X106111Y12079D02*
X106111Y12079D01*
X106202Y12087D01*
X106231Y12099D01*
X106263Y12104D01*
X106344Y12147D01*
X106428Y12183D01*
X106460Y12209D01*
X106481Y12220D01*
X106503Y12243D01*
X106559Y12288D01*
X106621Y12350D01*
X106663Y12408D01*
X106712Y12460D01*
X106734Y12507D01*
X106765Y12549D01*
X106786Y12618D01*
X106816Y12683D01*
X106822Y12735D01*
X106837Y12784D01*
X106835Y12856D01*
X106843Y12927D01*
X106832Y12978D01*
X106831Y13030D01*
X106806Y13098D01*
X106791Y13168D01*
X106764Y13212D01*
X106746Y13261D01*
X106701Y13317D01*
X106665Y13379D01*
X106625Y13413D01*
X106593Y13453D01*
X106532Y13492D01*
X106478Y13539D01*
X106429Y13558D01*
X106386Y13586D01*
X106316Y13604D01*
X106249Y13631D01*
X106178Y13639D01*
X106147Y13647D01*
X106124Y13645D01*
X106083Y13649D01*
X87369Y13649D01*
X74544Y26474D01*
X74470Y26527D01*
X74401Y26587D01*
X74371Y26599D01*
X74345Y26618D01*
X74258Y26645D01*
X74173Y26679D01*
X74132Y26683D01*
X74110Y26690D01*
X74077Y26689D01*
X74006Y26697D01*
X69052Y26697D01*
X69032Y26694D01*
X69013Y26696D01*
X68911Y26674D01*
X68809Y26658D01*
X68792Y26648D01*
X68772Y26644D01*
X68683Y26591D01*
X68592Y26542D01*
X68578Y26528D01*
X68561Y26518D01*
X68494Y26439D01*
X68422Y26364D01*
X68414Y26346D01*
X68401Y26331D01*
X68362Y26235D01*
X68319Y26141D01*
X68317Y26121D01*
X68309Y26103D01*
X68292Y25949D01*
X66802Y24459D01*
X49198Y24459D01*
X47709Y25948D01*
X47709Y34052D01*
X48119Y34462D01*
X48130Y34478D01*
X48146Y34490D01*
X48202Y34578D01*
X48262Y34661D01*
X48268Y34680D01*
X48279Y34697D01*
X48304Y34798D01*
X48334Y34897D01*
X48334Y34916D01*
X48339Y34936D01*
X48331Y35039D01*
X48328Y35142D01*
X48321Y35161D01*
X48320Y35181D01*
X48279Y35276D01*
X48244Y35373D01*
X48231Y35389D01*
X48223Y35407D01*
X48119Y35538D01*
X47709Y35948D01*
X47709Y42253D01*
X47698Y42320D01*
X47697Y42387D01*
X47679Y42440D01*
X47670Y42496D01*
X47638Y42556D01*
X47615Y42619D01*
X47581Y42664D01*
X47554Y42713D01*
X47506Y42760D01*
X47464Y42813D01*
X47400Y42860D01*
X47376Y42883D01*
X47357Y42891D01*
X47329Y42912D01*
X47179Y42998D01*
X46248Y43929D01*
X45590Y45070D01*
X45249Y46342D01*
X45249Y48501D01*
X57262Y48501D01*
X57281Y48504D01*
X57301Y48502D01*
X57403Y48524D01*
X57505Y48540D01*
X57522Y48550D01*
X57542Y48554D01*
X57631Y48607D01*
X57722Y48656D01*
X57736Y48670D01*
X57753Y48680D01*
X57820Y48759D01*
X57891Y48834D01*
X57900Y48852D01*
X57913Y48867D01*
X57951Y48963D01*
X57995Y49057D01*
X57997Y49077D01*
X58004Y49095D01*
X58017Y49019D01*
X58026Y49002D01*
X58030Y48982D01*
X58083Y48893D01*
X58132Y48802D01*
X58146Y48788D01*
X58156Y48771D01*
X58235Y48704D01*
X58310Y48632D01*
X58328Y48624D01*
X58343Y48611D01*
X58440Y48572D01*
X58533Y48529D01*
X58553Y48527D01*
X58571Y48519D01*
X58738Y48501D01*
X70751Y48501D01*
X70751Y46342D01*
X70410Y45070D01*
X70049Y44445D01*
X70015Y44355D01*
X69975Y44269D01*
X69972Y44241D01*
X69962Y44215D01*
X69958Y44119D01*
X69948Y44025D01*
X69954Y43997D01*
X69953Y43969D01*
X69980Y43877D01*
X70000Y43784D01*
X70015Y43760D01*
X70023Y43733D01*
X70078Y43655D01*
X70126Y43573D01*
X70148Y43555D01*
X70164Y43532D01*
X70241Y43475D01*
X70313Y43413D01*
X70340Y43403D01*
X70362Y43386D01*
X70453Y43357D01*
X70542Y43321D01*
X70577Y43317D01*
X70597Y43311D01*
X70629Y43311D01*
X70708Y43303D01*
X71368Y43303D01*
X73526Y41145D01*
X91145Y23526D01*
X91219Y23473D01*
X91288Y23413D01*
X91319Y23401D01*
X91345Y23382D01*
X91432Y23355D01*
X91517Y23321D01*
X91558Y23317D01*
X91580Y23310D01*
X91612Y23311D01*
X91683Y23303D01*
X108317Y23303D01*
X108407Y23317D01*
X108498Y23325D01*
X108527Y23337D01*
X108559Y23342D01*
X108640Y23385D01*
X108724Y23421D01*
X108756Y23447D01*
X108777Y23458D01*
X108799Y23481D01*
X108855Y23526D01*
X130538Y45209D01*
X130591Y45283D01*
X130651Y45352D01*
X130663Y45383D01*
X130682Y45409D01*
X130709Y45496D01*
X130743Y45581D01*
X130747Y45622D01*
X130754Y45644D01*
X130753Y45676D01*
X130761Y45747D01*
X130761Y64158D01*
X130758Y64178D01*
X130760Y64197D01*
X130738Y64299D01*
X130721Y64401D01*
X130712Y64418D01*
X130708Y64438D01*
X130655Y64527D01*
X130606Y64618D01*
X130592Y64632D01*
X130582Y64649D01*
X130503Y64716D01*
X130428Y64788D01*
X130410Y64796D01*
X130395Y64809D01*
X130299Y64848D01*
X130205Y64891D01*
X130185Y64893D01*
X130167Y64901D01*
X130000Y64919D01*
X127895Y64919D01*
X124919Y67895D01*
X124919Y84158D01*
X124916Y84178D01*
X124918Y84197D01*
X124896Y84299D01*
X124880Y84401D01*
X124870Y84418D01*
X124866Y84438D01*
X124813Y84527D01*
X124764Y84618D01*
X124750Y84632D01*
X124740Y84649D01*
X124661Y84716D01*
X124586Y84788D01*
X124568Y84796D01*
X124553Y84809D01*
X124457Y84848D01*
X124363Y84891D01*
X124343Y84893D01*
X124325Y84901D01*
X124158Y84919D01*
X30840Y84919D01*
X30793Y84912D01*
X30745Y84913D01*
X30672Y84892D01*
X30597Y84880D01*
X30555Y84857D01*
X30509Y84843D01*
X30447Y84800D01*
X30380Y84764D01*
X30347Y84730D01*
X30308Y84702D01*
X30263Y84641D01*
X30210Y84586D01*
X30190Y84543D01*
X30162Y84504D01*
X30139Y84432D01*
X30107Y84363D01*
X30102Y84315D01*
X30087Y84270D01*
X30088Y84194D01*
X30080Y84119D01*
X30090Y84072D01*
X30091Y84024D01*
X30116Y83952D01*
X30132Y83878D01*
X30157Y83837D01*
X30173Y83792D01*
X30219Y83732D01*
X30258Y83667D01*
X30295Y83636D01*
X30324Y83598D01*
X30428Y83522D01*
X30445Y83507D01*
X30451Y83505D01*
X30459Y83499D01*
X31321Y83002D01*
X32252Y82071D01*
X32910Y80930D01*
X33251Y79658D01*
X33251Y74523D01*
X20012Y74523D01*
X19992Y74520D01*
X19973Y74522D01*
X19871Y74500D01*
X19769Y74483D01*
X19752Y74474D01*
X19732Y74470D01*
X19643Y74417D01*
X19552Y74368D01*
X19538Y74354D01*
X19521Y74344D01*
X19454Y74265D01*
X19383Y74190D01*
X19374Y74172D01*
X19361Y74157D01*
X19322Y74061D01*
X19279Y73967D01*
X19277Y73947D01*
X19269Y73929D01*
X19251Y73762D01*
X19251Y72999D01*
X18488Y72999D01*
X18468Y72996D01*
X18449Y72998D01*
X18347Y72976D01*
X18245Y72959D01*
X18228Y72950D01*
X18208Y72946D01*
X18119Y72893D01*
X18028Y72844D01*
X18014Y72830D01*
X17997Y72820D01*
X17930Y72741D01*
X17859Y72666D01*
X17850Y72648D01*
X17837Y72633D01*
X17798Y72537D01*
X17755Y72443D01*
X17753Y72423D01*
X17745Y72405D01*
X17727Y72238D01*
X17727Y61999D01*
X9592Y61999D01*
X8320Y62340D01*
X7179Y62998D01*
X6380Y63798D01*
X6322Y63839D01*
X6270Y63889D01*
X6223Y63911D01*
X6181Y63941D01*
X6112Y63962D01*
X6047Y63992D01*
X5995Y63998D01*
X5945Y64014D01*
X5874Y64012D01*
X5803Y64020D01*
X5752Y64009D01*
X5700Y64007D01*
X5632Y63983D01*
X5562Y63967D01*
X5517Y63941D01*
X5469Y63923D01*
X5413Y63878D01*
X5351Y63841D01*
X5317Y63802D01*
X5277Y63769D01*
X5238Y63709D01*
X5191Y63654D01*
X5172Y63606D01*
X5144Y63562D01*
X5126Y63493D01*
X5099Y63426D01*
X5091Y63355D01*
X5083Y63324D01*
X5085Y63300D01*
X5081Y63259D01*
X5081Y26741D01*
X5092Y26670D01*
X5094Y26598D01*
X5112Y26549D01*
X5120Y26498D01*
X5154Y26435D01*
X5179Y26367D01*
X5211Y26327D01*
X5236Y26281D01*
X5288Y26231D01*
X5332Y26175D01*
X5376Y26147D01*
X5414Y26111D01*
X5479Y26081D01*
X5539Y26042D01*
X5590Y26029D01*
X5637Y26008D01*
X5708Y26000D01*
X5778Y25982D01*
X5830Y25986D01*
X5881Y25980D01*
X5952Y25996D01*
X6023Y26001D01*
X6071Y26022D01*
X6122Y26033D01*
X6183Y26069D01*
X6249Y26098D01*
X6305Y26142D01*
X6333Y26159D01*
X6348Y26177D01*
X6380Y26202D01*
X7179Y27002D01*
X8320Y27660D01*
X9592Y28001D01*
X17727Y28001D01*
X17727Y17762D01*
X17730Y17742D01*
X17728Y17723D01*
X17750Y17621D01*
X17767Y17519D01*
X17776Y17502D01*
X17780Y17482D01*
X17833Y17393D01*
X17882Y17302D01*
X17896Y17288D01*
X17906Y17271D01*
X17985Y17204D01*
X18060Y17133D01*
X18078Y17124D01*
X18093Y17111D01*
X18189Y17072D01*
X18283Y17029D01*
X18303Y17027D01*
X18321Y17019D01*
X18488Y17001D01*
X20012Y17001D01*
X20032Y17004D01*
X20051Y17002D01*
X20153Y17024D01*
X20255Y17041D01*
X20272Y17050D01*
X20292Y17054D01*
X20381Y17107D01*
X20472Y17156D01*
X20486Y17170D01*
X20503Y17180D01*
X20570Y17259D01*
X20641Y17334D01*
X20650Y17352D01*
X20663Y17367D01*
X20702Y17463D01*
X20745Y17557D01*
X20747Y17577D01*
X20755Y17595D01*
X20773Y17762D01*
X20773Y28001D01*
X28908Y28001D01*
X29977Y27714D01*
X30096Y27703D01*
X30213Y27689D01*
X30218Y27690D01*
X30222Y27690D01*
X30337Y27716D01*
X30454Y27742D01*
X30457Y27744D01*
X30462Y27745D01*
X30563Y27807D01*
X30665Y27868D01*
X30668Y27871D01*
X30671Y27873D01*
X30748Y27965D01*
X30825Y28055D01*
X30826Y28059D01*
X30829Y28062D01*
X30872Y28172D01*
X30917Y28283D01*
X30917Y28288D01*
X30919Y28291D01*
X30919Y28305D01*
X30935Y28450D01*
X30935Y57684D01*
X37316Y64065D01*
X47406Y64065D01*
X47496Y64079D01*
X47587Y64087D01*
X47617Y64099D01*
X47649Y64104D01*
X47730Y64147D01*
X47814Y64183D01*
X47846Y64209D01*
X47866Y64220D01*
X47889Y64243D01*
X47945Y64288D01*
X49198Y65541D01*
X66802Y65541D01*
X68291Y64052D01*
X68291Y57747D01*
X68302Y57680D01*
X68303Y57613D01*
X68321Y57560D01*
X68330Y57504D01*
X68362Y57444D01*
X68385Y57381D01*
X68419Y57336D01*
X68446Y57287D01*
X68479Y57255D01*
X68483Y57249D01*
X68498Y57235D01*
X68536Y57187D01*
X68600Y57140D01*
X68624Y57117D01*
X68643Y57109D01*
X68669Y57089D01*
X68670Y57089D01*
X68671Y57088D01*
X68821Y57002D01*
X69752Y56071D01*
X70410Y54930D01*
X70751Y53658D01*
X70751Y51499D01*
X58738Y51499D01*
X58719Y51496D01*
X58699Y51498D01*
X58597Y51476D01*
X58495Y51460D01*
X58478Y51450D01*
X58458Y51446D01*
X58369Y51393D01*
X58278Y51344D01*
X58264Y51330D01*
X58247Y51320D01*
X58180Y51241D01*
X58109Y51166D01*
X58100Y51148D01*
X58087Y51133D01*
X58049Y51037D01*
X58005Y50943D01*
X58003Y50923D01*
X57996Y50905D01*
X57983Y50981D01*
X57974Y50998D01*
X57970Y51018D01*
X57917Y51107D01*
X57868Y51198D01*
X57854Y51212D01*
X57844Y51229D01*
X57765Y51296D01*
X57690Y51368D01*
X57672Y51376D01*
X57657Y51389D01*
X57560Y51428D01*
X57467Y51471D01*
X57447Y51473D01*
X57429Y51481D01*
X57262Y51499D01*
X45249Y51499D01*
X45249Y53658D01*
X45603Y54977D01*
X45614Y55096D01*
X45628Y55213D01*
X45627Y55218D01*
X45627Y55222D01*
X45601Y55337D01*
X45575Y55454D01*
X45573Y55457D01*
X45572Y55462D01*
X45510Y55563D01*
X45449Y55665D01*
X45446Y55668D01*
X45444Y55671D01*
X45352Y55748D01*
X45262Y55825D01*
X45258Y55826D01*
X45255Y55829D01*
X45145Y55872D01*
X45034Y55917D01*
X45029Y55917D01*
X45026Y55919D01*
X45012Y55919D01*
X44867Y55935D01*
X40999Y55935D01*
X40909Y55921D01*
X40818Y55913D01*
X40788Y55901D01*
X40756Y55896D01*
X40676Y55853D01*
X40592Y55817D01*
X40560Y55791D01*
X40539Y55780D01*
X40517Y55757D01*
X40461Y55712D01*
X39288Y54539D01*
X39235Y54465D01*
X39175Y54396D01*
X39163Y54366D01*
X39144Y54340D01*
X39117Y54253D01*
X39083Y54168D01*
X39079Y54127D01*
X39072Y54104D01*
X39073Y54072D01*
X39065Y54001D01*
X39065Y13999D01*
X39079Y13909D01*
X39087Y13818D01*
X39099Y13788D01*
X39104Y13756D01*
X39147Y13676D01*
X39183Y13592D01*
X39209Y13560D01*
X39220Y13539D01*
X39243Y13517D01*
X39288Y13461D01*
X40461Y12288D01*
X40535Y12235D01*
X40604Y12175D01*
X40634Y12163D01*
X40660Y12144D01*
X40747Y12117D01*
X40832Y12083D01*
X40873Y12079D01*
X40896Y12072D01*
X40928Y12073D01*
X40999Y12065D01*
X106021Y12065D01*
X106111Y12079D01*
G37*
%LPC*%
G36*
X96801Y28919D02*
X96801Y28919D01*
X90891Y31367D01*
X86367Y35891D01*
X83919Y41801D01*
X83919Y48199D01*
X86367Y54109D01*
X90891Y58633D01*
X96801Y61081D01*
X103199Y61081D01*
X109109Y58633D01*
X113633Y54109D01*
X116081Y48199D01*
X116081Y41801D01*
X113633Y35891D01*
X109109Y31367D01*
X103199Y28919D01*
X96801Y28919D01*
G37*
%LPD*%
%LPC*%
G36*
X20773Y61999D02*
X20773Y61999D01*
X20773Y71477D01*
X33251Y71477D01*
X33251Y66342D01*
X32910Y65070D01*
X32252Y63929D01*
X31321Y62998D01*
X30180Y62340D01*
X28908Y61999D01*
X20773Y61999D01*
G37*
%LPD*%
D10*
X245000Y48000D03*
X245000Y40000D03*
X259000Y40000D03*
X259000Y48000D03*
D11*
X19250Y17000D03*
X19250Y73000D03*
D12*
X58000Y60000D03*
X58000Y50000D03*
X58000Y40000D03*
X58000Y30000D03*
D13*
X270000Y37500D03*
X270000Y50500D03*
D14*
X267500Y48000D02*
X259000Y48000D01*
X267500Y48000D02*
X270000Y50500D01*
D15*
X94900Y75200D03*
X114300Y75200D03*
X76200Y15700D03*
D16*
X270000Y50500D02*
X270000Y61000D01*
D15*
X45900Y21200D03*
X44900Y50200D03*
X73900Y50200D03*
D16*
X268604Y62396D02*
X270000Y61000D01*
X268604Y62396D02*
X125265Y62396D01*
X114300Y73361D02*
X114300Y75200D01*
X114300Y73361D02*
X125265Y62396D01*
D14*
X259000Y40000D02*
X267500Y40000D01*
X270000Y37500D01*
D16*
X270000Y29350D01*
X268000Y27350D01*
X127370Y27350D01*
X108020Y8000D02*
X39000Y8000D01*
X108020Y8000D02*
X127370Y27350D01*
X39000Y8000D02*
X35000Y12000D01*
X35000Y56000D01*
X39000Y60000D01*
X58000Y60000D01*
D14*
X58000Y40000D02*
X70000Y40000D01*
X90000Y20000D01*
X110000Y20000D01*
X138000Y48000D01*
X245000Y48000D01*
X245000Y40000D02*
X244312Y39312D01*
X111263Y16952D02*
X88737Y16952D01*
X133623Y39312D02*
X244312Y39312D01*
X133623Y39312D02*
X111263Y16952D01*
X75689Y30000D02*
X58000Y30000D01*
X75689Y30000D02*
X88737Y16952D01*
M02*
