G04 EAGLE Gerber RS-274X export*
G75*
%MOMM*%
%FSLAX34Y34*%
%LPD*%
%IN*%
%IPPOS*%
%AMOC8*
5,1,8,0,0,1.08239X$1,22.5*%
G01*
%ADD10C,0.254000*%


D10*
X0Y0D02*
X130000Y0D01*
X130000Y20000D01*
X285000Y20000D01*
X285000Y70000D01*
X130000Y70000D01*
X130000Y90000D01*
X0Y90000D01*
X0Y0D01*
X111000Y44568D02*
X110932Y43706D01*
X110797Y42852D01*
X110595Y42012D01*
X110328Y41190D01*
X109997Y40391D01*
X109605Y39621D01*
X109153Y38884D01*
X108645Y38185D01*
X108084Y37527D01*
X107473Y36916D01*
X106815Y36355D01*
X106116Y35847D01*
X105379Y35395D01*
X104609Y35003D01*
X103810Y34672D01*
X102988Y34405D01*
X102148Y34203D01*
X101294Y34068D01*
X100432Y34000D01*
X99568Y34000D01*
X98706Y34068D01*
X97852Y34203D01*
X97012Y34405D01*
X96190Y34672D01*
X95391Y35003D01*
X94621Y35395D01*
X93884Y35847D01*
X93185Y36355D01*
X92527Y36916D01*
X91916Y37527D01*
X91355Y38185D01*
X90847Y38884D01*
X90395Y39621D01*
X90003Y40391D01*
X89672Y41190D01*
X89405Y42012D01*
X89203Y42852D01*
X89068Y43706D01*
X89000Y44568D01*
X89000Y45432D01*
X89068Y46294D01*
X89203Y47148D01*
X89405Y47988D01*
X89672Y48810D01*
X90003Y49609D01*
X90395Y50379D01*
X90847Y51116D01*
X91355Y51815D01*
X91916Y52473D01*
X92527Y53084D01*
X93185Y53645D01*
X93884Y54153D01*
X94621Y54605D01*
X95391Y54997D01*
X96190Y55328D01*
X97012Y55595D01*
X97852Y55797D01*
X98706Y55932D01*
X99568Y56000D01*
X100432Y56000D01*
X101294Y55932D01*
X102148Y55797D01*
X102988Y55595D01*
X103810Y55328D01*
X104609Y54997D01*
X105379Y54605D01*
X106116Y54153D01*
X106815Y53645D01*
X107473Y53084D01*
X108084Y52473D01*
X108645Y51815D01*
X109153Y51116D01*
X109605Y50379D01*
X109997Y49609D01*
X110328Y48810D01*
X110595Y47988D01*
X110797Y47148D01*
X110932Y46294D01*
X111000Y45432D01*
X111000Y44568D01*
M02*
