G04 EAGLE Gerber RS-274X export*
G75*
%MOMM*%
%FSLAX34Y34*%
%LPD*%
%INSilkscreen Top*%
%IPPOS*%
%AMOC8*
5,1,8,0,0,1.08239X$1,22.5*%
G01*
%ADD10C,0.150000*%
%ADD11C,0.127000*%
%ADD12C,0.200000*%
%ADD13C,0.050800*%
%ADD14C,0.300000*%


D10*
X80000Y45000D02*
X80006Y45491D01*
X80024Y45981D01*
X80054Y46471D01*
X80096Y46960D01*
X80150Y47448D01*
X80216Y47935D01*
X80294Y48419D01*
X80384Y48902D01*
X80486Y49382D01*
X80599Y49860D01*
X80724Y50334D01*
X80861Y50806D01*
X81009Y51274D01*
X81169Y51738D01*
X81340Y52198D01*
X81522Y52654D01*
X81716Y53105D01*
X81920Y53551D01*
X82136Y53992D01*
X82362Y54428D01*
X82598Y54858D01*
X82845Y55282D01*
X83103Y55700D01*
X83371Y56111D01*
X83648Y56516D01*
X83936Y56914D01*
X84233Y57305D01*
X84540Y57688D01*
X84856Y58063D01*
X85181Y58431D01*
X85515Y58791D01*
X85858Y59142D01*
X86209Y59485D01*
X86569Y59819D01*
X86937Y60144D01*
X87312Y60460D01*
X87695Y60767D01*
X88086Y61064D01*
X88484Y61352D01*
X88889Y61629D01*
X89300Y61897D01*
X89718Y62155D01*
X90142Y62402D01*
X90572Y62638D01*
X91008Y62864D01*
X91449Y63080D01*
X91895Y63284D01*
X92346Y63478D01*
X92802Y63660D01*
X93262Y63831D01*
X93726Y63991D01*
X94194Y64139D01*
X94666Y64276D01*
X95140Y64401D01*
X95618Y64514D01*
X96098Y64616D01*
X96581Y64706D01*
X97065Y64784D01*
X97552Y64850D01*
X98040Y64904D01*
X98529Y64946D01*
X99019Y64976D01*
X99509Y64994D01*
X100000Y65000D01*
X100491Y64994D01*
X100981Y64976D01*
X101471Y64946D01*
X101960Y64904D01*
X102448Y64850D01*
X102935Y64784D01*
X103419Y64706D01*
X103902Y64616D01*
X104382Y64514D01*
X104860Y64401D01*
X105334Y64276D01*
X105806Y64139D01*
X106274Y63991D01*
X106738Y63831D01*
X107198Y63660D01*
X107654Y63478D01*
X108105Y63284D01*
X108551Y63080D01*
X108992Y62864D01*
X109428Y62638D01*
X109858Y62402D01*
X110282Y62155D01*
X110700Y61897D01*
X111111Y61629D01*
X111516Y61352D01*
X111914Y61064D01*
X112305Y60767D01*
X112688Y60460D01*
X113063Y60144D01*
X113431Y59819D01*
X113791Y59485D01*
X114142Y59142D01*
X114485Y58791D01*
X114819Y58431D01*
X115144Y58063D01*
X115460Y57688D01*
X115767Y57305D01*
X116064Y56914D01*
X116352Y56516D01*
X116629Y56111D01*
X116897Y55700D01*
X117155Y55282D01*
X117402Y54858D01*
X117638Y54428D01*
X117864Y53992D01*
X118080Y53551D01*
X118284Y53105D01*
X118478Y52654D01*
X118660Y52198D01*
X118831Y51738D01*
X118991Y51274D01*
X119139Y50806D01*
X119276Y50334D01*
X119401Y49860D01*
X119514Y49382D01*
X119616Y48902D01*
X119706Y48419D01*
X119784Y47935D01*
X119850Y47448D01*
X119904Y46960D01*
X119946Y46471D01*
X119976Y45981D01*
X119994Y45491D01*
X120000Y45000D01*
X119994Y44509D01*
X119976Y44019D01*
X119946Y43529D01*
X119904Y43040D01*
X119850Y42552D01*
X119784Y42065D01*
X119706Y41581D01*
X119616Y41098D01*
X119514Y40618D01*
X119401Y40140D01*
X119276Y39666D01*
X119139Y39194D01*
X118991Y38726D01*
X118831Y38262D01*
X118660Y37802D01*
X118478Y37346D01*
X118284Y36895D01*
X118080Y36449D01*
X117864Y36008D01*
X117638Y35572D01*
X117402Y35142D01*
X117155Y34718D01*
X116897Y34300D01*
X116629Y33889D01*
X116352Y33484D01*
X116064Y33086D01*
X115767Y32695D01*
X115460Y32312D01*
X115144Y31937D01*
X114819Y31569D01*
X114485Y31209D01*
X114142Y30858D01*
X113791Y30515D01*
X113431Y30181D01*
X113063Y29856D01*
X112688Y29540D01*
X112305Y29233D01*
X111914Y28936D01*
X111516Y28648D01*
X111111Y28371D01*
X110700Y28103D01*
X110282Y27845D01*
X109858Y27598D01*
X109428Y27362D01*
X108992Y27136D01*
X108551Y26920D01*
X108105Y26716D01*
X107654Y26522D01*
X107198Y26340D01*
X106738Y26169D01*
X106274Y26009D01*
X105806Y25861D01*
X105334Y25724D01*
X104860Y25599D01*
X104382Y25486D01*
X103902Y25384D01*
X103419Y25294D01*
X102935Y25216D01*
X102448Y25150D01*
X101960Y25096D01*
X101471Y25054D01*
X100981Y25024D01*
X100491Y25006D01*
X100000Y25000D01*
X99509Y25006D01*
X99019Y25024D01*
X98529Y25054D01*
X98040Y25096D01*
X97552Y25150D01*
X97065Y25216D01*
X96581Y25294D01*
X96098Y25384D01*
X95618Y25486D01*
X95140Y25599D01*
X94666Y25724D01*
X94194Y25861D01*
X93726Y26009D01*
X93262Y26169D01*
X92802Y26340D01*
X92346Y26522D01*
X91895Y26716D01*
X91449Y26920D01*
X91008Y27136D01*
X90572Y27362D01*
X90142Y27598D01*
X89718Y27845D01*
X89300Y28103D01*
X88889Y28371D01*
X88484Y28648D01*
X88086Y28936D01*
X87695Y29233D01*
X87312Y29540D01*
X86937Y29856D01*
X86569Y30181D01*
X86209Y30515D01*
X85858Y30858D01*
X85515Y31209D01*
X85181Y31569D01*
X84856Y31937D01*
X84540Y32312D01*
X84233Y32695D01*
X83936Y33086D01*
X83648Y33484D01*
X83371Y33889D01*
X83103Y34300D01*
X82845Y34718D01*
X82598Y35142D01*
X82362Y35572D01*
X82136Y36008D01*
X81920Y36449D01*
X81716Y36895D01*
X81522Y37346D01*
X81340Y37802D01*
X81169Y38262D01*
X81009Y38726D01*
X80861Y39194D01*
X80724Y39666D01*
X80599Y40140D01*
X80486Y40618D01*
X80384Y41098D01*
X80294Y41581D01*
X80216Y42065D01*
X80150Y42552D01*
X80096Y43040D01*
X80054Y43529D01*
X80024Y44019D01*
X80006Y44509D01*
X80000Y45000D01*
D11*
X244500Y52700D02*
X259500Y52700D01*
X259500Y35300D02*
X244500Y35300D01*
D12*
X235000Y48000D02*
X235002Y48063D01*
X235008Y48125D01*
X235018Y48187D01*
X235031Y48249D01*
X235049Y48309D01*
X235070Y48368D01*
X235095Y48426D01*
X235124Y48482D01*
X235156Y48536D01*
X235191Y48588D01*
X235229Y48637D01*
X235271Y48685D01*
X235315Y48729D01*
X235363Y48771D01*
X235412Y48809D01*
X235464Y48844D01*
X235518Y48876D01*
X235574Y48905D01*
X235632Y48930D01*
X235691Y48951D01*
X235751Y48969D01*
X235813Y48982D01*
X235875Y48992D01*
X235937Y48998D01*
X236000Y49000D01*
X236063Y48998D01*
X236125Y48992D01*
X236187Y48982D01*
X236249Y48969D01*
X236309Y48951D01*
X236368Y48930D01*
X236426Y48905D01*
X236482Y48876D01*
X236536Y48844D01*
X236588Y48809D01*
X236637Y48771D01*
X236685Y48729D01*
X236729Y48685D01*
X236771Y48637D01*
X236809Y48588D01*
X236844Y48536D01*
X236876Y48482D01*
X236905Y48426D01*
X236930Y48368D01*
X236951Y48309D01*
X236969Y48249D01*
X236982Y48187D01*
X236992Y48125D01*
X236998Y48063D01*
X237000Y48000D01*
X236998Y47937D01*
X236992Y47875D01*
X236982Y47813D01*
X236969Y47751D01*
X236951Y47691D01*
X236930Y47632D01*
X236905Y47574D01*
X236876Y47518D01*
X236844Y47464D01*
X236809Y47412D01*
X236771Y47363D01*
X236729Y47315D01*
X236685Y47271D01*
X236637Y47229D01*
X236588Y47191D01*
X236536Y47156D01*
X236482Y47124D01*
X236426Y47095D01*
X236368Y47070D01*
X236309Y47049D01*
X236249Y47031D01*
X236187Y47018D01*
X236125Y47008D01*
X236063Y47002D01*
X236000Y47000D01*
X235937Y47002D01*
X235875Y47008D01*
X235813Y47018D01*
X235751Y47031D01*
X235691Y47049D01*
X235632Y47070D01*
X235574Y47095D01*
X235518Y47124D01*
X235464Y47156D01*
X235412Y47191D01*
X235363Y47229D01*
X235315Y47271D01*
X235271Y47315D01*
X235229Y47363D01*
X235191Y47412D01*
X235156Y47464D01*
X235124Y47518D01*
X235095Y47574D01*
X235070Y47632D01*
X235049Y47691D01*
X235031Y47751D01*
X235018Y47813D01*
X235008Y47875D01*
X235002Y47937D01*
X235000Y48000D01*
D13*
X246254Y56806D02*
X246254Y60842D01*
X246254Y56806D02*
X246256Y56729D01*
X246262Y56651D01*
X246271Y56575D01*
X246285Y56498D01*
X246302Y56423D01*
X246323Y56349D01*
X246348Y56275D01*
X246376Y56203D01*
X246408Y56133D01*
X246443Y56064D01*
X246482Y55997D01*
X246524Y55932D01*
X246569Y55869D01*
X246617Y55808D01*
X246668Y55750D01*
X246722Y55695D01*
X246779Y55642D01*
X246838Y55593D01*
X246900Y55546D01*
X246964Y55502D01*
X247030Y55462D01*
X247098Y55425D01*
X247168Y55391D01*
X247239Y55361D01*
X247312Y55335D01*
X247386Y55312D01*
X247461Y55293D01*
X247536Y55278D01*
X247613Y55266D01*
X247690Y55258D01*
X247767Y55254D01*
X247845Y55254D01*
X247922Y55258D01*
X247999Y55266D01*
X248076Y55278D01*
X248151Y55293D01*
X248226Y55312D01*
X248300Y55335D01*
X248373Y55361D01*
X248444Y55391D01*
X248514Y55425D01*
X248582Y55462D01*
X248648Y55502D01*
X248712Y55546D01*
X248774Y55593D01*
X248833Y55642D01*
X248890Y55695D01*
X248944Y55750D01*
X248995Y55808D01*
X249043Y55869D01*
X249088Y55932D01*
X249130Y55997D01*
X249169Y56064D01*
X249204Y56133D01*
X249236Y56203D01*
X249264Y56275D01*
X249289Y56349D01*
X249310Y56423D01*
X249327Y56498D01*
X249341Y56575D01*
X249350Y56651D01*
X249356Y56729D01*
X249358Y56806D01*
X249358Y60842D01*
X251923Y59600D02*
X253475Y60842D01*
X253475Y55254D01*
X251923Y55254D02*
X255028Y55254D01*
D14*
X60850Y69500D02*
X60852Y69563D01*
X60858Y69625D01*
X60868Y69687D01*
X60881Y69749D01*
X60899Y69809D01*
X60920Y69868D01*
X60945Y69926D01*
X60974Y69982D01*
X61006Y70036D01*
X61041Y70088D01*
X61079Y70137D01*
X61121Y70185D01*
X61165Y70229D01*
X61213Y70271D01*
X61262Y70309D01*
X61314Y70344D01*
X61368Y70376D01*
X61424Y70405D01*
X61482Y70430D01*
X61541Y70451D01*
X61601Y70469D01*
X61663Y70482D01*
X61725Y70492D01*
X61787Y70498D01*
X61850Y70500D01*
X61913Y70498D01*
X61975Y70492D01*
X62037Y70482D01*
X62099Y70469D01*
X62159Y70451D01*
X62218Y70430D01*
X62276Y70405D01*
X62332Y70376D01*
X62386Y70344D01*
X62438Y70309D01*
X62487Y70271D01*
X62535Y70229D01*
X62579Y70185D01*
X62621Y70137D01*
X62659Y70088D01*
X62694Y70036D01*
X62726Y69982D01*
X62755Y69926D01*
X62780Y69868D01*
X62801Y69809D01*
X62819Y69749D01*
X62832Y69687D01*
X62842Y69625D01*
X62848Y69563D01*
X62850Y69500D01*
X62848Y69437D01*
X62842Y69375D01*
X62832Y69313D01*
X62819Y69251D01*
X62801Y69191D01*
X62780Y69132D01*
X62755Y69074D01*
X62726Y69018D01*
X62694Y68964D01*
X62659Y68912D01*
X62621Y68863D01*
X62579Y68815D01*
X62535Y68771D01*
X62487Y68729D01*
X62438Y68691D01*
X62386Y68656D01*
X62332Y68624D01*
X62276Y68595D01*
X62218Y68570D01*
X62159Y68549D01*
X62099Y68531D01*
X62037Y68518D01*
X61975Y68508D01*
X61913Y68502D01*
X61850Y68500D01*
X61787Y68502D01*
X61725Y68508D01*
X61663Y68518D01*
X61601Y68531D01*
X61541Y68549D01*
X61482Y68570D01*
X61424Y68595D01*
X61368Y68624D01*
X61314Y68656D01*
X61262Y68691D01*
X61213Y68729D01*
X61165Y68771D01*
X61121Y68815D01*
X61079Y68863D01*
X61041Y68912D01*
X61006Y68964D01*
X60974Y69018D01*
X60945Y69074D01*
X60920Y69132D01*
X60899Y69191D01*
X60881Y69251D01*
X60868Y69313D01*
X60858Y69375D01*
X60852Y69437D01*
X60850Y69500D01*
D11*
X54750Y67000D02*
X54750Y75000D01*
X32000Y75000D01*
X54750Y23000D02*
X54750Y15000D01*
X32000Y15000D01*
X12250Y27000D02*
X12250Y63000D01*
D13*
X71573Y65338D02*
X75920Y65338D01*
X75990Y65336D01*
X76059Y65330D01*
X76128Y65320D01*
X76196Y65307D01*
X76264Y65289D01*
X76330Y65268D01*
X76395Y65243D01*
X76459Y65215D01*
X76521Y65183D01*
X76581Y65148D01*
X76639Y65109D01*
X76694Y65067D01*
X76748Y65022D01*
X76798Y64974D01*
X76846Y64924D01*
X76891Y64870D01*
X76933Y64815D01*
X76972Y64757D01*
X77007Y64697D01*
X77039Y64635D01*
X77067Y64571D01*
X77092Y64506D01*
X77113Y64440D01*
X77131Y64372D01*
X77144Y64304D01*
X77154Y64235D01*
X77160Y64166D01*
X77162Y64096D01*
X77161Y64096D02*
X77161Y63475D01*
X72815Y67880D02*
X71573Y69432D01*
X77161Y69432D01*
X77161Y67880D02*
X77161Y70984D01*
X265146Y55604D02*
X266388Y55604D01*
X265146Y55604D02*
X265076Y55606D01*
X265007Y55612D01*
X264938Y55622D01*
X264870Y55635D01*
X264802Y55653D01*
X264736Y55674D01*
X264671Y55699D01*
X264607Y55727D01*
X264545Y55759D01*
X264485Y55794D01*
X264427Y55833D01*
X264372Y55875D01*
X264318Y55920D01*
X264268Y55968D01*
X264220Y56018D01*
X264175Y56072D01*
X264133Y56127D01*
X264094Y56185D01*
X264059Y56245D01*
X264027Y56307D01*
X263999Y56371D01*
X263974Y56436D01*
X263953Y56502D01*
X263935Y56570D01*
X263922Y56638D01*
X263912Y56707D01*
X263906Y56776D01*
X263904Y56846D01*
X263904Y59950D01*
X263906Y60020D01*
X263912Y60089D01*
X263922Y60158D01*
X263935Y60226D01*
X263953Y60294D01*
X263974Y60360D01*
X263999Y60425D01*
X264027Y60489D01*
X264059Y60551D01*
X264094Y60611D01*
X264133Y60669D01*
X264175Y60724D01*
X264220Y60778D01*
X264268Y60828D01*
X264318Y60876D01*
X264372Y60921D01*
X264427Y60963D01*
X264485Y61002D01*
X264545Y61037D01*
X264607Y61069D01*
X264671Y61097D01*
X264736Y61122D01*
X264802Y61143D01*
X264870Y61161D01*
X264938Y61174D01*
X265007Y61184D01*
X265076Y61190D01*
X265146Y61192D01*
X266388Y61192D01*
X268492Y59950D02*
X270044Y61192D01*
X270044Y55604D01*
X268492Y55604D02*
X271597Y55604D01*
M02*
