G04 EAGLE Gerber RS-274X export*
G75*
%MOMM*%
%FSLAX34Y34*%
%LPD*%
%INBottom Copper*%
%IPPOS*%
%AMOC8*
5,1,8,0,0,1.08239X$1,22.5*%
G01*
%ADD10C,1.950000*%
%ADD11C,1.860000*%
%ADD12C,1.270000*%
%ADD13C,0.756400*%

G36*
X680019Y6100D02*
X680019Y6100D01*
X680059Y6099D01*
X682117Y6261D01*
X682131Y6264D01*
X682145Y6264D01*
X682289Y6295D01*
X686203Y7567D01*
X686242Y7587D01*
X686285Y7599D01*
X686412Y7674D01*
X689742Y10093D01*
X689773Y10124D01*
X689809Y10148D01*
X689907Y10258D01*
X692326Y13588D01*
X692346Y13627D01*
X692374Y13661D01*
X692433Y13797D01*
X693705Y17711D01*
X693707Y17725D01*
X693713Y17738D01*
X693739Y17883D01*
X693901Y19941D01*
X693899Y19960D01*
X693903Y20000D01*
X693903Y260000D01*
X693900Y260019D01*
X693901Y260059D01*
X693739Y262117D01*
X693736Y262131D01*
X693736Y262145D01*
X693705Y262289D01*
X692433Y266203D01*
X692413Y266242D01*
X692401Y266285D01*
X692326Y266412D01*
X689907Y269742D01*
X689876Y269773D01*
X689852Y269809D01*
X689742Y269907D01*
X686412Y272326D01*
X686373Y272346D01*
X686339Y272374D01*
X686203Y272433D01*
X682289Y273705D01*
X682275Y273707D01*
X682262Y273713D01*
X682117Y273739D01*
X680059Y273901D01*
X680040Y273899D01*
X680000Y273903D01*
X350000Y273903D01*
X349976Y273899D01*
X349951Y273902D01*
X349856Y273880D01*
X349759Y273864D01*
X349738Y273852D01*
X349714Y273846D01*
X349630Y273795D01*
X349544Y273749D01*
X349527Y273731D01*
X349506Y273718D01*
X349444Y273642D01*
X349377Y273571D01*
X349367Y273548D01*
X349352Y273529D01*
X349317Y273438D01*
X349276Y273348D01*
X349274Y273324D01*
X349265Y273301D01*
X349251Y273154D01*
X349251Y6846D01*
X349255Y6822D01*
X349252Y6797D01*
X349275Y6702D01*
X349290Y6605D01*
X349302Y6584D01*
X349308Y6560D01*
X349359Y6476D01*
X349405Y6390D01*
X349423Y6373D01*
X349436Y6352D01*
X349512Y6290D01*
X349584Y6223D01*
X349606Y6213D01*
X349625Y6197D01*
X349716Y6163D01*
X349806Y6122D01*
X349830Y6120D01*
X349853Y6111D01*
X350000Y6097D01*
X680000Y6097D01*
X680019Y6100D01*
G37*
%LPC*%
G36*
X666798Y233903D02*
X666798Y233903D01*
X660882Y236354D01*
X656354Y240882D01*
X653903Y246798D01*
X653903Y253202D01*
X656354Y259118D01*
X660882Y263646D01*
X666798Y266097D01*
X673202Y266097D01*
X679118Y263646D01*
X683646Y259118D01*
X686097Y253202D01*
X686097Y246798D01*
X683646Y240882D01*
X679118Y236354D01*
X673202Y233903D01*
X666798Y233903D01*
G37*
%LPD*%
%LPC*%
G36*
X666798Y13903D02*
X666798Y13903D01*
X660882Y16354D01*
X656354Y20882D01*
X653903Y26798D01*
X653903Y33202D01*
X656354Y39118D01*
X660882Y43646D01*
X666798Y46097D01*
X673202Y46097D01*
X679118Y43646D01*
X683646Y39118D01*
X686097Y33202D01*
X686097Y26798D01*
X683646Y20882D01*
X679118Y16354D01*
X673202Y13903D01*
X666798Y13903D01*
G37*
%LPD*%
%LPC*%
G36*
X651848Y139153D02*
X651848Y139153D01*
X646024Y141566D01*
X641566Y146024D01*
X639153Y151848D01*
X639153Y158152D01*
X641566Y163976D01*
X646024Y168434D01*
X651848Y170847D01*
X658152Y170847D01*
X663976Y168434D01*
X668434Y163976D01*
X670847Y158152D01*
X670847Y151848D01*
X668434Y146024D01*
X663976Y141566D01*
X658152Y139153D01*
X651848Y139153D01*
G37*
%LPD*%
%LPC*%
G36*
X565237Y98403D02*
X565237Y98403D01*
X559578Y100747D01*
X555247Y105078D01*
X552903Y110737D01*
X552903Y116863D01*
X555247Y122522D01*
X559578Y126853D01*
X565237Y129197D01*
X571363Y129197D01*
X577022Y126853D01*
X581353Y122522D01*
X583697Y116863D01*
X583697Y110737D01*
X581353Y105078D01*
X577022Y100747D01*
X571363Y98403D01*
X565237Y98403D01*
G37*
%LPD*%
%LPC*%
G36*
X656499Y106499D02*
X656499Y106499D01*
X656499Y119697D01*
X658454Y119387D01*
X660662Y118670D01*
X662731Y117616D01*
X664609Y116251D01*
X666251Y114609D01*
X667616Y112731D01*
X668670Y110662D01*
X669387Y108454D01*
X669697Y106499D01*
X656499Y106499D01*
G37*
%LPD*%
%LPC*%
G36*
X640303Y106499D02*
X640303Y106499D01*
X640613Y108454D01*
X641330Y110662D01*
X642384Y112731D01*
X643749Y114609D01*
X645391Y116251D01*
X647269Y117616D01*
X649338Y118670D01*
X651546Y119387D01*
X653501Y119697D01*
X653501Y106499D01*
X640303Y106499D01*
G37*
%LPD*%
%LPC*%
G36*
X656499Y103501D02*
X656499Y103501D01*
X669697Y103501D01*
X669387Y101546D01*
X668670Y99338D01*
X667616Y97269D01*
X666251Y95391D01*
X664609Y93749D01*
X662731Y92384D01*
X660662Y91330D01*
X658454Y90613D01*
X656499Y90303D01*
X656499Y103501D01*
G37*
%LPD*%
%LPC*%
G36*
X651546Y90613D02*
X651546Y90613D01*
X649338Y91330D01*
X647269Y92384D01*
X645391Y93749D01*
X643749Y95391D01*
X642384Y97269D01*
X641330Y99338D01*
X640613Y101546D01*
X640303Y103501D01*
X653501Y103501D01*
X653501Y90303D01*
X651546Y90613D01*
G37*
%LPD*%
%LPC*%
G36*
X569799Y35299D02*
X569799Y35299D01*
X569799Y48042D01*
X571649Y47749D01*
X573790Y47053D01*
X575795Y46031D01*
X577616Y44708D01*
X579208Y43116D01*
X580531Y41295D01*
X581553Y39290D01*
X582249Y37149D01*
X582542Y35299D01*
X569799Y35299D01*
G37*
%LPD*%
%LPC*%
G36*
X554058Y35299D02*
X554058Y35299D01*
X554351Y37149D01*
X555047Y39290D01*
X556069Y41295D01*
X557392Y43116D01*
X558984Y44708D01*
X560805Y46031D01*
X562810Y47053D01*
X564951Y47749D01*
X566801Y48042D01*
X566801Y35299D01*
X554058Y35299D01*
G37*
%LPD*%
%LPC*%
G36*
X569799Y32301D02*
X569799Y32301D01*
X582542Y32301D01*
X582249Y30451D01*
X581553Y28310D01*
X580531Y26305D01*
X579208Y24484D01*
X577616Y22892D01*
X575795Y21569D01*
X573790Y20547D01*
X571649Y19851D01*
X569799Y19558D01*
X569799Y32301D01*
G37*
%LPD*%
%LPC*%
G36*
X564951Y19851D02*
X564951Y19851D01*
X562810Y20547D01*
X560805Y21569D01*
X558984Y22892D01*
X557392Y24484D01*
X556069Y26305D01*
X555047Y28310D01*
X554351Y30451D01*
X554058Y32301D01*
X566801Y32301D01*
X566801Y19558D01*
X564951Y19851D01*
G37*
%LPD*%
%LPC*%
G36*
X654999Y104999D02*
X654999Y104999D01*
X654999Y105001D01*
X655001Y105001D01*
X655001Y104999D01*
X654999Y104999D01*
G37*
%LPD*%
%LPC*%
G36*
X568299Y33799D02*
X568299Y33799D01*
X568299Y33801D01*
X568301Y33801D01*
X568301Y33799D01*
X568299Y33799D01*
G37*
%LPD*%
D10*
X40000Y155000D03*
X40000Y105000D03*
X655000Y105000D03*
X655000Y155000D03*
D11*
X118300Y33800D03*
X118300Y241800D03*
X568300Y33800D03*
X568300Y113800D03*
D12*
X45000Y155000D02*
X40000Y155000D01*
X118300Y228300D02*
X118300Y241800D01*
X118300Y228300D02*
X45000Y155000D01*
D13*
X355600Y254000D03*
X406400Y254000D03*
X457200Y254000D03*
X508000Y254000D03*
X558800Y254000D03*
X609600Y254000D03*
X355600Y203200D03*
X355600Y152400D03*
X355600Y101600D03*
X355600Y50800D03*
X406400Y25400D03*
X457200Y25400D03*
X508000Y25400D03*
X609600Y25400D03*
D12*
X568300Y33800D02*
X568300Y53300D01*
X620000Y105000D02*
X655000Y105000D01*
X620000Y105000D02*
X568300Y53300D01*
X47100Y105000D02*
X40000Y105000D01*
X47100Y105000D02*
X118300Y33800D01*
M02*
