M48
;GenerationSoftware,Autodesk,EAGLE,9.6.2*%
;CreationDate,2025-03-14T00:17:13Z*%
FMAT,2
ICI,OFF
METRIC,TZ,000.000
T5C0.350
T4C0.700
T3C1.000
T2C1.200
T1C2.500
%
G90
M71
T1
X2000Y66000
X25000Y66000
X2000Y16000
T2
X3660Y71900
X15020Y76900
X25020Y71900
X25020Y76900
X22520Y71900
X22520Y76900
X20020Y71900
X20020Y76900
X17520Y71900
X17520Y76900
X15020Y71900
X11160Y71900
X11160Y76900
X8660Y71900
X8660Y76900
X6160Y71900
X6160Y76900
X3660Y76900
X1160Y71900
X1160Y76900
T3
X8250Y41750
X12750Y54250
X19250Y54250
X12750Y49750
X19250Y49750
X1750Y46250
X8250Y46250
X1750Y41750
T4
X24870Y49700
X24870Y48430
X24870Y47160
X23600Y52240
X23600Y50970
X23600Y49700
X23600Y48430
X23600Y47160
X24870Y52240
X24870Y50970
T5
X1000Y51000
X1000Y52000
X1000Y53000
X1000Y54000
X1000Y55000
X1000Y56000
X1000Y57000
X1000Y58000
X1000Y63500
X1000Y62500
X1000Y68500
X1000Y69500
X1000Y74000
X1000Y75000
X1000Y79000
X2000Y79000
X3000Y79000
X4000Y79000
X5000Y79000
X6000Y79000
X7000Y79000
X8000Y79000
X9000Y79000
X10000Y79000
X11000Y79000
X12000Y79000
X13000Y79000
X14000Y79000
X15000Y79000
X16000Y79000
X17000Y79000
X18000Y79000
X19000Y79000
X20000Y79000
X21000Y79000
X22000Y79000
X23000Y79000
X24000Y79000
X25000Y79000
X26000Y79000
X26000Y75500
X26000Y74500
X26000Y73500
X26000Y70500
X26000Y69500
X26000Y68500
X26000Y61000
X26000Y60000
X26000Y59000
X26000Y58000
X26000Y55500
X26000Y54500
X26000Y53500
X26000Y52500
X26000Y51500
X26000Y50500
X26000Y49500
X26000Y48500
X26000Y47500
X26000Y46500
X25500Y45500
X26000Y12500
X26000Y13500
X26000Y14500
X26000Y15500
X26000Y16500
X26000Y17500
X26000Y18500
X26000Y27000
X26000Y28000
X26000Y29000
X26000Y31500
X26000Y32500
X7600Y66500
X9100Y68800
X8500Y66500
X12300Y64100
X12500Y66500
X15600Y65900
X15600Y66800
X9000Y63000
X8700Y64000
X1000Y24500
X9500Y61000
X9500Y62000
X10000Y57000
X11000Y56000
X17300Y45600
X13900Y41300
X12500Y40900
X17300Y40500
X21500Y40500
X24000Y44400
X26400Y39500
X26400Y38600
X26400Y37700
X26400Y36800
X9000Y51600
X10000Y52500
X6700Y59900
X20100Y65100
X20100Y64000
X9100Y43100
X7700Y40400
X15100Y41200
X12500Y47300
X14800Y48900
X14800Y43200
X14100Y46600
X16700Y63600
X3000Y32900
X14600Y56300
X25500Y44100
X6600Y55100
X2900Y50300
X14245Y47555
X10400Y53300
X20000Y56900
X21900Y56800
X21100Y62000
X18100Y69600
X21700Y69600
X10300Y61700
X11700Y46700
X5800Y27500
X5800Y28500
X3100Y24100
X1300Y37400
X11150Y40234
X13300Y46600
X16729Y65171
X16000Y64000
X9200Y55600
X25200Y30700
X18600Y45500
X25200Y32900
X20000Y45500
X26400Y34000
X20628Y44972
X2400Y36300
X8700Y50700
X25200Y26400
X15900Y41400
X25200Y27400
X16600Y41100
X26000Y63500
X3100Y26300
X4800Y40700
X3123Y25200
X2900Y35500
X3000Y34000
X25200Y31800
X19300Y45000
X25700Y25800
X15100Y40400
X26042Y23058
X14500Y42300
X25200Y22300
X12992Y40292
X25200Y28500
X17975Y45000
X3100Y30700
X5721Y30800
X25200Y29600
X3000Y19700
X3000Y20800
X3000Y21900
X25400Y19700
X25400Y20800
X25300Y21500
X3500Y39000
X2500Y40500
X24000Y39600
X24900Y39600
X24000Y43500
X6700Y61000
X1500Y38500
X3100Y29500
X5700Y38400
X3100Y28600
X22800Y29700
X5800Y29600
X26400Y26200
X26100Y35900
X25300Y35900
X1000Y12500
X1000Y13500
X1000Y18500
X1000Y19500
X1000Y20500
X1000Y21500
X1000Y22500
X1000Y23500
X1000Y25500
X1000Y26500
X1000Y29000
X11400Y60150
X11400Y59050
X1000Y32000
X1500Y34500
X1500Y39500
X5500Y39500
X2200Y43300
X3200Y44300
X1000Y49500
X3600Y40900
M30