M48
;GenerationSoftware,Autodesk,EAGLE,9.6.2*%
;CreationDate,2025-01-15T00:54:22Z*%
FMAT,2
ICI,OFF
METRIC,TZ,000.000
T4C0.350
T3C1.240
T2C1.300
T1C2.000
%
G90
M71
T1
X3000Y25000
X3000Y3000
X67000Y25000
X67000Y3000
T2
X4000Y15500
X4000Y10500
X65500Y10500
X65500Y15500
T3
X11830Y3380
X11830Y24180
X56830Y3380
X56830Y11380
T4
X35560Y25400
X40640Y25400
X45720Y25400
X50800Y25400
X55880Y25400
X60960Y25400
X35560Y20320
X35560Y15240
X35560Y10160
X35560Y5080
X40640Y2540
X45720Y2540
X50800Y2540
X60960Y2540
M30