G04 EAGLE Gerber RS-274X export*
G75*
%MOMM*%
%FSLAX34Y34*%
%LPD*%
%INBottom Copper*%
%IPPOS*%
%AMOC8*
5,1,8,0,0,1.08239X$1,22.5*%
G01*
%ADD10C,1.800000*%
%ADD11C,1.050000*%
%ADD12C,1.200000*%
%ADD13C,0.700000*%
%ADD14C,1.930400*%
%ADD15C,0.600000*%
%ADD16C,0.254000*%
%ADD17C,0.406400*%
%ADD18C,0.304800*%
%ADD19C,0.609600*%
%ADD20C,0.150000*%

G36*
X259750Y343825D02*
X259750Y343825D01*
X259841Y343833D01*
X259870Y343845D01*
X259902Y343850D01*
X259983Y343893D01*
X260067Y343929D01*
X260099Y343955D01*
X260120Y343966D01*
X260142Y343989D01*
X260198Y344034D01*
X260861Y344697D01*
X262898Y345541D01*
X265102Y345541D01*
X266407Y345000D01*
X266451Y344990D01*
X266493Y344971D01*
X266570Y344962D01*
X266646Y344944D01*
X266692Y344948D01*
X266737Y344943D01*
X266814Y344960D01*
X266891Y344967D01*
X266933Y344986D01*
X266978Y344996D01*
X267045Y345036D01*
X267116Y345067D01*
X267150Y345098D01*
X267189Y345122D01*
X267240Y345181D01*
X267297Y345234D01*
X267319Y345274D01*
X267349Y345309D01*
X267378Y345381D01*
X267415Y345449D01*
X267424Y345494D01*
X267441Y345537D01*
X267456Y345673D01*
X267459Y345691D01*
X267458Y345696D01*
X267459Y345704D01*
X267459Y796698D01*
X267456Y796718D01*
X267458Y796737D01*
X267436Y796839D01*
X267420Y796941D01*
X267410Y796958D01*
X267406Y796978D01*
X267353Y797067D01*
X267304Y797158D01*
X267290Y797172D01*
X267280Y797189D01*
X267201Y797256D01*
X267126Y797328D01*
X267108Y797336D01*
X267093Y797349D01*
X266997Y797388D01*
X266903Y797431D01*
X266883Y797433D01*
X266865Y797441D01*
X266698Y797459D01*
X3302Y797459D01*
X3282Y797456D01*
X3263Y797458D01*
X3161Y797436D01*
X3059Y797420D01*
X3042Y797410D01*
X3022Y797406D01*
X2933Y797353D01*
X2842Y797304D01*
X2828Y797290D01*
X2811Y797280D01*
X2744Y797201D01*
X2672Y797126D01*
X2664Y797108D01*
X2651Y797093D01*
X2612Y796997D01*
X2569Y796903D01*
X2567Y796883D01*
X2559Y796865D01*
X2541Y796698D01*
X2541Y777336D01*
X2552Y777265D01*
X2554Y777193D01*
X2572Y777145D01*
X2580Y777093D01*
X2614Y777030D01*
X2639Y776962D01*
X2671Y776922D01*
X2696Y776876D01*
X2747Y776826D01*
X2792Y776770D01*
X2836Y776742D01*
X2874Y776706D01*
X2939Y776676D01*
X2999Y776637D01*
X3050Y776625D01*
X3097Y776603D01*
X3168Y776595D01*
X3238Y776577D01*
X3290Y776581D01*
X3341Y776576D01*
X3412Y776591D01*
X3483Y776597D01*
X3531Y776617D01*
X3582Y776628D01*
X3643Y776665D01*
X3709Y776693D01*
X3765Y776738D01*
X3793Y776754D01*
X3808Y776772D01*
X3840Y776798D01*
X4434Y777391D01*
X5834Y778409D01*
X7377Y779195D01*
X9024Y779730D01*
X10077Y779897D01*
X10077Y769762D01*
X10080Y769742D01*
X10078Y769723D01*
X10100Y769621D01*
X10117Y769519D01*
X10126Y769502D01*
X10130Y769482D01*
X10183Y769393D01*
X10232Y769302D01*
X10246Y769288D01*
X10256Y769271D01*
X10335Y769204D01*
X10410Y769133D01*
X10428Y769124D01*
X10443Y769111D01*
X10539Y769073D01*
X10633Y769029D01*
X10653Y769027D01*
X10671Y769019D01*
X10838Y769001D01*
X11601Y769001D01*
X11601Y768999D01*
X10838Y768999D01*
X10818Y768996D01*
X10799Y768998D01*
X10697Y768976D01*
X10595Y768959D01*
X10578Y768950D01*
X10558Y768946D01*
X10469Y768893D01*
X10378Y768844D01*
X10364Y768830D01*
X10347Y768820D01*
X10280Y768741D01*
X10209Y768666D01*
X10200Y768648D01*
X10187Y768633D01*
X10148Y768537D01*
X10105Y768443D01*
X10103Y768423D01*
X10095Y768405D01*
X10077Y768238D01*
X10077Y758103D01*
X9024Y758270D01*
X7377Y758805D01*
X5834Y759591D01*
X4434Y760609D01*
X3840Y761202D01*
X3782Y761244D01*
X3730Y761294D01*
X3683Y761316D01*
X3641Y761346D01*
X3572Y761367D01*
X3507Y761397D01*
X3455Y761403D01*
X3405Y761418D01*
X3334Y761416D01*
X3263Y761424D01*
X3212Y761413D01*
X3160Y761412D01*
X3092Y761387D01*
X3022Y761372D01*
X2977Y761345D01*
X2929Y761327D01*
X2873Y761283D01*
X2811Y761246D01*
X2777Y761206D01*
X2737Y761174D01*
X2698Y761113D01*
X2651Y761059D01*
X2632Y761011D01*
X2604Y760967D01*
X2586Y760897D01*
X2559Y760831D01*
X2551Y760760D01*
X2543Y760728D01*
X2545Y760705D01*
X2541Y760664D01*
X2541Y727336D01*
X2552Y727265D01*
X2554Y727193D01*
X2572Y727145D01*
X2580Y727093D01*
X2614Y727030D01*
X2639Y726962D01*
X2671Y726922D01*
X2696Y726876D01*
X2747Y726826D01*
X2792Y726770D01*
X2836Y726742D01*
X2874Y726706D01*
X2939Y726676D01*
X2999Y726637D01*
X3050Y726625D01*
X3097Y726603D01*
X3168Y726595D01*
X3238Y726577D01*
X3290Y726581D01*
X3341Y726576D01*
X3412Y726591D01*
X3483Y726597D01*
X3531Y726617D01*
X3582Y726628D01*
X3643Y726665D01*
X3709Y726693D01*
X3765Y726738D01*
X3793Y726754D01*
X3808Y726772D01*
X3840Y726798D01*
X4434Y727391D01*
X5834Y728409D01*
X7377Y729195D01*
X9024Y729730D01*
X10077Y729897D01*
X10077Y719762D01*
X10080Y719742D01*
X10078Y719723D01*
X10100Y719621D01*
X10117Y719519D01*
X10126Y719502D01*
X10130Y719482D01*
X10183Y719393D01*
X10232Y719302D01*
X10246Y719288D01*
X10256Y719271D01*
X10335Y719204D01*
X10410Y719133D01*
X10428Y719124D01*
X10443Y719111D01*
X10539Y719073D01*
X10633Y719029D01*
X10653Y719027D01*
X10671Y719019D01*
X10838Y719001D01*
X11601Y719001D01*
X11601Y718999D01*
X10838Y718999D01*
X10818Y718996D01*
X10799Y718998D01*
X10697Y718976D01*
X10595Y718959D01*
X10578Y718950D01*
X10558Y718946D01*
X10469Y718893D01*
X10378Y718844D01*
X10364Y718830D01*
X10347Y718820D01*
X10280Y718741D01*
X10209Y718666D01*
X10200Y718648D01*
X10187Y718633D01*
X10148Y718537D01*
X10105Y718443D01*
X10103Y718423D01*
X10095Y718405D01*
X10077Y718238D01*
X10077Y708103D01*
X9024Y708270D01*
X7377Y708805D01*
X5834Y709591D01*
X4434Y710609D01*
X3840Y711202D01*
X3782Y711244D01*
X3730Y711294D01*
X3683Y711316D01*
X3641Y711346D01*
X3572Y711367D01*
X3507Y711397D01*
X3455Y711403D01*
X3405Y711418D01*
X3334Y711416D01*
X3263Y711424D01*
X3212Y711413D01*
X3160Y711412D01*
X3092Y711387D01*
X3022Y711372D01*
X2977Y711345D01*
X2929Y711327D01*
X2873Y711283D01*
X2811Y711246D01*
X2777Y711206D01*
X2737Y711174D01*
X2698Y711113D01*
X2651Y711059D01*
X2632Y711011D01*
X2604Y710967D01*
X2586Y710897D01*
X2559Y710831D01*
X2551Y710760D01*
X2543Y710728D01*
X2545Y710705D01*
X2541Y710664D01*
X2541Y435127D01*
X2542Y435120D01*
X2542Y435118D01*
X2543Y435110D01*
X2552Y435056D01*
X2554Y434984D01*
X2572Y434936D01*
X2580Y434884D01*
X2614Y434821D01*
X2639Y434753D01*
X2671Y434713D01*
X2696Y434667D01*
X2748Y434617D01*
X2792Y434561D01*
X2836Y434533D01*
X2874Y434497D01*
X2939Y434467D01*
X2999Y434428D01*
X3050Y434416D01*
X3097Y434394D01*
X3168Y434386D01*
X3238Y434368D01*
X3290Y434372D01*
X3341Y434367D01*
X3412Y434382D01*
X3483Y434388D01*
X3531Y434408D01*
X3582Y434419D01*
X3643Y434456D01*
X3709Y434484D01*
X3765Y434529D01*
X3793Y434545D01*
X3808Y434563D01*
X3840Y434589D01*
X18800Y449549D01*
X18853Y449623D01*
X18913Y449692D01*
X18925Y449722D01*
X18944Y449748D01*
X18971Y449835D01*
X19005Y449920D01*
X19009Y449961D01*
X19016Y449983D01*
X19015Y450016D01*
X19023Y450087D01*
X19023Y460977D01*
X29913Y460977D01*
X30003Y460992D01*
X30094Y460999D01*
X30124Y461011D01*
X30156Y461017D01*
X30236Y461059D01*
X30320Y461095D01*
X30352Y461121D01*
X30373Y461132D01*
X30395Y461155D01*
X30451Y461200D01*
X82236Y512985D01*
X82289Y513059D01*
X82349Y513128D01*
X82361Y513158D01*
X82380Y513184D01*
X82407Y513271D01*
X82441Y513356D01*
X82445Y513397D01*
X82452Y513420D01*
X82451Y513452D01*
X82459Y513523D01*
X82459Y514102D01*
X83303Y516139D01*
X84861Y517697D01*
X86898Y518541D01*
X89102Y518541D01*
X91139Y517697D01*
X92697Y516139D01*
X93541Y514102D01*
X93541Y511898D01*
X92697Y509861D01*
X91139Y508303D01*
X89102Y507459D01*
X88523Y507459D01*
X88433Y507445D01*
X88342Y507437D01*
X88312Y507425D01*
X88280Y507420D01*
X88200Y507377D01*
X88116Y507341D01*
X88084Y507315D01*
X88063Y507304D01*
X88041Y507281D01*
X87985Y507236D01*
X9871Y429122D01*
X9814Y429043D01*
X9752Y428968D01*
X9742Y428944D01*
X9727Y428923D01*
X9699Y428830D01*
X9664Y428739D01*
X9663Y428713D01*
X9655Y428688D01*
X9657Y428590D01*
X9653Y428493D01*
X9661Y428468D01*
X9661Y428442D01*
X9695Y428350D01*
X9722Y428257D01*
X9737Y428235D01*
X9746Y428211D01*
X9807Y428134D01*
X9862Y428055D01*
X9883Y428039D01*
X9899Y428019D01*
X9981Y427966D01*
X10059Y427908D01*
X10084Y427900D01*
X10106Y427886D01*
X10201Y427862D01*
X10293Y427832D01*
X10320Y427832D01*
X10345Y427826D01*
X10442Y427833D01*
X10539Y427834D01*
X10571Y427843D01*
X10590Y427845D01*
X10620Y427858D01*
X10700Y427881D01*
X15075Y429693D01*
X19925Y429693D01*
X24407Y427836D01*
X27836Y424407D01*
X28188Y423559D01*
X28250Y423459D01*
X28309Y423359D01*
X28314Y423355D01*
X28317Y423350D01*
X28407Y423275D01*
X28496Y423199D01*
X28502Y423197D01*
X28507Y423193D01*
X28615Y423151D01*
X28724Y423107D01*
X28732Y423106D01*
X28736Y423105D01*
X28755Y423104D01*
X28891Y423089D01*
X71109Y423089D01*
X71224Y423108D01*
X71340Y423125D01*
X71346Y423127D01*
X71352Y423128D01*
X71454Y423183D01*
X71559Y423236D01*
X71564Y423241D01*
X71569Y423244D01*
X71649Y423328D01*
X71731Y423412D01*
X71735Y423418D01*
X71738Y423422D01*
X71746Y423439D01*
X71812Y423559D01*
X72164Y424407D01*
X75593Y427836D01*
X80075Y429693D01*
X84925Y429693D01*
X89407Y427836D01*
X92836Y424407D01*
X94693Y419925D01*
X94693Y417920D01*
X94704Y417849D01*
X94706Y417777D01*
X94724Y417728D01*
X94732Y417677D01*
X94766Y417614D01*
X94791Y417546D01*
X94823Y417506D01*
X94848Y417460D01*
X94900Y417410D01*
X94944Y417354D01*
X94988Y417326D01*
X95026Y417290D01*
X95091Y417260D01*
X95151Y417221D01*
X95202Y417209D01*
X95249Y417187D01*
X95320Y417179D01*
X95390Y417161D01*
X95442Y417165D01*
X95493Y417160D01*
X95564Y417175D01*
X95635Y417180D01*
X95683Y417201D01*
X95734Y417212D01*
X95795Y417249D01*
X95861Y417277D01*
X95917Y417321D01*
X95945Y417338D01*
X95960Y417356D01*
X95992Y417381D01*
X161966Y483356D01*
X164422Y485811D01*
X185108Y485811D01*
X185179Y485822D01*
X185251Y485824D01*
X185300Y485842D01*
X185351Y485850D01*
X185414Y485884D01*
X185482Y485909D01*
X185522Y485941D01*
X185568Y485966D01*
X185618Y486018D01*
X185674Y486062D01*
X185702Y486106D01*
X185738Y486144D01*
X185768Y486209D01*
X185807Y486269D01*
X185820Y486320D01*
X185841Y486367D01*
X185849Y486438D01*
X185867Y486508D01*
X185863Y486560D01*
X185869Y486611D01*
X185853Y486682D01*
X185848Y486753D01*
X185827Y486801D01*
X185816Y486852D01*
X185779Y486913D01*
X185751Y486979D01*
X185707Y487035D01*
X185690Y487063D01*
X185672Y487078D01*
X185647Y487110D01*
X182164Y490593D01*
X181812Y491441D01*
X181751Y491541D01*
X181691Y491641D01*
X181686Y491645D01*
X181683Y491650D01*
X181593Y491725D01*
X181504Y491801D01*
X181498Y491803D01*
X181493Y491807D01*
X181385Y491849D01*
X181276Y491893D01*
X181268Y491894D01*
X181264Y491895D01*
X181245Y491896D01*
X181109Y491911D01*
X138891Y491911D01*
X138776Y491892D01*
X138660Y491875D01*
X138654Y491873D01*
X138648Y491872D01*
X138546Y491817D01*
X138441Y491764D01*
X138436Y491759D01*
X138431Y491756D01*
X138351Y491672D01*
X138269Y491588D01*
X138265Y491582D01*
X138262Y491578D01*
X138254Y491561D01*
X138188Y491441D01*
X137836Y490593D01*
X134407Y487164D01*
X129925Y485307D01*
X125075Y485307D01*
X120593Y487164D01*
X117164Y490593D01*
X115307Y495075D01*
X115307Y499925D01*
X117164Y504407D01*
X120593Y507836D01*
X125075Y509693D01*
X129925Y509693D01*
X134407Y507836D01*
X137836Y504407D01*
X138188Y503559D01*
X138249Y503459D01*
X138309Y503359D01*
X138314Y503355D01*
X138317Y503350D01*
X138407Y503275D01*
X138496Y503199D01*
X138502Y503197D01*
X138507Y503193D01*
X138615Y503151D01*
X138724Y503107D01*
X138732Y503106D01*
X138736Y503105D01*
X138755Y503104D01*
X138891Y503089D01*
X181109Y503089D01*
X181224Y503108D01*
X181340Y503125D01*
X181346Y503127D01*
X181352Y503128D01*
X181454Y503183D01*
X181559Y503236D01*
X181564Y503241D01*
X181569Y503244D01*
X181649Y503328D01*
X181731Y503412D01*
X181735Y503418D01*
X181738Y503422D01*
X181746Y503439D01*
X181812Y503559D01*
X182164Y504407D01*
X185593Y507836D01*
X190075Y509693D01*
X194925Y509693D01*
X199407Y507836D01*
X200636Y506607D01*
X200694Y506566D01*
X200746Y506516D01*
X200793Y506494D01*
X200835Y506464D01*
X200904Y506443D01*
X200969Y506413D01*
X201021Y506407D01*
X201071Y506391D01*
X201142Y506393D01*
X201213Y506385D01*
X201264Y506397D01*
X201316Y506398D01*
X201384Y506422D01*
X201454Y506438D01*
X201499Y506464D01*
X201547Y506482D01*
X201603Y506527D01*
X201665Y506564D01*
X201699Y506603D01*
X201739Y506636D01*
X201778Y506696D01*
X201825Y506751D01*
X201844Y506799D01*
X201872Y506843D01*
X201890Y506912D01*
X201917Y506979D01*
X201925Y507050D01*
X201933Y507081D01*
X201931Y507105D01*
X201935Y507146D01*
X201935Y516684D01*
X207136Y521885D01*
X207189Y521959D01*
X207249Y522028D01*
X207261Y522058D01*
X207280Y522084D01*
X207307Y522171D01*
X207341Y522256D01*
X207345Y522297D01*
X207352Y522320D01*
X207351Y522352D01*
X207356Y522390D01*
X208660Y525538D01*
X211062Y527940D01*
X214201Y529241D01*
X217599Y529241D01*
X220738Y527940D01*
X222245Y526434D01*
X222319Y526381D01*
X222388Y526321D01*
X222418Y526309D01*
X222444Y526290D01*
X222531Y526263D01*
X222616Y526229D01*
X222657Y526225D01*
X222680Y526218D01*
X222712Y526219D01*
X222783Y526211D01*
X228637Y526211D01*
X228752Y526230D01*
X228868Y526247D01*
X228874Y526249D01*
X228880Y526250D01*
X228983Y526305D01*
X229087Y526358D01*
X229092Y526363D01*
X229097Y526366D01*
X229178Y526450D01*
X229260Y526534D01*
X229263Y526540D01*
X229267Y526544D01*
X229275Y526561D01*
X229340Y526681D01*
X229395Y526813D01*
X231587Y529005D01*
X234450Y530191D01*
X237550Y530191D01*
X240413Y529005D01*
X241812Y527606D01*
X241828Y527594D01*
X241840Y527579D01*
X241928Y527523D01*
X242011Y527463D01*
X242030Y527457D01*
X242047Y527446D01*
X242148Y527421D01*
X242247Y527390D01*
X242266Y527391D01*
X242286Y527386D01*
X242389Y527394D01*
X242492Y527397D01*
X242511Y527403D01*
X242531Y527405D01*
X242626Y527445D01*
X242723Y527481D01*
X242739Y527493D01*
X242757Y527501D01*
X242888Y527606D01*
X244287Y529005D01*
X247150Y530191D01*
X250250Y530191D01*
X253113Y529005D01*
X255305Y526813D01*
X256491Y523950D01*
X256491Y520850D01*
X255305Y517987D01*
X253906Y516588D01*
X253894Y516572D01*
X253879Y516560D01*
X253823Y516472D01*
X253763Y516389D01*
X253757Y516370D01*
X253746Y516353D01*
X253721Y516252D01*
X253690Y516153D01*
X253691Y516134D01*
X253686Y516114D01*
X253694Y516011D01*
X253697Y515908D01*
X253703Y515889D01*
X253705Y515869D01*
X253745Y515774D01*
X253781Y515677D01*
X253793Y515661D01*
X253801Y515643D01*
X253906Y515512D01*
X255305Y514113D01*
X256491Y511250D01*
X256491Y508150D01*
X255305Y505287D01*
X253524Y503506D01*
X253513Y503490D01*
X253497Y503478D01*
X253441Y503391D01*
X253381Y503307D01*
X253375Y503288D01*
X253364Y503271D01*
X253339Y503171D01*
X253308Y503072D01*
X253309Y503052D01*
X253304Y503032D01*
X253312Y502929D01*
X253315Y502826D01*
X253322Y502807D01*
X253323Y502787D01*
X253363Y502692D01*
X253399Y502595D01*
X253412Y502579D01*
X253419Y502561D01*
X253524Y502430D01*
X254332Y501622D01*
X255126Y500434D01*
X255672Y499115D01*
X255790Y498523D01*
X249462Y498523D01*
X249442Y498520D01*
X249423Y498522D01*
X249321Y498500D01*
X249219Y498483D01*
X249202Y498474D01*
X249182Y498470D01*
X249093Y498417D01*
X249002Y498368D01*
X248988Y498354D01*
X248971Y498344D01*
X248904Y498265D01*
X248833Y498190D01*
X248824Y498172D01*
X248811Y498157D01*
X248773Y498061D01*
X248729Y497967D01*
X248727Y497947D01*
X248719Y497929D01*
X248701Y497762D01*
X248701Y496999D01*
X247938Y496999D01*
X247918Y496996D01*
X247899Y496998D01*
X247797Y496976D01*
X247695Y496959D01*
X247678Y496950D01*
X247658Y496946D01*
X247569Y496893D01*
X247478Y496844D01*
X247464Y496830D01*
X247447Y496820D01*
X247380Y496741D01*
X247309Y496666D01*
X247300Y496648D01*
X247287Y496633D01*
X247248Y496537D01*
X247205Y496443D01*
X247203Y496423D01*
X247195Y496405D01*
X247177Y496238D01*
X247177Y485062D01*
X247180Y485042D01*
X247178Y485023D01*
X247200Y484921D01*
X247217Y484819D01*
X247226Y484802D01*
X247230Y484782D01*
X247283Y484693D01*
X247332Y484602D01*
X247346Y484588D01*
X247356Y484571D01*
X247435Y484504D01*
X247510Y484433D01*
X247528Y484424D01*
X247543Y484411D01*
X247639Y484373D01*
X247733Y484329D01*
X247753Y484327D01*
X247771Y484319D01*
X247938Y484301D01*
X248701Y484301D01*
X248701Y483538D01*
X248704Y483518D01*
X248702Y483499D01*
X248724Y483397D01*
X248741Y483295D01*
X248750Y483278D01*
X248754Y483258D01*
X248807Y483169D01*
X248856Y483078D01*
X248870Y483064D01*
X248880Y483047D01*
X248959Y482980D01*
X249034Y482909D01*
X249052Y482900D01*
X249067Y482887D01*
X249163Y482848D01*
X249257Y482805D01*
X249277Y482803D01*
X249295Y482795D01*
X249462Y482777D01*
X255790Y482777D01*
X255672Y482185D01*
X255126Y480866D01*
X254332Y479678D01*
X253524Y478870D01*
X253513Y478854D01*
X253497Y478841D01*
X253441Y478754D01*
X253381Y478670D01*
X253375Y478651D01*
X253364Y478635D01*
X253339Y478534D01*
X253308Y478435D01*
X253309Y478415D01*
X253304Y478396D01*
X253312Y478293D01*
X253315Y478189D01*
X253322Y478171D01*
X253323Y478151D01*
X253363Y478056D01*
X253399Y477958D01*
X253412Y477943D01*
X253419Y477924D01*
X253524Y477794D01*
X255305Y476013D01*
X256491Y473150D01*
X256491Y470050D01*
X255305Y467187D01*
X254034Y465916D01*
X253981Y465842D01*
X253921Y465773D01*
X253909Y465742D01*
X253890Y465716D01*
X253863Y465629D01*
X253829Y465544D01*
X253825Y465503D01*
X253818Y465481D01*
X253819Y465449D01*
X253811Y465378D01*
X253811Y462422D01*
X232078Y440689D01*
X224075Y440689D01*
X223960Y440671D01*
X223844Y440653D01*
X223838Y440651D01*
X223832Y440650D01*
X223729Y440595D01*
X223624Y440542D01*
X223620Y440537D01*
X223614Y440534D01*
X223534Y440450D01*
X223452Y440366D01*
X223449Y440360D01*
X223445Y440356D01*
X223437Y440339D01*
X223371Y440219D01*
X223140Y439662D01*
X220738Y437260D01*
X217599Y435959D01*
X214201Y435959D01*
X211032Y437272D01*
X211000Y437303D01*
X210953Y437324D01*
X210911Y437355D01*
X210842Y437376D01*
X210777Y437406D01*
X210725Y437412D01*
X210676Y437427D01*
X210604Y437425D01*
X210533Y437433D01*
X210482Y437422D01*
X210430Y437421D01*
X210362Y437396D01*
X210292Y437381D01*
X210248Y437354D01*
X210199Y437336D01*
X210143Y437292D01*
X210081Y437255D01*
X210047Y437215D01*
X210007Y437183D01*
X209968Y437122D01*
X209921Y437068D01*
X209902Y437020D01*
X209874Y436976D01*
X209856Y436906D01*
X209829Y436840D01*
X209821Y436769D01*
X209813Y436737D01*
X209815Y436714D01*
X209811Y436673D01*
X209811Y351894D01*
X209825Y351804D01*
X209833Y351713D01*
X209845Y351683D01*
X209850Y351651D01*
X209893Y351570D01*
X209929Y351486D01*
X209955Y351454D01*
X209966Y351434D01*
X209989Y351411D01*
X210034Y351356D01*
X217356Y344034D01*
X217429Y343981D01*
X217499Y343921D01*
X217529Y343909D01*
X217555Y343890D01*
X217642Y343863D01*
X217727Y343829D01*
X217768Y343825D01*
X217790Y343818D01*
X217823Y343819D01*
X217894Y343811D01*
X259660Y343811D01*
X259750Y343825D01*
G37*
G36*
X39218Y119242D02*
X39218Y119242D01*
X39237Y119240D01*
X39339Y119262D01*
X39441Y119278D01*
X39458Y119288D01*
X39478Y119292D01*
X39567Y119345D01*
X39658Y119394D01*
X39672Y119408D01*
X39689Y119418D01*
X39756Y119497D01*
X39828Y119572D01*
X39836Y119590D01*
X39849Y119605D01*
X39888Y119701D01*
X39931Y119795D01*
X39933Y119815D01*
X39941Y119833D01*
X39959Y120000D01*
X39959Y120152D01*
X41448Y121641D01*
X243552Y121641D01*
X245041Y120152D01*
X245041Y120000D01*
X245044Y119980D01*
X245042Y119961D01*
X245064Y119859D01*
X245080Y119757D01*
X245090Y119740D01*
X245094Y119720D01*
X245147Y119631D01*
X245196Y119540D01*
X245210Y119526D01*
X245220Y119509D01*
X245299Y119442D01*
X245374Y119371D01*
X245392Y119362D01*
X245407Y119349D01*
X245503Y119310D01*
X245597Y119267D01*
X245617Y119265D01*
X245635Y119257D01*
X245802Y119239D01*
X266698Y119239D01*
X266718Y119242D01*
X266737Y119240D01*
X266839Y119262D01*
X266941Y119279D01*
X266958Y119288D01*
X266978Y119292D01*
X267067Y119345D01*
X267158Y119394D01*
X267172Y119408D01*
X267189Y119418D01*
X267256Y119497D01*
X267328Y119572D01*
X267336Y119590D01*
X267349Y119605D01*
X267388Y119701D01*
X267431Y119795D01*
X267433Y119815D01*
X267441Y119833D01*
X267459Y120000D01*
X267459Y245296D01*
X267452Y245342D01*
X267454Y245387D01*
X267432Y245462D01*
X267420Y245539D01*
X267398Y245580D01*
X267385Y245624D01*
X267341Y245688D01*
X267304Y245756D01*
X267271Y245788D01*
X267245Y245826D01*
X267182Y245872D01*
X267126Y245926D01*
X267084Y245945D01*
X267048Y245973D01*
X266974Y245997D01*
X266903Y246029D01*
X266857Y246035D01*
X266814Y246049D01*
X266736Y246048D01*
X266659Y246057D01*
X266614Y246047D01*
X266568Y246046D01*
X266436Y246008D01*
X266418Y246004D01*
X266414Y246002D01*
X266407Y246000D01*
X265102Y245459D01*
X262898Y245459D01*
X260861Y246303D01*
X260198Y246966D01*
X260124Y247019D01*
X260054Y247079D01*
X260024Y247091D01*
X259998Y247110D01*
X259911Y247137D01*
X259826Y247171D01*
X259785Y247175D01*
X259763Y247182D01*
X259731Y247181D01*
X259660Y247189D01*
X230422Y247189D01*
X145189Y332422D01*
X145189Y416660D01*
X145175Y416750D01*
X145167Y416841D01*
X145155Y416870D01*
X145150Y416902D01*
X145107Y416983D01*
X145071Y417067D01*
X145045Y417099D01*
X145034Y417120D01*
X145011Y417142D01*
X144966Y417198D01*
X144303Y417861D01*
X143459Y419898D01*
X143459Y422102D01*
X144303Y424139D01*
X145861Y425697D01*
X147898Y426541D01*
X150102Y426541D01*
X152139Y425697D01*
X153697Y424139D01*
X154541Y422102D01*
X154541Y419864D01*
X154535Y419849D01*
X154533Y419797D01*
X154521Y419747D01*
X154528Y419675D01*
X154525Y419604D01*
X154539Y419554D01*
X154544Y419502D01*
X154573Y419436D01*
X154593Y419367D01*
X154623Y419325D01*
X154644Y419277D01*
X154693Y419224D01*
X154734Y419165D01*
X154775Y419134D01*
X154811Y419096D01*
X154873Y419061D01*
X154931Y419019D01*
X154980Y419002D01*
X155026Y418977D01*
X155097Y418965D01*
X155165Y418942D01*
X155217Y418943D01*
X155268Y418934D01*
X155339Y418944D01*
X155411Y418945D01*
X155480Y418965D01*
X155511Y418969D01*
X155532Y418980D01*
X155572Y418991D01*
X156898Y419541D01*
X159102Y419541D01*
X161139Y418697D01*
X162697Y417139D01*
X162940Y416554D01*
X162950Y416537D01*
X162956Y416517D01*
X163014Y416433D01*
X163069Y416344D01*
X163085Y416332D01*
X163096Y416315D01*
X163179Y416254D01*
X163259Y416188D01*
X163277Y416180D01*
X163293Y416169D01*
X163392Y416137D01*
X163488Y416099D01*
X163508Y416099D01*
X163527Y416092D01*
X163631Y416093D01*
X163734Y416089D01*
X163753Y416095D01*
X163773Y416095D01*
X163934Y416142D01*
X164898Y416541D01*
X167102Y416541D01*
X169139Y415697D01*
X170697Y414139D01*
X171541Y412102D01*
X171541Y409898D01*
X170697Y407861D01*
X170034Y407198D01*
X169981Y407124D01*
X169921Y407055D01*
X169909Y407024D01*
X169890Y406998D01*
X169863Y406911D01*
X169829Y406826D01*
X169825Y406785D01*
X169818Y406763D01*
X169819Y406731D01*
X169811Y406660D01*
X169811Y340894D01*
X169825Y340804D01*
X169833Y340713D01*
X169845Y340683D01*
X169850Y340651D01*
X169893Y340570D01*
X169929Y340486D01*
X169955Y340454D01*
X169966Y340434D01*
X169989Y340411D01*
X170034Y340355D01*
X174640Y335749D01*
X174698Y335708D01*
X174750Y335658D01*
X174797Y335636D01*
X174839Y335606D01*
X174908Y335585D01*
X174973Y335555D01*
X175025Y335549D01*
X175075Y335534D01*
X175146Y335535D01*
X175217Y335528D01*
X175268Y335539D01*
X175320Y335540D01*
X175388Y335565D01*
X175458Y335580D01*
X175502Y335606D01*
X175551Y335624D01*
X175607Y335669D01*
X175669Y335706D01*
X175703Y335746D01*
X175743Y335778D01*
X175782Y335838D01*
X175829Y335893D01*
X175848Y335941D01*
X175876Y335985D01*
X175894Y336054D01*
X175921Y336121D01*
X175929Y336192D01*
X175937Y336224D01*
X175935Y336247D01*
X175939Y336288D01*
X175939Y445660D01*
X175925Y445750D01*
X175917Y445841D01*
X175905Y445870D01*
X175900Y445902D01*
X175857Y445983D01*
X175821Y446067D01*
X175795Y446099D01*
X175784Y446120D01*
X175761Y446142D01*
X175716Y446198D01*
X175053Y446861D01*
X174209Y448898D01*
X174209Y451102D01*
X175053Y453139D01*
X176611Y454697D01*
X178648Y455541D01*
X179718Y455541D01*
X179833Y455560D01*
X179949Y455577D01*
X179955Y455579D01*
X179961Y455580D01*
X180063Y455635D01*
X180168Y455688D01*
X180173Y455693D01*
X180178Y455696D01*
X180258Y455780D01*
X180341Y455864D01*
X180344Y455870D01*
X180348Y455874D01*
X180355Y455891D01*
X180421Y456011D01*
X181303Y458139D01*
X182861Y459697D01*
X184898Y460541D01*
X187102Y460541D01*
X189139Y459697D01*
X190697Y458139D01*
X191579Y456011D01*
X191640Y455911D01*
X191700Y455811D01*
X191705Y455807D01*
X191708Y455802D01*
X191798Y455727D01*
X191887Y455651D01*
X191893Y455649D01*
X191898Y455645D01*
X192006Y455603D01*
X192115Y455559D01*
X192123Y455558D01*
X192127Y455557D01*
X192146Y455556D01*
X192282Y455541D01*
X193718Y455541D01*
X193833Y455560D01*
X193949Y455577D01*
X193955Y455579D01*
X193961Y455580D01*
X194063Y455635D01*
X194168Y455688D01*
X194173Y455693D01*
X194178Y455696D01*
X194258Y455780D01*
X194341Y455864D01*
X194344Y455870D01*
X194348Y455874D01*
X194355Y455891D01*
X194421Y456011D01*
X195303Y458139D01*
X196861Y459697D01*
X198898Y460541D01*
X201102Y460541D01*
X203139Y459697D01*
X204697Y458139D01*
X205541Y456102D01*
X205541Y456027D01*
X205544Y456007D01*
X205542Y455987D01*
X205564Y455886D01*
X205580Y455784D01*
X205590Y455766D01*
X205594Y455747D01*
X205647Y455658D01*
X205696Y455566D01*
X205710Y455553D01*
X205720Y455536D01*
X205799Y455468D01*
X205874Y455397D01*
X205892Y455389D01*
X205907Y455376D01*
X206003Y455337D01*
X206097Y455293D01*
X206117Y455291D01*
X206135Y455284D01*
X206302Y455265D01*
X207377Y455265D01*
X209414Y454422D01*
X210973Y452863D01*
X211091Y452577D01*
X211102Y452560D01*
X211107Y452541D01*
X211166Y452455D01*
X211221Y452368D01*
X211236Y452355D01*
X211248Y452338D01*
X211331Y452277D01*
X211410Y452211D01*
X211429Y452204D01*
X211445Y452192D01*
X211544Y452160D01*
X211640Y452123D01*
X211660Y452122D01*
X211679Y452115D01*
X211782Y452116D01*
X211886Y452112D01*
X211905Y452118D01*
X211925Y452118D01*
X212086Y452165D01*
X214201Y453041D01*
X217599Y453041D01*
X220738Y451740D01*
X223140Y449338D01*
X223371Y448781D01*
X223433Y448682D01*
X223493Y448581D01*
X223498Y448577D01*
X223501Y448572D01*
X223590Y448498D01*
X223680Y448421D01*
X223686Y448419D01*
X223690Y448415D01*
X223798Y448373D01*
X223908Y448329D01*
X223915Y448328D01*
X223920Y448327D01*
X223938Y448326D01*
X224075Y448311D01*
X228606Y448311D01*
X228696Y448325D01*
X228787Y448333D01*
X228817Y448345D01*
X228849Y448350D01*
X228930Y448393D01*
X229014Y448429D01*
X229046Y448455D01*
X229066Y448466D01*
X229089Y448489D01*
X229144Y448534D01*
X236631Y456020D01*
X236672Y456078D01*
X236722Y456130D01*
X236744Y456177D01*
X236774Y456219D01*
X236795Y456288D01*
X236825Y456353D01*
X236831Y456405D01*
X236846Y456455D01*
X236845Y456526D01*
X236852Y456597D01*
X236841Y456648D01*
X236840Y456700D01*
X236815Y456768D01*
X236800Y456838D01*
X236774Y456883D01*
X236756Y456931D01*
X236711Y456987D01*
X236674Y457049D01*
X236634Y457083D01*
X236602Y457123D01*
X236542Y457162D01*
X236487Y457209D01*
X236439Y457228D01*
X236395Y457256D01*
X236326Y457274D01*
X236259Y457301D01*
X236188Y457309D01*
X236156Y457317D01*
X236133Y457315D01*
X236092Y457319D01*
X210689Y457319D01*
X208234Y459774D01*
X208234Y459775D01*
X206042Y461966D01*
X205968Y462019D01*
X205898Y462079D01*
X205868Y462091D01*
X205842Y462110D01*
X205755Y462137D01*
X205670Y462171D01*
X205629Y462175D01*
X205607Y462182D01*
X205575Y462181D01*
X205504Y462189D01*
X170894Y462189D01*
X170804Y462175D01*
X170713Y462167D01*
X170683Y462155D01*
X170651Y462150D01*
X170570Y462107D01*
X170486Y462071D01*
X170454Y462045D01*
X170434Y462034D01*
X170411Y462011D01*
X170355Y461966D01*
X114264Y405875D01*
X114211Y405801D01*
X114151Y405731D01*
X114139Y405701D01*
X114120Y405675D01*
X114093Y405588D01*
X114059Y405503D01*
X114055Y405462D01*
X114048Y405440D01*
X114049Y405408D01*
X114041Y405336D01*
X114041Y403238D01*
X113197Y401201D01*
X111639Y399643D01*
X109602Y398799D01*
X107398Y398799D01*
X105361Y399643D01*
X103735Y401269D01*
X103719Y401281D01*
X103706Y401296D01*
X103619Y401352D01*
X103535Y401413D01*
X103516Y401419D01*
X103499Y401429D01*
X103399Y401455D01*
X103300Y401485D01*
X103280Y401485D01*
X103261Y401489D01*
X103158Y401481D01*
X103054Y401479D01*
X103035Y401472D01*
X103016Y401470D01*
X102921Y401430D01*
X102823Y401394D01*
X102808Y401382D01*
X102789Y401374D01*
X102658Y401269D01*
X73034Y371644D01*
X72981Y371571D01*
X72921Y371501D01*
X72909Y371471D01*
X72890Y371445D01*
X72863Y371358D01*
X72829Y371273D01*
X72825Y371232D01*
X72818Y371210D01*
X72819Y371177D01*
X72811Y371106D01*
X72811Y283422D01*
X70356Y280966D01*
X70355Y280966D01*
X63764Y274374D01*
X63711Y274301D01*
X63651Y274231D01*
X63639Y274201D01*
X63620Y274175D01*
X63593Y274088D01*
X63559Y274003D01*
X63555Y273962D01*
X63548Y273940D01*
X63548Y273916D01*
X62697Y271861D01*
X61139Y270303D01*
X59102Y269459D01*
X56898Y269459D01*
X56299Y269707D01*
X56255Y269718D01*
X56213Y269737D01*
X56136Y269746D01*
X56060Y269763D01*
X56014Y269759D01*
X55969Y269764D01*
X55892Y269748D01*
X55815Y269740D01*
X55773Y269722D01*
X55728Y269712D01*
X55661Y269672D01*
X55590Y269640D01*
X55556Y269609D01*
X55517Y269586D01*
X55466Y269527D01*
X55409Y269474D01*
X55387Y269434D01*
X55357Y269399D01*
X55328Y269327D01*
X55291Y269258D01*
X55282Y269213D01*
X55265Y269171D01*
X55250Y269035D01*
X55247Y269016D01*
X55248Y269011D01*
X55247Y269004D01*
X55247Y244858D01*
X47578Y237189D01*
X35340Y237189D01*
X35250Y237175D01*
X35159Y237167D01*
X35130Y237155D01*
X35098Y237150D01*
X35017Y237107D01*
X34933Y237071D01*
X34901Y237045D01*
X34880Y237034D01*
X34858Y237011D01*
X34802Y236966D01*
X34139Y236303D01*
X32102Y235459D01*
X29898Y235459D01*
X27861Y236303D01*
X26303Y237861D01*
X25459Y239898D01*
X25459Y242102D01*
X26303Y244139D01*
X27861Y245697D01*
X28217Y245844D01*
X28278Y245882D01*
X28343Y245911D01*
X28381Y245947D01*
X28426Y245974D01*
X28471Y246029D01*
X28524Y246078D01*
X28549Y246123D01*
X28582Y246163D01*
X28608Y246230D01*
X28643Y246293D01*
X28652Y246344D01*
X28671Y246393D01*
X28674Y246465D01*
X28686Y246535D01*
X28679Y246587D01*
X28681Y246639D01*
X28661Y246708D01*
X28651Y246779D01*
X28627Y246825D01*
X28613Y246875D01*
X28572Y246934D01*
X28539Y246998D01*
X28502Y247034D01*
X28472Y247077D01*
X28415Y247120D01*
X28364Y247170D01*
X28301Y247205D01*
X28275Y247224D01*
X28253Y247231D01*
X28217Y247251D01*
X28091Y247303D01*
X26533Y248861D01*
X25689Y250898D01*
X25689Y253102D01*
X26533Y255139D01*
X28091Y256697D01*
X28217Y256749D01*
X28277Y256787D01*
X28343Y256816D01*
X28381Y256851D01*
X28426Y256879D01*
X28471Y256934D01*
X28524Y256982D01*
X28549Y257028D01*
X28582Y257068D01*
X28608Y257135D01*
X28643Y257198D01*
X28652Y257249D01*
X28671Y257298D01*
X28674Y257369D01*
X28686Y257440D01*
X28679Y257491D01*
X28681Y257543D01*
X28661Y257612D01*
X28651Y257683D01*
X28627Y257730D01*
X28613Y257780D01*
X28572Y257839D01*
X28539Y257903D01*
X28502Y257939D01*
X28472Y257982D01*
X28415Y258025D01*
X28364Y258075D01*
X28301Y258109D01*
X28275Y258129D01*
X28253Y258136D01*
X28217Y258156D01*
X27861Y258303D01*
X26303Y259861D01*
X25459Y261898D01*
X25459Y264102D01*
X26303Y266139D01*
X27861Y267697D01*
X29898Y268541D01*
X32102Y268541D01*
X34139Y267697D01*
X34802Y267034D01*
X34876Y266981D01*
X34945Y266921D01*
X34976Y266909D01*
X35002Y266890D01*
X35089Y266863D01*
X35174Y266829D01*
X35215Y266825D01*
X35237Y266818D01*
X35269Y266819D01*
X35340Y266811D01*
X36388Y266811D01*
X36408Y266814D01*
X36427Y266812D01*
X36529Y266834D01*
X36631Y266850D01*
X36648Y266860D01*
X36668Y266864D01*
X36757Y266917D01*
X36848Y266966D01*
X36862Y266980D01*
X36879Y266990D01*
X36946Y267069D01*
X37018Y267144D01*
X37026Y267162D01*
X37039Y267177D01*
X37078Y267273D01*
X37121Y267367D01*
X37123Y267387D01*
X37131Y267405D01*
X37149Y267572D01*
X37149Y303540D01*
X37134Y303636D01*
X37124Y303733D01*
X37114Y303757D01*
X37110Y303783D01*
X37064Y303869D01*
X37024Y303958D01*
X37007Y303977D01*
X36994Y304000D01*
X36924Y304067D01*
X36858Y304139D01*
X36835Y304151D01*
X36816Y304169D01*
X36728Y304211D01*
X36642Y304257D01*
X36617Y304262D01*
X36593Y304273D01*
X36496Y304284D01*
X36400Y304301D01*
X36374Y304297D01*
X36349Y304300D01*
X36253Y304279D01*
X36157Y304265D01*
X36134Y304253D01*
X36108Y304248D01*
X36024Y304198D01*
X35938Y304154D01*
X35919Y304135D01*
X35897Y304122D01*
X35834Y304048D01*
X35766Y303978D01*
X35750Y303950D01*
X35737Y303935D01*
X35725Y303904D01*
X35706Y303871D01*
X34139Y302303D01*
X32102Y301459D01*
X31164Y301459D01*
X31074Y301445D01*
X30983Y301437D01*
X30953Y301425D01*
X30921Y301420D01*
X30840Y301377D01*
X30756Y301341D01*
X30724Y301315D01*
X30704Y301304D01*
X30681Y301281D01*
X30626Y301236D01*
X20734Y291344D01*
X20681Y291271D01*
X20621Y291201D01*
X20609Y291171D01*
X20590Y291145D01*
X20563Y291058D01*
X20529Y290973D01*
X20525Y290932D01*
X20518Y290910D01*
X20519Y290877D01*
X20511Y290806D01*
X20511Y283013D01*
X20521Y282948D01*
X20522Y282882D01*
X20545Y282802D01*
X20550Y282770D01*
X20560Y282753D01*
X20569Y282721D01*
X21241Y281099D01*
X21241Y277701D01*
X19940Y274562D01*
X17538Y272160D01*
X14399Y270859D01*
X11001Y270859D01*
X7862Y272160D01*
X5460Y274562D01*
X4159Y277701D01*
X4159Y281099D01*
X5460Y284238D01*
X7862Y286640D01*
X11001Y287941D01*
X12128Y287941D01*
X12148Y287944D01*
X12167Y287942D01*
X12269Y287964D01*
X12371Y287980D01*
X12388Y287990D01*
X12408Y287994D01*
X12497Y288047D01*
X12588Y288096D01*
X12602Y288110D01*
X12619Y288120D01*
X12686Y288199D01*
X12758Y288274D01*
X12766Y288292D01*
X12779Y288307D01*
X12818Y288403D01*
X12861Y288497D01*
X12863Y288517D01*
X12871Y288535D01*
X12889Y288702D01*
X12889Y294278D01*
X13571Y294960D01*
X13612Y295018D01*
X13662Y295070D01*
X13684Y295117D01*
X13714Y295159D01*
X13735Y295228D01*
X13765Y295293D01*
X13771Y295345D01*
X13786Y295395D01*
X13785Y295466D01*
X13792Y295537D01*
X13781Y295588D01*
X13780Y295640D01*
X13755Y295708D01*
X13740Y295778D01*
X13714Y295823D01*
X13696Y295871D01*
X13651Y295927D01*
X13614Y295989D01*
X13574Y296023D01*
X13542Y296063D01*
X13482Y296102D01*
X13427Y296149D01*
X13379Y296168D01*
X13335Y296196D01*
X13266Y296214D01*
X13199Y296241D01*
X13128Y296249D01*
X13097Y296257D01*
X13073Y296255D01*
X13032Y296259D01*
X11001Y296259D01*
X7862Y297560D01*
X5460Y299962D01*
X4159Y303101D01*
X4159Y306499D01*
X5460Y309638D01*
X7862Y312040D01*
X8419Y312271D01*
X8519Y312333D01*
X8619Y312393D01*
X8623Y312398D01*
X8628Y312401D01*
X8703Y312491D01*
X8779Y312580D01*
X8781Y312586D01*
X8785Y312590D01*
X8827Y312699D01*
X8871Y312808D01*
X8872Y312815D01*
X8873Y312820D01*
X8874Y312838D01*
X8889Y312975D01*
X8889Y313278D01*
X11344Y315734D01*
X16594Y320983D01*
X16651Y321062D01*
X16713Y321137D01*
X16722Y321162D01*
X16738Y321183D01*
X16766Y321276D01*
X16801Y321367D01*
X16802Y321393D01*
X16810Y321418D01*
X16808Y321516D01*
X16812Y321613D01*
X16804Y321638D01*
X16804Y321664D01*
X16770Y321756D01*
X16743Y321849D01*
X16728Y321870D01*
X16719Y321895D01*
X16658Y321971D01*
X16603Y322051D01*
X16582Y322067D01*
X16566Y322087D01*
X16484Y322140D01*
X16406Y322198D01*
X16381Y322206D01*
X16359Y322220D01*
X16264Y322244D01*
X16172Y322274D01*
X16145Y322274D01*
X16120Y322280D01*
X16023Y322273D01*
X15926Y322272D01*
X15894Y322263D01*
X15875Y322261D01*
X15845Y322248D01*
X15765Y322225D01*
X14399Y321659D01*
X11001Y321659D01*
X7862Y322960D01*
X5460Y325362D01*
X4159Y328501D01*
X4159Y331899D01*
X5460Y335038D01*
X7862Y337440D01*
X11001Y338741D01*
X14399Y338741D01*
X14956Y338510D01*
X15070Y338483D01*
X15183Y338455D01*
X15189Y338455D01*
X15196Y338454D01*
X15312Y338465D01*
X15428Y338474D01*
X15434Y338476D01*
X15440Y338477D01*
X15548Y338525D01*
X15655Y338570D01*
X15661Y338575D01*
X15665Y338577D01*
X15679Y338590D01*
X15733Y338633D01*
X15734Y338634D01*
X15735Y338635D01*
X15786Y338675D01*
X20922Y343811D01*
X25660Y343811D01*
X25750Y343825D01*
X25841Y343833D01*
X25870Y343845D01*
X25902Y343850D01*
X25983Y343893D01*
X26067Y343929D01*
X26099Y343955D01*
X26120Y343966D01*
X26142Y343989D01*
X26198Y344034D01*
X26861Y344697D01*
X28898Y345541D01*
X31102Y345541D01*
X33139Y344697D01*
X34697Y343139D01*
X35541Y341102D01*
X35541Y338898D01*
X34697Y336861D01*
X33139Y335303D01*
X32898Y335203D01*
X32838Y335166D01*
X32772Y335136D01*
X32734Y335101D01*
X32689Y335074D01*
X32644Y335018D01*
X32591Y334970D01*
X32566Y334924D01*
X32533Y334884D01*
X32507Y334817D01*
X32472Y334754D01*
X32463Y334703D01*
X32444Y334655D01*
X32441Y334583D01*
X32429Y334512D01*
X32436Y334461D01*
X32434Y334409D01*
X32454Y334340D01*
X32464Y334269D01*
X32488Y334223D01*
X32502Y334173D01*
X32543Y334114D01*
X32576Y334050D01*
X32613Y334013D01*
X32643Y333971D01*
X32700Y333928D01*
X32751Y333878D01*
X32814Y333843D01*
X32840Y333824D01*
X32862Y333817D01*
X32898Y333797D01*
X33139Y333697D01*
X34697Y332139D01*
X35541Y330102D01*
X35541Y327898D01*
X34697Y325861D01*
X33139Y324303D01*
X31102Y323459D01*
X30164Y323459D01*
X30074Y323445D01*
X29983Y323437D01*
X29953Y323425D01*
X29921Y323420D01*
X29840Y323377D01*
X29756Y323341D01*
X29724Y323315D01*
X29704Y323304D01*
X29681Y323281D01*
X29626Y323236D01*
X18522Y312133D01*
X18510Y312117D01*
X18495Y312104D01*
X18439Y312017D01*
X18379Y311933D01*
X18373Y311914D01*
X18362Y311897D01*
X18337Y311797D01*
X18306Y311698D01*
X18307Y311678D01*
X18302Y311659D01*
X18310Y311556D01*
X18313Y311452D01*
X18319Y311433D01*
X18321Y311414D01*
X18361Y311319D01*
X18397Y311221D01*
X18410Y311206D01*
X18417Y311187D01*
X18522Y311056D01*
X19940Y309638D01*
X21241Y306499D01*
X21241Y304468D01*
X21252Y304397D01*
X21254Y304325D01*
X21272Y304276D01*
X21280Y304225D01*
X21314Y304162D01*
X21339Y304094D01*
X21371Y304054D01*
X21396Y304008D01*
X21448Y303958D01*
X21492Y303902D01*
X21536Y303874D01*
X21574Y303838D01*
X21639Y303808D01*
X21699Y303769D01*
X21750Y303757D01*
X21797Y303735D01*
X21868Y303727D01*
X21938Y303709D01*
X21990Y303713D01*
X22041Y303708D01*
X22112Y303723D01*
X22183Y303728D01*
X22231Y303749D01*
X22282Y303760D01*
X22343Y303797D01*
X22409Y303825D01*
X22465Y303869D01*
X22493Y303886D01*
X22508Y303904D01*
X22540Y303929D01*
X25236Y306626D01*
X25289Y306700D01*
X25349Y306769D01*
X25361Y306799D01*
X25380Y306825D01*
X25407Y306912D01*
X25441Y306997D01*
X25445Y307038D01*
X25452Y307060D01*
X25451Y307093D01*
X25459Y307164D01*
X25459Y308102D01*
X26303Y310139D01*
X27861Y311697D01*
X29898Y312541D01*
X32102Y312541D01*
X34139Y311697D01*
X35714Y310122D01*
X35736Y310086D01*
X35782Y310000D01*
X35800Y309982D01*
X35814Y309960D01*
X35889Y309898D01*
X35960Y309831D01*
X35984Y309820D01*
X36004Y309803D01*
X36095Y309768D01*
X36183Y309727D01*
X36209Y309724D01*
X36233Y309715D01*
X36331Y309711D01*
X36427Y309700D01*
X36453Y309705D01*
X36479Y309704D01*
X36573Y309731D01*
X36668Y309752D01*
X36690Y309765D01*
X36715Y309773D01*
X36795Y309828D01*
X36879Y309878D01*
X36896Y309898D01*
X36917Y309913D01*
X36975Y309991D01*
X37039Y310065D01*
X37049Y310089D01*
X37064Y310110D01*
X37094Y310203D01*
X37131Y310293D01*
X37134Y310326D01*
X37140Y310344D01*
X37140Y310377D01*
X37149Y310460D01*
X37149Y392956D01*
X37135Y393046D01*
X37127Y393137D01*
X37115Y393167D01*
X37110Y393199D01*
X37067Y393280D01*
X37031Y393364D01*
X37005Y393396D01*
X36994Y393416D01*
X36971Y393439D01*
X36926Y393494D01*
X32189Y398232D01*
X32189Y404660D01*
X32175Y404750D01*
X32167Y404841D01*
X32155Y404870D01*
X32150Y404902D01*
X32107Y404983D01*
X32071Y405067D01*
X32045Y405099D01*
X32034Y405120D01*
X32011Y405142D01*
X31966Y405198D01*
X31303Y405861D01*
X30459Y407898D01*
X30459Y410102D01*
X30773Y410859D01*
X30783Y410903D01*
X30802Y410945D01*
X30811Y411022D01*
X30829Y411098D01*
X30825Y411144D01*
X30830Y411189D01*
X30813Y411266D01*
X30806Y411343D01*
X30787Y411385D01*
X30777Y411430D01*
X30737Y411497D01*
X30706Y411568D01*
X30675Y411602D01*
X30651Y411641D01*
X30592Y411692D01*
X30539Y411749D01*
X30499Y411771D01*
X30464Y411801D01*
X30392Y411830D01*
X30324Y411867D01*
X30279Y411876D01*
X30236Y411893D01*
X30100Y411908D01*
X30082Y411911D01*
X30077Y411910D01*
X30069Y411911D01*
X28891Y411911D01*
X28776Y411892D01*
X28660Y411875D01*
X28654Y411873D01*
X28648Y411872D01*
X28546Y411817D01*
X28441Y411764D01*
X28436Y411759D01*
X28431Y411756D01*
X28351Y411672D01*
X28269Y411588D01*
X28265Y411582D01*
X28262Y411578D01*
X28254Y411561D01*
X28188Y411441D01*
X27836Y410593D01*
X24407Y407164D01*
X19925Y405307D01*
X15075Y405307D01*
X10593Y407163D01*
X10188Y407569D01*
X10130Y407611D01*
X10078Y407660D01*
X10031Y407682D01*
X9989Y407712D01*
X9920Y407733D01*
X9855Y407763D01*
X9803Y407769D01*
X9753Y407785D01*
X9682Y407783D01*
X9611Y407791D01*
X9560Y407779D01*
X9508Y407778D01*
X9440Y407754D01*
X9370Y407738D01*
X9325Y407712D01*
X9277Y407694D01*
X9221Y407649D01*
X9159Y407612D01*
X9125Y407573D01*
X9085Y407540D01*
X9046Y407480D01*
X8999Y407425D01*
X8980Y407377D01*
X8952Y407333D01*
X8934Y407264D01*
X8907Y407197D01*
X8899Y407126D01*
X8891Y407095D01*
X8893Y407071D01*
X8889Y407030D01*
X8889Y379434D01*
X8896Y379388D01*
X8894Y379342D01*
X8916Y379268D01*
X8928Y379191D01*
X8950Y379150D01*
X8963Y379106D01*
X9007Y379042D01*
X9044Y378973D01*
X9077Y378942D01*
X9103Y378904D01*
X9166Y378858D01*
X9222Y378804D01*
X9264Y378785D01*
X9300Y378757D01*
X9374Y378733D01*
X9445Y378700D01*
X9491Y378695D01*
X9534Y378681D01*
X9612Y378682D01*
X9689Y378673D01*
X9734Y378683D01*
X9780Y378684D01*
X9912Y378722D01*
X9930Y378726D01*
X9934Y378728D01*
X9941Y378730D01*
X11898Y379541D01*
X14102Y379541D01*
X16139Y378697D01*
X17697Y377139D01*
X18541Y375102D01*
X18541Y372898D01*
X17697Y370861D01*
X16824Y369988D01*
X16782Y369930D01*
X16733Y369878D01*
X16711Y369831D01*
X16681Y369789D01*
X16659Y369720D01*
X16629Y369655D01*
X16623Y369603D01*
X16608Y369553D01*
X16610Y369482D01*
X16602Y369411D01*
X16613Y369360D01*
X16615Y369308D01*
X16639Y369240D01*
X16654Y369170D01*
X16681Y369125D01*
X16699Y369077D01*
X16744Y369021D01*
X16781Y368959D01*
X16820Y368925D01*
X16853Y368885D01*
X16913Y368846D01*
X16967Y368799D01*
X17016Y368780D01*
X17060Y368752D01*
X17129Y368734D01*
X17196Y368707D01*
X17267Y368699D01*
X17298Y368691D01*
X17321Y368693D01*
X17362Y368689D01*
X24146Y368689D01*
X24190Y368651D01*
X24220Y368639D01*
X24246Y368620D01*
X24333Y368593D01*
X24418Y368559D01*
X24459Y368555D01*
X24481Y368548D01*
X24514Y368549D01*
X24585Y368541D01*
X25102Y368541D01*
X27139Y367697D01*
X28697Y366139D01*
X29541Y364102D01*
X29541Y361898D01*
X29415Y361593D01*
X29405Y361552D01*
X29391Y361521D01*
X29390Y361519D01*
X29385Y361507D01*
X29376Y361430D01*
X29358Y361354D01*
X29363Y361308D01*
X29358Y361263D01*
X29374Y361186D01*
X29381Y361109D01*
X29400Y361067D01*
X29410Y361022D01*
X29450Y360955D01*
X29481Y360884D01*
X29513Y360850D01*
X29536Y360811D01*
X29595Y360760D01*
X29648Y360703D01*
X29688Y360681D01*
X29723Y360651D01*
X29795Y360622D01*
X29863Y360585D01*
X29908Y360576D01*
X29951Y360559D01*
X30087Y360544D01*
X30099Y360542D01*
X32139Y359697D01*
X33697Y358139D01*
X34541Y356102D01*
X34541Y353898D01*
X33697Y351861D01*
X32139Y350303D01*
X30102Y349459D01*
X27898Y349459D01*
X25861Y350303D01*
X25198Y350966D01*
X25124Y351019D01*
X25054Y351079D01*
X25024Y351091D01*
X24998Y351110D01*
X24911Y351137D01*
X24826Y351171D01*
X24785Y351175D01*
X24763Y351182D01*
X24731Y351181D01*
X24660Y351189D01*
X20626Y351189D01*
X20512Y351171D01*
X20395Y351153D01*
X20389Y351151D01*
X20383Y351150D01*
X20281Y351095D01*
X20176Y351042D01*
X20171Y351037D01*
X20166Y351034D01*
X20086Y350950D01*
X20004Y350866D01*
X20000Y350860D01*
X19997Y350856D01*
X19989Y350839D01*
X19953Y350775D01*
X17538Y348360D01*
X14399Y347059D01*
X11001Y347059D01*
X7862Y348360D01*
X5460Y350762D01*
X4159Y353901D01*
X4159Y357299D01*
X5460Y360438D01*
X7862Y362840D01*
X7905Y362858D01*
X7944Y362882D01*
X7987Y362898D01*
X8048Y362947D01*
X8114Y362988D01*
X8143Y363023D01*
X8179Y363052D01*
X8221Y363117D01*
X8271Y363177D01*
X8287Y363220D01*
X8312Y363259D01*
X8331Y363334D01*
X8359Y363407D01*
X8361Y363453D01*
X8372Y363497D01*
X8366Y363575D01*
X8369Y363653D01*
X8357Y363697D01*
X8353Y363743D01*
X8323Y363814D01*
X8301Y363889D01*
X8275Y363927D01*
X8257Y363969D01*
X8171Y364075D01*
X8161Y364091D01*
X8157Y364094D01*
X8152Y364100D01*
X3840Y368411D01*
X3782Y368453D01*
X3730Y368503D01*
X3683Y368525D01*
X3641Y368555D01*
X3572Y368576D01*
X3507Y368606D01*
X3455Y368612D01*
X3405Y368627D01*
X3334Y368625D01*
X3263Y368633D01*
X3212Y368622D01*
X3160Y368621D01*
X3092Y368596D01*
X3022Y368581D01*
X2978Y368554D01*
X2929Y368536D01*
X2873Y368492D01*
X2811Y368455D01*
X2777Y368415D01*
X2737Y368383D01*
X2698Y368322D01*
X2651Y368268D01*
X2632Y368220D01*
X2604Y368176D01*
X2586Y368106D01*
X2559Y368040D01*
X2551Y367968D01*
X2543Y367937D01*
X2545Y367914D01*
X2541Y367873D01*
X2541Y120000D01*
X2544Y119980D01*
X2542Y119961D01*
X2564Y119859D01*
X2580Y119757D01*
X2590Y119740D01*
X2594Y119720D01*
X2647Y119631D01*
X2696Y119540D01*
X2710Y119526D01*
X2720Y119509D01*
X2799Y119442D01*
X2874Y119370D01*
X2892Y119362D01*
X2907Y119349D01*
X3003Y119310D01*
X3097Y119267D01*
X3117Y119265D01*
X3135Y119257D01*
X3302Y119239D01*
X39198Y119239D01*
X39218Y119242D01*
G37*
%LPC*%
G36*
X251898Y223459D02*
X251898Y223459D01*
X249861Y224303D01*
X249198Y224966D01*
X249124Y225019D01*
X249054Y225079D01*
X249024Y225091D01*
X248998Y225110D01*
X248911Y225137D01*
X248826Y225171D01*
X248785Y225175D01*
X248763Y225182D01*
X248731Y225181D01*
X248660Y225189D01*
X219422Y225189D01*
X122189Y322422D01*
X122189Y401660D01*
X122184Y401691D01*
X122185Y401702D01*
X122174Y401753D01*
X122167Y401841D01*
X122155Y401870D01*
X122150Y401902D01*
X122136Y401927D01*
X122133Y401942D01*
X122102Y401994D01*
X122071Y402067D01*
X122045Y402099D01*
X122034Y402120D01*
X122017Y402136D01*
X122007Y402153D01*
X121991Y402167D01*
X121966Y402198D01*
X121303Y402861D01*
X120459Y404898D01*
X120459Y407102D01*
X121303Y409139D01*
X122861Y410697D01*
X124898Y411541D01*
X127102Y411541D01*
X129139Y410697D01*
X129462Y410374D01*
X129478Y410362D01*
X129490Y410347D01*
X129578Y410291D01*
X129661Y410231D01*
X129680Y410225D01*
X129697Y410214D01*
X129798Y410189D01*
X129897Y410158D01*
X129917Y410159D01*
X129936Y410154D01*
X130039Y410162D01*
X130142Y410165D01*
X130161Y410171D01*
X130181Y410173D01*
X130276Y410213D01*
X130373Y410249D01*
X130389Y410261D01*
X130407Y410269D01*
X130538Y410374D01*
X130861Y410697D01*
X132898Y411541D01*
X135102Y411541D01*
X137139Y410697D01*
X138697Y409139D01*
X139541Y407102D01*
X139541Y404898D01*
X138697Y402861D01*
X138034Y402198D01*
X137991Y402139D01*
X137945Y402091D01*
X137937Y402074D01*
X137921Y402055D01*
X137909Y402024D01*
X137890Y401998D01*
X137866Y401920D01*
X137842Y401867D01*
X137840Y401854D01*
X137829Y401826D01*
X137825Y401785D01*
X137818Y401763D01*
X137819Y401731D01*
X137811Y401660D01*
X137811Y330894D01*
X137825Y330804D01*
X137833Y330713D01*
X137845Y330683D01*
X137850Y330651D01*
X137893Y330570D01*
X137929Y330486D01*
X137955Y330454D01*
X137966Y330434D01*
X137989Y330411D01*
X138017Y330376D01*
X138018Y330375D01*
X138034Y330356D01*
X224356Y244034D01*
X224429Y243981D01*
X224499Y243921D01*
X224529Y243909D01*
X224555Y243890D01*
X224642Y243863D01*
X224727Y243829D01*
X224768Y243825D01*
X224790Y243818D01*
X224823Y243819D01*
X224894Y243811D01*
X251578Y243811D01*
X252626Y242764D01*
X252699Y242711D01*
X252769Y242651D01*
X252799Y242639D01*
X252825Y242620D01*
X252912Y242593D01*
X252997Y242559D01*
X253038Y242555D01*
X253060Y242548D01*
X253093Y242549D01*
X253164Y242541D01*
X254102Y242541D01*
X256139Y241697D01*
X257697Y240139D01*
X258541Y238102D01*
X258541Y235898D01*
X257697Y233861D01*
X257374Y233538D01*
X257362Y233522D01*
X257347Y233510D01*
X257291Y233422D01*
X257231Y233339D01*
X257225Y233320D01*
X257214Y233303D01*
X257189Y233202D01*
X257158Y233104D01*
X257159Y233084D01*
X257154Y233064D01*
X257162Y232961D01*
X257165Y232858D01*
X257171Y232839D01*
X257173Y232819D01*
X257213Y232724D01*
X257249Y232627D01*
X257261Y232611D01*
X257269Y232593D01*
X257374Y232462D01*
X257697Y232139D01*
X258541Y230102D01*
X258541Y227898D01*
X257697Y225861D01*
X256139Y224303D01*
X254102Y223459D01*
X251898Y223459D01*
G37*
%LPD*%
%LPC*%
G36*
X49101Y550259D02*
X49101Y550259D01*
X45962Y551560D01*
X43560Y553962D01*
X42259Y557101D01*
X42259Y560421D01*
X42249Y560486D01*
X42248Y560551D01*
X42225Y560631D01*
X42220Y560664D01*
X42211Y560679D01*
X42211Y705170D01*
X42197Y705260D01*
X42189Y705351D01*
X42177Y705381D01*
X42172Y705412D01*
X42129Y705493D01*
X42093Y705577D01*
X42067Y705609D01*
X42056Y705630D01*
X42033Y705652D01*
X41988Y705708D01*
X40204Y707493D01*
X40109Y707561D01*
X40095Y707571D01*
X40091Y707575D01*
X40090Y707575D01*
X40015Y707630D01*
X40009Y707632D01*
X40004Y707636D01*
X39892Y707670D01*
X39781Y707707D01*
X39775Y707707D01*
X39769Y707708D01*
X39652Y707705D01*
X39535Y707704D01*
X39528Y707702D01*
X39523Y707702D01*
X39506Y707696D01*
X39374Y707658D01*
X38896Y707459D01*
X34304Y707459D01*
X30063Y709216D01*
X26816Y712463D01*
X25059Y716704D01*
X25059Y721296D01*
X26816Y725537D01*
X30063Y728784D01*
X34304Y730541D01*
X38896Y730541D01*
X43137Y728784D01*
X46384Y725537D01*
X48141Y721296D01*
X48141Y716704D01*
X47942Y716226D01*
X47916Y716112D01*
X47887Y715999D01*
X47888Y715992D01*
X47886Y715986D01*
X47897Y715870D01*
X47906Y715753D01*
X47909Y715748D01*
X47909Y715741D01*
X47957Y715633D01*
X48003Y715527D01*
X48007Y715521D01*
X48009Y715517D01*
X48022Y715503D01*
X48107Y715396D01*
X49658Y713845D01*
X49737Y713789D01*
X49812Y713726D01*
X49837Y713717D01*
X49858Y713702D01*
X49951Y713673D01*
X50042Y713638D01*
X50068Y713637D01*
X50093Y713629D01*
X50191Y713632D01*
X50288Y713628D01*
X50313Y713635D01*
X50339Y713636D01*
X50431Y713669D01*
X50524Y713696D01*
X50545Y713711D01*
X50570Y713720D01*
X50646Y713781D01*
X50726Y713837D01*
X50742Y713858D01*
X50762Y713874D01*
X50815Y713956D01*
X50873Y714034D01*
X50881Y714059D01*
X50895Y714081D01*
X50919Y714175D01*
X50949Y714268D01*
X50949Y714294D01*
X50955Y714319D01*
X50948Y714416D01*
X50947Y714514D01*
X50938Y714545D01*
X50936Y714565D01*
X50923Y714595D01*
X50900Y714675D01*
X50059Y716704D01*
X50059Y721296D01*
X51816Y725537D01*
X55063Y728784D01*
X59304Y730541D01*
X63896Y730541D01*
X68137Y728784D01*
X71384Y725537D01*
X73141Y721296D01*
X73141Y716704D01*
X71384Y712463D01*
X68137Y709216D01*
X63896Y707459D01*
X59304Y707459D01*
X55063Y709216D01*
X54688Y709591D01*
X54630Y709633D01*
X54578Y709682D01*
X54531Y709704D01*
X54489Y709734D01*
X54420Y709755D01*
X54355Y709786D01*
X54303Y709791D01*
X54253Y709807D01*
X54182Y709805D01*
X54111Y709813D01*
X54060Y709802D01*
X54008Y709800D01*
X53940Y709776D01*
X53870Y709760D01*
X53825Y709734D01*
X53777Y709716D01*
X53721Y709671D01*
X53659Y709634D01*
X53625Y709595D01*
X53585Y709562D01*
X53546Y709502D01*
X53499Y709447D01*
X53480Y709399D01*
X53452Y709355D01*
X53434Y709286D01*
X53407Y709219D01*
X53399Y709148D01*
X53391Y709117D01*
X53393Y709093D01*
X53389Y709052D01*
X53389Y567481D01*
X53408Y567366D01*
X53425Y567250D01*
X53427Y567244D01*
X53428Y567238D01*
X53483Y567135D01*
X53536Y567031D01*
X53541Y567026D01*
X53544Y567021D01*
X53628Y566941D01*
X53712Y566858D01*
X53718Y566855D01*
X53722Y566851D01*
X53739Y566843D01*
X53859Y566777D01*
X55638Y566040D01*
X58040Y563638D01*
X59341Y560499D01*
X59341Y557101D01*
X58040Y553962D01*
X55638Y551560D01*
X52499Y550259D01*
X49101Y550259D01*
G37*
%LPD*%
G36*
X259750Y254825D02*
X259750Y254825D01*
X259841Y254833D01*
X259870Y254845D01*
X259902Y254850D01*
X259983Y254893D01*
X260067Y254929D01*
X260099Y254955D01*
X260120Y254966D01*
X260142Y254989D01*
X260198Y255034D01*
X260861Y255697D01*
X262898Y256541D01*
X265102Y256541D01*
X266407Y256000D01*
X266451Y255990D01*
X266493Y255971D01*
X266570Y255962D01*
X266646Y255944D01*
X266692Y255949D01*
X266737Y255943D01*
X266814Y255960D01*
X266891Y255967D01*
X266933Y255986D01*
X266978Y255996D01*
X267045Y256036D01*
X267116Y256067D01*
X267150Y256098D01*
X267189Y256122D01*
X267240Y256181D01*
X267297Y256234D01*
X267319Y256274D01*
X267349Y256309D01*
X267378Y256381D01*
X267415Y256449D01*
X267424Y256494D01*
X267441Y256537D01*
X267456Y256673D01*
X267459Y256691D01*
X267458Y256696D01*
X267459Y256704D01*
X267459Y334296D01*
X267452Y334342D01*
X267454Y334388D01*
X267432Y334462D01*
X267420Y334539D01*
X267398Y334580D01*
X267385Y334624D01*
X267341Y334688D01*
X267304Y334756D01*
X267271Y334788D01*
X267245Y334826D01*
X267183Y334872D01*
X267126Y334926D01*
X267084Y334945D01*
X267048Y334973D01*
X266974Y334997D01*
X266903Y335029D01*
X266857Y335035D01*
X266814Y335049D01*
X266736Y335048D01*
X266659Y335057D01*
X266614Y335047D01*
X266568Y335046D01*
X266436Y335008D01*
X266418Y335004D01*
X266414Y335002D01*
X266407Y335000D01*
X265102Y334459D01*
X262898Y334459D01*
X260861Y335303D01*
X260198Y335966D01*
X260124Y336019D01*
X260054Y336079D01*
X260024Y336091D01*
X259998Y336110D01*
X259911Y336137D01*
X259826Y336171D01*
X259785Y336175D01*
X259763Y336182D01*
X259731Y336181D01*
X259660Y336189D01*
X218038Y336189D01*
X217967Y336178D01*
X217895Y336176D01*
X217846Y336158D01*
X217795Y336150D01*
X217732Y336116D01*
X217664Y336091D01*
X217624Y336059D01*
X217578Y336034D01*
X217528Y335982D01*
X217472Y335938D01*
X217444Y335894D01*
X217408Y335856D01*
X217378Y335791D01*
X217339Y335731D01*
X217327Y335680D01*
X217305Y335633D01*
X217297Y335562D01*
X217279Y335492D01*
X217283Y335440D01*
X217278Y335389D01*
X217293Y335318D01*
X217298Y335247D01*
X217319Y335199D01*
X217330Y335148D01*
X217367Y335087D01*
X217395Y335021D01*
X217439Y334965D01*
X217456Y334937D01*
X217474Y334922D01*
X217499Y334890D01*
X219356Y333034D01*
X219430Y332981D01*
X219499Y332921D01*
X219529Y332909D01*
X219555Y332890D01*
X219642Y332863D01*
X219727Y332829D01*
X219768Y332825D01*
X219790Y332818D01*
X219823Y332819D01*
X219894Y332811D01*
X247660Y332811D01*
X247750Y332825D01*
X247841Y332833D01*
X247870Y332845D01*
X247902Y332850D01*
X247983Y332893D01*
X248067Y332929D01*
X248099Y332955D01*
X248120Y332966D01*
X248142Y332989D01*
X248198Y333034D01*
X248861Y333697D01*
X250898Y334541D01*
X253102Y334541D01*
X255139Y333697D01*
X256697Y332139D01*
X257541Y330102D01*
X257541Y327898D01*
X256697Y325861D01*
X255139Y324303D01*
X254898Y324203D01*
X254838Y324166D01*
X254772Y324136D01*
X254734Y324101D01*
X254689Y324074D01*
X254644Y324018D01*
X254591Y323970D01*
X254566Y323924D01*
X254533Y323884D01*
X254507Y323817D01*
X254472Y323754D01*
X254463Y323703D01*
X254444Y323655D01*
X254441Y323583D01*
X254429Y323512D01*
X254436Y323461D01*
X254434Y323409D01*
X254454Y323340D01*
X254464Y323269D01*
X254488Y323223D01*
X254502Y323173D01*
X254543Y323114D01*
X254576Y323050D01*
X254613Y323013D01*
X254643Y322971D01*
X254700Y322928D01*
X254751Y322878D01*
X254814Y322843D01*
X254840Y322824D01*
X254862Y322817D01*
X254898Y322797D01*
X255139Y322697D01*
X256697Y321139D01*
X257541Y319102D01*
X257541Y316898D01*
X256697Y314861D01*
X255139Y313303D01*
X254898Y313203D01*
X254837Y313165D01*
X254772Y313136D01*
X254734Y313101D01*
X254689Y313074D01*
X254644Y313018D01*
X254591Y312970D01*
X254566Y312924D01*
X254533Y312884D01*
X254507Y312817D01*
X254472Y312754D01*
X254463Y312703D01*
X254444Y312655D01*
X254441Y312583D01*
X254429Y312512D01*
X254436Y312461D01*
X254434Y312409D01*
X254454Y312340D01*
X254464Y312269D01*
X254488Y312223D01*
X254502Y312173D01*
X254543Y312114D01*
X254576Y312050D01*
X254613Y312013D01*
X254643Y311971D01*
X254700Y311928D01*
X254751Y311878D01*
X254814Y311843D01*
X254840Y311824D01*
X254862Y311816D01*
X254898Y311797D01*
X255139Y311697D01*
X256697Y310139D01*
X257541Y308102D01*
X257541Y305898D01*
X256697Y303861D01*
X255139Y302303D01*
X253102Y301459D01*
X250898Y301459D01*
X248861Y302303D01*
X248198Y302966D01*
X248124Y303019D01*
X248054Y303079D01*
X248024Y303091D01*
X247998Y303110D01*
X247911Y303137D01*
X247826Y303171D01*
X247785Y303175D01*
X247763Y303182D01*
X247731Y303181D01*
X247660Y303189D01*
X220038Y303189D01*
X219967Y303178D01*
X219895Y303176D01*
X219846Y303158D01*
X219795Y303150D01*
X219732Y303116D01*
X219664Y303091D01*
X219624Y303059D01*
X219578Y303034D01*
X219528Y302983D01*
X219472Y302938D01*
X219444Y302894D01*
X219408Y302856D01*
X219378Y302791D01*
X219339Y302731D01*
X219327Y302680D01*
X219305Y302633D01*
X219297Y302562D01*
X219279Y302492D01*
X219283Y302440D01*
X219278Y302389D01*
X219293Y302318D01*
X219298Y302247D01*
X219319Y302199D01*
X219330Y302148D01*
X219367Y302087D01*
X219395Y302021D01*
X219439Y301965D01*
X219456Y301937D01*
X219474Y301922D01*
X219499Y301890D01*
X232355Y289034D01*
X232429Y288981D01*
X232499Y288921D01*
X232529Y288909D01*
X232555Y288890D01*
X232642Y288863D01*
X232727Y288829D01*
X232768Y288825D01*
X232790Y288818D01*
X232822Y288819D01*
X232894Y288811D01*
X247660Y288811D01*
X247750Y288825D01*
X247841Y288833D01*
X247870Y288845D01*
X247902Y288850D01*
X247983Y288893D01*
X248067Y288929D01*
X248099Y288955D01*
X248120Y288966D01*
X248142Y288989D01*
X248198Y289034D01*
X248861Y289697D01*
X250898Y290541D01*
X253102Y290541D01*
X255139Y289697D01*
X256697Y288139D01*
X257541Y286102D01*
X257541Y283898D01*
X256697Y281861D01*
X255139Y280303D01*
X254898Y280203D01*
X254838Y280166D01*
X254772Y280136D01*
X254734Y280101D01*
X254689Y280074D01*
X254644Y280018D01*
X254591Y279970D01*
X254566Y279924D01*
X254533Y279884D01*
X254507Y279817D01*
X254472Y279754D01*
X254463Y279703D01*
X254444Y279655D01*
X254441Y279583D01*
X254429Y279512D01*
X254436Y279461D01*
X254434Y279409D01*
X254454Y279340D01*
X254464Y279269D01*
X254488Y279223D01*
X254502Y279173D01*
X254543Y279114D01*
X254576Y279050D01*
X254613Y279013D01*
X254643Y278971D01*
X254700Y278928D01*
X254751Y278878D01*
X254814Y278843D01*
X254840Y278824D01*
X254862Y278817D01*
X254898Y278797D01*
X255139Y278697D01*
X256697Y277139D01*
X257541Y275102D01*
X257541Y272898D01*
X256697Y270861D01*
X255374Y269538D01*
X255362Y269522D01*
X255347Y269510D01*
X255291Y269422D01*
X255231Y269339D01*
X255225Y269320D01*
X255214Y269303D01*
X255189Y269202D01*
X255158Y269103D01*
X255159Y269084D01*
X255154Y269064D01*
X255162Y268961D01*
X255165Y268858D01*
X255171Y268839D01*
X255173Y268819D01*
X255213Y268724D01*
X255249Y268627D01*
X255261Y268611D01*
X255269Y268593D01*
X255374Y268462D01*
X256697Y267139D01*
X257541Y265102D01*
X257541Y262898D01*
X256697Y260861D01*
X255139Y259303D01*
X253102Y258459D01*
X250898Y258459D01*
X248861Y259303D01*
X248198Y259966D01*
X248124Y260019D01*
X248054Y260079D01*
X248024Y260091D01*
X247998Y260110D01*
X247911Y260137D01*
X247826Y260171D01*
X247785Y260175D01*
X247763Y260182D01*
X247731Y260181D01*
X247660Y260189D01*
X230038Y260189D01*
X229967Y260178D01*
X229895Y260176D01*
X229846Y260158D01*
X229795Y260150D01*
X229732Y260116D01*
X229664Y260091D01*
X229624Y260059D01*
X229578Y260034D01*
X229528Y259982D01*
X229472Y259938D01*
X229444Y259894D01*
X229408Y259856D01*
X229378Y259791D01*
X229339Y259731D01*
X229327Y259680D01*
X229305Y259633D01*
X229297Y259562D01*
X229279Y259492D01*
X229283Y259440D01*
X229278Y259389D01*
X229293Y259318D01*
X229298Y259247D01*
X229319Y259199D01*
X229330Y259148D01*
X229367Y259087D01*
X229395Y259021D01*
X229439Y258965D01*
X229456Y258937D01*
X229474Y258922D01*
X229499Y258890D01*
X233356Y255034D01*
X233430Y254981D01*
X233499Y254921D01*
X233529Y254909D01*
X233555Y254890D01*
X233642Y254863D01*
X233727Y254829D01*
X233768Y254825D01*
X233790Y254818D01*
X233823Y254819D01*
X233894Y254811D01*
X259660Y254811D01*
X259750Y254825D01*
G37*
%LPC*%
G36*
X17008Y144959D02*
X17008Y144959D01*
X11480Y147249D01*
X7249Y151480D01*
X4959Y157008D01*
X4959Y162992D01*
X7249Y168520D01*
X11480Y172751D01*
X17008Y175041D01*
X22992Y175041D01*
X28520Y172751D01*
X32751Y168520D01*
X35041Y162992D01*
X35041Y157008D01*
X32751Y151480D01*
X28520Y147249D01*
X22992Y144959D01*
X17008Y144959D01*
G37*
%LPD*%
%LPC*%
G36*
X17008Y644959D02*
X17008Y644959D01*
X11480Y647249D01*
X7249Y651480D01*
X4959Y657008D01*
X4959Y662992D01*
X7249Y668520D01*
X11480Y672751D01*
X17008Y675041D01*
X22992Y675041D01*
X28520Y672751D01*
X32751Y668520D01*
X35041Y662992D01*
X35041Y657008D01*
X32751Y651480D01*
X28520Y647249D01*
X22992Y644959D01*
X17008Y644959D01*
G37*
%LPD*%
%LPC*%
G36*
X247008Y644959D02*
X247008Y644959D01*
X241480Y647249D01*
X237249Y651480D01*
X234959Y657008D01*
X234959Y662992D01*
X237249Y668520D01*
X241480Y672751D01*
X247008Y675041D01*
X252992Y675041D01*
X258520Y672751D01*
X262751Y668520D01*
X265041Y662992D01*
X265041Y657008D01*
X262751Y651480D01*
X258520Y647249D01*
X252992Y644959D01*
X247008Y644959D01*
G37*
%LPD*%
G36*
X51824Y373435D02*
X51824Y373435D01*
X51895Y373440D01*
X51943Y373461D01*
X51994Y373472D01*
X52055Y373509D01*
X52121Y373537D01*
X52177Y373581D01*
X52205Y373598D01*
X52220Y373616D01*
X52252Y373641D01*
X82619Y404008D01*
X82660Y404066D01*
X82710Y404118D01*
X82732Y404165D01*
X82762Y404207D01*
X82783Y404276D01*
X82813Y404341D01*
X82819Y404393D01*
X82834Y404443D01*
X82833Y404514D01*
X82840Y404585D01*
X82829Y404636D01*
X82828Y404688D01*
X82803Y404756D01*
X82788Y404826D01*
X82762Y404870D01*
X82744Y404919D01*
X82699Y404975D01*
X82662Y405037D01*
X82622Y405071D01*
X82590Y405111D01*
X82530Y405150D01*
X82475Y405197D01*
X82427Y405216D01*
X82383Y405244D01*
X82314Y405262D01*
X82247Y405289D01*
X82176Y405297D01*
X82144Y405305D01*
X82121Y405303D01*
X82080Y405307D01*
X80075Y405307D01*
X75593Y407164D01*
X72164Y410593D01*
X71812Y411441D01*
X71751Y411540D01*
X71691Y411641D01*
X71686Y411645D01*
X71683Y411650D01*
X71593Y411725D01*
X71504Y411801D01*
X71498Y411803D01*
X71493Y411807D01*
X71385Y411849D01*
X71276Y411893D01*
X71268Y411894D01*
X71264Y411895D01*
X71245Y411896D01*
X71109Y411911D01*
X52762Y411911D01*
X52692Y411900D01*
X52620Y411898D01*
X52571Y411880D01*
X52520Y411872D01*
X52456Y411838D01*
X52389Y411813D01*
X52348Y411781D01*
X52302Y411756D01*
X52253Y411704D01*
X52197Y411660D01*
X52169Y411616D01*
X52133Y411578D01*
X52103Y411513D01*
X52064Y411453D01*
X52051Y411402D01*
X52029Y411355D01*
X52021Y411284D01*
X52004Y411214D01*
X52008Y411162D01*
X52002Y411111D01*
X52017Y411040D01*
X52023Y410969D01*
X52043Y410921D01*
X52054Y410870D01*
X52091Y410809D01*
X52119Y410743D01*
X52164Y410687D01*
X52181Y410659D01*
X52198Y410644D01*
X52224Y410612D01*
X52697Y410139D01*
X53541Y408102D01*
X53541Y405898D01*
X52697Y403861D01*
X51176Y402340D01*
X51123Y402266D01*
X51063Y402196D01*
X51051Y402166D01*
X51032Y402140D01*
X51005Y402053D01*
X50971Y401968D01*
X50967Y401927D01*
X50960Y401905D01*
X50961Y401873D01*
X50953Y401802D01*
X50953Y374180D01*
X50964Y374109D01*
X50966Y374037D01*
X50984Y373988D01*
X50992Y373937D01*
X51026Y373874D01*
X51051Y373806D01*
X51083Y373766D01*
X51108Y373720D01*
X51159Y373670D01*
X51204Y373614D01*
X51248Y373586D01*
X51286Y373550D01*
X51351Y373520D01*
X51411Y373481D01*
X51462Y373469D01*
X51509Y373447D01*
X51580Y373439D01*
X51650Y373421D01*
X51702Y373425D01*
X51753Y373420D01*
X51824Y373435D01*
G37*
%LPC*%
G36*
X64898Y545459D02*
X64898Y545459D01*
X62861Y546303D01*
X61303Y547861D01*
X60459Y549898D01*
X60459Y552102D01*
X61303Y554139D01*
X62861Y555697D01*
X64898Y556541D01*
X66898Y556541D01*
X66918Y556544D01*
X66937Y556542D01*
X67039Y556564D01*
X67141Y556580D01*
X67158Y556590D01*
X67178Y556594D01*
X67267Y556647D01*
X67358Y556696D01*
X67372Y556710D01*
X67389Y556720D01*
X67456Y556799D01*
X67528Y556874D01*
X67536Y556892D01*
X67549Y556907D01*
X67588Y557003D01*
X67631Y557097D01*
X67633Y557117D01*
X67641Y557135D01*
X67659Y557302D01*
X67659Y560499D01*
X68960Y563638D01*
X71362Y566040D01*
X74501Y567341D01*
X77899Y567341D01*
X81038Y566040D01*
X82467Y564612D01*
X82541Y564559D01*
X82610Y564499D01*
X82640Y564487D01*
X82667Y564468D01*
X82753Y564441D01*
X82838Y564407D01*
X82879Y564403D01*
X82902Y564396D01*
X82934Y564397D01*
X83005Y564389D01*
X90312Y564389D01*
X92366Y563538D01*
X96738Y559166D01*
X97589Y557112D01*
X97589Y554888D01*
X96738Y552834D01*
X95166Y551262D01*
X93112Y550411D01*
X90888Y550411D01*
X88834Y551262D01*
X87108Y552988D01*
X87034Y553041D01*
X86965Y553101D01*
X86934Y553113D01*
X86908Y553132D01*
X86821Y553159D01*
X86736Y553193D01*
X86696Y553197D01*
X86673Y553204D01*
X86641Y553203D01*
X86570Y553211D01*
X83005Y553211D01*
X82915Y553197D01*
X82824Y553189D01*
X82794Y553177D01*
X82762Y553172D01*
X82682Y553129D01*
X82598Y553093D01*
X82566Y553067D01*
X82545Y553056D01*
X82523Y553033D01*
X82467Y552988D01*
X81038Y551560D01*
X77899Y550259D01*
X74501Y550259D01*
X72593Y551050D01*
X72549Y551060D01*
X72507Y551079D01*
X72430Y551088D01*
X72354Y551106D01*
X72308Y551101D01*
X72263Y551106D01*
X72186Y551090D01*
X72109Y551083D01*
X72067Y551064D01*
X72022Y551054D01*
X71955Y551014D01*
X71884Y550983D01*
X71850Y550952D01*
X71811Y550928D01*
X71760Y550869D01*
X71703Y550816D01*
X71681Y550776D01*
X71651Y550741D01*
X71622Y550669D01*
X71585Y550601D01*
X71576Y550556D01*
X71559Y550513D01*
X71544Y550377D01*
X71541Y550359D01*
X71542Y550354D01*
X71541Y550346D01*
X71541Y549898D01*
X70697Y547861D01*
X69139Y546303D01*
X67102Y545459D01*
X64898Y545459D01*
G37*
%LPD*%
%LPC*%
G36*
X147904Y757459D02*
X147904Y757459D01*
X143663Y759216D01*
X140416Y762463D01*
X138659Y766704D01*
X138659Y771296D01*
X140416Y775537D01*
X143663Y778784D01*
X147904Y780541D01*
X152496Y780541D01*
X156737Y778784D01*
X159984Y775537D01*
X161741Y771296D01*
X161741Y766704D01*
X159984Y762463D01*
X156737Y759216D01*
X152496Y757459D01*
X147904Y757459D01*
G37*
%LPD*%
%LPC*%
G36*
X172904Y757459D02*
X172904Y757459D01*
X168663Y759216D01*
X165416Y762463D01*
X163659Y766704D01*
X163659Y771296D01*
X165416Y775537D01*
X168663Y778784D01*
X172904Y780541D01*
X177496Y780541D01*
X181737Y778784D01*
X184984Y775537D01*
X186741Y771296D01*
X186741Y766704D01*
X184984Y762463D01*
X181737Y759216D01*
X177496Y757459D01*
X172904Y757459D01*
G37*
%LPD*%
%LPC*%
G36*
X34304Y757459D02*
X34304Y757459D01*
X30063Y759216D01*
X26816Y762463D01*
X25059Y766704D01*
X25059Y771296D01*
X26816Y775537D01*
X30063Y778784D01*
X34304Y780541D01*
X38896Y780541D01*
X43137Y778784D01*
X46384Y775537D01*
X48141Y771296D01*
X48141Y766704D01*
X46384Y762463D01*
X43137Y759216D01*
X38896Y757459D01*
X34304Y757459D01*
G37*
%LPD*%
%LPC*%
G36*
X247904Y757459D02*
X247904Y757459D01*
X243663Y759216D01*
X240416Y762463D01*
X238659Y766704D01*
X238659Y771296D01*
X240416Y775537D01*
X243663Y778784D01*
X247904Y780541D01*
X252496Y780541D01*
X256737Y778784D01*
X259984Y775537D01*
X261741Y771296D01*
X261741Y766704D01*
X259984Y762463D01*
X256737Y759216D01*
X252496Y757459D01*
X247904Y757459D01*
G37*
%LPD*%
%LPC*%
G36*
X109304Y757459D02*
X109304Y757459D01*
X105063Y759216D01*
X101816Y762463D01*
X100059Y766704D01*
X100059Y771296D01*
X101816Y775537D01*
X105063Y778784D01*
X109304Y780541D01*
X113896Y780541D01*
X118137Y778784D01*
X121384Y775537D01*
X123141Y771296D01*
X123141Y766704D01*
X121384Y762463D01*
X118137Y759216D01*
X113896Y757459D01*
X109304Y757459D01*
G37*
%LPD*%
%LPC*%
G36*
X59304Y757459D02*
X59304Y757459D01*
X55063Y759216D01*
X51816Y762463D01*
X50059Y766704D01*
X50059Y771296D01*
X51816Y775537D01*
X55063Y778784D01*
X59304Y780541D01*
X63896Y780541D01*
X68137Y778784D01*
X71384Y775537D01*
X73141Y771296D01*
X73141Y766704D01*
X71384Y762463D01*
X68137Y759216D01*
X63896Y757459D01*
X59304Y757459D01*
G37*
%LPD*%
%LPC*%
G36*
X247904Y707459D02*
X247904Y707459D01*
X243663Y709216D01*
X240416Y712463D01*
X238659Y716704D01*
X238659Y721296D01*
X240416Y725537D01*
X243663Y728784D01*
X247904Y730541D01*
X252496Y730541D01*
X256737Y728784D01*
X259984Y725537D01*
X261741Y721296D01*
X261741Y716704D01*
X259984Y712463D01*
X256737Y709216D01*
X252496Y707459D01*
X247904Y707459D01*
G37*
%LPD*%
%LPC*%
G36*
X172904Y707459D02*
X172904Y707459D01*
X168663Y709216D01*
X165416Y712463D01*
X163659Y716704D01*
X163659Y721296D01*
X165416Y725537D01*
X168663Y728784D01*
X172904Y730541D01*
X177496Y730541D01*
X181737Y728784D01*
X184984Y725537D01*
X186741Y721296D01*
X186741Y716704D01*
X184984Y712463D01*
X181737Y709216D01*
X177496Y707459D01*
X172904Y707459D01*
G37*
%LPD*%
%LPC*%
G36*
X147904Y707459D02*
X147904Y707459D01*
X143663Y709216D01*
X140416Y712463D01*
X138659Y716704D01*
X138659Y721296D01*
X140416Y725537D01*
X143663Y728784D01*
X147904Y730541D01*
X152496Y730541D01*
X156737Y728784D01*
X159984Y725537D01*
X161741Y721296D01*
X161741Y716704D01*
X159984Y712463D01*
X156737Y709216D01*
X152496Y707459D01*
X147904Y707459D01*
G37*
%LPD*%
%LPC*%
G36*
X109304Y707459D02*
X109304Y707459D01*
X105063Y709216D01*
X101816Y712463D01*
X100059Y716704D01*
X100059Y721296D01*
X101816Y725537D01*
X105063Y728784D01*
X109304Y730541D01*
X113896Y730541D01*
X118137Y728784D01*
X121384Y725537D01*
X123141Y721296D01*
X123141Y716704D01*
X121384Y712463D01*
X118137Y709216D01*
X113896Y707459D01*
X109304Y707459D01*
G37*
%LPD*%
G36*
X56092Y290246D02*
X56092Y290246D01*
X56138Y290246D01*
X56269Y290284D01*
X56288Y290288D01*
X56292Y290291D01*
X56299Y290293D01*
X56898Y290541D01*
X57836Y290541D01*
X57926Y290555D01*
X58017Y290563D01*
X58047Y290575D01*
X58079Y290580D01*
X58160Y290623D01*
X58244Y290659D01*
X58276Y290685D01*
X58296Y290696D01*
X58319Y290719D01*
X58374Y290764D01*
X59966Y292356D01*
X60019Y292429D01*
X60079Y292499D01*
X60091Y292529D01*
X60110Y292555D01*
X60137Y292642D01*
X60171Y292727D01*
X60175Y292768D01*
X60182Y292790D01*
X60181Y292823D01*
X60189Y292894D01*
X60189Y368962D01*
X60178Y369033D01*
X60176Y369105D01*
X60158Y369154D01*
X60150Y369205D01*
X60116Y369268D01*
X60091Y369336D01*
X60059Y369376D01*
X60034Y369422D01*
X59982Y369472D01*
X59938Y369528D01*
X59894Y369556D01*
X59856Y369592D01*
X59791Y369622D01*
X59731Y369661D01*
X59680Y369673D01*
X59633Y369695D01*
X59562Y369703D01*
X59492Y369721D01*
X59440Y369717D01*
X59389Y369722D01*
X59318Y369707D01*
X59247Y369702D01*
X59199Y369681D01*
X59148Y369670D01*
X59087Y369633D01*
X59021Y369605D01*
X58965Y369561D01*
X58937Y369544D01*
X58922Y369526D01*
X58890Y369501D01*
X55470Y366080D01*
X55417Y366006D01*
X55357Y365937D01*
X55345Y365907D01*
X55326Y365881D01*
X55299Y365794D01*
X55265Y365709D01*
X55261Y365668D01*
X55254Y365646D01*
X55255Y365613D01*
X55247Y365542D01*
X55247Y290996D01*
X55254Y290951D01*
X55252Y290905D01*
X55274Y290830D01*
X55286Y290753D01*
X55308Y290713D01*
X55321Y290669D01*
X55365Y290605D01*
X55402Y290536D01*
X55435Y290504D01*
X55461Y290467D01*
X55524Y290420D01*
X55580Y290367D01*
X55622Y290347D01*
X55658Y290320D01*
X55732Y290296D01*
X55803Y290263D01*
X55849Y290258D01*
X55892Y290244D01*
X55970Y290244D01*
X56047Y290236D01*
X56092Y290246D01*
G37*
%LPC*%
G36*
X119898Y632459D02*
X119898Y632459D01*
X117861Y633303D01*
X116303Y634861D01*
X115459Y636898D01*
X115459Y639102D01*
X116303Y641139D01*
X117861Y642697D01*
X119898Y643541D01*
X122102Y643541D01*
X124139Y642697D01*
X125697Y641139D01*
X126541Y639102D01*
X126541Y636898D01*
X125697Y634861D01*
X124139Y633303D01*
X122102Y632459D01*
X119898Y632459D01*
G37*
%LPD*%
%LPC*%
G36*
X163898Y632459D02*
X163898Y632459D01*
X161861Y633303D01*
X160303Y634861D01*
X159459Y636898D01*
X159459Y639102D01*
X160303Y641139D01*
X161861Y642697D01*
X163898Y643541D01*
X166102Y643541D01*
X168139Y642697D01*
X169697Y641139D01*
X170541Y639102D01*
X170541Y636898D01*
X169697Y634861D01*
X168139Y633303D01*
X166102Y632459D01*
X163898Y632459D01*
G37*
%LPD*%
%LPC*%
G36*
X103898Y533459D02*
X103898Y533459D01*
X101861Y534303D01*
X100303Y535861D01*
X99459Y537898D01*
X99459Y540102D01*
X100303Y542139D01*
X101861Y543697D01*
X103898Y544541D01*
X106102Y544541D01*
X108139Y543697D01*
X109697Y542139D01*
X110541Y540102D01*
X110541Y537898D01*
X109697Y535861D01*
X108139Y534303D01*
X106102Y533459D01*
X103898Y533459D01*
G37*
%LPD*%
%LPC*%
G36*
X101898Y611459D02*
X101898Y611459D01*
X99861Y612303D01*
X98303Y613861D01*
X97459Y615898D01*
X97459Y618102D01*
X98303Y620139D01*
X99861Y621697D01*
X101898Y622541D01*
X104102Y622541D01*
X106139Y621697D01*
X107697Y620139D01*
X108541Y618102D01*
X108541Y615898D01*
X107697Y613861D01*
X106139Y612303D01*
X104102Y611459D01*
X101898Y611459D01*
G37*
%LPD*%
%LPC*%
G36*
X198898Y563459D02*
X198898Y563459D01*
X196861Y564303D01*
X195303Y565861D01*
X194459Y567898D01*
X194459Y570102D01*
X195303Y572139D01*
X196861Y573697D01*
X198898Y574541D01*
X201102Y574541D01*
X203139Y573697D01*
X204697Y572139D01*
X205541Y570102D01*
X205541Y567898D01*
X204697Y565861D01*
X203139Y564303D01*
X201102Y563459D01*
X198898Y563459D01*
G37*
%LPD*%
%LPC*%
G36*
X217898Y562459D02*
X217898Y562459D01*
X215861Y563303D01*
X214303Y564861D01*
X213459Y566898D01*
X213459Y569102D01*
X214303Y571139D01*
X215861Y572697D01*
X217898Y573541D01*
X220102Y573541D01*
X222139Y572697D01*
X223697Y571139D01*
X224541Y569102D01*
X224541Y566898D01*
X223697Y564861D01*
X222139Y563303D01*
X220102Y562459D01*
X217898Y562459D01*
G37*
%LPD*%
%LPC*%
G36*
X144898Y557459D02*
X144898Y557459D01*
X142861Y558303D01*
X141303Y559861D01*
X140459Y561898D01*
X140459Y564102D01*
X141303Y566139D01*
X142861Y567697D01*
X144898Y568541D01*
X147102Y568541D01*
X149139Y567697D01*
X150697Y566139D01*
X151541Y564102D01*
X151541Y561898D01*
X150697Y559861D01*
X149139Y558303D01*
X147102Y557459D01*
X144898Y557459D01*
G37*
%LPD*%
%LPC*%
G36*
X27898Y497459D02*
X27898Y497459D01*
X25861Y498303D01*
X24303Y499861D01*
X23459Y501898D01*
X23459Y504102D01*
X24303Y506139D01*
X25861Y507697D01*
X27898Y508541D01*
X30102Y508541D01*
X32139Y507697D01*
X33697Y506139D01*
X34541Y504102D01*
X34541Y501898D01*
X33697Y499861D01*
X32139Y498303D01*
X30102Y497459D01*
X27898Y497459D01*
G37*
%LPD*%
%LPC*%
G36*
X137345Y468012D02*
X137345Y468012D01*
X135308Y468856D01*
X133750Y470415D01*
X132906Y472451D01*
X132906Y474655D01*
X133750Y476692D01*
X135308Y478250D01*
X137345Y479094D01*
X139549Y479094D01*
X141585Y478250D01*
X143144Y476692D01*
X143988Y474655D01*
X143988Y472451D01*
X143144Y470415D01*
X141585Y468856D01*
X139549Y468012D01*
X137345Y468012D01*
G37*
%LPD*%
%LPC*%
G36*
X121898Y464459D02*
X121898Y464459D01*
X119861Y465303D01*
X118303Y466861D01*
X117459Y468898D01*
X117459Y471102D01*
X118303Y473139D01*
X119861Y474697D01*
X121898Y475541D01*
X124102Y475541D01*
X126139Y474697D01*
X127697Y473139D01*
X128541Y471102D01*
X128541Y468898D01*
X127697Y466861D01*
X126139Y465303D01*
X124102Y464459D01*
X121898Y464459D01*
G37*
%LPD*%
%LPC*%
G36*
X253898Y435459D02*
X253898Y435459D01*
X251861Y436303D01*
X250303Y437861D01*
X249459Y439898D01*
X249459Y442102D01*
X250303Y444139D01*
X251861Y445697D01*
X253898Y446541D01*
X256102Y446541D01*
X258139Y445697D01*
X259697Y444139D01*
X260541Y442102D01*
X260541Y439898D01*
X259697Y437861D01*
X258139Y436303D01*
X256102Y435459D01*
X253898Y435459D01*
G37*
%LPD*%
%LPC*%
G36*
X209898Y614459D02*
X209898Y614459D01*
X207861Y615303D01*
X206303Y616861D01*
X205459Y618898D01*
X205459Y621102D01*
X206303Y623139D01*
X207861Y624697D01*
X209898Y625541D01*
X212102Y625541D01*
X214139Y624697D01*
X215697Y623139D01*
X216541Y621102D01*
X216541Y618898D01*
X215697Y616861D01*
X214139Y615303D01*
X212102Y614459D01*
X209898Y614459D01*
G37*
%LPD*%
%LPC*%
G36*
X215898Y690459D02*
X215898Y690459D01*
X213861Y691303D01*
X212303Y692861D01*
X211459Y694898D01*
X211459Y697102D01*
X212303Y699139D01*
X213861Y700697D01*
X215898Y701541D01*
X218102Y701541D01*
X220139Y700697D01*
X221697Y699139D01*
X222541Y697102D01*
X222541Y694898D01*
X221697Y692861D01*
X220139Y691303D01*
X218102Y690459D01*
X215898Y690459D01*
G37*
%LPD*%
%LPC*%
G36*
X179898Y690459D02*
X179898Y690459D01*
X177861Y691303D01*
X176303Y692861D01*
X175459Y694898D01*
X175459Y697102D01*
X176303Y699139D01*
X177861Y700697D01*
X179898Y701541D01*
X182102Y701541D01*
X184139Y700697D01*
X185697Y699139D01*
X186541Y697102D01*
X186541Y694898D01*
X185697Y692861D01*
X184139Y691303D01*
X182102Y690459D01*
X179898Y690459D01*
G37*
%LPD*%
%LPC*%
G36*
X202186Y636172D02*
X202186Y636172D01*
X200149Y637015D01*
X198590Y638574D01*
X197747Y640610D01*
X197747Y642814D01*
X198590Y644851D01*
X200149Y646410D01*
X202186Y647253D01*
X204390Y647253D01*
X206426Y646410D01*
X207985Y644851D01*
X208828Y642814D01*
X208828Y640610D01*
X207985Y638574D01*
X206426Y637015D01*
X204390Y636172D01*
X202186Y636172D01*
G37*
%LPD*%
%LPC*%
G36*
X84023Y464023D02*
X84023Y464023D01*
X84023Y474057D01*
X85229Y473866D01*
X86973Y473299D01*
X88607Y472466D01*
X90091Y471388D01*
X91388Y470091D01*
X92466Y468607D01*
X93299Y466973D01*
X93866Y465229D01*
X94057Y464023D01*
X84023Y464023D01*
G37*
%LPD*%
%LPC*%
G36*
X194023Y544023D02*
X194023Y544023D01*
X194023Y554057D01*
X195229Y553866D01*
X196973Y553299D01*
X198607Y552466D01*
X200091Y551388D01*
X201388Y550091D01*
X202466Y548607D01*
X203299Y546973D01*
X203866Y545229D01*
X204057Y544023D01*
X194023Y544023D01*
G37*
%LPD*%
%LPC*%
G36*
X19023Y464023D02*
X19023Y464023D01*
X19023Y474057D01*
X20229Y473866D01*
X21973Y473299D01*
X23607Y472466D01*
X25091Y471388D01*
X26388Y470091D01*
X27466Y468607D01*
X28299Y466973D01*
X28866Y465229D01*
X29057Y464023D01*
X19023Y464023D01*
G37*
%LPD*%
%LPC*%
G36*
X129023Y544023D02*
X129023Y544023D01*
X129023Y554057D01*
X130229Y553866D01*
X131973Y553299D01*
X133607Y552466D01*
X135091Y551388D01*
X136388Y550091D01*
X137466Y548607D01*
X138299Y546973D01*
X138866Y545229D01*
X139057Y544023D01*
X129023Y544023D01*
G37*
%LPD*%
%LPC*%
G36*
X180943Y544023D02*
X180943Y544023D01*
X181134Y545229D01*
X181701Y546973D01*
X182534Y548607D01*
X183612Y550091D01*
X184909Y551388D01*
X186393Y552466D01*
X188027Y553299D01*
X189771Y553866D01*
X190977Y554057D01*
X190977Y544023D01*
X180943Y544023D01*
G37*
%LPD*%
%LPC*%
G36*
X70943Y464023D02*
X70943Y464023D01*
X71134Y465229D01*
X71701Y466973D01*
X72534Y468607D01*
X73612Y470091D01*
X74909Y471388D01*
X76393Y472466D01*
X78027Y473299D01*
X79771Y473866D01*
X80977Y474057D01*
X80977Y464023D01*
X70943Y464023D01*
G37*
%LPD*%
%LPC*%
G36*
X129023Y540977D02*
X129023Y540977D01*
X139057Y540977D01*
X138866Y539771D01*
X138299Y538027D01*
X137466Y536393D01*
X136388Y534909D01*
X135091Y533612D01*
X133607Y532534D01*
X131973Y531701D01*
X130229Y531134D01*
X129023Y530943D01*
X129023Y540977D01*
G37*
%LPD*%
%LPC*%
G36*
X115943Y544023D02*
X115943Y544023D01*
X116134Y545229D01*
X116701Y546973D01*
X117534Y548607D01*
X118612Y550091D01*
X119909Y551388D01*
X121393Y552466D01*
X123027Y553299D01*
X124771Y553866D01*
X125977Y554057D01*
X125977Y544023D01*
X115943Y544023D01*
G37*
%LPD*%
%LPC*%
G36*
X194023Y540977D02*
X194023Y540977D01*
X204057Y540977D01*
X203866Y539771D01*
X203299Y538027D01*
X202466Y536393D01*
X201388Y534909D01*
X200091Y533612D01*
X198607Y532534D01*
X196973Y531701D01*
X195229Y531134D01*
X194023Y530943D01*
X194023Y540977D01*
G37*
%LPD*%
%LPC*%
G36*
X84023Y460977D02*
X84023Y460977D01*
X94057Y460977D01*
X93866Y459771D01*
X93299Y458027D01*
X92466Y456393D01*
X91388Y454909D01*
X90091Y453612D01*
X88607Y452534D01*
X86973Y451701D01*
X85229Y451134D01*
X84023Y450943D01*
X84023Y460977D01*
G37*
%LPD*%
%LPC*%
G36*
X5943Y464023D02*
X5943Y464023D01*
X6134Y465229D01*
X6701Y466973D01*
X7534Y468607D01*
X8612Y470091D01*
X9909Y471388D01*
X11393Y472466D01*
X13027Y473299D01*
X14771Y473866D01*
X15977Y474057D01*
X15977Y464023D01*
X5943Y464023D01*
G37*
%LPD*%
%LPC*%
G36*
X79771Y451134D02*
X79771Y451134D01*
X78027Y451701D01*
X76393Y452534D01*
X74909Y453612D01*
X73612Y454909D01*
X72534Y456393D01*
X71701Y458027D01*
X71134Y459771D01*
X70943Y460977D01*
X80977Y460977D01*
X80977Y450943D01*
X79771Y451134D01*
G37*
%LPD*%
%LPC*%
G36*
X14771Y451134D02*
X14771Y451134D01*
X13027Y451701D01*
X11393Y452534D01*
X9909Y453612D01*
X8612Y454909D01*
X7534Y456393D01*
X6701Y458027D01*
X6134Y459771D01*
X5943Y460977D01*
X15977Y460977D01*
X15977Y450943D01*
X14771Y451134D01*
G37*
%LPD*%
%LPC*%
G36*
X124771Y531134D02*
X124771Y531134D01*
X123027Y531701D01*
X121393Y532534D01*
X119909Y533612D01*
X118612Y534909D01*
X117534Y536393D01*
X116701Y538027D01*
X116134Y539771D01*
X115943Y540977D01*
X125977Y540977D01*
X125977Y530943D01*
X124771Y531134D01*
G37*
%LPD*%
%LPC*%
G36*
X189771Y531134D02*
X189771Y531134D01*
X188027Y531701D01*
X186393Y532534D01*
X184909Y533612D01*
X183612Y534909D01*
X182534Y536393D01*
X181701Y538027D01*
X181134Y539771D01*
X180943Y540977D01*
X190977Y540977D01*
X190977Y530943D01*
X189771Y531134D01*
G37*
%LPD*%
%LPC*%
G36*
X226723Y770523D02*
X226723Y770523D01*
X226723Y779897D01*
X227776Y779730D01*
X229423Y779195D01*
X230966Y778409D01*
X232367Y777391D01*
X233591Y776167D01*
X234609Y774766D01*
X235395Y773223D01*
X235930Y771576D01*
X236097Y770523D01*
X226723Y770523D01*
G37*
%LPD*%
%LPC*%
G36*
X201723Y770523D02*
X201723Y770523D01*
X201723Y779897D01*
X202776Y779730D01*
X204423Y779195D01*
X205966Y778409D01*
X207367Y777391D01*
X208591Y776167D01*
X209609Y774766D01*
X210395Y773223D01*
X210930Y771576D01*
X211097Y770523D01*
X201723Y770523D01*
G37*
%LPD*%
%LPC*%
G36*
X13123Y770523D02*
X13123Y770523D01*
X13123Y779897D01*
X14176Y779730D01*
X15823Y779195D01*
X17366Y778409D01*
X18767Y777391D01*
X19991Y776167D01*
X21009Y774766D01*
X21795Y773223D01*
X22330Y771576D01*
X22497Y770523D01*
X13123Y770523D01*
G37*
%LPD*%
%LPC*%
G36*
X88123Y770523D02*
X88123Y770523D01*
X88123Y779897D01*
X89176Y779730D01*
X90823Y779195D01*
X92366Y778409D01*
X93767Y777391D01*
X94991Y776167D01*
X96009Y774766D01*
X96795Y773223D01*
X97330Y771576D01*
X97497Y770523D01*
X88123Y770523D01*
G37*
%LPD*%
%LPC*%
G36*
X201723Y720523D02*
X201723Y720523D01*
X201723Y729897D01*
X202776Y729730D01*
X204423Y729195D01*
X205966Y728409D01*
X207367Y727391D01*
X208591Y726167D01*
X209609Y724766D01*
X210395Y723223D01*
X210930Y721576D01*
X211097Y720523D01*
X201723Y720523D01*
G37*
%LPD*%
%LPC*%
G36*
X226723Y720523D02*
X226723Y720523D01*
X226723Y729897D01*
X227776Y729730D01*
X229423Y729195D01*
X230966Y728409D01*
X232367Y727391D01*
X233591Y726167D01*
X234609Y724766D01*
X235395Y723223D01*
X235930Y721576D01*
X236097Y720523D01*
X226723Y720523D01*
G37*
%LPD*%
%LPC*%
G36*
X13123Y720523D02*
X13123Y720523D01*
X13123Y729897D01*
X14176Y729730D01*
X15823Y729195D01*
X17366Y728409D01*
X18767Y727391D01*
X19991Y726167D01*
X21009Y724766D01*
X21795Y723223D01*
X22330Y721576D01*
X22497Y720523D01*
X13123Y720523D01*
G37*
%LPD*%
%LPC*%
G36*
X88123Y720523D02*
X88123Y720523D01*
X88123Y729897D01*
X89176Y729730D01*
X90823Y729195D01*
X92366Y728409D01*
X93767Y727391D01*
X94991Y726167D01*
X96009Y724766D01*
X96795Y723223D01*
X97330Y721576D01*
X97497Y720523D01*
X88123Y720523D01*
G37*
%LPD*%
%LPC*%
G36*
X214303Y770523D02*
X214303Y770523D01*
X214470Y771576D01*
X215005Y773223D01*
X215791Y774766D01*
X216809Y776167D01*
X218033Y777391D01*
X219434Y778409D01*
X220977Y779195D01*
X222624Y779730D01*
X223677Y779897D01*
X223677Y770523D01*
X214303Y770523D01*
G37*
%LPD*%
%LPC*%
G36*
X189303Y770523D02*
X189303Y770523D01*
X189470Y771576D01*
X190005Y773223D01*
X190791Y774766D01*
X191809Y776167D01*
X193033Y777391D01*
X194434Y778409D01*
X195977Y779195D01*
X197624Y779730D01*
X198677Y779897D01*
X198677Y770523D01*
X189303Y770523D01*
G37*
%LPD*%
%LPC*%
G36*
X88123Y717477D02*
X88123Y717477D01*
X97497Y717477D01*
X97330Y716424D01*
X96795Y714777D01*
X96009Y713234D01*
X94991Y711833D01*
X93767Y710609D01*
X92366Y709591D01*
X90823Y708805D01*
X89176Y708270D01*
X88123Y708103D01*
X88123Y717477D01*
G37*
%LPD*%
%LPC*%
G36*
X13123Y717477D02*
X13123Y717477D01*
X22497Y717477D01*
X22330Y716424D01*
X21795Y714777D01*
X21009Y713234D01*
X19991Y711833D01*
X18767Y710609D01*
X17366Y709591D01*
X15823Y708805D01*
X14176Y708270D01*
X13123Y708103D01*
X13123Y717477D01*
G37*
%LPD*%
%LPC*%
G36*
X88123Y767477D02*
X88123Y767477D01*
X97497Y767477D01*
X97330Y766424D01*
X96795Y764777D01*
X96009Y763234D01*
X94991Y761833D01*
X93767Y760609D01*
X92366Y759591D01*
X90823Y758805D01*
X89176Y758270D01*
X88123Y758103D01*
X88123Y767477D01*
G37*
%LPD*%
%LPC*%
G36*
X13123Y767477D02*
X13123Y767477D01*
X22497Y767477D01*
X22330Y766424D01*
X21795Y764777D01*
X21009Y763234D01*
X19991Y761833D01*
X18767Y760609D01*
X17366Y759591D01*
X15823Y758805D01*
X14176Y758270D01*
X13123Y758103D01*
X13123Y767477D01*
G37*
%LPD*%
%LPC*%
G36*
X226723Y767477D02*
X226723Y767477D01*
X236097Y767477D01*
X235930Y766424D01*
X235395Y764777D01*
X234609Y763234D01*
X233591Y761833D01*
X232367Y760609D01*
X230966Y759591D01*
X229423Y758805D01*
X227776Y758270D01*
X226723Y758103D01*
X226723Y767477D01*
G37*
%LPD*%
%LPC*%
G36*
X201723Y767477D02*
X201723Y767477D01*
X211097Y767477D01*
X210930Y766424D01*
X210395Y764777D01*
X209609Y763234D01*
X208591Y761833D01*
X207367Y760609D01*
X205966Y759591D01*
X204423Y758805D01*
X202776Y758270D01*
X201723Y758103D01*
X201723Y767477D01*
G37*
%LPD*%
%LPC*%
G36*
X75703Y720523D02*
X75703Y720523D01*
X75870Y721576D01*
X76405Y723223D01*
X77191Y724766D01*
X78209Y726167D01*
X79433Y727391D01*
X80834Y728409D01*
X82377Y729195D01*
X84024Y729730D01*
X85077Y729897D01*
X85077Y720523D01*
X75703Y720523D01*
G37*
%LPD*%
%LPC*%
G36*
X214303Y720523D02*
X214303Y720523D01*
X214470Y721576D01*
X215005Y723223D01*
X215791Y724766D01*
X216809Y726167D01*
X218033Y727391D01*
X219434Y728409D01*
X220977Y729195D01*
X222624Y729730D01*
X223677Y729897D01*
X223677Y720523D01*
X214303Y720523D01*
G37*
%LPD*%
%LPC*%
G36*
X189303Y720523D02*
X189303Y720523D01*
X189470Y721576D01*
X190005Y723223D01*
X190791Y724766D01*
X191809Y726167D01*
X193033Y727391D01*
X194434Y728409D01*
X195977Y729195D01*
X197624Y729730D01*
X198677Y729897D01*
X198677Y720523D01*
X189303Y720523D01*
G37*
%LPD*%
%LPC*%
G36*
X226723Y717477D02*
X226723Y717477D01*
X236097Y717477D01*
X235930Y716424D01*
X235395Y714777D01*
X234609Y713234D01*
X233591Y711833D01*
X232367Y710609D01*
X230966Y709591D01*
X229423Y708805D01*
X227776Y708270D01*
X226723Y708103D01*
X226723Y717477D01*
G37*
%LPD*%
%LPC*%
G36*
X75703Y770523D02*
X75703Y770523D01*
X75870Y771576D01*
X76405Y773223D01*
X77191Y774766D01*
X78209Y776167D01*
X79433Y777391D01*
X80834Y778409D01*
X82377Y779195D01*
X84024Y779730D01*
X85077Y779897D01*
X85077Y770523D01*
X75703Y770523D01*
G37*
%LPD*%
%LPC*%
G36*
X201723Y717477D02*
X201723Y717477D01*
X211097Y717477D01*
X210930Y716424D01*
X210395Y714777D01*
X209609Y713234D01*
X208591Y711833D01*
X207367Y710609D01*
X205966Y709591D01*
X204423Y708805D01*
X202776Y708270D01*
X201723Y708103D01*
X201723Y717477D01*
G37*
%LPD*%
%LPC*%
G36*
X84024Y758270D02*
X84024Y758270D01*
X82377Y758805D01*
X80834Y759591D01*
X79433Y760609D01*
X78209Y761833D01*
X77191Y763234D01*
X76405Y764777D01*
X75870Y766424D01*
X75703Y767477D01*
X85077Y767477D01*
X85077Y758103D01*
X84024Y758270D01*
G37*
%LPD*%
%LPC*%
G36*
X84024Y708270D02*
X84024Y708270D01*
X82377Y708805D01*
X80834Y709591D01*
X79433Y710609D01*
X78209Y711833D01*
X77191Y713234D01*
X76405Y714777D01*
X75870Y716424D01*
X75703Y717477D01*
X85077Y717477D01*
X85077Y708103D01*
X84024Y708270D01*
G37*
%LPD*%
%LPC*%
G36*
X222624Y708270D02*
X222624Y708270D01*
X220977Y708805D01*
X219434Y709591D01*
X218033Y710609D01*
X216809Y711833D01*
X215791Y713234D01*
X215005Y714777D01*
X214470Y716424D01*
X214303Y717477D01*
X223677Y717477D01*
X223677Y708103D01*
X222624Y708270D01*
G37*
%LPD*%
%LPC*%
G36*
X197624Y758270D02*
X197624Y758270D01*
X195977Y758805D01*
X194434Y759591D01*
X193033Y760609D01*
X191809Y761833D01*
X190791Y763234D01*
X190005Y764777D01*
X189470Y766424D01*
X189303Y767477D01*
X198677Y767477D01*
X198677Y758103D01*
X197624Y758270D01*
G37*
%LPD*%
%LPC*%
G36*
X222624Y758270D02*
X222624Y758270D01*
X220977Y758805D01*
X219434Y759591D01*
X218033Y760609D01*
X216809Y761833D01*
X215791Y763234D01*
X215005Y764777D01*
X214470Y766424D01*
X214303Y767477D01*
X223677Y767477D01*
X223677Y758103D01*
X222624Y758270D01*
G37*
%LPD*%
%LPC*%
G36*
X197624Y708270D02*
X197624Y708270D01*
X195977Y708805D01*
X194434Y709591D01*
X193033Y710609D01*
X191809Y711833D01*
X190791Y713234D01*
X190005Y714777D01*
X189470Y716424D01*
X189303Y717477D01*
X198677Y717477D01*
X198677Y708103D01*
X197624Y708270D01*
G37*
%LPD*%
%LPC*%
G36*
X250223Y485823D02*
X250223Y485823D01*
X250223Y495477D01*
X255790Y495477D01*
X255672Y494885D01*
X255126Y493566D01*
X254332Y492378D01*
X253322Y491368D01*
X253195Y491283D01*
X253161Y491252D01*
X253122Y491228D01*
X253072Y491168D01*
X253015Y491115D01*
X252993Y491075D01*
X252964Y491039D01*
X252935Y490967D01*
X252898Y490899D01*
X252890Y490853D01*
X252874Y490811D01*
X252870Y490733D01*
X252857Y490656D01*
X252864Y490611D01*
X252861Y490565D01*
X252882Y490490D01*
X252894Y490413D01*
X252915Y490372D01*
X252928Y490328D01*
X252972Y490264D01*
X253008Y490195D01*
X253041Y490163D01*
X253067Y490125D01*
X253171Y490037D01*
X253185Y490024D01*
X253189Y490022D01*
X253195Y490017D01*
X253322Y489932D01*
X254332Y488922D01*
X255126Y487734D01*
X255672Y486415D01*
X255790Y485823D01*
X250223Y485823D01*
G37*
%LPD*%
%LPC*%
G36*
X114874Y591374D02*
X114874Y591374D01*
X114874Y600626D01*
X119435Y600626D01*
X119289Y599895D01*
X118875Y598894D01*
X118273Y597993D01*
X117507Y597227D01*
X116617Y596633D01*
X116583Y596602D01*
X116544Y596578D01*
X116494Y596518D01*
X116437Y596465D01*
X116415Y596425D01*
X116386Y596390D01*
X116357Y596317D01*
X116320Y596249D01*
X116313Y596203D01*
X116296Y596161D01*
X116292Y596083D01*
X116279Y596006D01*
X116286Y595961D01*
X116283Y595915D01*
X116305Y595840D01*
X116316Y595763D01*
X116338Y595723D01*
X116350Y595678D01*
X116394Y595614D01*
X116430Y595545D01*
X116463Y595513D01*
X116489Y595475D01*
X116593Y595387D01*
X116607Y595374D01*
X116611Y595372D01*
X116617Y595367D01*
X117507Y594773D01*
X118273Y594007D01*
X118875Y593106D01*
X119289Y592105D01*
X119435Y591374D01*
X114874Y591374D01*
G37*
%LPD*%
%LPC*%
G36*
X108565Y591374D02*
X108565Y591374D01*
X108711Y592105D01*
X109125Y593106D01*
X109727Y594007D01*
X110493Y594773D01*
X111383Y595367D01*
X111417Y595398D01*
X111456Y595422D01*
X111506Y595482D01*
X111563Y595535D01*
X111585Y595575D01*
X111614Y595610D01*
X111643Y595683D01*
X111680Y595751D01*
X111687Y595797D01*
X111704Y595839D01*
X111708Y595917D01*
X111721Y595994D01*
X111714Y596039D01*
X111717Y596085D01*
X111695Y596160D01*
X111684Y596237D01*
X111662Y596278D01*
X111650Y596322D01*
X111606Y596386D01*
X111570Y596455D01*
X111537Y596487D01*
X111511Y596525D01*
X111407Y596613D01*
X111393Y596626D01*
X111389Y596628D01*
X111383Y596633D01*
X110493Y597227D01*
X109727Y597993D01*
X109125Y598894D01*
X108711Y599895D01*
X108565Y600626D01*
X113126Y600626D01*
X113126Y591374D01*
X108565Y591374D01*
G37*
%LPD*%
%LPC*%
G36*
X26923Y560323D02*
X26923Y560323D01*
X26923Y566655D01*
X27734Y566493D01*
X29190Y565890D01*
X30500Y565015D01*
X31615Y563900D01*
X32490Y562590D01*
X33093Y561134D01*
X33255Y560323D01*
X26923Y560323D01*
G37*
%LPD*%
%LPC*%
G36*
X217423Y547623D02*
X217423Y547623D01*
X217423Y553955D01*
X218234Y553793D01*
X219690Y553190D01*
X221000Y552315D01*
X222115Y551200D01*
X222990Y549890D01*
X223593Y548434D01*
X223755Y547623D01*
X217423Y547623D01*
G37*
%LPD*%
%LPC*%
G36*
X208045Y547623D02*
X208045Y547623D01*
X208207Y548434D01*
X208810Y549890D01*
X209685Y551200D01*
X210800Y552315D01*
X212110Y553190D01*
X213566Y553793D01*
X214377Y553954D01*
X214377Y547623D01*
X208045Y547623D01*
G37*
%LPD*%
%LPC*%
G36*
X217423Y544577D02*
X217423Y544577D01*
X223754Y544577D01*
X223593Y543766D01*
X222990Y542310D01*
X222115Y541000D01*
X221000Y539885D01*
X219690Y539010D01*
X218234Y538407D01*
X217423Y538245D01*
X217423Y544577D01*
G37*
%LPD*%
%LPC*%
G36*
X17545Y560323D02*
X17545Y560323D01*
X17707Y561134D01*
X18310Y562590D01*
X19185Y563900D01*
X20300Y565015D01*
X21610Y565890D01*
X23066Y566493D01*
X23877Y566654D01*
X23877Y560323D01*
X17545Y560323D01*
G37*
%LPD*%
%LPC*%
G36*
X26923Y557277D02*
X26923Y557277D01*
X33254Y557277D01*
X33093Y556466D01*
X32490Y555010D01*
X31615Y553700D01*
X30500Y552585D01*
X29190Y551710D01*
X27734Y551107D01*
X26923Y550945D01*
X26923Y557277D01*
G37*
%LPD*%
%LPC*%
G36*
X213566Y538407D02*
X213566Y538407D01*
X212110Y539010D01*
X210800Y539885D01*
X209685Y541000D01*
X208810Y542310D01*
X208207Y543766D01*
X208046Y544577D01*
X214377Y544577D01*
X214377Y538246D01*
X213566Y538407D01*
G37*
%LPD*%
%LPC*%
G36*
X23066Y551107D02*
X23066Y551107D01*
X21610Y551710D01*
X20300Y552585D01*
X19185Y553700D01*
X18310Y555010D01*
X17707Y556466D01*
X17546Y557277D01*
X23877Y557277D01*
X23877Y550946D01*
X23066Y551107D01*
G37*
%LPD*%
%LPC*%
G36*
X114874Y602374D02*
X114874Y602374D01*
X114874Y606935D01*
X115605Y606789D01*
X116606Y606375D01*
X117507Y605773D01*
X118273Y605007D01*
X118875Y604106D01*
X119289Y603105D01*
X119435Y602374D01*
X114874Y602374D01*
G37*
%LPD*%
%LPC*%
G36*
X114874Y589626D02*
X114874Y589626D01*
X119435Y589626D01*
X119289Y588895D01*
X118875Y587894D01*
X118273Y586993D01*
X117507Y586227D01*
X116606Y585625D01*
X115605Y585211D01*
X114874Y585065D01*
X114874Y589626D01*
G37*
%LPD*%
%LPC*%
G36*
X108565Y602374D02*
X108565Y602374D01*
X108711Y603105D01*
X109125Y604106D01*
X109727Y605007D01*
X110493Y605773D01*
X111394Y606375D01*
X112395Y606789D01*
X113126Y606935D01*
X113126Y602374D01*
X108565Y602374D01*
G37*
%LPD*%
%LPC*%
G36*
X112395Y585211D02*
X112395Y585211D01*
X111394Y585625D01*
X110493Y586227D01*
X109727Y586993D01*
X109125Y587894D01*
X108711Y588895D01*
X108565Y589626D01*
X113126Y589626D01*
X113126Y585065D01*
X112395Y585211D01*
G37*
%LPD*%
%LPC*%
G36*
X225199Y768999D02*
X225199Y768999D01*
X225199Y769001D01*
X225201Y769001D01*
X225201Y768999D01*
X225199Y768999D01*
G37*
%LPD*%
%LPC*%
G36*
X127499Y542499D02*
X127499Y542499D01*
X127499Y542501D01*
X127501Y542501D01*
X127501Y542499D01*
X127499Y542499D01*
G37*
%LPD*%
%LPC*%
G36*
X192499Y542499D02*
X192499Y542499D01*
X192499Y542501D01*
X192501Y542501D01*
X192501Y542499D01*
X192499Y542499D01*
G37*
%LPD*%
%LPC*%
G36*
X200199Y768999D02*
X200199Y768999D01*
X200199Y769001D01*
X200201Y769001D01*
X200201Y768999D01*
X200199Y768999D01*
G37*
%LPD*%
%LPC*%
G36*
X200199Y718999D02*
X200199Y718999D01*
X200199Y719001D01*
X200201Y719001D01*
X200201Y718999D01*
X200199Y718999D01*
G37*
%LPD*%
%LPC*%
G36*
X86599Y768999D02*
X86599Y768999D01*
X86599Y769001D01*
X86601Y769001D01*
X86601Y768999D01*
X86599Y768999D01*
G37*
%LPD*%
%LPC*%
G36*
X82499Y462499D02*
X82499Y462499D01*
X82499Y462501D01*
X82501Y462501D01*
X82501Y462499D01*
X82499Y462499D01*
G37*
%LPD*%
%LPC*%
G36*
X17499Y462499D02*
X17499Y462499D01*
X17499Y462501D01*
X17501Y462501D01*
X17501Y462499D01*
X17499Y462499D01*
G37*
%LPD*%
%LPC*%
G36*
X225199Y718999D02*
X225199Y718999D01*
X225199Y719001D01*
X225201Y719001D01*
X225201Y718999D01*
X225199Y718999D01*
G37*
%LPD*%
%LPC*%
G36*
X86599Y718999D02*
X86599Y718999D01*
X86599Y719001D01*
X86601Y719001D01*
X86601Y718999D01*
X86599Y718999D01*
G37*
%LPD*%
%LPC*%
G36*
X25399Y558799D02*
X25399Y558799D01*
X25399Y558801D01*
X25401Y558801D01*
X25401Y558799D01*
X25399Y558799D01*
G37*
%LPD*%
%LPC*%
G36*
X215899Y546099D02*
X215899Y546099D01*
X215899Y546101D01*
X215901Y546101D01*
X215901Y546099D01*
X215899Y546099D01*
G37*
%LPD*%
D10*
X250200Y719000D03*
X250200Y769000D03*
X225200Y719000D03*
X225200Y769000D03*
X200200Y719000D03*
X200200Y769000D03*
X175200Y719000D03*
X175200Y769000D03*
X150200Y719000D03*
X150200Y769000D03*
X111600Y719000D03*
X111600Y769000D03*
X86600Y719000D03*
X86600Y769000D03*
X61600Y719000D03*
X61600Y769000D03*
X36600Y719000D03*
X36600Y769000D03*
X11600Y719000D03*
X11600Y769000D03*
D11*
X236000Y522400D03*
X236000Y509700D03*
X236000Y497000D03*
X236000Y484300D03*
X236000Y471600D03*
X248700Y522400D03*
X248700Y509700D03*
X248700Y497000D03*
X248700Y484300D03*
X248700Y471600D03*
D12*
X215900Y520700D03*
X215900Y495300D03*
X215900Y469900D03*
X215900Y444500D03*
X215900Y546100D03*
D13*
X114000Y601500D03*
X114000Y590500D03*
D12*
X50800Y558800D03*
X76200Y558800D03*
D14*
X127500Y542500D03*
X192500Y542500D03*
X127500Y497500D03*
X192500Y497500D03*
X17500Y462500D03*
X82500Y462500D03*
X17500Y417500D03*
X82500Y417500D03*
D12*
X12700Y279400D03*
X12700Y304800D03*
X12700Y330200D03*
X12700Y355600D03*
X25400Y558800D03*
D15*
X260000Y635000D03*
X252000Y296000D03*
X30000Y197000D03*
X30000Y208000D03*
X30000Y219000D03*
X254000Y197000D03*
X254000Y208000D03*
X254000Y219000D03*
X35000Y390000D03*
X25000Y405000D03*
X240000Y396000D03*
X249000Y396000D03*
X240000Y435000D03*
X15000Y385000D03*
X31000Y295000D03*
X57000Y384000D03*
X31000Y286000D03*
X228000Y297000D03*
X58000Y296000D03*
X263000Y242000D03*
X261000Y359000D03*
X253000Y359000D03*
X10000Y125000D03*
X10000Y135000D03*
X10000Y185000D03*
X10000Y195000D03*
X10000Y205000D03*
X10000Y215000D03*
X10000Y225000D03*
X10000Y235000D03*
X10000Y245000D03*
X10000Y255000D03*
X10000Y265000D03*
X10000Y290000D03*
X10000Y320000D03*
X15000Y345000D03*
X15000Y395000D03*
X55000Y395000D03*
X20000Y435000D03*
X30000Y445000D03*
X10000Y495000D03*
X10000Y510000D03*
X10000Y520000D03*
X10000Y530000D03*
X10000Y540000D03*
X10000Y550000D03*
X10000Y560000D03*
X10000Y570000D03*
X10000Y580000D03*
X10000Y635000D03*
X10000Y625000D03*
X10000Y685000D03*
X10000Y695000D03*
X10000Y740000D03*
X10000Y750000D03*
X10000Y790000D03*
X20000Y790000D03*
X30000Y790000D03*
X40000Y790000D03*
X50000Y790000D03*
X60000Y790000D03*
X70000Y790000D03*
X80000Y790000D03*
X90000Y790000D03*
X100000Y790000D03*
X110000Y790000D03*
X120000Y790000D03*
X130000Y790000D03*
X140000Y790000D03*
X150000Y790000D03*
X160000Y790000D03*
X170000Y790000D03*
X180000Y790000D03*
X190000Y790000D03*
X200000Y790000D03*
X210000Y790000D03*
X220000Y790000D03*
X230000Y790000D03*
X240000Y790000D03*
X250000Y790000D03*
X260000Y790000D03*
X260000Y755000D03*
X260000Y745000D03*
X260000Y735000D03*
X260000Y705000D03*
X260000Y695000D03*
X260000Y685000D03*
X260000Y610000D03*
X260000Y600000D03*
X260000Y590000D03*
X260000Y580000D03*
X260000Y555000D03*
X260000Y545000D03*
X260000Y535000D03*
X260000Y525000D03*
X260000Y515000D03*
X260000Y505000D03*
X260000Y495000D03*
X260000Y485000D03*
X260000Y475000D03*
X260000Y465000D03*
X255000Y455000D03*
X260000Y125000D03*
X260000Y135000D03*
X260000Y145000D03*
X260000Y155000D03*
X260000Y165000D03*
X260000Y175000D03*
X260000Y185000D03*
X260000Y270000D03*
X260000Y280000D03*
X260000Y290000D03*
X260000Y305000D03*
X260000Y315000D03*
X260000Y325000D03*
X80000Y665000D03*
X90000Y665000D03*
X90000Y675000D03*
X125000Y675000D03*
X125000Y665000D03*
X160000Y675000D03*
X160000Y665000D03*
X90000Y630000D03*
X87000Y640000D03*
X67000Y610000D03*
X95000Y610000D03*
X95000Y620000D03*
X100000Y570000D03*
X110000Y560000D03*
X173000Y458000D03*
X141000Y413000D03*
X117000Y405000D03*
X173000Y405000D03*
X215000Y405000D03*
X240000Y444000D03*
X264000Y395000D03*
X264000Y386000D03*
X264000Y377000D03*
X264000Y368000D03*
X90000Y523000D03*
X100000Y531000D03*
X67000Y599000D03*
X146000Y563000D03*
X255000Y441000D03*
X66000Y551000D03*
X29000Y503000D03*
X138447Y473553D03*
X123000Y470000D03*
X105000Y539000D03*
X200000Y569000D03*
X219000Y568000D03*
X211000Y620000D03*
X181000Y696000D03*
X217000Y696000D03*
X103000Y617000D03*
D16*
X217600Y471600D02*
X236000Y471600D01*
D17*
X217600Y471600D02*
X215900Y469900D01*
D15*
X58000Y275000D03*
D16*
X59000Y275000D02*
X69000Y285000D01*
D18*
X59000Y275000D02*
X58000Y275000D01*
D16*
X215900Y469900D02*
X214900Y470900D01*
X167000Y471000D02*
X69000Y373000D01*
X167000Y471000D02*
X206900Y471000D01*
X69000Y373000D02*
X69000Y285000D01*
X206900Y471000D02*
X214800Y471000D01*
D18*
X214900Y470900D01*
D16*
X226900Y484300D02*
X236000Y484300D01*
X226900Y484300D02*
X215900Y495300D01*
D15*
X58000Y285000D03*
D17*
X215900Y491900D02*
X215900Y495300D01*
D16*
X199015Y477452D02*
X167452Y477452D01*
D18*
X213463Y491900D02*
X215900Y491900D01*
D16*
X213463Y491900D02*
X199015Y477452D01*
X64000Y291000D02*
X58000Y285000D01*
X64000Y291000D02*
X64000Y374000D01*
X167452Y477452D01*
X217600Y522400D02*
X236000Y522400D01*
X217600Y522400D02*
X215900Y520700D01*
D15*
X31000Y241000D03*
D18*
X206000Y490869D02*
X206000Y515000D01*
X211700Y520700D01*
D16*
X215900Y520700D01*
X166000Y482000D02*
X51436Y367436D01*
X166000Y482000D02*
X197131Y482000D01*
X206000Y490869D01*
X46000Y241000D02*
X31000Y241000D01*
X46000Y241000D02*
X51436Y246436D01*
X51436Y367436D01*
D15*
X13000Y374000D03*
D16*
X215900Y444500D02*
X230500Y444500D01*
X250000Y464000D01*
X250000Y470300D01*
X248700Y471600D01*
X212267Y461130D02*
X207397Y466000D01*
X238230Y461130D02*
X248700Y471600D01*
X238230Y461130D02*
X212267Y461130D01*
X169000Y466000D02*
X108000Y405000D01*
X108000Y404840D01*
X108500Y404340D01*
D15*
X108500Y404340D03*
D16*
X169000Y466000D02*
X207397Y466000D01*
D15*
X203288Y641712D03*
X165000Y638000D03*
X121000Y638000D03*
X92000Y556000D03*
D19*
X89200Y558800D02*
X76200Y558800D01*
X89200Y558800D02*
X92000Y556000D01*
D15*
X252000Y307000D03*
X186000Y455000D03*
D16*
X186000Y342000D01*
X221000Y307000D01*
X252000Y307000D01*
D15*
X252000Y329000D03*
X200000Y455000D03*
D16*
X200000Y347000D01*
X218000Y329000D01*
X252000Y329000D01*
D15*
X264000Y251000D03*
D16*
X232000Y251000D01*
X149000Y334000D02*
X149000Y421000D01*
X149000Y334000D02*
X232000Y251000D01*
D15*
X149000Y421000D03*
X126000Y406000D03*
X253000Y229000D03*
D16*
X221000Y229000D01*
X126000Y324000D01*
X126000Y406000D01*
D15*
X134000Y406000D03*
D16*
X134000Y329000D01*
D15*
X253000Y237000D03*
D16*
X250000Y240000D01*
X223000Y240000D01*
X134000Y329000D01*
D15*
X264000Y340000D03*
X206275Y449725D03*
D16*
X216000Y340000D02*
X264000Y340000D01*
X216000Y340000D02*
X206000Y350000D01*
X206000Y449449D01*
D20*
X206275Y449725D01*
D19*
X192500Y497500D02*
X127500Y497500D01*
D15*
X24000Y363000D03*
D18*
X24000Y363062D01*
X22438Y364624D01*
X13376Y364624D01*
X4824Y373176D02*
X4824Y429824D01*
X88000Y513000D01*
D15*
X88000Y513000D03*
D18*
X4824Y373176D02*
X13376Y364624D01*
D19*
X17500Y417500D02*
X82500Y417500D01*
X47800Y707800D02*
X36600Y719000D01*
X47800Y561800D02*
X50800Y558800D01*
X47800Y561800D02*
X47800Y707800D01*
D15*
X252000Y264000D03*
D16*
X163000Y331000D02*
X158000Y336000D01*
X230000Y264000D02*
X252000Y264000D01*
X230000Y264000D02*
X166000Y328000D01*
X158000Y336000D02*
X158000Y414000D01*
D15*
X158000Y414000D03*
D16*
X163000Y331000D02*
X166000Y328000D01*
X163000Y331000D02*
X163000Y331000D01*
D15*
X252000Y274000D03*
D16*
X231000Y274000D01*
X166000Y339000D02*
X166000Y411000D01*
X166000Y339000D02*
X231000Y274000D01*
D15*
X166000Y411000D03*
X36000Y409000D03*
X31000Y263000D03*
D16*
X39000Y263000D02*
X40960Y264960D01*
X39000Y263000D02*
X31000Y263000D01*
X40960Y394850D02*
X36000Y399810D01*
X40960Y394850D02*
X40960Y264960D01*
X36000Y399810D02*
X36000Y409000D01*
D15*
X48000Y407000D03*
X31230Y252000D03*
D16*
X39000Y252000D01*
X47142Y406142D02*
X48000Y407000D01*
X47142Y406142D02*
X47142Y260142D01*
X39000Y252000D01*
D15*
X29000Y355000D03*
D16*
X13300Y355000D01*
D18*
X12700Y355600D01*
D15*
X30000Y340000D03*
D16*
X22500Y340000D01*
X12700Y330200D01*
D15*
X30000Y329000D03*
D16*
X12700Y311700D01*
X12700Y304800D01*
D15*
X31000Y307000D03*
D16*
X16700Y292700D01*
X16700Y283400D02*
X12700Y279400D01*
X16700Y283400D02*
X16700Y292700D01*
D15*
X252000Y318000D03*
X193000Y450000D03*
D16*
X193000Y345000D01*
X220000Y318000D01*
X252000Y318000D01*
D15*
X252000Y285000D03*
X179750Y450000D03*
D16*
X179750Y336250D01*
X231000Y285000D01*
X252000Y285000D01*
M02*
