G04 EAGLE Gerber RS-274X export*
G75*
%MOMM*%
%FSLAX34Y34*%
%LPD*%
%INCopper Layer 15*%
%IPPOS*%
%AMOC8*
5,1,8,0,0,1.08239X$1,22.5*%
G01*
%ADD10C,1.800000*%
%ADD11C,1.050000*%
%ADD12C,0.700000*%
%ADD13C,1.500000*%
%ADD14C,0.600000*%
%ADD15C,0.304800*%
%ADD16C,0.150000*%
%ADD17C,0.254000*%
%ADD18C,0.508000*%

G36*
X4467Y121246D02*
X4467Y121246D01*
X4513Y121244D01*
X4587Y121266D01*
X4664Y121279D01*
X4705Y121300D01*
X4749Y121313D01*
X4813Y121357D01*
X4882Y121394D01*
X4913Y121427D01*
X4951Y121453D01*
X4997Y121516D01*
X5051Y121572D01*
X5070Y121614D01*
X5098Y121650D01*
X5122Y121724D01*
X5155Y121795D01*
X5160Y121841D01*
X5174Y121884D01*
X5173Y121962D01*
X5182Y122039D01*
X5172Y122084D01*
X5171Y122130D01*
X5133Y122262D01*
X5129Y122280D01*
X5127Y122284D01*
X5125Y122291D01*
X4459Y123898D01*
X4459Y126102D01*
X5303Y128139D01*
X6626Y129462D01*
X6638Y129478D01*
X6653Y129490D01*
X6709Y129578D01*
X6769Y129661D01*
X6775Y129680D01*
X6786Y129697D01*
X6811Y129798D01*
X6842Y129897D01*
X6841Y129916D01*
X6846Y129936D01*
X6838Y130039D01*
X6835Y130142D01*
X6829Y130161D01*
X6827Y130181D01*
X6787Y130276D01*
X6751Y130373D01*
X6738Y130389D01*
X6731Y130407D01*
X6626Y130538D01*
X5303Y131861D01*
X4459Y133898D01*
X4459Y136102D01*
X5303Y138139D01*
X6861Y139697D01*
X8898Y140541D01*
X11102Y140541D01*
X13139Y139697D01*
X14697Y138139D01*
X15541Y136102D01*
X15541Y133898D01*
X14697Y131861D01*
X13374Y130538D01*
X13362Y130522D01*
X13347Y130510D01*
X13291Y130422D01*
X13231Y130339D01*
X13225Y130320D01*
X13214Y130303D01*
X13189Y130202D01*
X13158Y130103D01*
X13159Y130084D01*
X13154Y130064D01*
X13162Y129961D01*
X13165Y129858D01*
X13171Y129839D01*
X13173Y129819D01*
X13213Y129724D01*
X13249Y129627D01*
X13261Y129611D01*
X13269Y129593D01*
X13374Y129462D01*
X14697Y128139D01*
X15541Y126102D01*
X15541Y123898D01*
X14875Y122291D01*
X14865Y122247D01*
X14845Y122205D01*
X14837Y122128D01*
X14819Y122052D01*
X14823Y122006D01*
X14818Y121961D01*
X14835Y121884D01*
X14842Y121807D01*
X14861Y121765D01*
X14871Y121720D01*
X14911Y121653D01*
X14942Y121582D01*
X14973Y121548D01*
X14997Y121509D01*
X15056Y121459D01*
X15109Y121401D01*
X15149Y121379D01*
X15184Y121349D01*
X15256Y121320D01*
X15324Y121283D01*
X15369Y121274D01*
X15412Y121257D01*
X15548Y121242D01*
X15566Y121239D01*
X15571Y121240D01*
X15579Y121239D01*
X254421Y121239D01*
X254467Y121246D01*
X254513Y121244D01*
X254587Y121266D01*
X254664Y121279D01*
X254705Y121300D01*
X254749Y121313D01*
X254813Y121357D01*
X254882Y121394D01*
X254913Y121427D01*
X254951Y121453D01*
X254997Y121516D01*
X255051Y121572D01*
X255070Y121614D01*
X255098Y121650D01*
X255122Y121724D01*
X255155Y121795D01*
X255160Y121841D01*
X255174Y121884D01*
X255173Y121962D01*
X255182Y122039D01*
X255172Y122084D01*
X255171Y122130D01*
X255133Y122262D01*
X255129Y122280D01*
X255127Y122284D01*
X255125Y122291D01*
X254459Y123898D01*
X254459Y126102D01*
X255303Y128139D01*
X256626Y129462D01*
X256638Y129478D01*
X256653Y129490D01*
X256709Y129578D01*
X256769Y129661D01*
X256775Y129680D01*
X256786Y129697D01*
X256811Y129798D01*
X256842Y129897D01*
X256841Y129916D01*
X256846Y129936D01*
X256838Y130039D01*
X256835Y130142D01*
X256829Y130161D01*
X256827Y130181D01*
X256787Y130276D01*
X256751Y130373D01*
X256738Y130389D01*
X256731Y130407D01*
X256626Y130538D01*
X255303Y131861D01*
X254459Y133898D01*
X254459Y136102D01*
X255303Y138139D01*
X256626Y139462D01*
X256638Y139478D01*
X256653Y139490D01*
X256709Y139578D01*
X256769Y139661D01*
X256775Y139680D01*
X256786Y139697D01*
X256811Y139798D01*
X256842Y139897D01*
X256841Y139916D01*
X256846Y139936D01*
X256838Y140039D01*
X256835Y140142D01*
X256829Y140161D01*
X256827Y140181D01*
X256787Y140276D01*
X256751Y140373D01*
X256738Y140389D01*
X256731Y140407D01*
X256626Y140538D01*
X255303Y141861D01*
X254459Y143898D01*
X254459Y146102D01*
X255303Y148139D01*
X256626Y149462D01*
X256638Y149478D01*
X256653Y149490D01*
X256709Y149578D01*
X256769Y149661D01*
X256775Y149680D01*
X256786Y149697D01*
X256811Y149798D01*
X256842Y149897D01*
X256841Y149916D01*
X256846Y149936D01*
X256838Y150039D01*
X256835Y150142D01*
X256829Y150161D01*
X256827Y150181D01*
X256787Y150276D01*
X256751Y150373D01*
X256738Y150389D01*
X256731Y150407D01*
X256626Y150538D01*
X255303Y151861D01*
X254459Y153898D01*
X254459Y156102D01*
X255303Y158139D01*
X256626Y159462D01*
X256638Y159478D01*
X256653Y159490D01*
X256709Y159578D01*
X256769Y159661D01*
X256775Y159680D01*
X256786Y159697D01*
X256811Y159798D01*
X256842Y159897D01*
X256841Y159916D01*
X256846Y159936D01*
X256838Y160039D01*
X256835Y160142D01*
X256829Y160161D01*
X256827Y160181D01*
X256787Y160276D01*
X256751Y160373D01*
X256738Y160389D01*
X256731Y160407D01*
X256626Y160538D01*
X255303Y161861D01*
X254459Y163898D01*
X254459Y166102D01*
X255303Y168139D01*
X256626Y169462D01*
X256638Y169478D01*
X256653Y169490D01*
X256709Y169578D01*
X256769Y169661D01*
X256775Y169680D01*
X256786Y169697D01*
X256811Y169798D01*
X256842Y169897D01*
X256841Y169916D01*
X256846Y169936D01*
X256838Y170039D01*
X256835Y170142D01*
X256829Y170161D01*
X256827Y170181D01*
X256787Y170276D01*
X256751Y170373D01*
X256738Y170389D01*
X256731Y170407D01*
X256626Y170538D01*
X255303Y171861D01*
X254459Y173898D01*
X254459Y176102D01*
X255303Y178139D01*
X256626Y179462D01*
X256638Y179478D01*
X256653Y179490D01*
X256709Y179578D01*
X256769Y179661D01*
X256775Y179680D01*
X256786Y179697D01*
X256811Y179798D01*
X256842Y179897D01*
X256841Y179916D01*
X256846Y179936D01*
X256838Y180039D01*
X256835Y180142D01*
X256829Y180161D01*
X256827Y180181D01*
X256787Y180276D01*
X256751Y180373D01*
X256738Y180389D01*
X256731Y180407D01*
X256626Y180538D01*
X255303Y181861D01*
X254459Y183898D01*
X254459Y186102D01*
X255303Y188139D01*
X256861Y189697D01*
X258898Y190541D01*
X261102Y190541D01*
X263139Y189697D01*
X264697Y188139D01*
X265541Y186102D01*
X265541Y183898D01*
X264697Y181861D01*
X263374Y180538D01*
X263362Y180522D01*
X263347Y180510D01*
X263291Y180422D01*
X263231Y180339D01*
X263225Y180320D01*
X263214Y180303D01*
X263189Y180202D01*
X263158Y180103D01*
X263159Y180084D01*
X263154Y180064D01*
X263162Y179961D01*
X263165Y179858D01*
X263171Y179839D01*
X263173Y179819D01*
X263213Y179724D01*
X263249Y179627D01*
X263261Y179611D01*
X263269Y179593D01*
X263374Y179462D01*
X264697Y178139D01*
X265541Y176102D01*
X265541Y173898D01*
X264697Y171861D01*
X263374Y170538D01*
X263362Y170522D01*
X263347Y170510D01*
X263291Y170422D01*
X263231Y170339D01*
X263225Y170320D01*
X263214Y170303D01*
X263189Y170202D01*
X263158Y170103D01*
X263159Y170084D01*
X263154Y170064D01*
X263162Y169961D01*
X263165Y169858D01*
X263171Y169839D01*
X263173Y169819D01*
X263213Y169724D01*
X263249Y169627D01*
X263261Y169611D01*
X263269Y169593D01*
X263374Y169462D01*
X264697Y168139D01*
X265541Y166102D01*
X265541Y163898D01*
X264697Y161861D01*
X263374Y160538D01*
X263362Y160522D01*
X263347Y160510D01*
X263291Y160422D01*
X263231Y160339D01*
X263225Y160320D01*
X263214Y160303D01*
X263189Y160202D01*
X263158Y160103D01*
X263159Y160084D01*
X263154Y160064D01*
X263162Y159961D01*
X263165Y159858D01*
X263171Y159839D01*
X263173Y159819D01*
X263213Y159724D01*
X263249Y159627D01*
X263261Y159611D01*
X263269Y159593D01*
X263374Y159462D01*
X264697Y158139D01*
X265541Y156102D01*
X265541Y153898D01*
X264697Y151861D01*
X263374Y150538D01*
X263362Y150522D01*
X263347Y150510D01*
X263291Y150422D01*
X263231Y150339D01*
X263225Y150320D01*
X263214Y150303D01*
X263189Y150202D01*
X263158Y150103D01*
X263159Y150084D01*
X263154Y150064D01*
X263162Y149961D01*
X263165Y149858D01*
X263171Y149839D01*
X263173Y149819D01*
X263213Y149724D01*
X263249Y149627D01*
X263261Y149611D01*
X263269Y149593D01*
X263374Y149462D01*
X264697Y148139D01*
X265541Y146102D01*
X265541Y143898D01*
X264697Y141861D01*
X263374Y140538D01*
X263362Y140522D01*
X263347Y140510D01*
X263291Y140422D01*
X263231Y140339D01*
X263225Y140320D01*
X263214Y140303D01*
X263189Y140202D01*
X263158Y140103D01*
X263159Y140084D01*
X263154Y140064D01*
X263162Y139961D01*
X263165Y139858D01*
X263171Y139839D01*
X263173Y139819D01*
X263213Y139724D01*
X263249Y139627D01*
X263261Y139611D01*
X263269Y139593D01*
X263374Y139462D01*
X264697Y138139D01*
X265541Y136102D01*
X265541Y133898D01*
X264697Y131861D01*
X263374Y130538D01*
X263362Y130522D01*
X263347Y130510D01*
X263291Y130422D01*
X263231Y130339D01*
X263225Y130320D01*
X263214Y130303D01*
X263189Y130202D01*
X263158Y130103D01*
X263159Y130084D01*
X263154Y130064D01*
X263162Y129961D01*
X263165Y129858D01*
X263171Y129839D01*
X263173Y129819D01*
X263213Y129724D01*
X263249Y129627D01*
X263261Y129611D01*
X263269Y129593D01*
X263374Y129462D01*
X264697Y128139D01*
X265541Y126102D01*
X265541Y123898D01*
X264875Y122291D01*
X264865Y122247D01*
X264845Y122205D01*
X264837Y122128D01*
X264819Y122052D01*
X264823Y122006D01*
X264818Y121961D01*
X264835Y121884D01*
X264842Y121807D01*
X264861Y121765D01*
X264871Y121720D01*
X264911Y121653D01*
X264942Y121582D01*
X264973Y121548D01*
X264997Y121509D01*
X265056Y121459D01*
X265109Y121401D01*
X265149Y121379D01*
X265184Y121349D01*
X265256Y121320D01*
X265324Y121283D01*
X265369Y121274D01*
X265412Y121257D01*
X265548Y121242D01*
X265566Y121239D01*
X265571Y121240D01*
X265579Y121239D01*
X266698Y121239D01*
X266718Y121242D01*
X266737Y121240D01*
X266839Y121262D01*
X266941Y121279D01*
X266958Y121288D01*
X266978Y121292D01*
X267067Y121345D01*
X267158Y121394D01*
X267172Y121408D01*
X267189Y121418D01*
X267256Y121497D01*
X267328Y121572D01*
X267336Y121590D01*
X267349Y121605D01*
X267388Y121701D01*
X267431Y121795D01*
X267433Y121815D01*
X267441Y121833D01*
X267459Y122000D01*
X267459Y236786D01*
X267448Y236857D01*
X267446Y236928D01*
X267428Y236977D01*
X267420Y237028D01*
X267386Y237092D01*
X267361Y237159D01*
X267329Y237200D01*
X267304Y237246D01*
X267253Y237295D01*
X267208Y237351D01*
X267164Y237379D01*
X267126Y237415D01*
X267061Y237445D01*
X267001Y237484D01*
X266950Y237497D01*
X266903Y237519D01*
X266832Y237527D01*
X266762Y237544D01*
X266710Y237540D01*
X266659Y237546D01*
X266588Y237531D01*
X266517Y237525D01*
X266469Y237505D01*
X266418Y237494D01*
X266357Y237457D01*
X266291Y237429D01*
X266235Y237384D01*
X266207Y237367D01*
X266192Y237350D01*
X266160Y237324D01*
X266139Y237303D01*
X264102Y236459D01*
X261898Y236459D01*
X259861Y237303D01*
X259840Y237324D01*
X259782Y237366D01*
X259730Y237415D01*
X259683Y237437D01*
X259641Y237467D01*
X259572Y237489D01*
X259507Y237519D01*
X259455Y237525D01*
X259406Y237540D01*
X259334Y237538D01*
X259263Y237546D01*
X259212Y237535D01*
X259160Y237533D01*
X259092Y237509D01*
X259022Y237494D01*
X258977Y237467D01*
X258929Y237449D01*
X258873Y237404D01*
X258811Y237367D01*
X258777Y237328D01*
X258737Y237295D01*
X258698Y237235D01*
X258651Y237181D01*
X258632Y237132D01*
X258604Y237089D01*
X258586Y237019D01*
X258559Y236952D01*
X258551Y236881D01*
X258543Y236850D01*
X258545Y236827D01*
X258541Y236786D01*
X258541Y235898D01*
X257697Y233861D01*
X257374Y233538D01*
X257362Y233522D01*
X257347Y233510D01*
X257291Y233422D01*
X257231Y233339D01*
X257225Y233320D01*
X257214Y233303D01*
X257189Y233202D01*
X257158Y233103D01*
X257159Y233083D01*
X257154Y233064D01*
X257162Y232961D01*
X257165Y232858D01*
X257171Y232839D01*
X257173Y232819D01*
X257213Y232724D01*
X257249Y232627D01*
X257261Y232611D01*
X257269Y232593D01*
X257374Y232462D01*
X257697Y232139D01*
X258541Y230102D01*
X258541Y227898D01*
X257697Y225861D01*
X256809Y224973D01*
X256782Y224936D01*
X256748Y224905D01*
X256711Y224837D01*
X256665Y224773D01*
X256652Y224729D01*
X256630Y224689D01*
X256616Y224613D01*
X256593Y224538D01*
X256594Y224492D01*
X256586Y224447D01*
X256597Y224370D01*
X256599Y224292D01*
X256615Y224249D01*
X256622Y224204D01*
X256657Y224134D01*
X256684Y224061D01*
X256712Y224025D01*
X256733Y223985D01*
X256789Y223930D01*
X256837Y223869D01*
X256876Y223844D01*
X256909Y223812D01*
X257029Y223747D01*
X257044Y223736D01*
X257049Y223735D01*
X257056Y223731D01*
X257139Y223697D01*
X258697Y222139D01*
X259541Y220102D01*
X259541Y217898D01*
X258697Y215861D01*
X257139Y214303D01*
X256898Y214203D01*
X256837Y214165D01*
X256772Y214136D01*
X256734Y214101D01*
X256689Y214074D01*
X256644Y214018D01*
X256591Y213970D01*
X256566Y213924D01*
X256533Y213884D01*
X256507Y213817D01*
X256472Y213754D01*
X256463Y213703D01*
X256444Y213655D01*
X256441Y213583D01*
X256429Y213512D01*
X256436Y213461D01*
X256434Y213409D01*
X256454Y213340D01*
X256464Y213269D01*
X256488Y213223D01*
X256502Y213173D01*
X256543Y213114D01*
X256576Y213050D01*
X256613Y213013D01*
X256643Y212971D01*
X256700Y212928D01*
X256751Y212878D01*
X256814Y212843D01*
X256840Y212824D01*
X256862Y212816D01*
X256898Y212797D01*
X257139Y212697D01*
X258697Y211139D01*
X259541Y209102D01*
X259541Y206898D01*
X258697Y204861D01*
X257139Y203303D01*
X256898Y203203D01*
X256837Y203165D01*
X256772Y203136D01*
X256734Y203101D01*
X256689Y203074D01*
X256644Y203018D01*
X256591Y202970D01*
X256566Y202924D01*
X256533Y202884D01*
X256507Y202817D01*
X256472Y202754D01*
X256463Y202703D01*
X256444Y202655D01*
X256441Y202583D01*
X256429Y202512D01*
X256436Y202461D01*
X256434Y202409D01*
X256454Y202340D01*
X256464Y202269D01*
X256488Y202223D01*
X256502Y202173D01*
X256543Y202114D01*
X256576Y202050D01*
X256613Y202013D01*
X256643Y201971D01*
X256700Y201928D01*
X256751Y201878D01*
X256814Y201843D01*
X256840Y201824D01*
X256862Y201816D01*
X256898Y201797D01*
X257139Y201697D01*
X258697Y200139D01*
X259541Y198102D01*
X259541Y195898D01*
X258697Y193861D01*
X257139Y192303D01*
X255102Y191459D01*
X252898Y191459D01*
X250861Y192303D01*
X249303Y193861D01*
X248459Y195898D01*
X248459Y198102D01*
X249303Y200139D01*
X250861Y201697D01*
X251102Y201797D01*
X251162Y201834D01*
X251228Y201864D01*
X251266Y201899D01*
X251311Y201926D01*
X251356Y201982D01*
X251409Y202030D01*
X251434Y202076D01*
X251467Y202116D01*
X251493Y202183D01*
X251528Y202246D01*
X251537Y202297D01*
X251556Y202345D01*
X251559Y202417D01*
X251571Y202488D01*
X251564Y202539D01*
X251566Y202591D01*
X251546Y202660D01*
X251536Y202731D01*
X251512Y202777D01*
X251498Y202827D01*
X251457Y202886D01*
X251424Y202950D01*
X251387Y202987D01*
X251357Y203029D01*
X251300Y203072D01*
X251249Y203122D01*
X251186Y203157D01*
X251160Y203176D01*
X251138Y203183D01*
X251102Y203203D01*
X250861Y203303D01*
X249303Y204861D01*
X248459Y206898D01*
X248459Y209102D01*
X249303Y211139D01*
X250861Y212697D01*
X251102Y212797D01*
X251162Y212834D01*
X251228Y212864D01*
X251266Y212899D01*
X251311Y212926D01*
X251356Y212982D01*
X251409Y213030D01*
X251434Y213076D01*
X251467Y213116D01*
X251493Y213183D01*
X251528Y213246D01*
X251537Y213297D01*
X251556Y213345D01*
X251559Y213417D01*
X251571Y213488D01*
X251564Y213539D01*
X251566Y213591D01*
X251546Y213660D01*
X251536Y213731D01*
X251512Y213777D01*
X251498Y213827D01*
X251457Y213886D01*
X251424Y213950D01*
X251387Y213987D01*
X251357Y214029D01*
X251300Y214072D01*
X251249Y214122D01*
X251186Y214157D01*
X251160Y214176D01*
X251138Y214183D01*
X251102Y214203D01*
X250861Y214303D01*
X249303Y215861D01*
X248459Y217898D01*
X248459Y220102D01*
X249303Y222139D01*
X250191Y223027D01*
X250218Y223064D01*
X250252Y223095D01*
X250289Y223163D01*
X250335Y223227D01*
X250348Y223271D01*
X250370Y223311D01*
X250384Y223387D01*
X250407Y223462D01*
X250406Y223508D01*
X250414Y223553D01*
X250403Y223630D01*
X250401Y223708D01*
X250385Y223751D01*
X250378Y223796D01*
X250343Y223866D01*
X250316Y223939D01*
X250288Y223975D01*
X250267Y224015D01*
X250211Y224070D01*
X250163Y224131D01*
X250124Y224156D01*
X250091Y224188D01*
X249971Y224253D01*
X249956Y224264D01*
X249951Y224265D01*
X249944Y224269D01*
X249861Y224303D01*
X248303Y225861D01*
X247459Y227898D01*
X247459Y230102D01*
X248303Y232139D01*
X248626Y232462D01*
X248638Y232478D01*
X248653Y232490D01*
X248709Y232578D01*
X248769Y232661D01*
X248775Y232680D01*
X248786Y232697D01*
X248811Y232798D01*
X248842Y232896D01*
X248841Y232916D01*
X248846Y232936D01*
X248838Y233039D01*
X248835Y233142D01*
X248829Y233161D01*
X248827Y233181D01*
X248787Y233276D01*
X248751Y233373D01*
X248739Y233389D01*
X248731Y233407D01*
X248626Y233538D01*
X248303Y233861D01*
X247459Y235898D01*
X247459Y238102D01*
X248303Y240139D01*
X249861Y241697D01*
X251898Y242541D01*
X254102Y242541D01*
X256139Y241697D01*
X256160Y241676D01*
X256218Y241634D01*
X256270Y241585D01*
X256317Y241563D01*
X256359Y241533D01*
X256428Y241511D01*
X256493Y241481D01*
X256545Y241475D01*
X256594Y241460D01*
X256666Y241462D01*
X256737Y241454D01*
X256788Y241465D01*
X256840Y241467D01*
X256908Y241491D01*
X256978Y241506D01*
X257023Y241533D01*
X257071Y241551D01*
X257127Y241596D01*
X257189Y241633D01*
X257223Y241672D01*
X257263Y241705D01*
X257302Y241765D01*
X257349Y241819D01*
X257368Y241868D01*
X257396Y241911D01*
X257414Y241981D01*
X257441Y242048D01*
X257449Y242119D01*
X257457Y242150D01*
X257455Y242173D01*
X257459Y242214D01*
X257459Y243102D01*
X258303Y245139D01*
X259626Y246462D01*
X259638Y246478D01*
X259653Y246490D01*
X259709Y246578D01*
X259769Y246661D01*
X259775Y246680D01*
X259786Y246697D01*
X259811Y246798D01*
X259842Y246897D01*
X259841Y246916D01*
X259846Y246936D01*
X259838Y247039D01*
X259835Y247142D01*
X259829Y247161D01*
X259827Y247181D01*
X259787Y247276D01*
X259751Y247373D01*
X259738Y247389D01*
X259731Y247407D01*
X259626Y247538D01*
X259303Y247861D01*
X258459Y249898D01*
X258459Y252102D01*
X259303Y254139D01*
X260861Y255697D01*
X262898Y256541D01*
X265102Y256541D01*
X266407Y256000D01*
X266451Y255990D01*
X266493Y255971D01*
X266570Y255962D01*
X266646Y255944D01*
X266692Y255949D01*
X266737Y255943D01*
X266814Y255960D01*
X266891Y255967D01*
X266933Y255986D01*
X266978Y255996D01*
X267045Y256036D01*
X267116Y256067D01*
X267150Y256098D01*
X267189Y256122D01*
X267240Y256181D01*
X267297Y256234D01*
X267319Y256274D01*
X267349Y256309D01*
X267378Y256381D01*
X267415Y256449D01*
X267424Y256494D01*
X267441Y256537D01*
X267456Y256673D01*
X267459Y256691D01*
X267458Y256696D01*
X267459Y256704D01*
X267459Y334296D01*
X267452Y334342D01*
X267454Y334388D01*
X267432Y334462D01*
X267420Y334539D01*
X267398Y334580D01*
X267385Y334624D01*
X267341Y334688D01*
X267304Y334756D01*
X267271Y334788D01*
X267245Y334826D01*
X267183Y334872D01*
X267126Y334926D01*
X267084Y334945D01*
X267048Y334973D01*
X266974Y334997D01*
X266903Y335029D01*
X266857Y335035D01*
X266814Y335049D01*
X266736Y335048D01*
X266659Y335057D01*
X266614Y335047D01*
X266568Y335046D01*
X266436Y335008D01*
X266418Y335004D01*
X266414Y335002D01*
X266407Y335000D01*
X265102Y334459D01*
X262898Y334459D01*
X260861Y335303D01*
X259303Y336861D01*
X258459Y338898D01*
X258459Y341102D01*
X259303Y343139D01*
X260861Y344697D01*
X262898Y345541D01*
X265102Y345541D01*
X266407Y345000D01*
X266451Y344990D01*
X266493Y344971D01*
X266570Y344962D01*
X266646Y344944D01*
X266692Y344948D01*
X266737Y344943D01*
X266814Y344960D01*
X266891Y344967D01*
X266933Y344986D01*
X266978Y344996D01*
X267045Y345036D01*
X267116Y345067D01*
X267150Y345098D01*
X267189Y345122D01*
X267240Y345181D01*
X267297Y345234D01*
X267319Y345274D01*
X267349Y345309D01*
X267378Y345381D01*
X267415Y345449D01*
X267424Y345494D01*
X267441Y345537D01*
X267456Y345673D01*
X267459Y345691D01*
X267458Y345696D01*
X267459Y345704D01*
X267459Y356288D01*
X267444Y356384D01*
X267434Y356481D01*
X267424Y356505D01*
X267420Y356531D01*
X267374Y356617D01*
X267334Y356706D01*
X267317Y356725D01*
X267304Y356749D01*
X267234Y356815D01*
X267168Y356887D01*
X267145Y356900D01*
X267126Y356918D01*
X267038Y356959D01*
X266952Y357006D01*
X266927Y357011D01*
X266903Y357022D01*
X266806Y357032D01*
X266710Y357050D01*
X266684Y357046D01*
X266659Y357049D01*
X266564Y357028D01*
X266467Y357014D01*
X266444Y357002D01*
X266418Y356996D01*
X266335Y356946D01*
X266248Y356902D01*
X266229Y356884D01*
X266207Y356870D01*
X266144Y356796D01*
X266076Y356727D01*
X266060Y356698D01*
X266047Y356683D01*
X266035Y356652D01*
X265995Y356580D01*
X265697Y355861D01*
X264139Y354303D01*
X262102Y353459D01*
X259898Y353459D01*
X257861Y354303D01*
X257538Y354626D01*
X257522Y354638D01*
X257510Y354653D01*
X257422Y354709D01*
X257339Y354769D01*
X257320Y354775D01*
X257303Y354786D01*
X257202Y354811D01*
X257104Y354842D01*
X257084Y354841D01*
X257064Y354846D01*
X256961Y354838D01*
X256858Y354835D01*
X256839Y354829D01*
X256819Y354827D01*
X256724Y354787D01*
X256627Y354751D01*
X256611Y354739D01*
X256593Y354731D01*
X256462Y354626D01*
X256139Y354303D01*
X254102Y353459D01*
X251898Y353459D01*
X249861Y354303D01*
X248303Y355861D01*
X247459Y357898D01*
X247459Y360102D01*
X248303Y362139D01*
X249861Y363697D01*
X251898Y364541D01*
X254102Y364541D01*
X256139Y363697D01*
X256462Y363374D01*
X256478Y363362D01*
X256490Y363347D01*
X256578Y363291D01*
X256661Y363231D01*
X256680Y363225D01*
X256697Y363214D01*
X256798Y363189D01*
X256897Y363158D01*
X256917Y363159D01*
X256936Y363154D01*
X257039Y363162D01*
X257142Y363165D01*
X257161Y363171D01*
X257181Y363173D01*
X257276Y363213D01*
X257373Y363249D01*
X257389Y363261D01*
X257407Y363269D01*
X257538Y363374D01*
X257861Y363697D01*
X258800Y364086D01*
X258817Y364097D01*
X258836Y364102D01*
X258921Y364161D01*
X259009Y364216D01*
X259022Y364231D01*
X259038Y364242D01*
X259100Y364325D01*
X259166Y364405D01*
X259173Y364424D01*
X259185Y364440D01*
X259217Y364538D01*
X259254Y364635D01*
X259255Y364655D01*
X259261Y364674D01*
X259260Y364777D01*
X259264Y364880D01*
X259259Y364900D01*
X259259Y364920D01*
X259212Y365081D01*
X258459Y366898D01*
X258459Y369102D01*
X259303Y371139D01*
X260126Y371962D01*
X260138Y371978D01*
X260153Y371990D01*
X260209Y372078D01*
X260269Y372161D01*
X260275Y372180D01*
X260286Y372197D01*
X260311Y372298D01*
X260342Y372397D01*
X260341Y372416D01*
X260346Y372436D01*
X260338Y372539D01*
X260335Y372642D01*
X260329Y372661D01*
X260327Y372681D01*
X260287Y372776D01*
X260251Y372873D01*
X260239Y372889D01*
X260231Y372907D01*
X260126Y373038D01*
X259303Y373861D01*
X258459Y375898D01*
X258459Y378102D01*
X259303Y380139D01*
X260126Y380962D01*
X260138Y380978D01*
X260153Y380990D01*
X260209Y381078D01*
X260269Y381161D01*
X260275Y381180D01*
X260286Y381197D01*
X260311Y381298D01*
X260342Y381397D01*
X260341Y381416D01*
X260346Y381436D01*
X260338Y381539D01*
X260335Y381642D01*
X260329Y381661D01*
X260327Y381681D01*
X260287Y381776D01*
X260251Y381873D01*
X260239Y381889D01*
X260231Y381907D01*
X260126Y382038D01*
X259303Y382861D01*
X258459Y384898D01*
X258459Y387102D01*
X259303Y389139D01*
X260126Y389962D01*
X260138Y389978D01*
X260153Y389990D01*
X260209Y390078D01*
X260269Y390161D01*
X260275Y390180D01*
X260286Y390197D01*
X260311Y390298D01*
X260342Y390397D01*
X260341Y390416D01*
X260346Y390436D01*
X260338Y390539D01*
X260335Y390642D01*
X260329Y390661D01*
X260327Y390681D01*
X260287Y390776D01*
X260251Y390873D01*
X260239Y390889D01*
X260231Y390907D01*
X260126Y391038D01*
X259303Y391861D01*
X258459Y393898D01*
X258459Y396102D01*
X259303Y398139D01*
X260861Y399697D01*
X262898Y400541D01*
X265102Y400541D01*
X266407Y400000D01*
X266451Y399990D01*
X266493Y399971D01*
X266570Y399962D01*
X266646Y399944D01*
X266692Y399948D01*
X266737Y399943D01*
X266814Y399960D01*
X266891Y399967D01*
X266933Y399986D01*
X266978Y399996D01*
X267045Y400036D01*
X267116Y400067D01*
X267150Y400098D01*
X267189Y400122D01*
X267240Y400181D01*
X267297Y400234D01*
X267319Y400274D01*
X267349Y400309D01*
X267378Y400381D01*
X267415Y400449D01*
X267424Y400494D01*
X267441Y400537D01*
X267456Y400673D01*
X267459Y400691D01*
X267458Y400696D01*
X267459Y400704D01*
X267459Y796698D01*
X267456Y796718D01*
X267458Y796737D01*
X267436Y796839D01*
X267420Y796941D01*
X267410Y796958D01*
X267406Y796978D01*
X267353Y797067D01*
X267304Y797158D01*
X267290Y797172D01*
X267280Y797189D01*
X267201Y797256D01*
X267126Y797328D01*
X267108Y797336D01*
X267093Y797349D01*
X266997Y797388D01*
X266903Y797431D01*
X266883Y797433D01*
X266865Y797441D01*
X266698Y797459D01*
X3302Y797459D01*
X3282Y797456D01*
X3263Y797458D01*
X3161Y797436D01*
X3059Y797420D01*
X3042Y797410D01*
X3022Y797406D01*
X2933Y797353D01*
X2842Y797304D01*
X2828Y797290D01*
X2811Y797280D01*
X2744Y797201D01*
X2672Y797126D01*
X2664Y797108D01*
X2651Y797093D01*
X2612Y796997D01*
X2569Y796903D01*
X2567Y796883D01*
X2559Y796865D01*
X2541Y796698D01*
X2541Y778100D01*
X2552Y778029D01*
X2554Y777957D01*
X2572Y777908D01*
X2580Y777857D01*
X2614Y777793D01*
X2639Y777726D01*
X2671Y777685D01*
X2696Y777639D01*
X2748Y777590D01*
X2792Y777534D01*
X2836Y777506D01*
X2874Y777470D01*
X2939Y777440D01*
X2999Y777401D01*
X3050Y777388D01*
X3097Y777366D01*
X3168Y777359D01*
X3238Y777341D01*
X3290Y777345D01*
X3341Y777339D01*
X3412Y777355D01*
X3483Y777360D01*
X3531Y777381D01*
X3582Y777392D01*
X3643Y777428D01*
X3709Y777456D01*
X3765Y777501D01*
X3793Y777518D01*
X3808Y777536D01*
X3840Y777561D01*
X5063Y778784D01*
X9304Y780541D01*
X13896Y780541D01*
X18137Y778784D01*
X21384Y775537D01*
X23141Y771296D01*
X23141Y766704D01*
X21384Y762463D01*
X18137Y759216D01*
X13896Y757459D01*
X9304Y757459D01*
X5063Y759216D01*
X3840Y760439D01*
X3782Y760481D01*
X3730Y760530D01*
X3683Y760552D01*
X3641Y760582D01*
X3572Y760603D01*
X3507Y760634D01*
X3455Y760639D01*
X3405Y760655D01*
X3334Y760653D01*
X3263Y760661D01*
X3212Y760650D01*
X3160Y760648D01*
X3092Y760624D01*
X3022Y760608D01*
X2977Y760582D01*
X2929Y760564D01*
X2873Y760519D01*
X2811Y760482D01*
X2777Y760443D01*
X2737Y760410D01*
X2698Y760350D01*
X2651Y760295D01*
X2632Y760247D01*
X2604Y760203D01*
X2586Y760134D01*
X2559Y760067D01*
X2551Y759996D01*
X2543Y759965D01*
X2545Y759941D01*
X2541Y759900D01*
X2541Y728100D01*
X2552Y728029D01*
X2554Y727957D01*
X2572Y727908D01*
X2580Y727857D01*
X2614Y727793D01*
X2639Y727726D01*
X2671Y727685D01*
X2696Y727639D01*
X2748Y727590D01*
X2792Y727534D01*
X2836Y727506D01*
X2874Y727470D01*
X2939Y727440D01*
X2999Y727401D01*
X3050Y727388D01*
X3097Y727366D01*
X3168Y727359D01*
X3238Y727341D01*
X3290Y727345D01*
X3341Y727339D01*
X3412Y727355D01*
X3483Y727360D01*
X3531Y727381D01*
X3582Y727392D01*
X3643Y727428D01*
X3709Y727456D01*
X3765Y727501D01*
X3793Y727518D01*
X3808Y727536D01*
X3840Y727561D01*
X5063Y728784D01*
X9304Y730541D01*
X13896Y730541D01*
X18137Y728784D01*
X21384Y725537D01*
X23141Y721296D01*
X23141Y716704D01*
X21384Y712463D01*
X18137Y709216D01*
X13896Y707459D01*
X9304Y707459D01*
X5063Y709216D01*
X3840Y710439D01*
X3782Y710481D01*
X3730Y710530D01*
X3683Y710552D01*
X3641Y710582D01*
X3572Y710603D01*
X3507Y710634D01*
X3455Y710639D01*
X3405Y710655D01*
X3334Y710653D01*
X3263Y710661D01*
X3212Y710650D01*
X3160Y710648D01*
X3092Y710624D01*
X3022Y710608D01*
X2977Y710582D01*
X2929Y710564D01*
X2873Y710519D01*
X2811Y710482D01*
X2777Y710443D01*
X2737Y710410D01*
X2698Y710350D01*
X2651Y710295D01*
X2632Y710247D01*
X2604Y710203D01*
X2586Y710134D01*
X2559Y710067D01*
X2551Y709996D01*
X2543Y709965D01*
X2545Y709941D01*
X2541Y709900D01*
X2541Y122000D01*
X2544Y121980D01*
X2542Y121961D01*
X2564Y121859D01*
X2580Y121757D01*
X2590Y121740D01*
X2594Y121720D01*
X2647Y121631D01*
X2696Y121540D01*
X2710Y121526D01*
X2720Y121509D01*
X2799Y121442D01*
X2874Y121371D01*
X2892Y121362D01*
X2907Y121349D01*
X3003Y121310D01*
X3097Y121267D01*
X3117Y121265D01*
X3135Y121257D01*
X3302Y121239D01*
X4421Y121239D01*
X4467Y121246D01*
G37*
%LPC*%
G36*
X90898Y550459D02*
X90898Y550459D01*
X89927Y550861D01*
X89893Y550869D01*
X89879Y550879D01*
X89861Y550885D01*
X89832Y550901D01*
X88861Y551303D01*
X87303Y552861D01*
X86901Y553832D01*
X86866Y553888D01*
X86841Y553948D01*
X86789Y554013D01*
X86771Y554041D01*
X86756Y554054D01*
X86736Y554079D01*
X72919Y567895D01*
X72919Y595246D01*
X72908Y595316D01*
X72906Y595388D01*
X72888Y595437D01*
X72880Y595488D01*
X72846Y595552D01*
X72821Y595619D01*
X72789Y595660D01*
X72764Y595706D01*
X72712Y595755D01*
X72668Y595811D01*
X72624Y595839D01*
X72586Y595875D01*
X72521Y595905D01*
X72461Y595944D01*
X72410Y595957D01*
X72363Y595979D01*
X72292Y595987D01*
X72222Y596004D01*
X72170Y596000D01*
X72119Y596006D01*
X72048Y595991D01*
X71977Y595985D01*
X71929Y595965D01*
X71878Y595954D01*
X71817Y595917D01*
X71751Y595889D01*
X71695Y595844D01*
X71667Y595827D01*
X71652Y595810D01*
X71620Y595784D01*
X70139Y594303D01*
X68102Y593459D01*
X65898Y593459D01*
X63861Y594303D01*
X62303Y595861D01*
X61459Y597898D01*
X61459Y600102D01*
X62303Y602139D01*
X63861Y603697D01*
X64102Y603797D01*
X64162Y603834D01*
X64228Y603864D01*
X64266Y603899D01*
X64311Y603926D01*
X64356Y603982D01*
X64409Y604030D01*
X64434Y604076D01*
X64467Y604116D01*
X64493Y604183D01*
X64528Y604246D01*
X64537Y604297D01*
X64556Y604345D01*
X64559Y604417D01*
X64571Y604488D01*
X64564Y604539D01*
X64566Y604591D01*
X64546Y604660D01*
X64536Y604731D01*
X64512Y604777D01*
X64498Y604827D01*
X64457Y604886D01*
X64424Y604950D01*
X64387Y604987D01*
X64357Y605029D01*
X64300Y605072D01*
X64249Y605122D01*
X64186Y605157D01*
X64160Y605176D01*
X64138Y605183D01*
X64102Y605203D01*
X63861Y605303D01*
X62303Y606861D01*
X61459Y608898D01*
X61459Y611102D01*
X62303Y613139D01*
X63861Y614697D01*
X65898Y615541D01*
X68102Y615541D01*
X70139Y614697D01*
X71620Y613216D01*
X71678Y613174D01*
X71730Y613125D01*
X71777Y613103D01*
X71819Y613073D01*
X71888Y613051D01*
X71953Y613021D01*
X72005Y613015D01*
X72055Y613000D01*
X72126Y613002D01*
X72197Y612994D01*
X72248Y613005D01*
X72300Y613007D01*
X72368Y613031D01*
X72438Y613046D01*
X72483Y613073D01*
X72531Y613091D01*
X72587Y613136D01*
X72649Y613173D01*
X72683Y613212D01*
X72723Y613245D01*
X72762Y613305D01*
X72809Y613359D01*
X72828Y613408D01*
X72856Y613452D01*
X72874Y613521D01*
X72888Y613555D01*
X72891Y613563D01*
X72891Y613564D01*
X72901Y613588D01*
X72909Y613659D01*
X72917Y613690D01*
X72915Y613713D01*
X72919Y613754D01*
X72919Y647105D01*
X80895Y655081D01*
X200105Y655081D01*
X208368Y646817D01*
X208368Y644076D01*
X208379Y644012D01*
X208380Y643946D01*
X208403Y643866D01*
X208408Y643834D01*
X208417Y643816D01*
X208426Y643785D01*
X208828Y642814D01*
X208828Y640610D01*
X208426Y639640D01*
X208418Y639605D01*
X208408Y639592D01*
X208403Y639573D01*
X208387Y639544D01*
X207985Y638574D01*
X206426Y637015D01*
X205456Y636613D01*
X205426Y636595D01*
X205409Y636592D01*
X205392Y636583D01*
X205360Y636574D01*
X204390Y636172D01*
X202186Y636172D01*
X201215Y636574D01*
X201181Y636582D01*
X201167Y636592D01*
X201148Y636597D01*
X201120Y636613D01*
X200149Y637015D01*
X198590Y638574D01*
X198188Y639544D01*
X198170Y639574D01*
X198167Y639591D01*
X198158Y639608D01*
X198149Y639640D01*
X197747Y640610D01*
X197747Y642752D01*
X197732Y642843D01*
X197725Y642933D01*
X197712Y642963D01*
X197707Y642995D01*
X197664Y643076D01*
X197629Y643160D01*
X197603Y643192D01*
X197592Y643213D01*
X197569Y643235D01*
X197524Y643291D01*
X196118Y644696D01*
X196045Y644749D01*
X195975Y644809D01*
X195945Y644821D01*
X195919Y644840D01*
X195832Y644867D01*
X195747Y644901D01*
X195706Y644905D01*
X195684Y644912D01*
X195651Y644911D01*
X195580Y644919D01*
X170842Y644919D01*
X170822Y644916D01*
X170803Y644918D01*
X170701Y644896D01*
X170599Y644880D01*
X170582Y644870D01*
X170562Y644866D01*
X170473Y644813D01*
X170382Y644764D01*
X170368Y644750D01*
X170351Y644740D01*
X170284Y644661D01*
X170212Y644586D01*
X170204Y644568D01*
X170191Y644553D01*
X170152Y644457D01*
X170109Y644363D01*
X170107Y644343D01*
X170099Y644325D01*
X170081Y644158D01*
X170081Y640364D01*
X170091Y640299D01*
X170092Y640234D01*
X170115Y640154D01*
X170120Y640121D01*
X170130Y640104D01*
X170139Y640073D01*
X170541Y639102D01*
X170541Y636898D01*
X170139Y635927D01*
X170131Y635893D01*
X170121Y635879D01*
X170115Y635861D01*
X170099Y635832D01*
X169697Y634861D01*
X168139Y633303D01*
X167168Y632901D01*
X167138Y632882D01*
X167121Y632880D01*
X167104Y632870D01*
X167073Y632861D01*
X166102Y632459D01*
X163898Y632459D01*
X162927Y632861D01*
X162893Y632869D01*
X162879Y632879D01*
X162861Y632885D01*
X162832Y632901D01*
X161861Y633303D01*
X160303Y634861D01*
X159901Y635832D01*
X159882Y635862D01*
X159880Y635879D01*
X159870Y635896D01*
X159861Y635927D01*
X159459Y636898D01*
X159459Y639102D01*
X159861Y640073D01*
X159876Y640137D01*
X159901Y640197D01*
X159910Y640280D01*
X159917Y640312D01*
X159916Y640332D01*
X159919Y640364D01*
X159919Y644158D01*
X159916Y644178D01*
X159918Y644197D01*
X159896Y644299D01*
X159880Y644401D01*
X159870Y644418D01*
X159866Y644438D01*
X159813Y644527D01*
X159764Y644618D01*
X159750Y644632D01*
X159740Y644649D01*
X159661Y644716D01*
X159586Y644788D01*
X159568Y644796D01*
X159553Y644809D01*
X159457Y644848D01*
X159363Y644891D01*
X159343Y644893D01*
X159325Y644901D01*
X159158Y644919D01*
X126842Y644919D01*
X126822Y644916D01*
X126803Y644918D01*
X126701Y644896D01*
X126599Y644880D01*
X126582Y644870D01*
X126562Y644866D01*
X126473Y644813D01*
X126382Y644764D01*
X126368Y644750D01*
X126351Y644740D01*
X126284Y644661D01*
X126212Y644586D01*
X126204Y644568D01*
X126191Y644553D01*
X126152Y644457D01*
X126109Y644363D01*
X126107Y644343D01*
X126099Y644325D01*
X126081Y644158D01*
X126081Y640364D01*
X126091Y640299D01*
X126092Y640234D01*
X126115Y640154D01*
X126120Y640121D01*
X126130Y640104D01*
X126139Y640073D01*
X126541Y639102D01*
X126541Y636898D01*
X126139Y635927D01*
X126131Y635893D01*
X126121Y635879D01*
X126115Y635861D01*
X126099Y635832D01*
X125697Y634861D01*
X124139Y633303D01*
X123168Y632901D01*
X123138Y632882D01*
X123121Y632880D01*
X123104Y632870D01*
X123073Y632861D01*
X122102Y632459D01*
X119898Y632459D01*
X118927Y632861D01*
X118893Y632869D01*
X118879Y632879D01*
X118861Y632885D01*
X118832Y632901D01*
X117861Y633303D01*
X116303Y634861D01*
X115901Y635832D01*
X115882Y635862D01*
X115880Y635879D01*
X115870Y635896D01*
X115861Y635927D01*
X115459Y636898D01*
X115459Y639102D01*
X115861Y640073D01*
X115876Y640137D01*
X115901Y640197D01*
X115910Y640280D01*
X115917Y640312D01*
X115916Y640332D01*
X115919Y640364D01*
X115919Y644158D01*
X115916Y644178D01*
X115918Y644197D01*
X115896Y644299D01*
X115880Y644401D01*
X115870Y644418D01*
X115866Y644438D01*
X115813Y644527D01*
X115764Y644618D01*
X115750Y644632D01*
X115740Y644649D01*
X115661Y644716D01*
X115586Y644788D01*
X115568Y644796D01*
X115553Y644809D01*
X115457Y644848D01*
X115363Y644891D01*
X115343Y644893D01*
X115325Y644901D01*
X115158Y644919D01*
X91754Y644919D01*
X91684Y644908D01*
X91612Y644906D01*
X91563Y644888D01*
X91512Y644880D01*
X91448Y644846D01*
X91381Y644821D01*
X91340Y644789D01*
X91294Y644764D01*
X91245Y644712D01*
X91189Y644668D01*
X91161Y644624D01*
X91125Y644586D01*
X91095Y644521D01*
X91056Y644461D01*
X91043Y644410D01*
X91021Y644363D01*
X91013Y644292D01*
X90996Y644222D01*
X91000Y644170D01*
X90994Y644119D01*
X91009Y644048D01*
X91015Y643977D01*
X91035Y643929D01*
X91046Y643878D01*
X91083Y643817D01*
X91111Y643751D01*
X91156Y643695D01*
X91173Y643667D01*
X91190Y643652D01*
X91216Y643620D01*
X91697Y643139D01*
X92541Y641102D01*
X92541Y638898D01*
X91697Y636861D01*
X91395Y636559D01*
X91368Y636522D01*
X91334Y636491D01*
X91296Y636422D01*
X91251Y636359D01*
X91238Y636315D01*
X91215Y636275D01*
X91202Y636198D01*
X91179Y636124D01*
X91180Y636078D01*
X91172Y636033D01*
X91183Y635956D01*
X91185Y635878D01*
X91201Y635835D01*
X91208Y635790D01*
X91243Y635720D01*
X91270Y635647D01*
X91298Y635611D01*
X91319Y635570D01*
X91375Y635516D01*
X91423Y635455D01*
X91462Y635430D01*
X91495Y635398D01*
X91615Y635332D01*
X91630Y635322D01*
X91635Y635321D01*
X91642Y635317D01*
X93139Y634697D01*
X94697Y633139D01*
X95541Y631102D01*
X95541Y628898D01*
X94697Y626861D01*
X94676Y626840D01*
X94634Y626782D01*
X94585Y626730D01*
X94563Y626683D01*
X94533Y626641D01*
X94511Y626572D01*
X94481Y626507D01*
X94475Y626455D01*
X94460Y626406D01*
X94462Y626334D01*
X94454Y626263D01*
X94465Y626212D01*
X94467Y626160D01*
X94491Y626092D01*
X94506Y626022D01*
X94533Y625977D01*
X94551Y625929D01*
X94596Y625873D01*
X94633Y625811D01*
X94672Y625777D01*
X94705Y625737D01*
X94765Y625698D01*
X94819Y625651D01*
X94868Y625632D01*
X94911Y625604D01*
X94981Y625586D01*
X95048Y625559D01*
X95119Y625551D01*
X95150Y625543D01*
X95173Y625545D01*
X95214Y625541D01*
X96102Y625541D01*
X98139Y624697D01*
X99697Y623139D01*
X100541Y621102D01*
X100541Y618898D01*
X99697Y616861D01*
X98374Y615538D01*
X98362Y615522D01*
X98347Y615510D01*
X98291Y615422D01*
X98231Y615339D01*
X98225Y615320D01*
X98214Y615303D01*
X98189Y615202D01*
X98158Y615103D01*
X98159Y615084D01*
X98154Y615064D01*
X98162Y614961D01*
X98165Y614858D01*
X98171Y614839D01*
X98173Y614819D01*
X98213Y614724D01*
X98249Y614627D01*
X98261Y614611D01*
X98269Y614593D01*
X98374Y614462D01*
X99697Y613139D01*
X100541Y611102D01*
X100541Y608898D01*
X99697Y606861D01*
X98139Y605303D01*
X96102Y604459D01*
X93898Y604459D01*
X91861Y605303D01*
X90303Y606861D01*
X89459Y608898D01*
X89459Y611102D01*
X90303Y613139D01*
X91626Y614462D01*
X91638Y614478D01*
X91653Y614490D01*
X91709Y614578D01*
X91769Y614661D01*
X91775Y614680D01*
X91786Y614697D01*
X91811Y614798D01*
X91842Y614897D01*
X91841Y614916D01*
X91846Y614936D01*
X91838Y615039D01*
X91835Y615142D01*
X91829Y615161D01*
X91827Y615181D01*
X91787Y615276D01*
X91751Y615373D01*
X91738Y615389D01*
X91731Y615407D01*
X91626Y615538D01*
X90303Y616861D01*
X89459Y618898D01*
X89459Y621102D01*
X90303Y623139D01*
X90324Y623160D01*
X90366Y623218D01*
X90415Y623270D01*
X90437Y623317D01*
X90467Y623359D01*
X90489Y623428D01*
X90519Y623493D01*
X90525Y623545D01*
X90540Y623594D01*
X90538Y623666D01*
X90546Y623737D01*
X90535Y623788D01*
X90533Y623840D01*
X90509Y623908D01*
X90494Y623978D01*
X90467Y624023D01*
X90449Y624071D01*
X90404Y624127D01*
X90367Y624189D01*
X90328Y624223D01*
X90295Y624263D01*
X90235Y624302D01*
X90181Y624349D01*
X90132Y624368D01*
X90089Y624396D01*
X90019Y624414D01*
X89952Y624441D01*
X89881Y624449D01*
X89850Y624457D01*
X89827Y624455D01*
X89786Y624459D01*
X88898Y624459D01*
X86861Y625303D01*
X85303Y626861D01*
X84545Y628690D01*
X84494Y628773D01*
X84448Y628859D01*
X84430Y628877D01*
X84416Y628899D01*
X84340Y628962D01*
X84270Y629028D01*
X84246Y629039D01*
X84226Y629056D01*
X84135Y629091D01*
X84047Y629132D01*
X84021Y629135D01*
X83997Y629144D01*
X83899Y629148D01*
X83803Y629159D01*
X83777Y629154D01*
X83751Y629155D01*
X83657Y629128D01*
X83562Y629107D01*
X83540Y629093D01*
X83515Y629086D01*
X83435Y629031D01*
X83351Y628981D01*
X83334Y628961D01*
X83313Y628946D01*
X83254Y628868D01*
X83191Y628794D01*
X83181Y628770D01*
X83166Y628749D01*
X83136Y628656D01*
X83099Y628566D01*
X83096Y628533D01*
X83090Y628515D01*
X83090Y628482D01*
X83081Y628399D01*
X83081Y572420D01*
X83095Y572330D01*
X83103Y572239D01*
X83115Y572209D01*
X83120Y572177D01*
X83163Y572096D01*
X83199Y572013D01*
X83225Y571980D01*
X83236Y571960D01*
X83259Y571938D01*
X83304Y571882D01*
X93921Y561264D01*
X93974Y561226D01*
X94021Y561180D01*
X94094Y561140D01*
X94121Y561121D01*
X94139Y561115D01*
X94168Y561099D01*
X95139Y560697D01*
X96697Y559139D01*
X97099Y558168D01*
X97118Y558138D01*
X97120Y558121D01*
X97130Y558104D01*
X97139Y558073D01*
X97541Y557102D01*
X97541Y554898D01*
X97139Y553927D01*
X97131Y553893D01*
X97121Y553879D01*
X97115Y553861D01*
X97099Y553832D01*
X96697Y552861D01*
X95139Y551303D01*
X94168Y550901D01*
X94138Y550882D01*
X94121Y550880D01*
X94104Y550870D01*
X94073Y550861D01*
X93102Y550459D01*
X90898Y550459D01*
G37*
%LPD*%
%LPC*%
G36*
X253898Y449459D02*
X253898Y449459D01*
X251861Y450303D01*
X250303Y451861D01*
X249459Y453898D01*
X249459Y456102D01*
X250303Y458139D01*
X251861Y459697D01*
X253898Y460541D01*
X254786Y460541D01*
X254857Y460552D01*
X254928Y460554D01*
X254977Y460572D01*
X255028Y460580D01*
X255092Y460614D01*
X255159Y460639D01*
X255200Y460671D01*
X255246Y460696D01*
X255295Y460747D01*
X255351Y460792D01*
X255379Y460836D01*
X255415Y460874D01*
X255445Y460939D01*
X255484Y460999D01*
X255497Y461050D01*
X255519Y461097D01*
X255527Y461168D01*
X255544Y461238D01*
X255540Y461290D01*
X255546Y461341D01*
X255531Y461412D01*
X255525Y461483D01*
X255505Y461531D01*
X255494Y461582D01*
X255457Y461643D01*
X255429Y461709D01*
X255384Y461765D01*
X255367Y461793D01*
X255350Y461808D01*
X255324Y461840D01*
X255303Y461861D01*
X254459Y463898D01*
X254459Y464504D01*
X254448Y464575D01*
X254446Y464646D01*
X254428Y464695D01*
X254420Y464746D01*
X254386Y464810D01*
X254361Y464877D01*
X254329Y464918D01*
X254304Y464964D01*
X254252Y465013D01*
X254208Y465069D01*
X254164Y465097D01*
X254126Y465133D01*
X254061Y465163D01*
X254001Y465202D01*
X253950Y465215D01*
X253903Y465237D01*
X253832Y465245D01*
X253762Y465262D01*
X253710Y465258D01*
X253659Y465264D01*
X253588Y465249D01*
X253517Y465243D01*
X253469Y465223D01*
X253418Y465212D01*
X253357Y465175D01*
X253291Y465147D01*
X253235Y465102D01*
X253207Y465085D01*
X253192Y465068D01*
X253160Y465042D01*
X253113Y464995D01*
X250250Y463809D01*
X247150Y463809D01*
X244287Y464995D01*
X242888Y466394D01*
X242872Y466406D01*
X242860Y466421D01*
X242772Y466477D01*
X242689Y466537D01*
X242670Y466543D01*
X242653Y466554D01*
X242552Y466579D01*
X242453Y466610D01*
X242434Y466609D01*
X242414Y466614D01*
X242311Y466606D01*
X242208Y466603D01*
X242189Y466597D01*
X242169Y466595D01*
X242074Y466555D01*
X241977Y466519D01*
X241961Y466507D01*
X241943Y466499D01*
X241812Y466394D01*
X240413Y464995D01*
X237550Y463809D01*
X234450Y463809D01*
X231587Y464995D01*
X229395Y467187D01*
X228209Y470050D01*
X228209Y473150D01*
X229395Y476013D01*
X230794Y477412D01*
X230806Y477428D01*
X230821Y477440D01*
X230877Y477528D01*
X230937Y477611D01*
X230943Y477630D01*
X230954Y477647D01*
X230979Y477748D01*
X231010Y477847D01*
X231009Y477866D01*
X231014Y477886D01*
X231006Y477989D01*
X231003Y478092D01*
X230997Y478111D01*
X230995Y478131D01*
X230955Y478226D01*
X230919Y478323D01*
X230907Y478339D01*
X230899Y478357D01*
X230794Y478488D01*
X229395Y479887D01*
X228209Y482750D01*
X228209Y485850D01*
X229395Y488713D01*
X230794Y490112D01*
X230806Y490128D01*
X230821Y490140D01*
X230877Y490228D01*
X230937Y490311D01*
X230943Y490330D01*
X230954Y490347D01*
X230979Y490448D01*
X231010Y490547D01*
X231009Y490566D01*
X231014Y490586D01*
X231006Y490689D01*
X231003Y490792D01*
X230997Y490811D01*
X230995Y490831D01*
X230955Y490926D01*
X230919Y491023D01*
X230907Y491039D01*
X230899Y491057D01*
X230794Y491188D01*
X229395Y492587D01*
X228209Y495450D01*
X228209Y498550D01*
X229395Y501413D01*
X230794Y502812D01*
X230806Y502828D01*
X230821Y502840D01*
X230877Y502928D01*
X230937Y503011D01*
X230943Y503030D01*
X230954Y503047D01*
X230979Y503148D01*
X231010Y503247D01*
X231009Y503266D01*
X231014Y503286D01*
X231006Y503389D01*
X231003Y503492D01*
X230997Y503511D01*
X230995Y503531D01*
X230955Y503626D01*
X230919Y503723D01*
X230907Y503739D01*
X230899Y503757D01*
X230794Y503888D01*
X229395Y505287D01*
X228209Y508150D01*
X228209Y511250D01*
X229395Y514113D01*
X230794Y515512D01*
X230806Y515528D01*
X230821Y515540D01*
X230877Y515628D01*
X230937Y515711D01*
X230943Y515730D01*
X230954Y515747D01*
X230979Y515848D01*
X231010Y515947D01*
X231009Y515966D01*
X231014Y515986D01*
X231006Y516089D01*
X231003Y516192D01*
X230997Y516211D01*
X230995Y516231D01*
X230955Y516326D01*
X230919Y516423D01*
X230907Y516439D01*
X230899Y516457D01*
X230794Y516588D01*
X229395Y517987D01*
X228209Y520850D01*
X228209Y523950D01*
X229395Y526813D01*
X231587Y529005D01*
X234450Y530191D01*
X237550Y530191D01*
X240413Y529005D01*
X241812Y527606D01*
X241828Y527594D01*
X241840Y527579D01*
X241928Y527523D01*
X242011Y527463D01*
X242030Y527457D01*
X242047Y527446D01*
X242148Y527421D01*
X242247Y527390D01*
X242266Y527391D01*
X242286Y527386D01*
X242389Y527394D01*
X242492Y527397D01*
X242511Y527403D01*
X242531Y527405D01*
X242626Y527445D01*
X242723Y527481D01*
X242739Y527493D01*
X242757Y527501D01*
X242888Y527606D01*
X244287Y529005D01*
X247150Y530191D01*
X250250Y530191D01*
X253113Y529005D01*
X254110Y528008D01*
X254147Y527981D01*
X254178Y527948D01*
X254246Y527910D01*
X254309Y527865D01*
X254353Y527851D01*
X254393Y527829D01*
X254470Y527815D01*
X254544Y527792D01*
X254590Y527794D01*
X254636Y527785D01*
X254712Y527797D01*
X254790Y527799D01*
X254833Y527815D01*
X254879Y527821D01*
X254948Y527856D01*
X255021Y527883D01*
X255057Y527912D01*
X255098Y527933D01*
X255153Y527988D01*
X255213Y528037D01*
X255235Y528071D01*
X256626Y529462D01*
X256638Y529478D01*
X256653Y529490D01*
X256709Y529578D01*
X256769Y529661D01*
X256775Y529680D01*
X256786Y529697D01*
X256811Y529798D01*
X256842Y529897D01*
X256841Y529916D01*
X256846Y529936D01*
X256838Y530039D01*
X256835Y530142D01*
X256829Y530161D01*
X256827Y530181D01*
X256787Y530276D01*
X256751Y530373D01*
X256739Y530389D01*
X256731Y530407D01*
X256626Y530538D01*
X255303Y531861D01*
X254459Y533898D01*
X254459Y536102D01*
X255303Y538139D01*
X256626Y539462D01*
X256638Y539478D01*
X256653Y539490D01*
X256709Y539578D01*
X256769Y539661D01*
X256775Y539680D01*
X256786Y539697D01*
X256811Y539798D01*
X256842Y539897D01*
X256841Y539916D01*
X256846Y539936D01*
X256838Y540039D01*
X256835Y540142D01*
X256829Y540161D01*
X256827Y540181D01*
X256787Y540276D01*
X256751Y540373D01*
X256739Y540389D01*
X256731Y540407D01*
X256626Y540538D01*
X255303Y541861D01*
X254459Y543898D01*
X254459Y546102D01*
X255303Y548139D01*
X256626Y549462D01*
X256638Y549478D01*
X256653Y549490D01*
X256709Y549578D01*
X256769Y549661D01*
X256775Y549680D01*
X256786Y549697D01*
X256811Y549798D01*
X256842Y549897D01*
X256841Y549916D01*
X256846Y549936D01*
X256838Y550039D01*
X256835Y550142D01*
X256829Y550161D01*
X256827Y550181D01*
X256787Y550276D01*
X256751Y550373D01*
X256739Y550389D01*
X256731Y550407D01*
X256626Y550538D01*
X255303Y551861D01*
X254459Y553898D01*
X254459Y556102D01*
X255303Y558139D01*
X256861Y559697D01*
X258898Y560541D01*
X261102Y560541D01*
X263139Y559697D01*
X264697Y558139D01*
X265541Y556102D01*
X265541Y553898D01*
X264697Y551861D01*
X263374Y550538D01*
X263362Y550522D01*
X263347Y550510D01*
X263291Y550422D01*
X263231Y550339D01*
X263225Y550320D01*
X263214Y550303D01*
X263189Y550202D01*
X263158Y550103D01*
X263159Y550084D01*
X263154Y550064D01*
X263162Y549961D01*
X263165Y549858D01*
X263171Y549839D01*
X263173Y549819D01*
X263213Y549724D01*
X263249Y549627D01*
X263262Y549611D01*
X263269Y549593D01*
X263374Y549462D01*
X264697Y548139D01*
X265541Y546102D01*
X265541Y543898D01*
X264697Y541861D01*
X263374Y540538D01*
X263362Y540522D01*
X263347Y540510D01*
X263291Y540422D01*
X263231Y540339D01*
X263225Y540320D01*
X263214Y540303D01*
X263189Y540202D01*
X263158Y540103D01*
X263159Y540084D01*
X263154Y540064D01*
X263162Y539961D01*
X263165Y539858D01*
X263171Y539839D01*
X263173Y539819D01*
X263213Y539724D01*
X263249Y539627D01*
X263262Y539611D01*
X263269Y539593D01*
X263374Y539462D01*
X264697Y538139D01*
X265541Y536102D01*
X265541Y533898D01*
X264697Y531861D01*
X263374Y530538D01*
X263362Y530522D01*
X263347Y530510D01*
X263316Y530461D01*
X263313Y530458D01*
X263311Y530453D01*
X263291Y530422D01*
X263231Y530339D01*
X263225Y530320D01*
X263214Y530303D01*
X263189Y530202D01*
X263158Y530103D01*
X263159Y530084D01*
X263154Y530064D01*
X263162Y529961D01*
X263165Y529858D01*
X263171Y529839D01*
X263173Y529819D01*
X263213Y529724D01*
X263249Y529627D01*
X263262Y529611D01*
X263269Y529593D01*
X263374Y529462D01*
X264697Y528139D01*
X265541Y526102D01*
X265541Y523898D01*
X264697Y521861D01*
X263374Y520538D01*
X263362Y520522D01*
X263347Y520510D01*
X263291Y520422D01*
X263231Y520339D01*
X263225Y520320D01*
X263214Y520303D01*
X263189Y520202D01*
X263158Y520103D01*
X263159Y520084D01*
X263154Y520064D01*
X263162Y519961D01*
X263165Y519858D01*
X263171Y519839D01*
X263173Y519819D01*
X263213Y519724D01*
X263249Y519627D01*
X263262Y519611D01*
X263269Y519593D01*
X263374Y519462D01*
X264697Y518139D01*
X265541Y516102D01*
X265541Y513898D01*
X264697Y511861D01*
X263374Y510538D01*
X263362Y510522D01*
X263347Y510510D01*
X263291Y510422D01*
X263231Y510339D01*
X263225Y510320D01*
X263214Y510303D01*
X263189Y510202D01*
X263158Y510103D01*
X263159Y510084D01*
X263154Y510064D01*
X263162Y509961D01*
X263165Y509858D01*
X263171Y509839D01*
X263173Y509819D01*
X263213Y509724D01*
X263249Y509627D01*
X263262Y509611D01*
X263269Y509593D01*
X263374Y509462D01*
X264697Y508139D01*
X265541Y506102D01*
X265541Y503898D01*
X264697Y501861D01*
X263374Y500538D01*
X263362Y500522D01*
X263347Y500510D01*
X263291Y500422D01*
X263231Y500339D01*
X263225Y500320D01*
X263214Y500303D01*
X263189Y500202D01*
X263158Y500103D01*
X263159Y500084D01*
X263154Y500064D01*
X263162Y499961D01*
X263165Y499858D01*
X263171Y499839D01*
X263173Y499819D01*
X263213Y499724D01*
X263249Y499627D01*
X263262Y499611D01*
X263269Y499593D01*
X263374Y499462D01*
X264697Y498139D01*
X265541Y496102D01*
X265541Y493898D01*
X264697Y491861D01*
X263374Y490538D01*
X263362Y490522D01*
X263347Y490510D01*
X263291Y490422D01*
X263231Y490339D01*
X263225Y490320D01*
X263214Y490303D01*
X263189Y490202D01*
X263158Y490103D01*
X263159Y490084D01*
X263154Y490064D01*
X263162Y489961D01*
X263165Y489858D01*
X263171Y489839D01*
X263173Y489819D01*
X263213Y489724D01*
X263249Y489627D01*
X263261Y489611D01*
X263269Y489593D01*
X263374Y489462D01*
X264697Y488139D01*
X265541Y486102D01*
X265541Y483898D01*
X264697Y481861D01*
X263374Y480538D01*
X263362Y480522D01*
X263347Y480510D01*
X263291Y480422D01*
X263231Y480339D01*
X263225Y480320D01*
X263214Y480303D01*
X263189Y480202D01*
X263158Y480103D01*
X263159Y480084D01*
X263154Y480064D01*
X263162Y479961D01*
X263165Y479858D01*
X263171Y479839D01*
X263173Y479819D01*
X263213Y479724D01*
X263249Y479627D01*
X263262Y479611D01*
X263269Y479593D01*
X263374Y479462D01*
X264697Y478139D01*
X265541Y476102D01*
X265541Y473898D01*
X264697Y471861D01*
X263374Y470538D01*
X263362Y470522D01*
X263347Y470510D01*
X263291Y470422D01*
X263231Y470339D01*
X263225Y470320D01*
X263214Y470303D01*
X263189Y470202D01*
X263158Y470103D01*
X263159Y470084D01*
X263154Y470064D01*
X263162Y469961D01*
X263165Y469858D01*
X263171Y469839D01*
X263173Y469819D01*
X263213Y469724D01*
X263249Y469627D01*
X263262Y469611D01*
X263269Y469593D01*
X263374Y469462D01*
X264697Y468139D01*
X265541Y466102D01*
X265541Y463898D01*
X264697Y461861D01*
X263139Y460303D01*
X261102Y459459D01*
X260214Y459459D01*
X260143Y459448D01*
X260072Y459446D01*
X260023Y459428D01*
X259972Y459420D01*
X259908Y459386D01*
X259841Y459361D01*
X259800Y459329D01*
X259754Y459304D01*
X259705Y459253D01*
X259649Y459208D01*
X259621Y459164D01*
X259585Y459126D01*
X259555Y459061D01*
X259516Y459001D01*
X259503Y458950D01*
X259481Y458903D01*
X259473Y458832D01*
X259456Y458762D01*
X259460Y458710D01*
X259454Y458659D01*
X259469Y458588D01*
X259475Y458517D01*
X259495Y458469D01*
X259506Y458418D01*
X259543Y458357D01*
X259571Y458291D01*
X259616Y458235D01*
X259633Y458207D01*
X259650Y458192D01*
X259676Y458160D01*
X259697Y458139D01*
X260541Y456102D01*
X260541Y453898D01*
X259697Y451861D01*
X258139Y450303D01*
X256102Y449459D01*
X253898Y449459D01*
G37*
%LPD*%
%LPC*%
G36*
X8898Y784459D02*
X8898Y784459D01*
X6861Y785303D01*
X5303Y786861D01*
X4459Y788898D01*
X4459Y791102D01*
X5303Y793139D01*
X6861Y794697D01*
X8898Y795541D01*
X11102Y795541D01*
X13139Y794697D01*
X14462Y793374D01*
X14478Y793362D01*
X14490Y793347D01*
X14578Y793291D01*
X14661Y793231D01*
X14680Y793225D01*
X14697Y793214D01*
X14798Y793189D01*
X14897Y793158D01*
X14916Y793159D01*
X14936Y793154D01*
X15039Y793162D01*
X15142Y793165D01*
X15161Y793171D01*
X15181Y793173D01*
X15276Y793213D01*
X15373Y793249D01*
X15389Y793262D01*
X15407Y793269D01*
X15538Y793374D01*
X16861Y794697D01*
X18898Y795541D01*
X21102Y795541D01*
X23139Y794697D01*
X24462Y793374D01*
X24478Y793362D01*
X24490Y793347D01*
X24578Y793291D01*
X24661Y793231D01*
X24680Y793225D01*
X24697Y793214D01*
X24798Y793189D01*
X24897Y793158D01*
X24916Y793159D01*
X24936Y793154D01*
X25039Y793162D01*
X25142Y793165D01*
X25161Y793171D01*
X25181Y793173D01*
X25276Y793213D01*
X25373Y793249D01*
X25389Y793262D01*
X25407Y793269D01*
X25538Y793374D01*
X26861Y794697D01*
X28898Y795541D01*
X31102Y795541D01*
X33139Y794697D01*
X34462Y793374D01*
X34478Y793362D01*
X34490Y793347D01*
X34578Y793291D01*
X34661Y793231D01*
X34680Y793225D01*
X34697Y793214D01*
X34798Y793189D01*
X34897Y793158D01*
X34916Y793159D01*
X34936Y793154D01*
X35039Y793162D01*
X35142Y793165D01*
X35161Y793171D01*
X35181Y793173D01*
X35276Y793213D01*
X35373Y793249D01*
X35389Y793262D01*
X35407Y793269D01*
X35538Y793374D01*
X36861Y794697D01*
X38898Y795541D01*
X41102Y795541D01*
X43139Y794697D01*
X44462Y793374D01*
X44478Y793362D01*
X44490Y793347D01*
X44578Y793291D01*
X44661Y793231D01*
X44680Y793225D01*
X44697Y793214D01*
X44798Y793189D01*
X44897Y793158D01*
X44916Y793159D01*
X44936Y793154D01*
X45039Y793162D01*
X45142Y793165D01*
X45161Y793171D01*
X45181Y793173D01*
X45276Y793213D01*
X45373Y793249D01*
X45389Y793262D01*
X45407Y793269D01*
X45538Y793374D01*
X46861Y794697D01*
X48898Y795541D01*
X51102Y795541D01*
X53139Y794697D01*
X54462Y793374D01*
X54478Y793362D01*
X54490Y793347D01*
X54578Y793291D01*
X54661Y793231D01*
X54680Y793225D01*
X54697Y793214D01*
X54798Y793189D01*
X54897Y793158D01*
X54916Y793159D01*
X54936Y793154D01*
X55039Y793162D01*
X55142Y793165D01*
X55161Y793171D01*
X55181Y793173D01*
X55276Y793213D01*
X55373Y793249D01*
X55389Y793262D01*
X55407Y793269D01*
X55538Y793374D01*
X56861Y794697D01*
X58898Y795541D01*
X61102Y795541D01*
X63139Y794697D01*
X64462Y793374D01*
X64478Y793362D01*
X64490Y793347D01*
X64578Y793291D01*
X64661Y793231D01*
X64680Y793225D01*
X64697Y793214D01*
X64798Y793189D01*
X64897Y793158D01*
X64916Y793159D01*
X64936Y793154D01*
X65039Y793162D01*
X65142Y793165D01*
X65161Y793171D01*
X65181Y793173D01*
X65276Y793213D01*
X65373Y793249D01*
X65389Y793262D01*
X65407Y793269D01*
X65538Y793374D01*
X66861Y794697D01*
X68898Y795541D01*
X71102Y795541D01*
X73139Y794697D01*
X74462Y793374D01*
X74478Y793362D01*
X74490Y793347D01*
X74578Y793291D01*
X74661Y793231D01*
X74680Y793225D01*
X74697Y793214D01*
X74798Y793189D01*
X74897Y793158D01*
X74916Y793159D01*
X74936Y793154D01*
X75039Y793162D01*
X75142Y793165D01*
X75161Y793171D01*
X75181Y793173D01*
X75276Y793213D01*
X75373Y793249D01*
X75389Y793261D01*
X75407Y793269D01*
X75538Y793374D01*
X76861Y794697D01*
X78898Y795541D01*
X81102Y795541D01*
X83139Y794697D01*
X84462Y793374D01*
X84478Y793362D01*
X84490Y793347D01*
X84578Y793291D01*
X84661Y793231D01*
X84680Y793225D01*
X84697Y793214D01*
X84798Y793189D01*
X84897Y793158D01*
X84916Y793159D01*
X84936Y793154D01*
X85039Y793162D01*
X85142Y793165D01*
X85161Y793171D01*
X85181Y793173D01*
X85276Y793213D01*
X85373Y793249D01*
X85389Y793262D01*
X85407Y793269D01*
X85538Y793374D01*
X86861Y794697D01*
X88898Y795541D01*
X91102Y795541D01*
X93139Y794697D01*
X94462Y793374D01*
X94478Y793362D01*
X94490Y793347D01*
X94578Y793291D01*
X94661Y793231D01*
X94680Y793225D01*
X94697Y793214D01*
X94798Y793189D01*
X94897Y793158D01*
X94916Y793159D01*
X94936Y793154D01*
X95039Y793162D01*
X95142Y793165D01*
X95161Y793171D01*
X95181Y793173D01*
X95276Y793213D01*
X95373Y793249D01*
X95389Y793262D01*
X95407Y793269D01*
X95538Y793374D01*
X96861Y794697D01*
X98898Y795541D01*
X101102Y795541D01*
X103139Y794697D01*
X104462Y793374D01*
X104478Y793362D01*
X104490Y793347D01*
X104578Y793291D01*
X104661Y793231D01*
X104680Y793225D01*
X104697Y793214D01*
X104798Y793189D01*
X104897Y793158D01*
X104916Y793159D01*
X104936Y793154D01*
X105039Y793162D01*
X105142Y793165D01*
X105161Y793171D01*
X105181Y793173D01*
X105276Y793213D01*
X105373Y793249D01*
X105389Y793262D01*
X105407Y793269D01*
X105538Y793374D01*
X106861Y794697D01*
X108898Y795541D01*
X111102Y795541D01*
X113139Y794697D01*
X114462Y793374D01*
X114478Y793362D01*
X114490Y793347D01*
X114578Y793291D01*
X114661Y793231D01*
X114680Y793225D01*
X114697Y793214D01*
X114798Y793189D01*
X114897Y793158D01*
X114916Y793159D01*
X114936Y793154D01*
X115039Y793162D01*
X115142Y793165D01*
X115161Y793171D01*
X115181Y793173D01*
X115276Y793213D01*
X115373Y793249D01*
X115389Y793262D01*
X115407Y793269D01*
X115538Y793374D01*
X116861Y794697D01*
X118898Y795541D01*
X121102Y795541D01*
X123139Y794697D01*
X124462Y793374D01*
X124478Y793362D01*
X124490Y793347D01*
X124578Y793291D01*
X124661Y793231D01*
X124680Y793225D01*
X124697Y793214D01*
X124798Y793189D01*
X124897Y793158D01*
X124916Y793159D01*
X124936Y793154D01*
X125039Y793162D01*
X125142Y793165D01*
X125161Y793171D01*
X125181Y793173D01*
X125276Y793213D01*
X125373Y793249D01*
X125389Y793262D01*
X125407Y793269D01*
X125538Y793374D01*
X126861Y794697D01*
X128898Y795541D01*
X131102Y795541D01*
X133139Y794697D01*
X134462Y793374D01*
X134478Y793362D01*
X134490Y793347D01*
X134578Y793291D01*
X134661Y793231D01*
X134680Y793225D01*
X134697Y793214D01*
X134798Y793189D01*
X134897Y793158D01*
X134916Y793159D01*
X134936Y793154D01*
X135039Y793162D01*
X135142Y793165D01*
X135161Y793171D01*
X135181Y793173D01*
X135276Y793213D01*
X135373Y793249D01*
X135389Y793262D01*
X135407Y793269D01*
X135538Y793374D01*
X136861Y794697D01*
X138898Y795541D01*
X141102Y795541D01*
X143139Y794697D01*
X144462Y793374D01*
X144478Y793362D01*
X144490Y793347D01*
X144578Y793291D01*
X144661Y793231D01*
X144680Y793225D01*
X144697Y793214D01*
X144798Y793189D01*
X144897Y793158D01*
X144916Y793159D01*
X144936Y793154D01*
X145039Y793162D01*
X145142Y793165D01*
X145161Y793171D01*
X145181Y793173D01*
X145276Y793213D01*
X145373Y793249D01*
X145389Y793262D01*
X145407Y793269D01*
X145538Y793374D01*
X146861Y794697D01*
X148898Y795541D01*
X151102Y795541D01*
X153139Y794697D01*
X154462Y793374D01*
X154478Y793362D01*
X154490Y793347D01*
X154578Y793291D01*
X154661Y793231D01*
X154680Y793225D01*
X154697Y793214D01*
X154798Y793189D01*
X154897Y793158D01*
X154916Y793159D01*
X154936Y793154D01*
X155039Y793162D01*
X155142Y793165D01*
X155161Y793171D01*
X155181Y793173D01*
X155276Y793213D01*
X155373Y793249D01*
X155389Y793262D01*
X155407Y793269D01*
X155538Y793374D01*
X156861Y794697D01*
X158898Y795541D01*
X161102Y795541D01*
X163139Y794697D01*
X164462Y793374D01*
X164478Y793362D01*
X164490Y793347D01*
X164578Y793291D01*
X164661Y793231D01*
X164680Y793225D01*
X164697Y793214D01*
X164798Y793189D01*
X164897Y793158D01*
X164916Y793159D01*
X164936Y793154D01*
X165039Y793162D01*
X165142Y793165D01*
X165161Y793171D01*
X165181Y793173D01*
X165276Y793213D01*
X165373Y793249D01*
X165389Y793262D01*
X165407Y793269D01*
X165538Y793374D01*
X166861Y794697D01*
X168898Y795541D01*
X171102Y795541D01*
X173139Y794697D01*
X174462Y793374D01*
X174478Y793362D01*
X174490Y793347D01*
X174578Y793291D01*
X174661Y793231D01*
X174680Y793225D01*
X174697Y793214D01*
X174798Y793189D01*
X174897Y793158D01*
X174916Y793159D01*
X174936Y793154D01*
X175039Y793162D01*
X175142Y793165D01*
X175161Y793171D01*
X175181Y793173D01*
X175276Y793213D01*
X175373Y793249D01*
X175389Y793262D01*
X175407Y793269D01*
X175538Y793374D01*
X176861Y794697D01*
X178898Y795541D01*
X181102Y795541D01*
X183139Y794697D01*
X184462Y793374D01*
X184478Y793362D01*
X184490Y793347D01*
X184578Y793291D01*
X184661Y793231D01*
X184680Y793225D01*
X184697Y793214D01*
X184798Y793189D01*
X184897Y793158D01*
X184916Y793159D01*
X184936Y793154D01*
X185039Y793162D01*
X185142Y793165D01*
X185161Y793171D01*
X185181Y793173D01*
X185276Y793213D01*
X185373Y793249D01*
X185389Y793262D01*
X185407Y793269D01*
X185538Y793374D01*
X186861Y794697D01*
X188898Y795541D01*
X191102Y795541D01*
X193139Y794697D01*
X194462Y793374D01*
X194478Y793362D01*
X194490Y793347D01*
X194578Y793291D01*
X194661Y793231D01*
X194680Y793225D01*
X194697Y793214D01*
X194798Y793189D01*
X194897Y793158D01*
X194916Y793159D01*
X194936Y793154D01*
X195039Y793162D01*
X195142Y793165D01*
X195161Y793171D01*
X195181Y793173D01*
X195276Y793213D01*
X195373Y793249D01*
X195389Y793262D01*
X195407Y793269D01*
X195538Y793374D01*
X196861Y794697D01*
X198898Y795541D01*
X201102Y795541D01*
X203139Y794697D01*
X204462Y793374D01*
X204478Y793362D01*
X204490Y793347D01*
X204578Y793291D01*
X204661Y793231D01*
X204680Y793225D01*
X204697Y793214D01*
X204798Y793189D01*
X204897Y793158D01*
X204916Y793159D01*
X204936Y793154D01*
X205039Y793162D01*
X205142Y793165D01*
X205161Y793171D01*
X205181Y793173D01*
X205276Y793213D01*
X205373Y793249D01*
X205389Y793262D01*
X205407Y793269D01*
X205538Y793374D01*
X206861Y794697D01*
X208898Y795541D01*
X211102Y795541D01*
X213139Y794697D01*
X214462Y793374D01*
X214478Y793362D01*
X214490Y793347D01*
X214578Y793291D01*
X214661Y793231D01*
X214680Y793225D01*
X214697Y793214D01*
X214798Y793189D01*
X214897Y793158D01*
X214916Y793159D01*
X214936Y793154D01*
X215039Y793162D01*
X215142Y793165D01*
X215161Y793171D01*
X215181Y793173D01*
X215276Y793213D01*
X215373Y793249D01*
X215389Y793262D01*
X215407Y793269D01*
X215538Y793374D01*
X216861Y794697D01*
X218898Y795541D01*
X221102Y795541D01*
X223139Y794697D01*
X224462Y793374D01*
X224478Y793362D01*
X224490Y793347D01*
X224578Y793291D01*
X224661Y793231D01*
X224680Y793225D01*
X224697Y793214D01*
X224798Y793189D01*
X224897Y793158D01*
X224916Y793159D01*
X224936Y793154D01*
X225039Y793162D01*
X225142Y793165D01*
X225161Y793171D01*
X225181Y793173D01*
X225276Y793213D01*
X225373Y793249D01*
X225389Y793262D01*
X225407Y793269D01*
X225538Y793374D01*
X226861Y794697D01*
X228898Y795541D01*
X231102Y795541D01*
X233139Y794697D01*
X234462Y793374D01*
X234478Y793362D01*
X234490Y793347D01*
X234578Y793291D01*
X234661Y793231D01*
X234680Y793225D01*
X234697Y793214D01*
X234798Y793189D01*
X234897Y793158D01*
X234916Y793159D01*
X234936Y793154D01*
X235039Y793162D01*
X235142Y793165D01*
X235161Y793171D01*
X235181Y793173D01*
X235276Y793213D01*
X235373Y793249D01*
X235389Y793262D01*
X235407Y793269D01*
X235538Y793374D01*
X236861Y794697D01*
X238898Y795541D01*
X241102Y795541D01*
X243139Y794697D01*
X244462Y793374D01*
X244478Y793362D01*
X244490Y793347D01*
X244578Y793291D01*
X244661Y793231D01*
X244680Y793225D01*
X244697Y793214D01*
X244798Y793189D01*
X244897Y793158D01*
X244916Y793159D01*
X244936Y793154D01*
X245039Y793162D01*
X245142Y793165D01*
X245161Y793171D01*
X245181Y793173D01*
X245276Y793213D01*
X245373Y793249D01*
X245389Y793262D01*
X245407Y793269D01*
X245538Y793374D01*
X246861Y794697D01*
X248898Y795541D01*
X251102Y795541D01*
X253139Y794697D01*
X254462Y793374D01*
X254478Y793362D01*
X254490Y793347D01*
X254578Y793291D01*
X254661Y793231D01*
X254680Y793225D01*
X254697Y793214D01*
X254798Y793189D01*
X254897Y793158D01*
X254916Y793159D01*
X254936Y793154D01*
X255039Y793162D01*
X255142Y793165D01*
X255161Y793171D01*
X255181Y793173D01*
X255276Y793213D01*
X255373Y793249D01*
X255389Y793262D01*
X255407Y793269D01*
X255538Y793374D01*
X256861Y794697D01*
X258898Y795541D01*
X261102Y795541D01*
X263139Y794697D01*
X264697Y793139D01*
X265541Y791102D01*
X265541Y788898D01*
X264697Y786861D01*
X263139Y785303D01*
X261102Y784459D01*
X258898Y784459D01*
X256861Y785303D01*
X255538Y786626D01*
X255522Y786638D01*
X255510Y786653D01*
X255422Y786709D01*
X255339Y786769D01*
X255320Y786775D01*
X255303Y786786D01*
X255202Y786811D01*
X255103Y786842D01*
X255084Y786841D01*
X255064Y786846D01*
X254961Y786838D01*
X254858Y786835D01*
X254839Y786829D01*
X254819Y786827D01*
X254724Y786787D01*
X254627Y786751D01*
X254611Y786739D01*
X254593Y786731D01*
X254462Y786626D01*
X253139Y785303D01*
X251102Y784459D01*
X248898Y784459D01*
X246861Y785303D01*
X245538Y786626D01*
X245522Y786638D01*
X245510Y786653D01*
X245422Y786709D01*
X245339Y786769D01*
X245320Y786775D01*
X245303Y786786D01*
X245202Y786811D01*
X245103Y786842D01*
X245084Y786841D01*
X245064Y786846D01*
X244961Y786838D01*
X244858Y786835D01*
X244839Y786829D01*
X244819Y786827D01*
X244724Y786787D01*
X244627Y786751D01*
X244611Y786739D01*
X244593Y786731D01*
X244462Y786626D01*
X243139Y785303D01*
X241102Y784459D01*
X238898Y784459D01*
X236861Y785303D01*
X235538Y786626D01*
X235522Y786638D01*
X235510Y786653D01*
X235422Y786709D01*
X235339Y786769D01*
X235320Y786775D01*
X235303Y786786D01*
X235202Y786811D01*
X235103Y786842D01*
X235084Y786841D01*
X235064Y786846D01*
X234961Y786838D01*
X234858Y786835D01*
X234839Y786829D01*
X234819Y786827D01*
X234724Y786787D01*
X234627Y786751D01*
X234611Y786739D01*
X234593Y786731D01*
X234462Y786626D01*
X233139Y785303D01*
X231102Y784459D01*
X228898Y784459D01*
X226861Y785303D01*
X225538Y786626D01*
X225522Y786638D01*
X225510Y786653D01*
X225422Y786709D01*
X225339Y786769D01*
X225320Y786775D01*
X225303Y786786D01*
X225202Y786811D01*
X225103Y786842D01*
X225084Y786841D01*
X225064Y786846D01*
X224961Y786838D01*
X224858Y786835D01*
X224839Y786829D01*
X224819Y786827D01*
X224724Y786787D01*
X224627Y786751D01*
X224611Y786739D01*
X224593Y786731D01*
X224462Y786626D01*
X223139Y785303D01*
X221102Y784459D01*
X218898Y784459D01*
X216861Y785303D01*
X215538Y786626D01*
X215522Y786638D01*
X215510Y786653D01*
X215422Y786709D01*
X215339Y786769D01*
X215320Y786775D01*
X215303Y786786D01*
X215202Y786811D01*
X215103Y786842D01*
X215084Y786841D01*
X215064Y786846D01*
X214961Y786838D01*
X214858Y786835D01*
X214839Y786829D01*
X214819Y786827D01*
X214724Y786787D01*
X214627Y786751D01*
X214611Y786739D01*
X214593Y786731D01*
X214462Y786626D01*
X213139Y785303D01*
X211102Y784459D01*
X208898Y784459D01*
X206861Y785303D01*
X205538Y786626D01*
X205522Y786638D01*
X205510Y786653D01*
X205422Y786709D01*
X205339Y786769D01*
X205320Y786775D01*
X205303Y786786D01*
X205202Y786811D01*
X205103Y786842D01*
X205084Y786841D01*
X205064Y786846D01*
X204961Y786838D01*
X204858Y786835D01*
X204839Y786829D01*
X204819Y786827D01*
X204724Y786787D01*
X204627Y786751D01*
X204611Y786739D01*
X204593Y786731D01*
X204462Y786626D01*
X203139Y785303D01*
X201102Y784459D01*
X198898Y784459D01*
X196861Y785303D01*
X195538Y786626D01*
X195522Y786638D01*
X195510Y786653D01*
X195422Y786709D01*
X195339Y786769D01*
X195320Y786775D01*
X195303Y786786D01*
X195202Y786811D01*
X195103Y786842D01*
X195084Y786841D01*
X195064Y786846D01*
X194961Y786838D01*
X194858Y786835D01*
X194839Y786829D01*
X194819Y786827D01*
X194724Y786787D01*
X194627Y786751D01*
X194611Y786739D01*
X194593Y786731D01*
X194462Y786626D01*
X193139Y785303D01*
X191102Y784459D01*
X188898Y784459D01*
X186861Y785303D01*
X185538Y786626D01*
X185522Y786638D01*
X185510Y786653D01*
X185422Y786709D01*
X185339Y786769D01*
X185320Y786775D01*
X185303Y786786D01*
X185202Y786811D01*
X185103Y786842D01*
X185084Y786841D01*
X185064Y786846D01*
X184961Y786838D01*
X184858Y786835D01*
X184839Y786829D01*
X184819Y786827D01*
X184724Y786787D01*
X184627Y786751D01*
X184611Y786739D01*
X184593Y786731D01*
X184462Y786626D01*
X183139Y785303D01*
X181102Y784459D01*
X178898Y784459D01*
X176861Y785303D01*
X175538Y786626D01*
X175522Y786638D01*
X175510Y786653D01*
X175422Y786709D01*
X175339Y786769D01*
X175320Y786775D01*
X175303Y786786D01*
X175202Y786811D01*
X175103Y786842D01*
X175084Y786841D01*
X175064Y786846D01*
X174961Y786838D01*
X174858Y786835D01*
X174839Y786829D01*
X174819Y786827D01*
X174724Y786787D01*
X174627Y786751D01*
X174611Y786739D01*
X174593Y786731D01*
X174462Y786626D01*
X173139Y785303D01*
X171102Y784459D01*
X168898Y784459D01*
X166861Y785303D01*
X165538Y786626D01*
X165522Y786638D01*
X165510Y786653D01*
X165422Y786709D01*
X165339Y786769D01*
X165320Y786775D01*
X165303Y786786D01*
X165202Y786811D01*
X165103Y786842D01*
X165084Y786841D01*
X165064Y786846D01*
X164961Y786838D01*
X164858Y786835D01*
X164839Y786829D01*
X164819Y786827D01*
X164724Y786787D01*
X164627Y786751D01*
X164611Y786739D01*
X164593Y786731D01*
X164462Y786626D01*
X163139Y785303D01*
X161102Y784459D01*
X158898Y784459D01*
X156861Y785303D01*
X155538Y786626D01*
X155522Y786638D01*
X155510Y786653D01*
X155422Y786709D01*
X155339Y786769D01*
X155320Y786775D01*
X155303Y786786D01*
X155202Y786811D01*
X155103Y786842D01*
X155084Y786841D01*
X155064Y786846D01*
X154961Y786838D01*
X154858Y786835D01*
X154839Y786829D01*
X154819Y786827D01*
X154724Y786787D01*
X154627Y786751D01*
X154611Y786739D01*
X154593Y786731D01*
X154462Y786626D01*
X153139Y785303D01*
X151102Y784459D01*
X148898Y784459D01*
X146861Y785303D01*
X145538Y786626D01*
X145522Y786638D01*
X145510Y786653D01*
X145422Y786709D01*
X145339Y786769D01*
X145320Y786775D01*
X145303Y786786D01*
X145202Y786811D01*
X145103Y786842D01*
X145084Y786841D01*
X145064Y786846D01*
X144961Y786838D01*
X144858Y786835D01*
X144839Y786829D01*
X144819Y786827D01*
X144724Y786787D01*
X144627Y786751D01*
X144611Y786739D01*
X144593Y786731D01*
X144462Y786626D01*
X143139Y785303D01*
X141102Y784459D01*
X138898Y784459D01*
X136861Y785303D01*
X135538Y786626D01*
X135522Y786638D01*
X135510Y786653D01*
X135422Y786709D01*
X135339Y786769D01*
X135320Y786775D01*
X135303Y786786D01*
X135202Y786811D01*
X135103Y786842D01*
X135084Y786841D01*
X135064Y786846D01*
X134961Y786838D01*
X134858Y786835D01*
X134839Y786829D01*
X134819Y786827D01*
X134724Y786787D01*
X134627Y786751D01*
X134611Y786739D01*
X134593Y786731D01*
X134462Y786626D01*
X133139Y785303D01*
X131102Y784459D01*
X128898Y784459D01*
X126861Y785303D01*
X125538Y786626D01*
X125522Y786638D01*
X125510Y786653D01*
X125422Y786709D01*
X125339Y786769D01*
X125320Y786775D01*
X125303Y786786D01*
X125202Y786811D01*
X125103Y786842D01*
X125084Y786841D01*
X125064Y786846D01*
X124961Y786838D01*
X124858Y786835D01*
X124839Y786829D01*
X124819Y786827D01*
X124724Y786787D01*
X124627Y786751D01*
X124611Y786739D01*
X124593Y786731D01*
X124462Y786626D01*
X123139Y785303D01*
X121102Y784459D01*
X118898Y784459D01*
X116861Y785303D01*
X115538Y786626D01*
X115522Y786638D01*
X115510Y786653D01*
X115422Y786709D01*
X115339Y786769D01*
X115320Y786775D01*
X115303Y786786D01*
X115202Y786811D01*
X115103Y786842D01*
X115084Y786841D01*
X115064Y786846D01*
X114961Y786838D01*
X114858Y786835D01*
X114839Y786829D01*
X114819Y786827D01*
X114724Y786787D01*
X114627Y786751D01*
X114611Y786739D01*
X114593Y786731D01*
X114462Y786626D01*
X113139Y785303D01*
X111102Y784459D01*
X108898Y784459D01*
X106861Y785303D01*
X105538Y786626D01*
X105522Y786638D01*
X105510Y786653D01*
X105422Y786709D01*
X105339Y786769D01*
X105320Y786775D01*
X105303Y786786D01*
X105202Y786811D01*
X105103Y786842D01*
X105084Y786841D01*
X105064Y786846D01*
X104961Y786838D01*
X104858Y786835D01*
X104839Y786829D01*
X104819Y786827D01*
X104724Y786787D01*
X104627Y786751D01*
X104611Y786739D01*
X104593Y786731D01*
X104462Y786626D01*
X103139Y785303D01*
X101102Y784459D01*
X98898Y784459D01*
X96861Y785303D01*
X95538Y786626D01*
X95522Y786638D01*
X95510Y786653D01*
X95422Y786709D01*
X95339Y786769D01*
X95320Y786775D01*
X95303Y786786D01*
X95202Y786811D01*
X95103Y786842D01*
X95084Y786841D01*
X95064Y786846D01*
X94961Y786838D01*
X94858Y786835D01*
X94839Y786829D01*
X94819Y786827D01*
X94724Y786787D01*
X94627Y786751D01*
X94611Y786739D01*
X94593Y786731D01*
X94462Y786626D01*
X93139Y785303D01*
X91102Y784459D01*
X88898Y784459D01*
X86861Y785303D01*
X85538Y786626D01*
X85522Y786638D01*
X85510Y786653D01*
X85422Y786709D01*
X85339Y786769D01*
X85320Y786775D01*
X85303Y786786D01*
X85202Y786811D01*
X85103Y786842D01*
X85084Y786841D01*
X85064Y786846D01*
X84961Y786838D01*
X84858Y786835D01*
X84839Y786829D01*
X84819Y786827D01*
X84724Y786787D01*
X84627Y786751D01*
X84611Y786739D01*
X84593Y786731D01*
X84462Y786626D01*
X83139Y785303D01*
X81102Y784459D01*
X78898Y784459D01*
X76861Y785303D01*
X75538Y786626D01*
X75522Y786638D01*
X75510Y786653D01*
X75422Y786709D01*
X75339Y786769D01*
X75320Y786775D01*
X75303Y786786D01*
X75202Y786811D01*
X75103Y786842D01*
X75084Y786841D01*
X75064Y786846D01*
X74961Y786838D01*
X74858Y786835D01*
X74839Y786829D01*
X74819Y786827D01*
X74724Y786787D01*
X74627Y786751D01*
X74611Y786738D01*
X74593Y786731D01*
X74462Y786626D01*
X73139Y785303D01*
X71102Y784459D01*
X68898Y784459D01*
X66861Y785303D01*
X65538Y786626D01*
X65522Y786638D01*
X65510Y786653D01*
X65422Y786709D01*
X65339Y786769D01*
X65320Y786775D01*
X65303Y786786D01*
X65202Y786811D01*
X65103Y786842D01*
X65084Y786841D01*
X65064Y786846D01*
X64961Y786838D01*
X64858Y786835D01*
X64839Y786829D01*
X64819Y786827D01*
X64724Y786787D01*
X64627Y786751D01*
X64611Y786739D01*
X64593Y786731D01*
X64462Y786626D01*
X63139Y785303D01*
X61102Y784459D01*
X58898Y784459D01*
X56861Y785303D01*
X55538Y786626D01*
X55522Y786638D01*
X55510Y786653D01*
X55422Y786709D01*
X55339Y786769D01*
X55320Y786775D01*
X55303Y786786D01*
X55202Y786811D01*
X55103Y786842D01*
X55084Y786841D01*
X55064Y786846D01*
X54961Y786838D01*
X54858Y786835D01*
X54839Y786829D01*
X54819Y786827D01*
X54724Y786787D01*
X54627Y786751D01*
X54611Y786739D01*
X54593Y786731D01*
X54462Y786626D01*
X53139Y785303D01*
X51102Y784459D01*
X48898Y784459D01*
X46861Y785303D01*
X45538Y786626D01*
X45522Y786638D01*
X45510Y786653D01*
X45422Y786709D01*
X45339Y786769D01*
X45320Y786775D01*
X45303Y786786D01*
X45202Y786811D01*
X45103Y786842D01*
X45084Y786841D01*
X45064Y786846D01*
X44961Y786838D01*
X44858Y786835D01*
X44839Y786829D01*
X44819Y786827D01*
X44724Y786787D01*
X44627Y786751D01*
X44611Y786739D01*
X44593Y786731D01*
X44462Y786626D01*
X43139Y785303D01*
X41102Y784459D01*
X38898Y784459D01*
X36861Y785303D01*
X35538Y786626D01*
X35522Y786638D01*
X35510Y786653D01*
X35422Y786709D01*
X35339Y786769D01*
X35320Y786775D01*
X35303Y786786D01*
X35202Y786811D01*
X35103Y786842D01*
X35084Y786841D01*
X35064Y786846D01*
X34961Y786838D01*
X34858Y786835D01*
X34839Y786829D01*
X34819Y786827D01*
X34724Y786787D01*
X34627Y786751D01*
X34611Y786739D01*
X34593Y786731D01*
X34462Y786626D01*
X33139Y785303D01*
X31102Y784459D01*
X28898Y784459D01*
X26861Y785303D01*
X25538Y786626D01*
X25522Y786638D01*
X25510Y786653D01*
X25422Y786709D01*
X25339Y786769D01*
X25320Y786775D01*
X25303Y786786D01*
X25202Y786811D01*
X25103Y786842D01*
X25084Y786841D01*
X25064Y786846D01*
X24961Y786838D01*
X24858Y786835D01*
X24839Y786829D01*
X24819Y786827D01*
X24724Y786787D01*
X24627Y786751D01*
X24611Y786739D01*
X24593Y786731D01*
X24462Y786626D01*
X23139Y785303D01*
X21102Y784459D01*
X18898Y784459D01*
X16861Y785303D01*
X15538Y786626D01*
X15522Y786638D01*
X15510Y786653D01*
X15422Y786709D01*
X15339Y786769D01*
X15320Y786775D01*
X15303Y786786D01*
X15202Y786811D01*
X15103Y786842D01*
X15084Y786841D01*
X15064Y786846D01*
X14961Y786838D01*
X14858Y786835D01*
X14839Y786829D01*
X14819Y786827D01*
X14724Y786787D01*
X14627Y786751D01*
X14611Y786739D01*
X14593Y786731D01*
X14462Y786626D01*
X13139Y785303D01*
X11102Y784459D01*
X8898Y784459D01*
G37*
%LPD*%
%LPC*%
G36*
X11898Y368459D02*
X11898Y368459D01*
X9861Y369303D01*
X8303Y370861D01*
X7459Y372898D01*
X7459Y375102D01*
X8303Y377139D01*
X9861Y378697D01*
X11358Y379317D01*
X11397Y379341D01*
X11441Y379357D01*
X11501Y379406D01*
X11567Y379447D01*
X11597Y379482D01*
X11633Y379511D01*
X11675Y379576D01*
X11724Y379636D01*
X11741Y379679D01*
X11766Y379718D01*
X11785Y379793D01*
X11812Y379866D01*
X11814Y379912D01*
X11826Y379956D01*
X11820Y380034D01*
X11823Y380112D01*
X11810Y380156D01*
X11806Y380202D01*
X11776Y380273D01*
X11754Y380348D01*
X11728Y380386D01*
X11710Y380428D01*
X11625Y380535D01*
X11614Y380550D01*
X11610Y380553D01*
X11605Y380559D01*
X10303Y381861D01*
X9459Y383898D01*
X9459Y386102D01*
X10303Y388139D01*
X11626Y389462D01*
X11638Y389478D01*
X11653Y389490D01*
X11709Y389578D01*
X11769Y389661D01*
X11775Y389680D01*
X11786Y389697D01*
X11811Y389798D01*
X11842Y389897D01*
X11841Y389916D01*
X11846Y389936D01*
X11838Y390039D01*
X11835Y390142D01*
X11829Y390161D01*
X11827Y390181D01*
X11787Y390276D01*
X11751Y390373D01*
X11739Y390389D01*
X11731Y390407D01*
X11626Y390538D01*
X10303Y391861D01*
X9459Y393898D01*
X9459Y396102D01*
X10303Y398139D01*
X11861Y399697D01*
X13898Y400541D01*
X16102Y400541D01*
X18139Y399697D01*
X19697Y398139D01*
X20541Y396102D01*
X20541Y393898D01*
X19697Y391861D01*
X18374Y390538D01*
X18362Y390522D01*
X18347Y390510D01*
X18291Y390422D01*
X18231Y390339D01*
X18225Y390320D01*
X18214Y390303D01*
X18189Y390202D01*
X18158Y390103D01*
X18159Y390084D01*
X18154Y390064D01*
X18162Y389961D01*
X18165Y389858D01*
X18171Y389839D01*
X18173Y389819D01*
X18213Y389724D01*
X18249Y389627D01*
X18262Y389611D01*
X18269Y389593D01*
X18374Y389462D01*
X19697Y388139D01*
X20541Y386102D01*
X20541Y383898D01*
X19697Y381861D01*
X18139Y380303D01*
X16642Y379683D01*
X16603Y379659D01*
X16559Y379643D01*
X16499Y379594D01*
X16433Y379553D01*
X16403Y379518D01*
X16367Y379489D01*
X16325Y379424D01*
X16276Y379364D01*
X16259Y379321D01*
X16234Y379282D01*
X16215Y379207D01*
X16188Y379134D01*
X16186Y379088D01*
X16174Y379044D01*
X16180Y378966D01*
X16177Y378888D01*
X16190Y378844D01*
X16194Y378798D01*
X16224Y378727D01*
X16246Y378652D01*
X16272Y378614D01*
X16290Y378572D01*
X16375Y378465D01*
X16386Y378450D01*
X16390Y378447D01*
X16395Y378441D01*
X16802Y378034D01*
X16876Y377980D01*
X16946Y377921D01*
X16976Y377909D01*
X17002Y377890D01*
X17089Y377863D01*
X17174Y377829D01*
X17215Y377825D01*
X17237Y377818D01*
X17269Y377819D01*
X17340Y377811D01*
X53637Y377811D01*
X53733Y377826D01*
X53830Y377836D01*
X53853Y377846D01*
X53879Y377850D01*
X53965Y377896D01*
X54054Y377936D01*
X54074Y377953D01*
X54097Y377966D01*
X54164Y378036D01*
X54235Y378102D01*
X54248Y378125D01*
X54266Y378144D01*
X54307Y378232D01*
X54354Y378318D01*
X54359Y378343D01*
X54370Y378367D01*
X54380Y378464D01*
X54398Y378560D01*
X54394Y378586D01*
X54397Y378611D01*
X54376Y378707D01*
X54362Y378803D01*
X54350Y378826D01*
X54344Y378852D01*
X54295Y378935D01*
X54250Y379022D01*
X54232Y379041D01*
X54218Y379063D01*
X54144Y379126D01*
X54075Y379194D01*
X54046Y379210D01*
X54031Y379223D01*
X54001Y379235D01*
X53928Y379275D01*
X53861Y379303D01*
X52303Y380861D01*
X51459Y382898D01*
X51459Y385102D01*
X52303Y387139D01*
X53605Y388441D01*
X53632Y388478D01*
X53666Y388509D01*
X53703Y388578D01*
X53749Y388641D01*
X53762Y388685D01*
X53785Y388725D01*
X53798Y388802D01*
X53821Y388876D01*
X53820Y388922D01*
X53828Y388967D01*
X53817Y389044D01*
X53815Y389122D01*
X53799Y389165D01*
X53792Y389210D01*
X53757Y389280D01*
X53730Y389353D01*
X53702Y389389D01*
X53681Y389430D01*
X53625Y389484D01*
X53577Y389545D01*
X53538Y389570D01*
X53505Y389602D01*
X53386Y389668D01*
X53370Y389678D01*
X53365Y389679D01*
X53358Y389683D01*
X51861Y390303D01*
X50303Y391861D01*
X49459Y393898D01*
X49459Y396102D01*
X50303Y398139D01*
X51861Y399697D01*
X53898Y400541D01*
X56102Y400541D01*
X58139Y399697D01*
X59697Y398139D01*
X60541Y396102D01*
X60541Y393898D01*
X59697Y391861D01*
X58395Y390559D01*
X58368Y390522D01*
X58334Y390491D01*
X58297Y390422D01*
X58251Y390359D01*
X58238Y390315D01*
X58215Y390275D01*
X58202Y390198D01*
X58179Y390124D01*
X58180Y390078D01*
X58172Y390033D01*
X58183Y389956D01*
X58185Y389878D01*
X58201Y389835D01*
X58208Y389790D01*
X58243Y389720D01*
X58270Y389647D01*
X58298Y389611D01*
X58319Y389570D01*
X58375Y389516D01*
X58423Y389455D01*
X58462Y389430D01*
X58495Y389398D01*
X58614Y389332D01*
X58630Y389322D01*
X58635Y389321D01*
X58642Y389317D01*
X60139Y388697D01*
X61697Y387139D01*
X62541Y385102D01*
X62541Y382898D01*
X61697Y380861D01*
X60139Y379303D01*
X60072Y379275D01*
X59989Y379224D01*
X59903Y379178D01*
X59885Y379160D01*
X59863Y379146D01*
X59801Y379071D01*
X59734Y379000D01*
X59723Y378976D01*
X59706Y378956D01*
X59671Y378865D01*
X59630Y378777D01*
X59627Y378751D01*
X59618Y378727D01*
X59614Y378629D01*
X59603Y378533D01*
X59609Y378507D01*
X59608Y378481D01*
X59635Y378387D01*
X59656Y378292D01*
X59669Y378270D01*
X59676Y378245D01*
X59732Y378165D01*
X59782Y378081D01*
X59802Y378064D01*
X59816Y378043D01*
X59895Y377984D01*
X59969Y377921D01*
X59993Y377911D01*
X60014Y377896D01*
X60106Y377866D01*
X60197Y377829D01*
X60229Y377826D01*
X60248Y377820D01*
X60281Y377820D01*
X60363Y377811D01*
X76266Y377811D01*
X76356Y377825D01*
X76447Y377833D01*
X76477Y377845D01*
X76509Y377850D01*
X76590Y377893D01*
X76674Y377929D01*
X76706Y377955D01*
X76726Y377966D01*
X76749Y377989D01*
X76805Y378034D01*
X102736Y403965D01*
X102789Y404039D01*
X102849Y404109D01*
X102861Y404139D01*
X102880Y404165D01*
X102907Y404252D01*
X102941Y404337D01*
X102945Y404378D01*
X102952Y404400D01*
X102951Y404432D01*
X102959Y404504D01*
X102959Y405442D01*
X103803Y407479D01*
X105361Y409037D01*
X107398Y409881D01*
X109602Y409881D01*
X111639Y409037D01*
X111882Y408794D01*
X111898Y408782D01*
X111910Y408767D01*
X111998Y408711D01*
X112081Y408651D01*
X112100Y408645D01*
X112117Y408634D01*
X112218Y408609D01*
X112316Y408578D01*
X112336Y408579D01*
X112356Y408574D01*
X112459Y408582D01*
X112562Y408585D01*
X112581Y408591D01*
X112601Y408593D01*
X112696Y408633D01*
X112793Y408669D01*
X112809Y408681D01*
X112827Y408689D01*
X112958Y408794D01*
X113861Y409697D01*
X115898Y410541D01*
X118102Y410541D01*
X120139Y409697D01*
X120462Y409374D01*
X120478Y409362D01*
X120490Y409347D01*
X120578Y409291D01*
X120661Y409231D01*
X120680Y409225D01*
X120697Y409214D01*
X120798Y409189D01*
X120896Y409158D01*
X120916Y409159D01*
X120936Y409154D01*
X121039Y409162D01*
X121142Y409165D01*
X121161Y409171D01*
X121181Y409173D01*
X121276Y409213D01*
X121373Y409249D01*
X121389Y409261D01*
X121407Y409269D01*
X121538Y409374D01*
X122861Y410697D01*
X124898Y411541D01*
X127102Y411541D01*
X129139Y410697D01*
X129462Y410374D01*
X129478Y410362D01*
X129490Y410347D01*
X129578Y410291D01*
X129661Y410231D01*
X129680Y410225D01*
X129697Y410214D01*
X129798Y410189D01*
X129897Y410158D01*
X129917Y410159D01*
X129936Y410154D01*
X130039Y410162D01*
X130142Y410165D01*
X130161Y410171D01*
X130181Y410173D01*
X130276Y410213D01*
X130373Y410249D01*
X130389Y410261D01*
X130407Y410269D01*
X130538Y410374D01*
X130861Y410697D01*
X132898Y411541D01*
X134698Y411541D01*
X134718Y411544D01*
X134737Y411542D01*
X134839Y411564D01*
X134941Y411580D01*
X134958Y411590D01*
X134978Y411594D01*
X135067Y411647D01*
X135158Y411696D01*
X135172Y411710D01*
X135189Y411720D01*
X135256Y411799D01*
X135328Y411874D01*
X135336Y411892D01*
X135349Y411907D01*
X135388Y412003D01*
X135431Y412097D01*
X135433Y412117D01*
X135441Y412135D01*
X135459Y412302D01*
X135459Y414102D01*
X136303Y416139D01*
X137861Y417697D01*
X139898Y418541D01*
X142102Y418541D01*
X142721Y418284D01*
X142791Y418268D01*
X142858Y418242D01*
X142910Y418240D01*
X142960Y418228D01*
X143032Y418235D01*
X143103Y418232D01*
X143153Y418246D01*
X143205Y418251D01*
X143271Y418280D01*
X143340Y418300D01*
X143382Y418330D01*
X143430Y418351D01*
X143483Y418400D01*
X143542Y418441D01*
X143573Y418482D01*
X143611Y418518D01*
X143646Y418581D01*
X143689Y418638D01*
X143705Y418688D01*
X143730Y418733D01*
X143743Y418804D01*
X143765Y418872D01*
X143764Y418924D01*
X143773Y418975D01*
X143763Y419046D01*
X143762Y419118D01*
X143742Y419187D01*
X143738Y419219D01*
X143727Y419239D01*
X143716Y419279D01*
X143459Y419898D01*
X143459Y422102D01*
X144303Y424139D01*
X145861Y425697D01*
X147898Y426541D01*
X150102Y426541D01*
X152139Y425697D01*
X153697Y424139D01*
X154541Y422102D01*
X154541Y419864D01*
X154535Y419849D01*
X154533Y419797D01*
X154521Y419747D01*
X154528Y419675D01*
X154525Y419604D01*
X154539Y419554D01*
X154544Y419502D01*
X154573Y419436D01*
X154593Y419367D01*
X154623Y419325D01*
X154644Y419277D01*
X154693Y419224D01*
X154734Y419165D01*
X154775Y419134D01*
X154811Y419096D01*
X154873Y419061D01*
X154931Y419019D01*
X154980Y419002D01*
X155026Y418977D01*
X155097Y418965D01*
X155165Y418942D01*
X155217Y418943D01*
X155268Y418934D01*
X155339Y418944D01*
X155411Y418945D01*
X155480Y418965D01*
X155511Y418969D01*
X155532Y418980D01*
X155572Y418991D01*
X156898Y419541D01*
X159102Y419541D01*
X161139Y418697D01*
X162697Y417139D01*
X162940Y416554D01*
X162950Y416537D01*
X162956Y416517D01*
X163015Y416432D01*
X163069Y416344D01*
X163085Y416332D01*
X163096Y416315D01*
X163179Y416254D01*
X163259Y416188D01*
X163277Y416181D01*
X163293Y416169D01*
X163392Y416137D01*
X163488Y416099D01*
X163508Y416099D01*
X163527Y416092D01*
X163631Y416093D01*
X163734Y416089D01*
X163753Y416095D01*
X163773Y416095D01*
X163934Y416142D01*
X164898Y416541D01*
X167102Y416541D01*
X169139Y415697D01*
X170697Y414139D01*
X171541Y412102D01*
X171541Y411302D01*
X171544Y411282D01*
X171542Y411263D01*
X171564Y411161D01*
X171580Y411059D01*
X171590Y411042D01*
X171594Y411022D01*
X171647Y410933D01*
X171696Y410842D01*
X171710Y410828D01*
X171720Y410811D01*
X171799Y410744D01*
X171874Y410672D01*
X171892Y410664D01*
X171907Y410651D01*
X172003Y410612D01*
X172097Y410569D01*
X172117Y410567D01*
X172135Y410559D01*
X172302Y410541D01*
X174102Y410541D01*
X176139Y409697D01*
X177697Y408139D01*
X178541Y406102D01*
X178541Y403898D01*
X177697Y401861D01*
X176139Y400303D01*
X174102Y399459D01*
X171898Y399459D01*
X169861Y400303D01*
X168303Y401861D01*
X167459Y403898D01*
X167459Y404698D01*
X167456Y404718D01*
X167458Y404737D01*
X167436Y404839D01*
X167420Y404941D01*
X167410Y404958D01*
X167406Y404978D01*
X167353Y405067D01*
X167304Y405158D01*
X167290Y405172D01*
X167280Y405189D01*
X167201Y405256D01*
X167126Y405328D01*
X167108Y405336D01*
X167093Y405349D01*
X166997Y405388D01*
X166903Y405431D01*
X166883Y405433D01*
X166865Y405441D01*
X166698Y405459D01*
X164898Y405459D01*
X162861Y406303D01*
X161303Y407861D01*
X161060Y408446D01*
X161050Y408463D01*
X161044Y408483D01*
X160985Y408568D01*
X160931Y408656D01*
X160915Y408668D01*
X160904Y408685D01*
X160821Y408746D01*
X160741Y408812D01*
X160723Y408819D01*
X160707Y408831D01*
X160608Y408863D01*
X160512Y408901D01*
X160492Y408901D01*
X160473Y408908D01*
X160369Y408907D01*
X160266Y408911D01*
X160247Y408905D01*
X160227Y408905D01*
X160066Y408858D01*
X159102Y408459D01*
X156898Y408459D01*
X154861Y409303D01*
X153303Y410861D01*
X152459Y412898D01*
X152459Y415136D01*
X152465Y415151D01*
X152467Y415203D01*
X152479Y415253D01*
X152472Y415325D01*
X152475Y415396D01*
X152461Y415446D01*
X152456Y415498D01*
X152427Y415564D01*
X152407Y415633D01*
X152377Y415675D01*
X152356Y415723D01*
X152307Y415776D01*
X152266Y415835D01*
X152225Y415866D01*
X152189Y415904D01*
X152127Y415939D01*
X152069Y415981D01*
X152020Y415998D01*
X151974Y416023D01*
X151903Y416035D01*
X151835Y416058D01*
X151783Y416057D01*
X151732Y416066D01*
X151661Y416056D01*
X151589Y416055D01*
X151520Y416035D01*
X151489Y416031D01*
X151468Y416020D01*
X151428Y416009D01*
X150102Y415459D01*
X147898Y415459D01*
X147279Y415716D01*
X147209Y415732D01*
X147142Y415758D01*
X147090Y415760D01*
X147040Y415772D01*
X146968Y415765D01*
X146897Y415768D01*
X146847Y415754D01*
X146795Y415749D01*
X146729Y415720D01*
X146660Y415700D01*
X146618Y415670D01*
X146570Y415649D01*
X146517Y415600D01*
X146458Y415559D01*
X146427Y415518D01*
X146389Y415482D01*
X146354Y415419D01*
X146311Y415362D01*
X146295Y415312D01*
X146270Y415267D01*
X146257Y415196D01*
X146235Y415128D01*
X146236Y415076D01*
X146227Y415025D01*
X146237Y414954D01*
X146238Y414882D01*
X146258Y414813D01*
X146262Y414781D01*
X146273Y414761D01*
X146284Y414721D01*
X146541Y414102D01*
X146541Y411898D01*
X145697Y409861D01*
X144139Y408303D01*
X142102Y407459D01*
X140302Y407459D01*
X140282Y407456D01*
X140263Y407458D01*
X140161Y407436D01*
X140059Y407420D01*
X140042Y407410D01*
X140022Y407406D01*
X139933Y407353D01*
X139842Y407304D01*
X139828Y407290D01*
X139811Y407280D01*
X139744Y407201D01*
X139672Y407126D01*
X139664Y407108D01*
X139651Y407093D01*
X139612Y406996D01*
X139569Y406903D01*
X139567Y406883D01*
X139559Y406865D01*
X139541Y406698D01*
X139541Y404898D01*
X138697Y402861D01*
X137139Y401303D01*
X135102Y400459D01*
X132898Y400459D01*
X130861Y401303D01*
X130538Y401626D01*
X130522Y401638D01*
X130510Y401653D01*
X130422Y401709D01*
X130339Y401769D01*
X130320Y401775D01*
X130303Y401786D01*
X130202Y401811D01*
X130104Y401842D01*
X130084Y401841D01*
X130064Y401846D01*
X129961Y401838D01*
X129858Y401835D01*
X129839Y401829D01*
X129819Y401827D01*
X129724Y401787D01*
X129627Y401751D01*
X129611Y401739D01*
X129593Y401731D01*
X129462Y401626D01*
X129139Y401303D01*
X127102Y400459D01*
X124898Y400459D01*
X122861Y401303D01*
X122538Y401626D01*
X122522Y401638D01*
X122510Y401653D01*
X122422Y401709D01*
X122339Y401769D01*
X122320Y401775D01*
X122303Y401786D01*
X122202Y401811D01*
X122103Y401842D01*
X122084Y401841D01*
X122064Y401846D01*
X121961Y401838D01*
X121858Y401835D01*
X121839Y401829D01*
X121819Y401827D01*
X121724Y401787D01*
X121627Y401751D01*
X121611Y401739D01*
X121593Y401731D01*
X121462Y401626D01*
X120139Y400303D01*
X118102Y399459D01*
X115898Y399459D01*
X113861Y400303D01*
X113618Y400546D01*
X113602Y400558D01*
X113590Y400573D01*
X113502Y400629D01*
X113419Y400689D01*
X113400Y400695D01*
X113383Y400706D01*
X113282Y400731D01*
X113183Y400762D01*
X113164Y400761D01*
X113144Y400766D01*
X113041Y400758D01*
X112938Y400755D01*
X112919Y400749D01*
X112899Y400747D01*
X112804Y400707D01*
X112707Y400671D01*
X112691Y400658D01*
X112673Y400651D01*
X112542Y400546D01*
X111639Y399643D01*
X109602Y398799D01*
X108664Y398799D01*
X108574Y398784D01*
X108483Y398777D01*
X108453Y398765D01*
X108421Y398759D01*
X108340Y398717D01*
X108256Y398681D01*
X108224Y398655D01*
X108204Y398644D01*
X108181Y398621D01*
X108126Y398576D01*
X79739Y370189D01*
X17340Y370189D01*
X17250Y370175D01*
X17159Y370167D01*
X17130Y370155D01*
X17098Y370150D01*
X17017Y370107D01*
X16933Y370071D01*
X16901Y370045D01*
X16880Y370034D01*
X16861Y370014D01*
X16859Y370013D01*
X16854Y370007D01*
X16802Y369966D01*
X16139Y369303D01*
X14102Y368459D01*
X11898Y368459D01*
G37*
%LPD*%
%LPC*%
G36*
X250898Y258459D02*
X250898Y258459D01*
X248861Y259303D01*
X247303Y260861D01*
X246459Y262898D01*
X246459Y265102D01*
X247303Y267139D01*
X248626Y268462D01*
X248638Y268478D01*
X248653Y268490D01*
X248709Y268578D01*
X248769Y268661D01*
X248775Y268680D01*
X248786Y268697D01*
X248811Y268798D01*
X248842Y268897D01*
X248841Y268916D01*
X248846Y268936D01*
X248838Y269039D01*
X248835Y269142D01*
X248829Y269161D01*
X248827Y269181D01*
X248787Y269276D01*
X248751Y269373D01*
X248738Y269389D01*
X248731Y269407D01*
X248626Y269538D01*
X247303Y270861D01*
X246459Y272898D01*
X246459Y275102D01*
X247303Y277139D01*
X248861Y278697D01*
X249102Y278797D01*
X249162Y278834D01*
X249228Y278864D01*
X249266Y278899D01*
X249311Y278926D01*
X249356Y278982D01*
X249409Y279030D01*
X249434Y279076D01*
X249467Y279116D01*
X249493Y279183D01*
X249528Y279246D01*
X249537Y279297D01*
X249556Y279345D01*
X249559Y279417D01*
X249571Y279488D01*
X249564Y279539D01*
X249566Y279591D01*
X249546Y279660D01*
X249536Y279731D01*
X249512Y279777D01*
X249498Y279827D01*
X249457Y279886D01*
X249424Y279950D01*
X249387Y279987D01*
X249357Y280029D01*
X249300Y280072D01*
X249249Y280122D01*
X249186Y280157D01*
X249160Y280176D01*
X249138Y280183D01*
X249102Y280203D01*
X248861Y280303D01*
X247303Y281861D01*
X246459Y283898D01*
X246459Y286102D01*
X247303Y288139D01*
X248861Y289697D01*
X249102Y289797D01*
X249163Y289835D01*
X249228Y289864D01*
X249266Y289899D01*
X249311Y289926D01*
X249356Y289982D01*
X249409Y290030D01*
X249434Y290076D01*
X249467Y290116D01*
X249493Y290183D01*
X249528Y290246D01*
X249537Y290297D01*
X249556Y290345D01*
X249559Y290417D01*
X249571Y290488D01*
X249564Y290539D01*
X249566Y290591D01*
X249546Y290660D01*
X249536Y290731D01*
X249512Y290777D01*
X249498Y290827D01*
X249457Y290886D01*
X249424Y290950D01*
X249387Y290987D01*
X249357Y291029D01*
X249300Y291072D01*
X249249Y291122D01*
X249186Y291157D01*
X249160Y291176D01*
X249138Y291184D01*
X249102Y291203D01*
X248861Y291303D01*
X247303Y292861D01*
X246459Y294898D01*
X246459Y297102D01*
X247303Y299139D01*
X248861Y300697D01*
X249102Y300797D01*
X249162Y300834D01*
X249228Y300864D01*
X249266Y300899D01*
X249311Y300926D01*
X249356Y300982D01*
X249409Y301030D01*
X249434Y301076D01*
X249467Y301116D01*
X249493Y301183D01*
X249528Y301246D01*
X249537Y301297D01*
X249556Y301345D01*
X249559Y301417D01*
X249571Y301488D01*
X249564Y301539D01*
X249566Y301591D01*
X249546Y301660D01*
X249536Y301731D01*
X249512Y301777D01*
X249498Y301827D01*
X249457Y301886D01*
X249424Y301950D01*
X249387Y301987D01*
X249357Y302029D01*
X249300Y302072D01*
X249249Y302122D01*
X249186Y302157D01*
X249160Y302176D01*
X249138Y302183D01*
X249102Y302203D01*
X248861Y302303D01*
X247303Y303861D01*
X246459Y305898D01*
X246459Y308102D01*
X247303Y310139D01*
X248861Y311697D01*
X249102Y311797D01*
X249163Y311835D01*
X249228Y311864D01*
X249266Y311899D01*
X249311Y311926D01*
X249356Y311982D01*
X249409Y312030D01*
X249434Y312076D01*
X249467Y312116D01*
X249493Y312183D01*
X249528Y312246D01*
X249537Y312297D01*
X249556Y312345D01*
X249559Y312417D01*
X249571Y312488D01*
X249564Y312539D01*
X249566Y312591D01*
X249546Y312660D01*
X249536Y312731D01*
X249512Y312777D01*
X249498Y312827D01*
X249457Y312886D01*
X249424Y312950D01*
X249387Y312987D01*
X249357Y313029D01*
X249300Y313072D01*
X249249Y313122D01*
X249186Y313157D01*
X249160Y313176D01*
X249138Y313184D01*
X249102Y313203D01*
X248861Y313303D01*
X247303Y314861D01*
X246459Y316898D01*
X246459Y319102D01*
X247303Y321139D01*
X248861Y322697D01*
X249102Y322797D01*
X249162Y322834D01*
X249228Y322864D01*
X249266Y322899D01*
X249311Y322926D01*
X249356Y322982D01*
X249409Y323030D01*
X249434Y323076D01*
X249467Y323116D01*
X249493Y323183D01*
X249528Y323246D01*
X249537Y323297D01*
X249556Y323345D01*
X249559Y323417D01*
X249571Y323488D01*
X249564Y323539D01*
X249566Y323591D01*
X249546Y323660D01*
X249536Y323731D01*
X249512Y323777D01*
X249498Y323827D01*
X249457Y323886D01*
X249424Y323950D01*
X249387Y323987D01*
X249357Y324029D01*
X249300Y324072D01*
X249249Y324122D01*
X249186Y324157D01*
X249160Y324176D01*
X249138Y324183D01*
X249102Y324203D01*
X248861Y324303D01*
X247303Y325861D01*
X246459Y327898D01*
X246459Y330102D01*
X247303Y332139D01*
X248861Y333697D01*
X250898Y334541D01*
X253102Y334541D01*
X255139Y333697D01*
X256697Y332139D01*
X257293Y330700D01*
X257304Y330683D01*
X257309Y330664D01*
X257368Y330579D01*
X257423Y330491D01*
X257438Y330478D01*
X257449Y330462D01*
X257532Y330400D01*
X257612Y330334D01*
X257631Y330327D01*
X257647Y330315D01*
X257745Y330283D01*
X257842Y330246D01*
X257862Y330245D01*
X257881Y330239D01*
X257984Y330240D01*
X258088Y330236D01*
X258107Y330241D01*
X258127Y330241D01*
X258288Y330288D01*
X258898Y330541D01*
X261102Y330541D01*
X263139Y329697D01*
X264697Y328139D01*
X265541Y326102D01*
X265541Y323898D01*
X264697Y321861D01*
X263374Y320538D01*
X263362Y320522D01*
X263347Y320510D01*
X263291Y320422D01*
X263231Y320339D01*
X263225Y320320D01*
X263214Y320303D01*
X263189Y320202D01*
X263158Y320103D01*
X263159Y320084D01*
X263154Y320064D01*
X263162Y319961D01*
X263165Y319858D01*
X263171Y319839D01*
X263173Y319819D01*
X263213Y319724D01*
X263249Y319627D01*
X263261Y319611D01*
X263269Y319593D01*
X263374Y319462D01*
X264697Y318139D01*
X265541Y316102D01*
X265541Y313898D01*
X264697Y311861D01*
X263374Y310538D01*
X263362Y310522D01*
X263347Y310510D01*
X263316Y310461D01*
X263312Y310457D01*
X263308Y310450D01*
X263291Y310422D01*
X263231Y310339D01*
X263225Y310320D01*
X263214Y310303D01*
X263189Y310202D01*
X263158Y310103D01*
X263159Y310084D01*
X263154Y310064D01*
X263162Y309961D01*
X263165Y309858D01*
X263171Y309839D01*
X263173Y309819D01*
X263213Y309724D01*
X263249Y309627D01*
X263261Y309611D01*
X263269Y309593D01*
X263374Y309462D01*
X264697Y308139D01*
X265541Y306102D01*
X265541Y303898D01*
X264697Y301861D01*
X263139Y300303D01*
X261102Y299459D01*
X258898Y299459D01*
X257779Y299923D01*
X257709Y299939D01*
X257642Y299965D01*
X257590Y299967D01*
X257540Y299979D01*
X257468Y299972D01*
X257397Y299975D01*
X257347Y299961D01*
X257295Y299956D01*
X257229Y299927D01*
X257160Y299907D01*
X257118Y299877D01*
X257070Y299856D01*
X257017Y299807D01*
X256958Y299766D01*
X256927Y299725D01*
X256889Y299689D01*
X256854Y299627D01*
X256811Y299569D01*
X256795Y299520D01*
X256770Y299474D01*
X256757Y299403D01*
X256735Y299335D01*
X256736Y299283D01*
X256727Y299232D01*
X256737Y299161D01*
X256738Y299089D01*
X256758Y299020D01*
X256762Y298988D01*
X256773Y298968D01*
X256784Y298928D01*
X257541Y297102D01*
X257541Y296118D01*
X257548Y296073D01*
X257546Y296027D01*
X257568Y295952D01*
X257580Y295875D01*
X257602Y295835D01*
X257615Y295790D01*
X257659Y295726D01*
X257696Y295658D01*
X257729Y295626D01*
X257755Y295588D01*
X257818Y295542D01*
X257874Y295488D01*
X257916Y295469D01*
X257952Y295442D01*
X258026Y295418D01*
X258097Y295385D01*
X258143Y295380D01*
X258186Y295365D01*
X258264Y295366D01*
X258341Y295358D01*
X258386Y295367D01*
X258432Y295368D01*
X258563Y295406D01*
X258582Y295410D01*
X258586Y295412D01*
X258593Y295415D01*
X258898Y295541D01*
X261102Y295541D01*
X263139Y294697D01*
X264697Y293139D01*
X265541Y291102D01*
X265541Y288898D01*
X264697Y286861D01*
X263374Y285538D01*
X263362Y285522D01*
X263347Y285510D01*
X263291Y285422D01*
X263231Y285339D01*
X263225Y285320D01*
X263214Y285303D01*
X263189Y285202D01*
X263158Y285103D01*
X263159Y285084D01*
X263154Y285064D01*
X263162Y284961D01*
X263165Y284858D01*
X263171Y284839D01*
X263173Y284819D01*
X263213Y284724D01*
X263249Y284627D01*
X263261Y284611D01*
X263269Y284593D01*
X263374Y284462D01*
X264697Y283139D01*
X265541Y281102D01*
X265541Y278898D01*
X264697Y276861D01*
X263374Y275538D01*
X263362Y275522D01*
X263347Y275510D01*
X263318Y275464D01*
X263294Y275439D01*
X263278Y275405D01*
X263231Y275339D01*
X263225Y275320D01*
X263214Y275303D01*
X263194Y275224D01*
X263191Y275216D01*
X263189Y275205D01*
X263189Y275202D01*
X263158Y275103D01*
X263159Y275084D01*
X263154Y275064D01*
X263162Y274961D01*
X263165Y274858D01*
X263171Y274839D01*
X263173Y274819D01*
X263213Y274724D01*
X263249Y274627D01*
X263261Y274611D01*
X263269Y274593D01*
X263374Y274462D01*
X264697Y273139D01*
X265541Y271102D01*
X265541Y268898D01*
X264697Y266861D01*
X263139Y265303D01*
X261102Y264459D01*
X258898Y264459D01*
X258593Y264585D01*
X258549Y264596D01*
X258507Y264615D01*
X258430Y264624D01*
X258354Y264642D01*
X258308Y264637D01*
X258263Y264642D01*
X258186Y264626D01*
X258109Y264619D01*
X258067Y264600D01*
X258022Y264590D01*
X257955Y264550D01*
X257884Y264519D01*
X257850Y264487D01*
X257811Y264464D01*
X257760Y264405D01*
X257703Y264352D01*
X257681Y264312D01*
X257651Y264277D01*
X257622Y264205D01*
X257585Y264137D01*
X257576Y264092D01*
X257559Y264049D01*
X257544Y263913D01*
X257541Y263895D01*
X257542Y263890D01*
X257541Y263882D01*
X257541Y262898D01*
X256697Y260861D01*
X255139Y259303D01*
X253102Y258459D01*
X250898Y258459D01*
G37*
%LPD*%
%LPC*%
G36*
X8898Y179459D02*
X8898Y179459D01*
X6861Y180303D01*
X5303Y181861D01*
X4459Y183898D01*
X4459Y186102D01*
X5303Y188139D01*
X6626Y189462D01*
X6638Y189478D01*
X6653Y189490D01*
X6709Y189578D01*
X6769Y189661D01*
X6775Y189680D01*
X6786Y189697D01*
X6811Y189798D01*
X6842Y189897D01*
X6841Y189916D01*
X6846Y189936D01*
X6838Y190039D01*
X6835Y190142D01*
X6829Y190161D01*
X6827Y190181D01*
X6787Y190276D01*
X6751Y190373D01*
X6738Y190389D01*
X6731Y190407D01*
X6626Y190538D01*
X5303Y191861D01*
X4459Y193898D01*
X4459Y196102D01*
X5303Y198139D01*
X6626Y199462D01*
X6638Y199478D01*
X6653Y199490D01*
X6709Y199578D01*
X6769Y199661D01*
X6775Y199680D01*
X6786Y199697D01*
X6811Y199798D01*
X6842Y199897D01*
X6841Y199916D01*
X6846Y199936D01*
X6838Y200039D01*
X6835Y200142D01*
X6829Y200161D01*
X6827Y200181D01*
X6787Y200276D01*
X6751Y200373D01*
X6739Y200389D01*
X6731Y200407D01*
X6626Y200538D01*
X5303Y201861D01*
X4459Y203898D01*
X4459Y206102D01*
X5303Y208139D01*
X6626Y209462D01*
X6638Y209478D01*
X6653Y209490D01*
X6709Y209578D01*
X6769Y209661D01*
X6775Y209680D01*
X6786Y209697D01*
X6811Y209798D01*
X6842Y209897D01*
X6841Y209916D01*
X6846Y209936D01*
X6838Y210039D01*
X6835Y210142D01*
X6829Y210161D01*
X6827Y210181D01*
X6787Y210276D01*
X6751Y210373D01*
X6738Y210389D01*
X6731Y210407D01*
X6626Y210538D01*
X5303Y211861D01*
X4459Y213898D01*
X4459Y216102D01*
X5303Y218139D01*
X6626Y219462D01*
X6638Y219478D01*
X6653Y219490D01*
X6709Y219578D01*
X6769Y219661D01*
X6775Y219680D01*
X6786Y219697D01*
X6811Y219798D01*
X6842Y219897D01*
X6841Y219916D01*
X6846Y219936D01*
X6838Y220039D01*
X6835Y220142D01*
X6829Y220161D01*
X6827Y220181D01*
X6787Y220276D01*
X6751Y220373D01*
X6738Y220389D01*
X6731Y220407D01*
X6626Y220538D01*
X5303Y221861D01*
X4459Y223898D01*
X4459Y226102D01*
X5303Y228139D01*
X6626Y229462D01*
X6638Y229478D01*
X6653Y229490D01*
X6709Y229578D01*
X6769Y229661D01*
X6775Y229680D01*
X6786Y229697D01*
X6811Y229798D01*
X6842Y229897D01*
X6841Y229916D01*
X6846Y229936D01*
X6838Y230039D01*
X6835Y230142D01*
X6829Y230161D01*
X6827Y230181D01*
X6787Y230276D01*
X6751Y230373D01*
X6738Y230389D01*
X6731Y230407D01*
X6626Y230538D01*
X5303Y231861D01*
X4459Y233898D01*
X4459Y236102D01*
X5303Y238139D01*
X6626Y239462D01*
X6638Y239478D01*
X6653Y239490D01*
X6682Y239535D01*
X6711Y239566D01*
X6730Y239606D01*
X6769Y239661D01*
X6775Y239680D01*
X6786Y239697D01*
X6803Y239763D01*
X6815Y239789D01*
X6818Y239819D01*
X6842Y239897D01*
X6841Y239916D01*
X6846Y239936D01*
X6840Y240017D01*
X6842Y240033D01*
X6838Y240051D01*
X6835Y240142D01*
X6829Y240161D01*
X6827Y240181D01*
X6791Y240265D01*
X6789Y240274D01*
X6785Y240282D01*
X6751Y240373D01*
X6738Y240389D01*
X6731Y240407D01*
X6626Y240538D01*
X5303Y241861D01*
X4459Y243898D01*
X4459Y246102D01*
X5303Y248139D01*
X6626Y249462D01*
X6638Y249478D01*
X6653Y249490D01*
X6709Y249578D01*
X6769Y249661D01*
X6775Y249680D01*
X6786Y249697D01*
X6811Y249798D01*
X6842Y249897D01*
X6841Y249916D01*
X6846Y249936D01*
X6838Y250039D01*
X6835Y250142D01*
X6829Y250161D01*
X6827Y250181D01*
X6787Y250276D01*
X6751Y250373D01*
X6738Y250389D01*
X6731Y250407D01*
X6626Y250538D01*
X5303Y251861D01*
X4459Y253898D01*
X4459Y256102D01*
X5303Y258139D01*
X6626Y259462D01*
X6638Y259478D01*
X6653Y259490D01*
X6709Y259578D01*
X6769Y259661D01*
X6775Y259680D01*
X6786Y259697D01*
X6811Y259798D01*
X6842Y259897D01*
X6841Y259916D01*
X6846Y259936D01*
X6838Y260039D01*
X6835Y260142D01*
X6829Y260161D01*
X6827Y260181D01*
X6787Y260276D01*
X6751Y260373D01*
X6738Y260389D01*
X6731Y260407D01*
X6626Y260538D01*
X5303Y261861D01*
X4459Y263898D01*
X4459Y266102D01*
X5303Y268139D01*
X6861Y269697D01*
X8898Y270541D01*
X11102Y270541D01*
X13139Y269697D01*
X14697Y268139D01*
X15541Y266102D01*
X15541Y263898D01*
X14697Y261861D01*
X13374Y260538D01*
X13362Y260522D01*
X13347Y260510D01*
X13291Y260422D01*
X13231Y260339D01*
X13225Y260320D01*
X13214Y260303D01*
X13189Y260202D01*
X13158Y260103D01*
X13159Y260084D01*
X13154Y260064D01*
X13162Y259961D01*
X13165Y259858D01*
X13171Y259839D01*
X13173Y259819D01*
X13213Y259724D01*
X13249Y259627D01*
X13261Y259611D01*
X13269Y259593D01*
X13374Y259462D01*
X14697Y258139D01*
X15541Y256102D01*
X15541Y253898D01*
X14697Y251861D01*
X13374Y250538D01*
X13362Y250522D01*
X13347Y250510D01*
X13291Y250422D01*
X13231Y250339D01*
X13225Y250320D01*
X13214Y250303D01*
X13189Y250202D01*
X13158Y250103D01*
X13159Y250084D01*
X13154Y250064D01*
X13162Y249961D01*
X13165Y249858D01*
X13171Y249839D01*
X13173Y249819D01*
X13213Y249724D01*
X13249Y249627D01*
X13261Y249611D01*
X13269Y249593D01*
X13374Y249462D01*
X14697Y248139D01*
X15541Y246102D01*
X15541Y243898D01*
X14697Y241861D01*
X13374Y240538D01*
X13362Y240522D01*
X13347Y240510D01*
X13293Y240426D01*
X13289Y240422D01*
X13287Y240417D01*
X13231Y240339D01*
X13225Y240320D01*
X13214Y240303D01*
X13190Y240209D01*
X13185Y240199D01*
X13184Y240188D01*
X13158Y240103D01*
X13159Y240084D01*
X13154Y240064D01*
X13161Y239976D01*
X13158Y239954D01*
X13163Y239935D01*
X13165Y239858D01*
X13171Y239839D01*
X13173Y239819D01*
X13203Y239748D01*
X13211Y239714D01*
X13227Y239686D01*
X13249Y239627D01*
X13261Y239611D01*
X13269Y239593D01*
X13324Y239524D01*
X13337Y239503D01*
X13351Y239491D01*
X13374Y239462D01*
X14697Y238139D01*
X15541Y236102D01*
X15541Y233898D01*
X14697Y231861D01*
X13374Y230538D01*
X13362Y230522D01*
X13347Y230510D01*
X13291Y230422D01*
X13231Y230339D01*
X13225Y230320D01*
X13214Y230303D01*
X13189Y230202D01*
X13158Y230103D01*
X13159Y230084D01*
X13154Y230064D01*
X13162Y229961D01*
X13165Y229858D01*
X13171Y229839D01*
X13173Y229819D01*
X13213Y229724D01*
X13249Y229627D01*
X13261Y229611D01*
X13269Y229593D01*
X13374Y229462D01*
X14697Y228139D01*
X15541Y226102D01*
X15541Y223898D01*
X14697Y221861D01*
X13374Y220538D01*
X13362Y220522D01*
X13347Y220510D01*
X13291Y220422D01*
X13231Y220339D01*
X13225Y220320D01*
X13214Y220303D01*
X13189Y220202D01*
X13158Y220103D01*
X13159Y220084D01*
X13154Y220064D01*
X13162Y219961D01*
X13165Y219858D01*
X13171Y219839D01*
X13173Y219819D01*
X13213Y219724D01*
X13249Y219627D01*
X13261Y219611D01*
X13269Y219593D01*
X13374Y219462D01*
X14697Y218139D01*
X15541Y216102D01*
X15541Y213898D01*
X14697Y211861D01*
X13374Y210538D01*
X13362Y210522D01*
X13347Y210510D01*
X13291Y210422D01*
X13231Y210339D01*
X13225Y210320D01*
X13214Y210303D01*
X13189Y210202D01*
X13158Y210103D01*
X13159Y210084D01*
X13154Y210064D01*
X13162Y209961D01*
X13165Y209858D01*
X13171Y209839D01*
X13173Y209819D01*
X13213Y209724D01*
X13249Y209627D01*
X13261Y209611D01*
X13269Y209593D01*
X13374Y209462D01*
X14697Y208139D01*
X15541Y206102D01*
X15541Y203898D01*
X14697Y201861D01*
X13374Y200538D01*
X13362Y200522D01*
X13347Y200510D01*
X13291Y200422D01*
X13231Y200339D01*
X13225Y200320D01*
X13214Y200303D01*
X13189Y200202D01*
X13158Y200103D01*
X13159Y200084D01*
X13154Y200064D01*
X13162Y199961D01*
X13165Y199858D01*
X13171Y199839D01*
X13173Y199819D01*
X13213Y199724D01*
X13249Y199627D01*
X13262Y199611D01*
X13269Y199593D01*
X13374Y199462D01*
X14697Y198139D01*
X15541Y196102D01*
X15541Y193898D01*
X14697Y191861D01*
X13374Y190538D01*
X13362Y190522D01*
X13347Y190510D01*
X13291Y190422D01*
X13231Y190339D01*
X13225Y190320D01*
X13214Y190303D01*
X13189Y190202D01*
X13158Y190103D01*
X13159Y190084D01*
X13154Y190064D01*
X13162Y189961D01*
X13165Y189858D01*
X13171Y189839D01*
X13173Y189819D01*
X13213Y189724D01*
X13249Y189627D01*
X13261Y189611D01*
X13269Y189593D01*
X13374Y189462D01*
X14697Y188139D01*
X15541Y186102D01*
X15541Y183898D01*
X14697Y181861D01*
X13139Y180303D01*
X11102Y179459D01*
X8898Y179459D01*
G37*
%LPD*%
%LPC*%
G36*
X8898Y504459D02*
X8898Y504459D01*
X6861Y505303D01*
X5303Y506861D01*
X4459Y508898D01*
X4459Y511102D01*
X5303Y513139D01*
X6626Y514462D01*
X6638Y514478D01*
X6653Y514490D01*
X6709Y514578D01*
X6769Y514661D01*
X6775Y514680D01*
X6786Y514697D01*
X6811Y514798D01*
X6842Y514897D01*
X6841Y514916D01*
X6846Y514936D01*
X6838Y515039D01*
X6835Y515142D01*
X6829Y515161D01*
X6827Y515181D01*
X6787Y515276D01*
X6751Y515373D01*
X6738Y515389D01*
X6731Y515407D01*
X6626Y515538D01*
X5303Y516861D01*
X4459Y518898D01*
X4459Y521102D01*
X5303Y523139D01*
X6626Y524462D01*
X6638Y524478D01*
X6653Y524490D01*
X6709Y524578D01*
X6769Y524661D01*
X6775Y524680D01*
X6786Y524697D01*
X6811Y524798D01*
X6842Y524897D01*
X6841Y524916D01*
X6846Y524936D01*
X6838Y525039D01*
X6835Y525142D01*
X6829Y525161D01*
X6827Y525181D01*
X6787Y525276D01*
X6751Y525373D01*
X6738Y525389D01*
X6731Y525407D01*
X6626Y525538D01*
X5303Y526861D01*
X4459Y528898D01*
X4459Y531102D01*
X5303Y533139D01*
X6626Y534462D01*
X6638Y534478D01*
X6653Y534490D01*
X6709Y534578D01*
X6769Y534661D01*
X6775Y534680D01*
X6786Y534697D01*
X6811Y534798D01*
X6842Y534897D01*
X6841Y534916D01*
X6846Y534936D01*
X6838Y535039D01*
X6835Y535142D01*
X6829Y535161D01*
X6827Y535181D01*
X6787Y535276D01*
X6751Y535373D01*
X6738Y535389D01*
X6731Y535407D01*
X6626Y535538D01*
X5303Y536861D01*
X4459Y538898D01*
X4459Y541102D01*
X5303Y543139D01*
X6626Y544462D01*
X6638Y544478D01*
X6653Y544490D01*
X6709Y544578D01*
X6769Y544661D01*
X6775Y544680D01*
X6786Y544697D01*
X6811Y544798D01*
X6842Y544897D01*
X6841Y544916D01*
X6846Y544936D01*
X6838Y545039D01*
X6835Y545142D01*
X6829Y545161D01*
X6827Y545181D01*
X6787Y545276D01*
X6751Y545373D01*
X6738Y545389D01*
X6731Y545407D01*
X6626Y545538D01*
X5303Y546861D01*
X4459Y548898D01*
X4459Y551102D01*
X5303Y553139D01*
X6626Y554462D01*
X6638Y554478D01*
X6653Y554490D01*
X6709Y554578D01*
X6769Y554661D01*
X6775Y554680D01*
X6786Y554697D01*
X6811Y554798D01*
X6842Y554897D01*
X6841Y554916D01*
X6846Y554936D01*
X6838Y555039D01*
X6835Y555142D01*
X6829Y555161D01*
X6827Y555181D01*
X6787Y555276D01*
X6751Y555373D01*
X6738Y555389D01*
X6731Y555407D01*
X6626Y555538D01*
X5303Y556861D01*
X4459Y558898D01*
X4459Y561102D01*
X5303Y563139D01*
X6626Y564462D01*
X6638Y564478D01*
X6653Y564490D01*
X6709Y564578D01*
X6769Y564661D01*
X6775Y564680D01*
X6786Y564697D01*
X6811Y564798D01*
X6842Y564897D01*
X6841Y564916D01*
X6846Y564936D01*
X6838Y565039D01*
X6835Y565142D01*
X6829Y565161D01*
X6827Y565181D01*
X6787Y565276D01*
X6751Y565373D01*
X6738Y565389D01*
X6731Y565407D01*
X6626Y565538D01*
X5303Y566861D01*
X4459Y568898D01*
X4459Y571102D01*
X5303Y573139D01*
X6626Y574462D01*
X6638Y574478D01*
X6653Y574490D01*
X6709Y574578D01*
X6769Y574661D01*
X6775Y574680D01*
X6786Y574697D01*
X6811Y574798D01*
X6842Y574897D01*
X6841Y574916D01*
X6846Y574936D01*
X6838Y575039D01*
X6835Y575142D01*
X6829Y575161D01*
X6827Y575181D01*
X6787Y575276D01*
X6751Y575373D01*
X6738Y575389D01*
X6731Y575407D01*
X6626Y575538D01*
X5303Y576861D01*
X4459Y578898D01*
X4459Y581102D01*
X5303Y583139D01*
X6861Y584697D01*
X8898Y585541D01*
X11102Y585541D01*
X13139Y584697D01*
X14697Y583139D01*
X15541Y581102D01*
X15541Y578898D01*
X14697Y576861D01*
X13374Y575538D01*
X13362Y575522D01*
X13347Y575510D01*
X13291Y575422D01*
X13231Y575339D01*
X13225Y575320D01*
X13214Y575303D01*
X13189Y575202D01*
X13158Y575103D01*
X13159Y575084D01*
X13154Y575064D01*
X13162Y574961D01*
X13165Y574858D01*
X13171Y574839D01*
X13173Y574819D01*
X13213Y574724D01*
X13249Y574627D01*
X13261Y574611D01*
X13269Y574593D01*
X13374Y574462D01*
X14697Y573139D01*
X15541Y571102D01*
X15541Y568898D01*
X14697Y566861D01*
X13374Y565538D01*
X13362Y565522D01*
X13347Y565510D01*
X13291Y565422D01*
X13231Y565339D01*
X13225Y565320D01*
X13214Y565303D01*
X13189Y565202D01*
X13158Y565103D01*
X13159Y565084D01*
X13154Y565064D01*
X13162Y564961D01*
X13165Y564858D01*
X13171Y564839D01*
X13173Y564819D01*
X13213Y564724D01*
X13249Y564627D01*
X13261Y564611D01*
X13269Y564593D01*
X13374Y564462D01*
X14697Y563139D01*
X15541Y561102D01*
X15541Y558898D01*
X14697Y556861D01*
X13374Y555538D01*
X13362Y555522D01*
X13347Y555510D01*
X13291Y555422D01*
X13231Y555339D01*
X13225Y555320D01*
X13214Y555303D01*
X13189Y555202D01*
X13158Y555103D01*
X13159Y555084D01*
X13154Y555064D01*
X13162Y554961D01*
X13165Y554858D01*
X13171Y554839D01*
X13173Y554819D01*
X13213Y554724D01*
X13249Y554627D01*
X13261Y554611D01*
X13269Y554593D01*
X13374Y554462D01*
X14697Y553139D01*
X15541Y551102D01*
X15541Y548898D01*
X14697Y546861D01*
X13374Y545538D01*
X13362Y545522D01*
X13347Y545510D01*
X13291Y545422D01*
X13231Y545339D01*
X13225Y545320D01*
X13214Y545303D01*
X13189Y545202D01*
X13158Y545103D01*
X13159Y545084D01*
X13154Y545064D01*
X13162Y544961D01*
X13165Y544858D01*
X13171Y544839D01*
X13173Y544819D01*
X13213Y544724D01*
X13249Y544627D01*
X13261Y544611D01*
X13269Y544593D01*
X13374Y544462D01*
X14697Y543139D01*
X15541Y541102D01*
X15541Y538898D01*
X14697Y536861D01*
X13374Y535538D01*
X13362Y535522D01*
X13347Y535510D01*
X13291Y535422D01*
X13231Y535339D01*
X13225Y535320D01*
X13214Y535303D01*
X13189Y535202D01*
X13158Y535103D01*
X13159Y535084D01*
X13154Y535064D01*
X13162Y534961D01*
X13165Y534858D01*
X13171Y534839D01*
X13173Y534819D01*
X13213Y534724D01*
X13249Y534627D01*
X13261Y534611D01*
X13269Y534593D01*
X13374Y534462D01*
X14697Y533139D01*
X15541Y531102D01*
X15541Y528898D01*
X14697Y526861D01*
X13374Y525538D01*
X13362Y525522D01*
X13347Y525510D01*
X13291Y525422D01*
X13231Y525339D01*
X13225Y525320D01*
X13214Y525303D01*
X13189Y525202D01*
X13158Y525103D01*
X13159Y525084D01*
X13154Y525064D01*
X13162Y524961D01*
X13165Y524858D01*
X13171Y524839D01*
X13173Y524819D01*
X13213Y524724D01*
X13249Y524627D01*
X13261Y524611D01*
X13269Y524593D01*
X13374Y524462D01*
X14697Y523139D01*
X15541Y521102D01*
X15541Y518898D01*
X14697Y516861D01*
X13374Y515538D01*
X13362Y515522D01*
X13347Y515510D01*
X13291Y515422D01*
X13231Y515339D01*
X13225Y515320D01*
X13214Y515303D01*
X13189Y515202D01*
X13158Y515103D01*
X13159Y515084D01*
X13154Y515064D01*
X13162Y514961D01*
X13165Y514858D01*
X13171Y514839D01*
X13173Y514819D01*
X13213Y514724D01*
X13249Y514627D01*
X13261Y514611D01*
X13269Y514593D01*
X13374Y514462D01*
X14697Y513139D01*
X15541Y511102D01*
X15541Y508898D01*
X14697Y506861D01*
X13139Y505303D01*
X11102Y504459D01*
X8898Y504459D01*
G37*
%LPD*%
%LPC*%
G36*
X17008Y644959D02*
X17008Y644959D01*
X11480Y647249D01*
X7249Y651480D01*
X4959Y657008D01*
X4959Y662992D01*
X7249Y668520D01*
X11480Y672751D01*
X17008Y675041D01*
X22992Y675041D01*
X28520Y672751D01*
X32751Y668520D01*
X35041Y662992D01*
X35041Y657008D01*
X32751Y651480D01*
X28520Y647249D01*
X22992Y644959D01*
X17008Y644959D01*
G37*
%LPD*%
%LPC*%
G36*
X247008Y644959D02*
X247008Y644959D01*
X241480Y647249D01*
X237249Y651480D01*
X234959Y657008D01*
X234959Y662992D01*
X237249Y668520D01*
X241480Y672751D01*
X247008Y675041D01*
X252992Y675041D01*
X258520Y672751D01*
X262751Y668520D01*
X265041Y662992D01*
X265041Y657008D01*
X262751Y651480D01*
X258520Y647249D01*
X252992Y644959D01*
X247008Y644959D01*
G37*
%LPD*%
%LPC*%
G36*
X17008Y144959D02*
X17008Y144959D01*
X11480Y147249D01*
X7249Y151480D01*
X4959Y157008D01*
X4959Y162992D01*
X7249Y168520D01*
X11480Y172751D01*
X17008Y175041D01*
X22992Y175041D01*
X28520Y172751D01*
X32751Y168520D01*
X35041Y162992D01*
X35041Y157008D01*
X32751Y151480D01*
X28520Y147249D01*
X22992Y144959D01*
X17008Y144959D01*
G37*
%LPD*%
%LPC*%
G36*
X258898Y729459D02*
X258898Y729459D01*
X257592Y730000D01*
X257497Y730022D01*
X257404Y730051D01*
X257378Y730050D01*
X257353Y730056D01*
X257256Y730047D01*
X257158Y730045D01*
X257134Y730036D01*
X257108Y730033D01*
X257027Y729997D01*
X257023Y730021D01*
X256979Y730108D01*
X256941Y730197D01*
X256921Y730223D01*
X256912Y730240D01*
X256888Y730263D01*
X256836Y730328D01*
X255303Y731861D01*
X254459Y733898D01*
X254459Y736102D01*
X255303Y738139D01*
X256626Y739462D01*
X256638Y739478D01*
X256653Y739490D01*
X256709Y739578D01*
X256769Y739661D01*
X256775Y739680D01*
X256786Y739697D01*
X256811Y739798D01*
X256842Y739897D01*
X256841Y739916D01*
X256846Y739936D01*
X256838Y740039D01*
X256835Y740142D01*
X256829Y740161D01*
X256827Y740181D01*
X256787Y740276D01*
X256751Y740373D01*
X256739Y740389D01*
X256731Y740407D01*
X256626Y740538D01*
X255303Y741861D01*
X254459Y743898D01*
X254459Y746102D01*
X255303Y748139D01*
X256626Y749462D01*
X256638Y749478D01*
X256653Y749490D01*
X256709Y749578D01*
X256769Y749661D01*
X256775Y749680D01*
X256786Y749697D01*
X256811Y749798D01*
X256842Y749897D01*
X256841Y749916D01*
X256846Y749936D01*
X256838Y750039D01*
X256835Y750142D01*
X256829Y750161D01*
X256827Y750181D01*
X256787Y750276D01*
X256751Y750373D01*
X256739Y750389D01*
X256731Y750407D01*
X256626Y750538D01*
X255303Y751861D01*
X254459Y753898D01*
X254459Y756102D01*
X254841Y757024D01*
X254858Y757094D01*
X254883Y757161D01*
X254886Y757213D01*
X254897Y757264D01*
X254891Y757335D01*
X254894Y757407D01*
X254879Y757457D01*
X254874Y757509D01*
X254845Y757574D01*
X254825Y757643D01*
X254795Y757686D01*
X254774Y757733D01*
X254726Y757786D01*
X254685Y757845D01*
X254643Y757876D01*
X254608Y757914D01*
X254545Y757949D01*
X254488Y757992D01*
X254438Y758008D01*
X254392Y758033D01*
X254322Y758046D01*
X254254Y758068D01*
X254202Y758068D01*
X254150Y758077D01*
X254079Y758066D01*
X254008Y758066D01*
X253939Y758046D01*
X253907Y758041D01*
X253886Y758030D01*
X253847Y758019D01*
X252496Y757459D01*
X247904Y757459D01*
X243663Y759216D01*
X240416Y762463D01*
X238659Y766704D01*
X238659Y771296D01*
X240416Y775537D01*
X243663Y778784D01*
X247904Y780541D01*
X252496Y780541D01*
X256737Y778784D01*
X259984Y775537D01*
X261741Y771296D01*
X261741Y766704D01*
X259984Y762463D01*
X259361Y761840D01*
X259319Y761782D01*
X259270Y761730D01*
X259248Y761683D01*
X259218Y761641D01*
X259197Y761572D01*
X259166Y761507D01*
X259161Y761455D01*
X259145Y761405D01*
X259147Y761334D01*
X259139Y761263D01*
X259150Y761212D01*
X259152Y761160D01*
X259176Y761092D01*
X259192Y761022D01*
X259218Y760977D01*
X259236Y760929D01*
X259281Y760873D01*
X259318Y760811D01*
X259357Y760777D01*
X259390Y760737D01*
X259450Y760698D01*
X259505Y760651D01*
X259553Y760632D01*
X259597Y760604D01*
X259666Y760586D01*
X259733Y760559D01*
X259804Y760551D01*
X259835Y760543D01*
X259859Y760545D01*
X259900Y760541D01*
X261102Y760541D01*
X263139Y759697D01*
X264697Y758139D01*
X265541Y756102D01*
X265541Y753898D01*
X264697Y751861D01*
X263374Y750538D01*
X263362Y750522D01*
X263347Y750510D01*
X263315Y750461D01*
X263314Y750459D01*
X263313Y750457D01*
X263291Y750422D01*
X263231Y750339D01*
X263225Y750320D01*
X263214Y750303D01*
X263189Y750202D01*
X263158Y750103D01*
X263159Y750084D01*
X263154Y750064D01*
X263162Y749961D01*
X263165Y749858D01*
X263171Y749839D01*
X263173Y749819D01*
X263213Y749724D01*
X263249Y749627D01*
X263262Y749611D01*
X263269Y749593D01*
X263374Y749462D01*
X264697Y748139D01*
X265541Y746102D01*
X265541Y743898D01*
X264697Y741861D01*
X263374Y740538D01*
X263362Y740522D01*
X263347Y740510D01*
X263291Y740422D01*
X263231Y740339D01*
X263225Y740320D01*
X263214Y740303D01*
X263189Y740202D01*
X263158Y740103D01*
X263159Y740084D01*
X263154Y740064D01*
X263162Y739961D01*
X263165Y739858D01*
X263171Y739839D01*
X263173Y739819D01*
X263213Y739724D01*
X263249Y739627D01*
X263262Y739611D01*
X263269Y739593D01*
X263374Y739462D01*
X264697Y738139D01*
X265541Y736102D01*
X265541Y733898D01*
X264697Y731861D01*
X263139Y730303D01*
X261102Y729459D01*
X258898Y729459D01*
G37*
%LPD*%
%LPC*%
G36*
X258898Y679459D02*
X258898Y679459D01*
X256861Y680303D01*
X255303Y681861D01*
X254459Y683898D01*
X254459Y686102D01*
X255303Y688139D01*
X256626Y689462D01*
X256638Y689478D01*
X256653Y689490D01*
X256709Y689578D01*
X256769Y689661D01*
X256775Y689680D01*
X256786Y689697D01*
X256811Y689798D01*
X256842Y689897D01*
X256841Y689916D01*
X256846Y689936D01*
X256838Y690039D01*
X256835Y690142D01*
X256829Y690161D01*
X256827Y690181D01*
X256787Y690276D01*
X256751Y690373D01*
X256739Y690389D01*
X256731Y690407D01*
X256626Y690538D01*
X255303Y691861D01*
X254459Y693898D01*
X254459Y696102D01*
X255303Y698139D01*
X256626Y699462D01*
X256638Y699478D01*
X256653Y699490D01*
X256709Y699578D01*
X256769Y699661D01*
X256775Y699680D01*
X256786Y699697D01*
X256811Y699798D01*
X256842Y699897D01*
X256841Y699916D01*
X256846Y699936D01*
X256838Y700039D01*
X256835Y700142D01*
X256829Y700161D01*
X256827Y700181D01*
X256787Y700276D01*
X256751Y700373D01*
X256739Y700389D01*
X256731Y700407D01*
X256626Y700538D01*
X255303Y701861D01*
X254459Y703898D01*
X254459Y706102D01*
X254841Y707024D01*
X254858Y707094D01*
X254883Y707161D01*
X254886Y707213D01*
X254897Y707264D01*
X254891Y707335D01*
X254894Y707407D01*
X254879Y707457D01*
X254874Y707509D01*
X254845Y707574D01*
X254825Y707643D01*
X254795Y707686D01*
X254774Y707733D01*
X254726Y707786D01*
X254685Y707845D01*
X254643Y707876D01*
X254608Y707914D01*
X254545Y707949D01*
X254488Y707992D01*
X254438Y708008D01*
X254392Y708033D01*
X254322Y708046D01*
X254254Y708068D01*
X254202Y708068D01*
X254150Y708077D01*
X254079Y708066D01*
X254008Y708066D01*
X253939Y708046D01*
X253907Y708041D01*
X253886Y708030D01*
X253847Y708019D01*
X252496Y707459D01*
X247904Y707459D01*
X243663Y709216D01*
X240416Y712463D01*
X238659Y716704D01*
X238659Y721296D01*
X240416Y725537D01*
X243663Y728784D01*
X247904Y730541D01*
X252496Y730541D01*
X256007Y729086D01*
X256101Y729064D01*
X256194Y729036D01*
X256221Y729036D01*
X256246Y729030D01*
X256343Y729039D01*
X256440Y729042D01*
X256465Y729051D01*
X256491Y729053D01*
X256572Y729089D01*
X256575Y729066D01*
X256620Y728979D01*
X256658Y728890D01*
X256678Y728864D01*
X256687Y728847D01*
X256710Y728823D01*
X256762Y728759D01*
X259984Y725537D01*
X261741Y721296D01*
X261741Y716704D01*
X259984Y712463D01*
X259361Y711840D01*
X259319Y711782D01*
X259270Y711730D01*
X259248Y711683D01*
X259218Y711641D01*
X259197Y711572D01*
X259166Y711507D01*
X259161Y711455D01*
X259145Y711405D01*
X259147Y711334D01*
X259139Y711263D01*
X259150Y711212D01*
X259152Y711160D01*
X259176Y711092D01*
X259192Y711022D01*
X259218Y710977D01*
X259236Y710929D01*
X259281Y710873D01*
X259318Y710811D01*
X259357Y710777D01*
X259390Y710737D01*
X259450Y710698D01*
X259505Y710651D01*
X259553Y710632D01*
X259597Y710604D01*
X259666Y710586D01*
X259733Y710559D01*
X259804Y710551D01*
X259835Y710543D01*
X259859Y710545D01*
X259900Y710541D01*
X261102Y710541D01*
X263139Y709697D01*
X264697Y708139D01*
X265541Y706102D01*
X265541Y703898D01*
X264697Y701861D01*
X263374Y700538D01*
X263362Y700522D01*
X263347Y700510D01*
X263291Y700422D01*
X263231Y700339D01*
X263225Y700320D01*
X263214Y700303D01*
X263189Y700202D01*
X263158Y700103D01*
X263159Y700084D01*
X263154Y700064D01*
X263162Y699961D01*
X263165Y699858D01*
X263171Y699839D01*
X263173Y699819D01*
X263213Y699724D01*
X263249Y699627D01*
X263262Y699611D01*
X263269Y699593D01*
X263374Y699462D01*
X264697Y698139D01*
X265541Y696102D01*
X265541Y693898D01*
X264697Y691861D01*
X263374Y690538D01*
X263362Y690522D01*
X263347Y690510D01*
X263291Y690422D01*
X263231Y690339D01*
X263225Y690320D01*
X263214Y690303D01*
X263189Y690202D01*
X263158Y690103D01*
X263159Y690084D01*
X263154Y690064D01*
X263162Y689961D01*
X263165Y689858D01*
X263171Y689839D01*
X263173Y689819D01*
X263213Y689724D01*
X263249Y689627D01*
X263262Y689611D01*
X263269Y689593D01*
X263374Y689462D01*
X264697Y688139D01*
X265541Y686102D01*
X265541Y683898D01*
X264697Y681861D01*
X263139Y680303D01*
X261102Y679459D01*
X258898Y679459D01*
G37*
%LPD*%
%LPC*%
G36*
X23898Y399459D02*
X23898Y399459D01*
X21861Y400303D01*
X20303Y401861D01*
X19459Y403898D01*
X19459Y406102D01*
X19585Y406407D01*
X19596Y406451D01*
X19615Y406493D01*
X19624Y406570D01*
X19642Y406646D01*
X19637Y406692D01*
X19642Y406737D01*
X19626Y406814D01*
X19619Y406891D01*
X19600Y406933D01*
X19590Y406978D01*
X19550Y407045D01*
X19519Y407116D01*
X19487Y407150D01*
X19464Y407189D01*
X19405Y407240D01*
X19352Y407297D01*
X19312Y407319D01*
X19277Y407349D01*
X19205Y407378D01*
X19137Y407415D01*
X19092Y407424D01*
X19049Y407441D01*
X18913Y407456D01*
X18895Y407459D01*
X18890Y407458D01*
X18882Y407459D01*
X15503Y407459D01*
X11812Y408988D01*
X8988Y411812D01*
X7459Y415503D01*
X7459Y419497D01*
X8988Y423188D01*
X11812Y426012D01*
X15503Y427541D01*
X19497Y427541D01*
X23188Y426012D01*
X26012Y423188D01*
X27541Y419497D01*
X27541Y415503D01*
X26012Y411812D01*
X25945Y411745D01*
X25918Y411708D01*
X25884Y411677D01*
X25847Y411609D01*
X25801Y411545D01*
X25788Y411502D01*
X25766Y411461D01*
X25752Y411385D01*
X25729Y411310D01*
X25730Y411264D01*
X25722Y411219D01*
X25733Y411142D01*
X25735Y411065D01*
X25751Y411021D01*
X25758Y410976D01*
X25793Y410907D01*
X25820Y410833D01*
X25848Y410798D01*
X25869Y410757D01*
X25925Y410702D01*
X25973Y410641D01*
X26012Y410617D01*
X26045Y410584D01*
X26165Y410519D01*
X26180Y410508D01*
X26185Y410507D01*
X26192Y410504D01*
X28139Y409697D01*
X29160Y408676D01*
X29218Y408634D01*
X29270Y408585D01*
X29317Y408563D01*
X29359Y408533D01*
X29428Y408511D01*
X29493Y408481D01*
X29545Y408475D01*
X29595Y408460D01*
X29666Y408462D01*
X29737Y408454D01*
X29788Y408465D01*
X29840Y408467D01*
X29908Y408491D01*
X29978Y408506D01*
X30023Y408533D01*
X30071Y408551D01*
X30127Y408596D01*
X30189Y408633D01*
X30223Y408672D01*
X30263Y408705D01*
X30302Y408765D01*
X30349Y408819D01*
X30368Y408868D01*
X30396Y408912D01*
X30414Y408981D01*
X30441Y409048D01*
X30449Y409119D01*
X30457Y409150D01*
X30455Y409173D01*
X30459Y409214D01*
X30459Y410102D01*
X31303Y412139D01*
X32861Y413697D01*
X34898Y414541D01*
X37102Y414541D01*
X39139Y413697D01*
X40697Y412139D01*
X41541Y410102D01*
X41541Y409712D01*
X41556Y409616D01*
X41566Y409519D01*
X41576Y409495D01*
X41580Y409469D01*
X41626Y409383D01*
X41666Y409294D01*
X41683Y409275D01*
X41696Y409251D01*
X41766Y409185D01*
X41832Y409113D01*
X41855Y409100D01*
X41874Y409082D01*
X41962Y409041D01*
X42048Y408994D01*
X42073Y408989D01*
X42097Y408978D01*
X42194Y408968D01*
X42290Y408950D01*
X42316Y408954D01*
X42341Y408951D01*
X42436Y408972D01*
X42533Y408986D01*
X42556Y408998D01*
X42582Y409004D01*
X42665Y409054D01*
X42752Y409098D01*
X42771Y409116D01*
X42793Y409130D01*
X42856Y409204D01*
X42924Y409273D01*
X42940Y409302D01*
X42953Y409317D01*
X42965Y409348D01*
X43005Y409420D01*
X43303Y410139D01*
X44861Y411697D01*
X46898Y412541D01*
X49102Y412541D01*
X51139Y411697D01*
X52697Y410139D01*
X53541Y408102D01*
X53541Y405898D01*
X52697Y403861D01*
X51139Y402303D01*
X49102Y401459D01*
X46898Y401459D01*
X44861Y402303D01*
X43303Y403861D01*
X42459Y405898D01*
X42459Y406288D01*
X42444Y406384D01*
X42434Y406481D01*
X42424Y406505D01*
X42420Y406531D01*
X42374Y406617D01*
X42334Y406706D01*
X42317Y406725D01*
X42304Y406749D01*
X42234Y406815D01*
X42168Y406887D01*
X42145Y406900D01*
X42126Y406918D01*
X42038Y406959D01*
X41952Y407006D01*
X41927Y407011D01*
X41903Y407022D01*
X41806Y407032D01*
X41710Y407050D01*
X41684Y407046D01*
X41659Y407049D01*
X41564Y407028D01*
X41467Y407014D01*
X41444Y407002D01*
X41418Y406996D01*
X41335Y406946D01*
X41248Y406902D01*
X41229Y406884D01*
X41207Y406870D01*
X41144Y406796D01*
X41076Y406727D01*
X41060Y406698D01*
X41047Y406683D01*
X41035Y406652D01*
X40995Y406580D01*
X40697Y405861D01*
X39139Y404303D01*
X37102Y403459D01*
X34898Y403459D01*
X32861Y404303D01*
X31840Y405324D01*
X31782Y405366D01*
X31730Y405415D01*
X31683Y405437D01*
X31641Y405467D01*
X31572Y405489D01*
X31507Y405519D01*
X31455Y405525D01*
X31405Y405540D01*
X31334Y405538D01*
X31263Y405546D01*
X31212Y405535D01*
X31160Y405533D01*
X31092Y405509D01*
X31022Y405494D01*
X30977Y405467D01*
X30929Y405449D01*
X30873Y405404D01*
X30811Y405367D01*
X30777Y405328D01*
X30737Y405295D01*
X30698Y405235D01*
X30651Y405181D01*
X30632Y405132D01*
X30604Y405088D01*
X30586Y405019D01*
X30559Y404952D01*
X30551Y404881D01*
X30543Y404850D01*
X30545Y404827D01*
X30541Y404786D01*
X30541Y403898D01*
X29697Y401861D01*
X28139Y400303D01*
X26102Y399459D01*
X23898Y399459D01*
G37*
%LPD*%
%LPC*%
G36*
X205173Y444184D02*
X205173Y444184D01*
X203137Y445027D01*
X201578Y446586D01*
X200735Y448623D01*
X200735Y448698D01*
X200731Y448718D01*
X200734Y448737D01*
X200712Y448839D01*
X200695Y448941D01*
X200686Y448958D01*
X200681Y448978D01*
X200628Y449067D01*
X200580Y449158D01*
X200565Y449172D01*
X200555Y449189D01*
X200476Y449256D01*
X200401Y449328D01*
X200383Y449336D01*
X200368Y449349D01*
X200272Y449388D01*
X200178Y449431D01*
X200159Y449433D01*
X200140Y449441D01*
X199973Y449459D01*
X199282Y449459D01*
X199167Y449440D01*
X199051Y449423D01*
X199045Y449421D01*
X199039Y449420D01*
X198937Y449365D01*
X198832Y449312D01*
X198827Y449307D01*
X198822Y449304D01*
X198742Y449220D01*
X198659Y449136D01*
X198656Y449130D01*
X198652Y449126D01*
X198645Y449109D01*
X198579Y448989D01*
X197697Y446861D01*
X196139Y445303D01*
X194102Y444459D01*
X191898Y444459D01*
X189861Y445303D01*
X188303Y446861D01*
X187421Y448989D01*
X187360Y449088D01*
X187300Y449189D01*
X187295Y449193D01*
X187292Y449198D01*
X187202Y449273D01*
X187113Y449349D01*
X187107Y449351D01*
X187102Y449355D01*
X186994Y449397D01*
X186885Y449441D01*
X186877Y449442D01*
X186873Y449443D01*
X186854Y449444D01*
X186718Y449459D01*
X186032Y449459D01*
X185917Y449440D01*
X185801Y449423D01*
X185795Y449421D01*
X185789Y449420D01*
X185687Y449365D01*
X185582Y449312D01*
X185577Y449307D01*
X185572Y449304D01*
X185492Y449220D01*
X185409Y449136D01*
X185406Y449130D01*
X185402Y449126D01*
X185395Y449109D01*
X185329Y448989D01*
X184447Y446861D01*
X182889Y445303D01*
X180852Y444459D01*
X178648Y444459D01*
X176611Y445303D01*
X175053Y446861D01*
X174209Y448898D01*
X174209Y451102D01*
X174335Y451407D01*
X174346Y451451D01*
X174365Y451493D01*
X174374Y451570D01*
X174392Y451646D01*
X174387Y451692D01*
X174392Y451737D01*
X174376Y451814D01*
X174369Y451891D01*
X174350Y451933D01*
X174340Y451978D01*
X174300Y452045D01*
X174269Y452116D01*
X174237Y452150D01*
X174214Y452189D01*
X174155Y452240D01*
X174102Y452297D01*
X174062Y452319D01*
X174027Y452349D01*
X173955Y452378D01*
X173887Y452415D01*
X173842Y452424D01*
X173799Y452441D01*
X173663Y452456D01*
X173645Y452459D01*
X173640Y452458D01*
X173632Y452459D01*
X171898Y452459D01*
X169861Y453303D01*
X168303Y454861D01*
X167459Y456898D01*
X167459Y459102D01*
X168303Y461139D01*
X169861Y462697D01*
X171898Y463541D01*
X174102Y463541D01*
X176139Y462697D01*
X177697Y461139D01*
X178541Y459102D01*
X178541Y456898D01*
X178415Y456593D01*
X178404Y456549D01*
X178385Y456507D01*
X178376Y456430D01*
X178358Y456354D01*
X178363Y456308D01*
X178358Y456263D01*
X178374Y456186D01*
X178381Y456109D01*
X178400Y456067D01*
X178410Y456022D01*
X178450Y455955D01*
X178481Y455884D01*
X178513Y455850D01*
X178536Y455811D01*
X178595Y455760D01*
X178648Y455703D01*
X178688Y455681D01*
X178723Y455651D01*
X178795Y455622D01*
X178863Y455585D01*
X178908Y455576D01*
X178951Y455559D01*
X179087Y455544D01*
X179105Y455541D01*
X179110Y455542D01*
X179118Y455541D01*
X179718Y455541D01*
X179833Y455560D01*
X179949Y455577D01*
X179955Y455579D01*
X179961Y455580D01*
X180063Y455635D01*
X180168Y455688D01*
X180173Y455693D01*
X180178Y455696D01*
X180258Y455780D01*
X180341Y455864D01*
X180344Y455870D01*
X180348Y455874D01*
X180355Y455891D01*
X180421Y456011D01*
X181303Y458139D01*
X182861Y459697D01*
X184898Y460541D01*
X187102Y460541D01*
X189139Y459697D01*
X190697Y458139D01*
X191579Y456011D01*
X191640Y455911D01*
X191700Y455811D01*
X191705Y455807D01*
X191708Y455802D01*
X191798Y455727D01*
X191887Y455651D01*
X191893Y455649D01*
X191898Y455645D01*
X192006Y455603D01*
X192115Y455559D01*
X192123Y455558D01*
X192127Y455557D01*
X192146Y455556D01*
X192282Y455541D01*
X193718Y455541D01*
X193833Y455560D01*
X193949Y455577D01*
X193955Y455579D01*
X193961Y455580D01*
X194063Y455635D01*
X194168Y455688D01*
X194173Y455693D01*
X194178Y455696D01*
X194258Y455780D01*
X194341Y455864D01*
X194344Y455870D01*
X194348Y455874D01*
X194355Y455891D01*
X194421Y456011D01*
X195303Y458139D01*
X196861Y459697D01*
X198898Y460541D01*
X201102Y460541D01*
X203139Y459697D01*
X204697Y458139D01*
X205541Y456102D01*
X205541Y456027D01*
X205544Y456007D01*
X205542Y455987D01*
X205564Y455886D01*
X205580Y455784D01*
X205590Y455766D01*
X205594Y455747D01*
X205647Y455658D01*
X205696Y455566D01*
X205710Y455553D01*
X205720Y455536D01*
X205799Y455468D01*
X205874Y455397D01*
X205892Y455389D01*
X205907Y455376D01*
X206003Y455337D01*
X206097Y455293D01*
X206117Y455291D01*
X206135Y455284D01*
X206302Y455265D01*
X207377Y455265D01*
X209414Y454422D01*
X210973Y452863D01*
X211816Y450827D01*
X211816Y448623D01*
X210973Y446586D01*
X209414Y445027D01*
X207377Y444184D01*
X205173Y444184D01*
G37*
%LPD*%
%LPC*%
G36*
X59304Y757459D02*
X59304Y757459D01*
X55063Y759216D01*
X51816Y762463D01*
X50059Y766704D01*
X50059Y771296D01*
X51816Y775537D01*
X55063Y778784D01*
X59304Y780541D01*
X63896Y780541D01*
X68137Y778784D01*
X71384Y775537D01*
X73141Y771296D01*
X73141Y766704D01*
X71384Y762463D01*
X68137Y759216D01*
X63896Y757459D01*
X59304Y757459D01*
G37*
%LPD*%
%LPC*%
G36*
X34304Y757459D02*
X34304Y757459D01*
X30063Y759216D01*
X26816Y762463D01*
X25059Y766704D01*
X25059Y771296D01*
X26816Y775537D01*
X30063Y778784D01*
X34304Y780541D01*
X38896Y780541D01*
X43137Y778784D01*
X46384Y775537D01*
X48141Y771296D01*
X48141Y766704D01*
X46384Y762463D01*
X43137Y759216D01*
X38896Y757459D01*
X34304Y757459D01*
G37*
%LPD*%
%LPC*%
G36*
X222904Y757459D02*
X222904Y757459D01*
X218663Y759216D01*
X215416Y762463D01*
X213659Y766704D01*
X213659Y771296D01*
X215416Y775537D01*
X218663Y778784D01*
X222904Y780541D01*
X227496Y780541D01*
X231737Y778784D01*
X234984Y775537D01*
X236741Y771296D01*
X236741Y766704D01*
X234984Y762463D01*
X231737Y759216D01*
X227496Y757459D01*
X222904Y757459D01*
G37*
%LPD*%
%LPC*%
G36*
X197904Y757459D02*
X197904Y757459D01*
X193663Y759216D01*
X190416Y762463D01*
X188659Y766704D01*
X188659Y771296D01*
X190416Y775537D01*
X193663Y778784D01*
X197904Y780541D01*
X202496Y780541D01*
X206737Y778784D01*
X209984Y775537D01*
X211741Y771296D01*
X211741Y766704D01*
X209984Y762463D01*
X206737Y759216D01*
X202496Y757459D01*
X197904Y757459D01*
G37*
%LPD*%
%LPC*%
G36*
X172904Y757459D02*
X172904Y757459D01*
X168663Y759216D01*
X165416Y762463D01*
X163659Y766704D01*
X163659Y771296D01*
X165416Y775537D01*
X168663Y778784D01*
X172904Y780541D01*
X177496Y780541D01*
X181737Y778784D01*
X184984Y775537D01*
X186741Y771296D01*
X186741Y766704D01*
X184984Y762463D01*
X181737Y759216D01*
X177496Y757459D01*
X172904Y757459D01*
G37*
%LPD*%
%LPC*%
G36*
X109304Y757459D02*
X109304Y757459D01*
X105063Y759216D01*
X101816Y762463D01*
X100059Y766704D01*
X100059Y771296D01*
X101816Y775537D01*
X105063Y778784D01*
X109304Y780541D01*
X113896Y780541D01*
X118137Y778784D01*
X121384Y775537D01*
X123141Y771296D01*
X123141Y766704D01*
X121384Y762463D01*
X118137Y759216D01*
X113896Y757459D01*
X109304Y757459D01*
G37*
%LPD*%
%LPC*%
G36*
X84304Y757459D02*
X84304Y757459D01*
X80063Y759216D01*
X76816Y762463D01*
X75059Y766704D01*
X75059Y771296D01*
X76816Y775537D01*
X80063Y778784D01*
X84304Y780541D01*
X88896Y780541D01*
X93137Y778784D01*
X96384Y775537D01*
X98141Y771296D01*
X98141Y766704D01*
X96384Y762463D01*
X93137Y759216D01*
X88896Y757459D01*
X84304Y757459D01*
G37*
%LPD*%
%LPC*%
G36*
X147904Y757459D02*
X147904Y757459D01*
X143663Y759216D01*
X140416Y762463D01*
X138659Y766704D01*
X138659Y771296D01*
X140416Y775537D01*
X143663Y778784D01*
X147904Y780541D01*
X152496Y780541D01*
X156737Y778784D01*
X159984Y775537D01*
X161741Y771296D01*
X161741Y766704D01*
X159984Y762463D01*
X156737Y759216D01*
X152496Y757459D01*
X147904Y757459D01*
G37*
%LPD*%
%LPC*%
G36*
X109304Y707459D02*
X109304Y707459D01*
X105063Y709216D01*
X101816Y712463D01*
X100059Y716704D01*
X100059Y721296D01*
X101816Y725537D01*
X105063Y728784D01*
X109304Y730541D01*
X113896Y730541D01*
X118137Y728784D01*
X121384Y725537D01*
X123141Y721296D01*
X123141Y716704D01*
X121384Y712463D01*
X118137Y709216D01*
X113896Y707459D01*
X109304Y707459D01*
G37*
%LPD*%
%LPC*%
G36*
X84304Y707459D02*
X84304Y707459D01*
X80063Y709216D01*
X76816Y712463D01*
X75059Y716704D01*
X75059Y721296D01*
X76816Y725537D01*
X80063Y728784D01*
X84304Y730541D01*
X88896Y730541D01*
X93137Y728784D01*
X96384Y725537D01*
X98141Y721296D01*
X98141Y716704D01*
X96384Y712463D01*
X93137Y709216D01*
X88896Y707459D01*
X84304Y707459D01*
G37*
%LPD*%
%LPC*%
G36*
X147904Y707459D02*
X147904Y707459D01*
X143663Y709216D01*
X140416Y712463D01*
X138659Y716704D01*
X138659Y721296D01*
X140416Y725537D01*
X143663Y728784D01*
X147904Y730541D01*
X152496Y730541D01*
X156737Y728784D01*
X159984Y725537D01*
X161741Y721296D01*
X161741Y716704D01*
X159984Y712463D01*
X156737Y709216D01*
X152496Y707459D01*
X147904Y707459D01*
G37*
%LPD*%
%LPC*%
G36*
X34304Y707459D02*
X34304Y707459D01*
X30063Y709216D01*
X26816Y712463D01*
X25059Y716704D01*
X25059Y721296D01*
X26816Y725537D01*
X30063Y728784D01*
X34304Y730541D01*
X38896Y730541D01*
X43137Y728784D01*
X46384Y725537D01*
X48141Y721296D01*
X48141Y716704D01*
X46384Y712463D01*
X43137Y709216D01*
X38896Y707459D01*
X34304Y707459D01*
G37*
%LPD*%
%LPC*%
G36*
X59304Y707459D02*
X59304Y707459D01*
X55063Y709216D01*
X51816Y712463D01*
X50059Y716704D01*
X50059Y721296D01*
X51816Y725537D01*
X55063Y728784D01*
X59304Y730541D01*
X63896Y730541D01*
X68137Y728784D01*
X71384Y725537D01*
X73141Y721296D01*
X73141Y716704D01*
X71384Y712463D01*
X68137Y709216D01*
X63896Y707459D01*
X59304Y707459D01*
G37*
%LPD*%
%LPC*%
G36*
X222904Y707459D02*
X222904Y707459D01*
X218663Y709216D01*
X215416Y712463D01*
X213659Y716704D01*
X213659Y721296D01*
X215416Y725537D01*
X218663Y728784D01*
X222904Y730541D01*
X227496Y730541D01*
X231737Y728784D01*
X234984Y725537D01*
X236741Y721296D01*
X236741Y716704D01*
X234984Y712463D01*
X231737Y709216D01*
X227496Y707459D01*
X222904Y707459D01*
G37*
%LPD*%
%LPC*%
G36*
X197904Y707459D02*
X197904Y707459D01*
X193663Y709216D01*
X190416Y712463D01*
X188659Y716704D01*
X188659Y721296D01*
X190416Y725537D01*
X193663Y728784D01*
X197904Y730541D01*
X202496Y730541D01*
X206737Y728784D01*
X209984Y725537D01*
X211741Y721296D01*
X211741Y716704D01*
X209984Y712463D01*
X206737Y709216D01*
X202496Y707459D01*
X197904Y707459D01*
G37*
%LPD*%
%LPC*%
G36*
X172904Y707459D02*
X172904Y707459D01*
X168663Y709216D01*
X165416Y712463D01*
X163659Y716704D01*
X163659Y721296D01*
X165416Y725537D01*
X168663Y728784D01*
X172904Y730541D01*
X177496Y730541D01*
X181737Y728784D01*
X184984Y725537D01*
X186741Y721296D01*
X186741Y716704D01*
X184984Y712463D01*
X181737Y709216D01*
X177496Y707459D01*
X172904Y707459D01*
G37*
%LPD*%
%LPC*%
G36*
X258898Y574459D02*
X258898Y574459D01*
X256861Y575303D01*
X255303Y576861D01*
X254459Y578898D01*
X254459Y581102D01*
X255303Y583139D01*
X256626Y584462D01*
X256638Y584478D01*
X256653Y584490D01*
X256709Y584578D01*
X256769Y584661D01*
X256775Y584680D01*
X256786Y584697D01*
X256811Y584798D01*
X256842Y584897D01*
X256841Y584916D01*
X256846Y584936D01*
X256838Y585039D01*
X256835Y585142D01*
X256829Y585161D01*
X256827Y585181D01*
X256787Y585276D01*
X256751Y585373D01*
X256739Y585389D01*
X256731Y585407D01*
X256626Y585538D01*
X255303Y586861D01*
X254459Y588898D01*
X254459Y591102D01*
X255303Y593139D01*
X256626Y594462D01*
X256638Y594478D01*
X256653Y594490D01*
X256709Y594578D01*
X256769Y594661D01*
X256775Y594680D01*
X256786Y594697D01*
X256811Y594798D01*
X256842Y594897D01*
X256841Y594916D01*
X256846Y594936D01*
X256838Y595039D01*
X256835Y595142D01*
X256829Y595161D01*
X256827Y595181D01*
X256787Y595276D01*
X256751Y595373D01*
X256739Y595389D01*
X256731Y595407D01*
X256626Y595538D01*
X255303Y596861D01*
X254459Y598898D01*
X254459Y601102D01*
X255303Y603139D01*
X256626Y604462D01*
X256638Y604478D01*
X256653Y604490D01*
X256709Y604578D01*
X256769Y604661D01*
X256775Y604680D01*
X256786Y604697D01*
X256811Y604798D01*
X256842Y604897D01*
X256841Y604916D01*
X256846Y604936D01*
X256838Y605039D01*
X256835Y605142D01*
X256829Y605161D01*
X256827Y605181D01*
X256787Y605276D01*
X256751Y605373D01*
X256739Y605389D01*
X256731Y605407D01*
X256626Y605538D01*
X255303Y606861D01*
X254459Y608898D01*
X254459Y611102D01*
X255303Y613139D01*
X256861Y614697D01*
X258898Y615541D01*
X261102Y615541D01*
X263139Y614697D01*
X264697Y613139D01*
X265541Y611102D01*
X265541Y608898D01*
X264697Y606861D01*
X263374Y605538D01*
X263362Y605522D01*
X263347Y605510D01*
X263291Y605422D01*
X263231Y605339D01*
X263225Y605320D01*
X263214Y605303D01*
X263189Y605202D01*
X263158Y605103D01*
X263159Y605084D01*
X263154Y605064D01*
X263162Y604961D01*
X263165Y604858D01*
X263171Y604839D01*
X263173Y604819D01*
X263213Y604724D01*
X263249Y604627D01*
X263262Y604611D01*
X263269Y604593D01*
X263374Y604462D01*
X264697Y603139D01*
X265541Y601102D01*
X265541Y598898D01*
X264697Y596861D01*
X263374Y595538D01*
X263362Y595522D01*
X263347Y595510D01*
X263291Y595422D01*
X263231Y595339D01*
X263225Y595320D01*
X263214Y595303D01*
X263189Y595202D01*
X263158Y595103D01*
X263159Y595084D01*
X263154Y595064D01*
X263162Y594961D01*
X263165Y594858D01*
X263171Y594839D01*
X263173Y594819D01*
X263213Y594724D01*
X263249Y594627D01*
X263262Y594611D01*
X263269Y594593D01*
X263374Y594462D01*
X264697Y593139D01*
X265541Y591102D01*
X265541Y588898D01*
X264697Y586861D01*
X263374Y585538D01*
X263362Y585522D01*
X263347Y585510D01*
X263291Y585422D01*
X263231Y585339D01*
X263225Y585320D01*
X263214Y585303D01*
X263189Y585202D01*
X263158Y585103D01*
X263159Y585084D01*
X263154Y585064D01*
X263162Y584961D01*
X263165Y584858D01*
X263171Y584839D01*
X263173Y584819D01*
X263213Y584724D01*
X263249Y584627D01*
X263262Y584611D01*
X263269Y584593D01*
X263374Y584462D01*
X264697Y583139D01*
X265541Y581102D01*
X265541Y578898D01*
X264697Y576861D01*
X263139Y575303D01*
X261102Y574459D01*
X258898Y574459D01*
G37*
%LPD*%
%LPC*%
G36*
X80503Y407459D02*
X80503Y407459D01*
X76812Y408988D01*
X73988Y411812D01*
X72459Y415503D01*
X72459Y419497D01*
X73988Y423188D01*
X76812Y426012D01*
X80503Y427541D01*
X84497Y427541D01*
X88188Y426012D01*
X91012Y423188D01*
X92541Y419497D01*
X92541Y415503D01*
X91012Y411812D01*
X88188Y408988D01*
X84497Y407459D01*
X80503Y407459D01*
G37*
%LPD*%
%LPC*%
G36*
X125503Y532459D02*
X125503Y532459D01*
X121812Y533988D01*
X118988Y536812D01*
X117459Y540503D01*
X117459Y544497D01*
X118988Y548188D01*
X121812Y551012D01*
X125503Y552541D01*
X129497Y552541D01*
X133188Y551012D01*
X136012Y548188D01*
X137541Y544497D01*
X137541Y540503D01*
X136012Y536812D01*
X133188Y533988D01*
X129497Y532459D01*
X125503Y532459D01*
G37*
%LPD*%
%LPC*%
G36*
X190503Y532459D02*
X190503Y532459D01*
X186812Y533988D01*
X183988Y536812D01*
X182459Y540503D01*
X182459Y544497D01*
X183988Y548188D01*
X186812Y551012D01*
X190503Y552541D01*
X194497Y552541D01*
X198188Y551012D01*
X201012Y548188D01*
X202541Y544497D01*
X202541Y540503D01*
X201012Y536812D01*
X198188Y533988D01*
X194497Y532459D01*
X190503Y532459D01*
G37*
%LPD*%
%LPC*%
G36*
X125503Y487459D02*
X125503Y487459D01*
X121812Y488988D01*
X118988Y491812D01*
X117459Y495503D01*
X117459Y499497D01*
X118988Y503188D01*
X121812Y506012D01*
X125503Y507541D01*
X129497Y507541D01*
X133188Y506012D01*
X136012Y503188D01*
X137541Y499497D01*
X137541Y495503D01*
X136012Y491812D01*
X133188Y488988D01*
X129497Y487459D01*
X125503Y487459D01*
G37*
%LPD*%
%LPC*%
G36*
X190503Y487459D02*
X190503Y487459D01*
X186812Y488988D01*
X183988Y491812D01*
X182459Y495503D01*
X182459Y499497D01*
X183988Y503188D01*
X186812Y506012D01*
X190503Y507541D01*
X194497Y507541D01*
X198188Y506012D01*
X201012Y503188D01*
X202541Y499497D01*
X202541Y495503D01*
X201012Y491812D01*
X198188Y488988D01*
X194497Y487459D01*
X190503Y487459D01*
G37*
%LPD*%
%LPC*%
G36*
X15503Y452459D02*
X15503Y452459D01*
X11812Y453988D01*
X8988Y456812D01*
X7459Y460503D01*
X7459Y464497D01*
X8988Y468188D01*
X11812Y471012D01*
X15503Y472541D01*
X19497Y472541D01*
X23188Y471012D01*
X26012Y468188D01*
X27541Y464497D01*
X27541Y460503D01*
X26012Y456812D01*
X23188Y453988D01*
X19497Y452459D01*
X15503Y452459D01*
G37*
%LPD*%
%LPC*%
G36*
X80503Y452459D02*
X80503Y452459D01*
X76812Y453988D01*
X73988Y456812D01*
X72459Y460503D01*
X72459Y464497D01*
X73988Y468188D01*
X76812Y471012D01*
X80503Y472541D01*
X84497Y472541D01*
X88188Y471012D01*
X91012Y468188D01*
X92541Y464497D01*
X92541Y460503D01*
X91012Y456812D01*
X88188Y453988D01*
X84497Y452459D01*
X80503Y452459D01*
G37*
%LPD*%
%LPC*%
G36*
X29898Y235459D02*
X29898Y235459D01*
X27861Y236303D01*
X26303Y237861D01*
X25459Y239898D01*
X25459Y242102D01*
X26303Y244139D01*
X27861Y245697D01*
X28217Y245844D01*
X28278Y245882D01*
X28343Y245911D01*
X28381Y245947D01*
X28426Y245974D01*
X28471Y246029D01*
X28524Y246078D01*
X28549Y246123D01*
X28582Y246163D01*
X28608Y246230D01*
X28643Y246293D01*
X28652Y246344D01*
X28671Y246393D01*
X28674Y246465D01*
X28686Y246535D01*
X28679Y246587D01*
X28681Y246639D01*
X28661Y246708D01*
X28651Y246779D01*
X28627Y246825D01*
X28613Y246875D01*
X28572Y246934D01*
X28539Y246998D01*
X28502Y247034D01*
X28472Y247077D01*
X28415Y247120D01*
X28364Y247170D01*
X28301Y247205D01*
X28275Y247224D01*
X28253Y247231D01*
X28217Y247251D01*
X28091Y247303D01*
X26533Y248861D01*
X25689Y250898D01*
X25689Y253102D01*
X26533Y255139D01*
X28091Y256697D01*
X28217Y256749D01*
X28277Y256787D01*
X28343Y256816D01*
X28381Y256851D01*
X28426Y256879D01*
X28471Y256934D01*
X28524Y256982D01*
X28549Y257028D01*
X28582Y257068D01*
X28608Y257135D01*
X28643Y257198D01*
X28652Y257249D01*
X28671Y257298D01*
X28674Y257369D01*
X28686Y257440D01*
X28679Y257491D01*
X28681Y257543D01*
X28661Y257612D01*
X28651Y257683D01*
X28627Y257730D01*
X28613Y257780D01*
X28572Y257839D01*
X28539Y257903D01*
X28502Y257939D01*
X28472Y257982D01*
X28415Y258025D01*
X28364Y258075D01*
X28301Y258109D01*
X28275Y258129D01*
X28253Y258136D01*
X28217Y258156D01*
X27861Y258303D01*
X26303Y259861D01*
X25459Y261898D01*
X25459Y264102D01*
X26303Y266139D01*
X27861Y267697D01*
X29898Y268541D01*
X32102Y268541D01*
X34139Y267697D01*
X35697Y266139D01*
X36541Y264102D01*
X36541Y261898D01*
X35697Y259861D01*
X34139Y258303D01*
X34013Y258251D01*
X33953Y258213D01*
X33887Y258184D01*
X33849Y258149D01*
X33804Y258121D01*
X33759Y258066D01*
X33706Y258018D01*
X33681Y257972D01*
X33648Y257932D01*
X33622Y257865D01*
X33587Y257802D01*
X33578Y257751D01*
X33559Y257702D01*
X33556Y257631D01*
X33544Y257560D01*
X33551Y257509D01*
X33549Y257457D01*
X33569Y257388D01*
X33579Y257317D01*
X33603Y257270D01*
X33617Y257220D01*
X33658Y257161D01*
X33691Y257097D01*
X33728Y257061D01*
X33758Y257018D01*
X33815Y256975D01*
X33866Y256925D01*
X33929Y256891D01*
X33955Y256871D01*
X33977Y256864D01*
X34013Y256844D01*
X34369Y256697D01*
X35927Y255139D01*
X36771Y253102D01*
X36771Y250898D01*
X35927Y248861D01*
X34369Y247303D01*
X34013Y247156D01*
X33952Y247118D01*
X33887Y247089D01*
X33849Y247053D01*
X33804Y247026D01*
X33759Y246971D01*
X33706Y246922D01*
X33681Y246877D01*
X33648Y246837D01*
X33622Y246770D01*
X33587Y246707D01*
X33578Y246656D01*
X33559Y246607D01*
X33556Y246535D01*
X33544Y246465D01*
X33551Y246413D01*
X33549Y246361D01*
X33569Y246292D01*
X33579Y246221D01*
X33603Y246175D01*
X33617Y246125D01*
X33658Y246066D01*
X33691Y246002D01*
X33728Y245966D01*
X33758Y245923D01*
X33815Y245880D01*
X33866Y245830D01*
X33929Y245795D01*
X33955Y245776D01*
X33977Y245769D01*
X34013Y245749D01*
X34139Y245697D01*
X35697Y244139D01*
X36541Y242102D01*
X36541Y239898D01*
X35697Y237861D01*
X34139Y236303D01*
X32102Y235459D01*
X29898Y235459D01*
G37*
%LPD*%
%LPC*%
G36*
X28898Y191459D02*
X28898Y191459D01*
X26861Y192303D01*
X25303Y193861D01*
X24459Y195898D01*
X24459Y198102D01*
X25303Y200139D01*
X26861Y201697D01*
X27102Y201797D01*
X27162Y201834D01*
X27228Y201864D01*
X27266Y201899D01*
X27311Y201926D01*
X27356Y201982D01*
X27409Y202030D01*
X27434Y202076D01*
X27467Y202116D01*
X27493Y202183D01*
X27528Y202246D01*
X27537Y202297D01*
X27556Y202345D01*
X27559Y202417D01*
X27571Y202488D01*
X27564Y202539D01*
X27566Y202591D01*
X27546Y202660D01*
X27536Y202731D01*
X27512Y202777D01*
X27498Y202827D01*
X27457Y202886D01*
X27424Y202950D01*
X27387Y202987D01*
X27357Y203029D01*
X27300Y203072D01*
X27249Y203122D01*
X27186Y203157D01*
X27160Y203176D01*
X27138Y203183D01*
X27102Y203203D01*
X26861Y203303D01*
X25303Y204861D01*
X24459Y206898D01*
X24459Y209102D01*
X25303Y211139D01*
X26861Y212697D01*
X27102Y212797D01*
X27162Y212834D01*
X27228Y212864D01*
X27266Y212899D01*
X27311Y212926D01*
X27356Y212982D01*
X27409Y213030D01*
X27434Y213076D01*
X27467Y213116D01*
X27493Y213183D01*
X27528Y213246D01*
X27537Y213297D01*
X27556Y213345D01*
X27559Y213417D01*
X27571Y213488D01*
X27564Y213539D01*
X27566Y213591D01*
X27546Y213660D01*
X27536Y213731D01*
X27512Y213777D01*
X27498Y213827D01*
X27457Y213886D01*
X27424Y213950D01*
X27387Y213987D01*
X27357Y214029D01*
X27300Y214072D01*
X27249Y214122D01*
X27186Y214157D01*
X27160Y214176D01*
X27138Y214183D01*
X27102Y214203D01*
X26861Y214303D01*
X25303Y215861D01*
X24459Y217898D01*
X24459Y220102D01*
X25303Y222139D01*
X26861Y223697D01*
X28898Y224541D01*
X31102Y224541D01*
X33139Y223697D01*
X34697Y222139D01*
X35541Y220102D01*
X35541Y217898D01*
X34697Y215861D01*
X33139Y214303D01*
X32898Y214203D01*
X32837Y214165D01*
X32772Y214136D01*
X32734Y214101D01*
X32689Y214074D01*
X32644Y214018D01*
X32591Y213970D01*
X32566Y213924D01*
X32533Y213884D01*
X32507Y213817D01*
X32472Y213754D01*
X32463Y213703D01*
X32444Y213655D01*
X32441Y213583D01*
X32429Y213512D01*
X32436Y213461D01*
X32434Y213409D01*
X32454Y213340D01*
X32464Y213269D01*
X32488Y213223D01*
X32502Y213173D01*
X32543Y213114D01*
X32576Y213050D01*
X32613Y213013D01*
X32643Y212971D01*
X32700Y212928D01*
X32751Y212878D01*
X32814Y212843D01*
X32840Y212824D01*
X32862Y212816D01*
X32898Y212797D01*
X33139Y212697D01*
X34697Y211139D01*
X35541Y209102D01*
X35541Y206898D01*
X34697Y204861D01*
X33139Y203303D01*
X32898Y203203D01*
X32837Y203165D01*
X32772Y203136D01*
X32734Y203101D01*
X32689Y203074D01*
X32644Y203018D01*
X32591Y202970D01*
X32566Y202924D01*
X32533Y202884D01*
X32507Y202817D01*
X32472Y202754D01*
X32463Y202703D01*
X32444Y202655D01*
X32441Y202583D01*
X32429Y202512D01*
X32436Y202461D01*
X32434Y202409D01*
X32454Y202340D01*
X32464Y202269D01*
X32488Y202223D01*
X32502Y202173D01*
X32543Y202114D01*
X32576Y202050D01*
X32613Y202013D01*
X32643Y201971D01*
X32700Y201928D01*
X32751Y201878D01*
X32814Y201843D01*
X32840Y201824D01*
X32862Y201816D01*
X32898Y201797D01*
X33139Y201697D01*
X34697Y200139D01*
X35541Y198102D01*
X35541Y195898D01*
X34697Y193861D01*
X33139Y192303D01*
X31102Y191459D01*
X28898Y191459D01*
G37*
%LPD*%
%LPC*%
G36*
X56898Y269459D02*
X56898Y269459D01*
X54861Y270303D01*
X53303Y271861D01*
X52459Y273898D01*
X52459Y276102D01*
X53303Y278139D01*
X54626Y279462D01*
X54638Y279478D01*
X54653Y279490D01*
X54709Y279578D01*
X54769Y279661D01*
X54775Y279680D01*
X54786Y279697D01*
X54811Y279798D01*
X54842Y279897D01*
X54841Y279916D01*
X54846Y279936D01*
X54838Y280039D01*
X54835Y280142D01*
X54829Y280161D01*
X54827Y280181D01*
X54787Y280276D01*
X54751Y280373D01*
X54738Y280389D01*
X54731Y280407D01*
X54626Y280538D01*
X53303Y281861D01*
X52459Y283898D01*
X52459Y286102D01*
X53303Y288139D01*
X54861Y289697D01*
X55102Y289797D01*
X55162Y289834D01*
X55228Y289864D01*
X55266Y289899D01*
X55311Y289926D01*
X55356Y289982D01*
X55409Y290030D01*
X55434Y290076D01*
X55467Y290116D01*
X55493Y290183D01*
X55528Y290246D01*
X55537Y290297D01*
X55556Y290345D01*
X55559Y290417D01*
X55571Y290488D01*
X55564Y290539D01*
X55566Y290591D01*
X55546Y290660D01*
X55536Y290731D01*
X55512Y290777D01*
X55498Y290827D01*
X55457Y290886D01*
X55424Y290950D01*
X55387Y290987D01*
X55357Y291029D01*
X55300Y291072D01*
X55249Y291122D01*
X55186Y291157D01*
X55160Y291176D01*
X55138Y291183D01*
X55102Y291203D01*
X54861Y291303D01*
X53303Y292861D01*
X52459Y294898D01*
X52459Y297102D01*
X53303Y299139D01*
X54861Y300697D01*
X56898Y301541D01*
X59102Y301541D01*
X61139Y300697D01*
X62697Y299139D01*
X63541Y297102D01*
X63541Y294898D01*
X62697Y292861D01*
X61139Y291303D01*
X60898Y291203D01*
X60837Y291165D01*
X60772Y291136D01*
X60734Y291101D01*
X60689Y291074D01*
X60644Y291018D01*
X60591Y290970D01*
X60566Y290924D01*
X60533Y290884D01*
X60507Y290817D01*
X60472Y290754D01*
X60463Y290703D01*
X60444Y290655D01*
X60441Y290583D01*
X60429Y290512D01*
X60436Y290461D01*
X60434Y290409D01*
X60454Y290340D01*
X60464Y290269D01*
X60488Y290223D01*
X60502Y290173D01*
X60543Y290114D01*
X60576Y290050D01*
X60613Y290013D01*
X60643Y289971D01*
X60700Y289928D01*
X60751Y289878D01*
X60814Y289843D01*
X60840Y289824D01*
X60862Y289816D01*
X60898Y289797D01*
X61139Y289697D01*
X62697Y288139D01*
X63541Y286102D01*
X63541Y283898D01*
X62697Y281861D01*
X61374Y280538D01*
X61362Y280522D01*
X61347Y280510D01*
X61291Y280422D01*
X61231Y280339D01*
X61225Y280320D01*
X61214Y280303D01*
X61189Y280202D01*
X61158Y280103D01*
X61159Y280084D01*
X61154Y280064D01*
X61162Y279961D01*
X61165Y279858D01*
X61171Y279839D01*
X61173Y279819D01*
X61213Y279724D01*
X61249Y279627D01*
X61261Y279611D01*
X61269Y279593D01*
X61374Y279462D01*
X62697Y278139D01*
X63541Y276102D01*
X63541Y273898D01*
X62697Y271861D01*
X61139Y270303D01*
X59102Y269459D01*
X56898Y269459D01*
G37*
%LPD*%
%LPC*%
G36*
X78898Y659459D02*
X78898Y659459D01*
X76861Y660303D01*
X75303Y661861D01*
X74459Y663898D01*
X74459Y666102D01*
X75303Y668139D01*
X76861Y669697D01*
X78898Y670541D01*
X81102Y670541D01*
X83139Y669697D01*
X84462Y668374D01*
X84478Y668362D01*
X84490Y668347D01*
X84578Y668291D01*
X84661Y668231D01*
X84680Y668225D01*
X84697Y668214D01*
X84798Y668189D01*
X84897Y668158D01*
X84916Y668159D01*
X84936Y668154D01*
X85039Y668162D01*
X85142Y668165D01*
X85161Y668171D01*
X85181Y668173D01*
X85276Y668214D01*
X85373Y668249D01*
X85389Y668261D01*
X85407Y668269D01*
X85538Y668374D01*
X86626Y669462D01*
X86638Y669478D01*
X86653Y669490D01*
X86709Y669578D01*
X86769Y669661D01*
X86775Y669680D01*
X86786Y669697D01*
X86811Y669798D01*
X86842Y669897D01*
X86841Y669916D01*
X86846Y669936D01*
X86838Y670039D01*
X86835Y670142D01*
X86829Y670161D01*
X86827Y670181D01*
X86787Y670276D01*
X86751Y670373D01*
X86738Y670389D01*
X86731Y670407D01*
X86626Y670538D01*
X85303Y671861D01*
X84459Y673898D01*
X84459Y676102D01*
X85303Y678139D01*
X86861Y679697D01*
X88898Y680541D01*
X91102Y680541D01*
X93139Y679697D01*
X94697Y678139D01*
X95541Y676102D01*
X95541Y673898D01*
X94697Y671861D01*
X93374Y670538D01*
X93362Y670522D01*
X93347Y670510D01*
X93291Y670422D01*
X93231Y670339D01*
X93225Y670320D01*
X93214Y670303D01*
X93189Y670202D01*
X93158Y670103D01*
X93159Y670084D01*
X93154Y670064D01*
X93162Y669961D01*
X93165Y669858D01*
X93171Y669839D01*
X93173Y669819D01*
X93213Y669724D01*
X93249Y669627D01*
X93261Y669611D01*
X93269Y669593D01*
X93374Y669462D01*
X94697Y668139D01*
X95541Y666102D01*
X95541Y663898D01*
X94697Y661861D01*
X93139Y660303D01*
X91102Y659459D01*
X88898Y659459D01*
X86861Y660303D01*
X85538Y661626D01*
X85522Y661638D01*
X85510Y661653D01*
X85422Y661709D01*
X85339Y661769D01*
X85320Y661775D01*
X85303Y661786D01*
X85202Y661811D01*
X85103Y661842D01*
X85084Y661841D01*
X85064Y661846D01*
X84961Y661838D01*
X84858Y661835D01*
X84839Y661829D01*
X84819Y661827D01*
X84724Y661787D01*
X84627Y661751D01*
X84611Y661739D01*
X84593Y661731D01*
X84462Y661626D01*
X83139Y660303D01*
X81102Y659459D01*
X78898Y659459D01*
G37*
%LPD*%
%LPC*%
G36*
X29898Y280459D02*
X29898Y280459D01*
X27861Y281303D01*
X26303Y282861D01*
X25459Y284898D01*
X25459Y287102D01*
X26303Y289139D01*
X27126Y289962D01*
X27138Y289978D01*
X27153Y289990D01*
X27209Y290078D01*
X27269Y290161D01*
X27275Y290180D01*
X27286Y290197D01*
X27311Y290298D01*
X27342Y290397D01*
X27341Y290416D01*
X27346Y290436D01*
X27338Y290539D01*
X27335Y290642D01*
X27329Y290661D01*
X27327Y290681D01*
X27287Y290776D01*
X27251Y290873D01*
X27239Y290889D01*
X27231Y290907D01*
X27126Y291038D01*
X26303Y291861D01*
X25459Y293898D01*
X25459Y296102D01*
X26303Y298139D01*
X27861Y299697D01*
X29309Y300297D01*
X29370Y300334D01*
X29435Y300364D01*
X29474Y300399D01*
X29518Y300426D01*
X29564Y300482D01*
X29616Y300530D01*
X29641Y300576D01*
X29675Y300616D01*
X29700Y300683D01*
X29735Y300746D01*
X29744Y300797D01*
X29763Y300845D01*
X29766Y300917D01*
X29779Y300988D01*
X29771Y301039D01*
X29773Y301091D01*
X29753Y301160D01*
X29743Y301231D01*
X29719Y301277D01*
X29705Y301327D01*
X29664Y301386D01*
X29631Y301450D01*
X29594Y301487D01*
X29564Y301529D01*
X29507Y301572D01*
X29456Y301622D01*
X29393Y301657D01*
X29367Y301676D01*
X29345Y301683D01*
X29309Y301703D01*
X27861Y302303D01*
X26303Y303861D01*
X25459Y305898D01*
X25459Y308102D01*
X26303Y310139D01*
X27861Y311697D01*
X29898Y312541D01*
X32102Y312541D01*
X34139Y311697D01*
X35697Y310139D01*
X36541Y308102D01*
X36541Y305898D01*
X35697Y303861D01*
X34139Y302303D01*
X32691Y301703D01*
X32630Y301666D01*
X32565Y301636D01*
X32527Y301601D01*
X32482Y301574D01*
X32436Y301518D01*
X32384Y301470D01*
X32359Y301424D01*
X32325Y301384D01*
X32300Y301317D01*
X32265Y301254D01*
X32256Y301203D01*
X32237Y301155D01*
X32234Y301083D01*
X32221Y301012D01*
X32229Y300961D01*
X32227Y300909D01*
X32247Y300840D01*
X32257Y300769D01*
X32281Y300723D01*
X32295Y300673D01*
X32336Y300614D01*
X32369Y300550D01*
X32406Y300513D01*
X32436Y300471D01*
X32493Y300428D01*
X32544Y300378D01*
X32607Y300343D01*
X32633Y300324D01*
X32655Y300317D01*
X32691Y300297D01*
X34139Y299697D01*
X35697Y298139D01*
X36541Y296102D01*
X36541Y293898D01*
X35697Y291861D01*
X34874Y291038D01*
X34862Y291022D01*
X34847Y291010D01*
X34791Y290922D01*
X34731Y290839D01*
X34725Y290820D01*
X34714Y290803D01*
X34689Y290702D01*
X34658Y290603D01*
X34659Y290584D01*
X34654Y290564D01*
X34662Y290461D01*
X34665Y290358D01*
X34671Y290339D01*
X34673Y290319D01*
X34713Y290224D01*
X34749Y290127D01*
X34762Y290111D01*
X34769Y290093D01*
X34874Y289962D01*
X35697Y289139D01*
X36541Y287102D01*
X36541Y284898D01*
X35697Y282861D01*
X34139Y281303D01*
X32102Y280459D01*
X29898Y280459D01*
G37*
%LPD*%
%LPC*%
G36*
X112798Y584459D02*
X112798Y584459D01*
X110578Y585379D01*
X108879Y587078D01*
X107959Y589298D01*
X107959Y591702D01*
X108879Y593922D01*
X110419Y595462D01*
X110430Y595478D01*
X110446Y595490D01*
X110502Y595578D01*
X110562Y595661D01*
X110568Y595680D01*
X110579Y595697D01*
X110604Y595798D01*
X110635Y595897D01*
X110634Y595916D01*
X110639Y595936D01*
X110631Y596039D01*
X110628Y596142D01*
X110621Y596161D01*
X110620Y596181D01*
X110580Y596276D01*
X110544Y596373D01*
X110531Y596389D01*
X110524Y596407D01*
X110419Y596538D01*
X108879Y598078D01*
X107959Y600298D01*
X107959Y602702D01*
X108879Y604922D01*
X110578Y606621D01*
X112798Y607541D01*
X115202Y607541D01*
X117422Y606621D01*
X119121Y604922D01*
X120041Y602702D01*
X120041Y600298D01*
X119121Y598078D01*
X117581Y596538D01*
X117570Y596522D01*
X117554Y596510D01*
X117498Y596422D01*
X117438Y596339D01*
X117432Y596320D01*
X117421Y596303D01*
X117396Y596202D01*
X117365Y596103D01*
X117366Y596084D01*
X117361Y596064D01*
X117369Y595961D01*
X117372Y595858D01*
X117379Y595839D01*
X117380Y595819D01*
X117420Y595724D01*
X117456Y595627D01*
X117469Y595611D01*
X117476Y595593D01*
X117581Y595462D01*
X119121Y593922D01*
X120041Y591702D01*
X120041Y589298D01*
X119121Y587078D01*
X117422Y585379D01*
X115202Y584459D01*
X112798Y584459D01*
G37*
%LPD*%
%LPC*%
G36*
X28898Y323459D02*
X28898Y323459D01*
X26861Y324303D01*
X25303Y325861D01*
X24459Y327898D01*
X24459Y330102D01*
X25303Y332139D01*
X26861Y333697D01*
X27102Y333797D01*
X27163Y333835D01*
X27228Y333864D01*
X27266Y333899D01*
X27311Y333926D01*
X27356Y333982D01*
X27409Y334030D01*
X27434Y334076D01*
X27467Y334116D01*
X27493Y334183D01*
X27528Y334246D01*
X27537Y334297D01*
X27556Y334345D01*
X27559Y334417D01*
X27571Y334488D01*
X27564Y334539D01*
X27566Y334591D01*
X27546Y334660D01*
X27536Y334731D01*
X27512Y334777D01*
X27498Y334827D01*
X27457Y334886D01*
X27424Y334950D01*
X27387Y334987D01*
X27357Y335029D01*
X27300Y335072D01*
X27249Y335122D01*
X27186Y335157D01*
X27160Y335176D01*
X27138Y335184D01*
X27102Y335203D01*
X26861Y335303D01*
X25303Y336861D01*
X24459Y338898D01*
X24459Y341102D01*
X25303Y343139D01*
X26861Y344697D01*
X28898Y345541D01*
X31102Y345541D01*
X33139Y344697D01*
X34697Y343139D01*
X35541Y341102D01*
X35541Y338898D01*
X34697Y336861D01*
X33139Y335303D01*
X32898Y335203D01*
X32838Y335166D01*
X32772Y335136D01*
X32734Y335101D01*
X32689Y335074D01*
X32644Y335018D01*
X32591Y334970D01*
X32566Y334924D01*
X32533Y334884D01*
X32507Y334817D01*
X32472Y334754D01*
X32463Y334703D01*
X32444Y334655D01*
X32441Y334583D01*
X32429Y334512D01*
X32436Y334461D01*
X32434Y334409D01*
X32454Y334340D01*
X32464Y334269D01*
X32488Y334223D01*
X32502Y334173D01*
X32543Y334114D01*
X32576Y334050D01*
X32613Y334013D01*
X32643Y333971D01*
X32700Y333928D01*
X32751Y333878D01*
X32814Y333843D01*
X32840Y333824D01*
X32862Y333817D01*
X32898Y333797D01*
X33139Y333697D01*
X34697Y332139D01*
X35541Y330102D01*
X35541Y327898D01*
X34697Y325861D01*
X33139Y324303D01*
X31102Y323459D01*
X28898Y323459D01*
G37*
%LPD*%
%LPC*%
G36*
X86898Y507459D02*
X86898Y507459D01*
X84861Y508303D01*
X83303Y509861D01*
X82459Y511898D01*
X82459Y514102D01*
X83303Y516139D01*
X84861Y517697D01*
X85651Y518024D01*
X85690Y518049D01*
X85733Y518064D01*
X85794Y518113D01*
X85860Y518154D01*
X85890Y518189D01*
X85925Y518218D01*
X85968Y518284D01*
X86017Y518343D01*
X86034Y518386D01*
X86058Y518425D01*
X86077Y518500D01*
X86105Y518573D01*
X86107Y518619D01*
X86119Y518663D01*
X86112Y518741D01*
X86116Y518819D01*
X86103Y518863D01*
X86099Y518909D01*
X86069Y518980D01*
X86047Y519055D01*
X86021Y519093D01*
X86003Y519135D01*
X85917Y519242D01*
X85907Y519257D01*
X85903Y519260D01*
X85898Y519266D01*
X85303Y519861D01*
X84459Y521898D01*
X84459Y524102D01*
X85303Y526139D01*
X86861Y527697D01*
X88898Y528541D01*
X91102Y528541D01*
X93139Y527697D01*
X94697Y526139D01*
X95541Y524102D01*
X95541Y521898D01*
X94697Y519861D01*
X93139Y518303D01*
X92349Y517976D01*
X92310Y517951D01*
X92267Y517936D01*
X92206Y517887D01*
X92140Y517846D01*
X92110Y517811D01*
X92075Y517782D01*
X92032Y517716D01*
X91983Y517657D01*
X91966Y517614D01*
X91942Y517575D01*
X91923Y517500D01*
X91895Y517427D01*
X91893Y517381D01*
X91881Y517337D01*
X91888Y517259D01*
X91884Y517181D01*
X91897Y517137D01*
X91901Y517091D01*
X91931Y517020D01*
X91953Y516945D01*
X91979Y516907D01*
X91997Y516865D01*
X92083Y516758D01*
X92093Y516743D01*
X92097Y516740D01*
X92102Y516734D01*
X92697Y516139D01*
X93541Y514102D01*
X93541Y511898D01*
X92697Y509861D01*
X91139Y508303D01*
X89102Y507459D01*
X86898Y507459D01*
G37*
%LPD*%
%LPC*%
G36*
X8898Y679459D02*
X8898Y679459D01*
X6861Y680303D01*
X5303Y681861D01*
X4459Y683898D01*
X4459Y686102D01*
X5303Y688139D01*
X6626Y689462D01*
X6638Y689478D01*
X6653Y689490D01*
X6709Y689578D01*
X6769Y689661D01*
X6775Y689680D01*
X6786Y689697D01*
X6811Y689798D01*
X6842Y689897D01*
X6841Y689916D01*
X6846Y689936D01*
X6838Y690039D01*
X6835Y690142D01*
X6829Y690161D01*
X6827Y690181D01*
X6787Y690276D01*
X6751Y690373D01*
X6738Y690389D01*
X6731Y690407D01*
X6626Y690538D01*
X5303Y691861D01*
X4459Y693898D01*
X4459Y696102D01*
X5303Y698139D01*
X6861Y699697D01*
X8898Y700541D01*
X11102Y700541D01*
X13139Y699697D01*
X14697Y698139D01*
X15541Y696102D01*
X15541Y693898D01*
X14697Y691861D01*
X13374Y690538D01*
X13362Y690522D01*
X13347Y690510D01*
X13291Y690422D01*
X13231Y690339D01*
X13225Y690320D01*
X13214Y690303D01*
X13189Y690202D01*
X13158Y690103D01*
X13159Y690084D01*
X13154Y690064D01*
X13162Y689961D01*
X13165Y689858D01*
X13171Y689839D01*
X13173Y689819D01*
X13213Y689724D01*
X13249Y689627D01*
X13261Y689611D01*
X13269Y689593D01*
X13374Y689462D01*
X14697Y688139D01*
X15541Y686102D01*
X15541Y683898D01*
X14697Y681861D01*
X13139Y680303D01*
X11102Y679459D01*
X8898Y679459D01*
G37*
%LPD*%
%LPC*%
G36*
X158898Y659459D02*
X158898Y659459D01*
X156861Y660303D01*
X155303Y661861D01*
X154459Y663898D01*
X154459Y666102D01*
X155303Y668139D01*
X156626Y669462D01*
X156638Y669478D01*
X156653Y669490D01*
X156709Y669578D01*
X156769Y669661D01*
X156775Y669680D01*
X156786Y669697D01*
X156811Y669798D01*
X156842Y669897D01*
X156841Y669916D01*
X156846Y669936D01*
X156838Y670039D01*
X156835Y670142D01*
X156829Y670161D01*
X156827Y670181D01*
X156787Y670276D01*
X156751Y670373D01*
X156739Y670389D01*
X156731Y670407D01*
X156626Y670538D01*
X155303Y671861D01*
X154459Y673898D01*
X154459Y676102D01*
X155303Y678139D01*
X156861Y679697D01*
X158898Y680541D01*
X161102Y680541D01*
X163139Y679697D01*
X164697Y678139D01*
X165541Y676102D01*
X165541Y673898D01*
X164697Y671861D01*
X163374Y670538D01*
X163362Y670522D01*
X163347Y670510D01*
X163291Y670422D01*
X163231Y670339D01*
X163225Y670320D01*
X163214Y670303D01*
X163189Y670202D01*
X163158Y670103D01*
X163159Y670084D01*
X163154Y670064D01*
X163162Y669961D01*
X163165Y669858D01*
X163171Y669839D01*
X163173Y669819D01*
X163213Y669724D01*
X163249Y669627D01*
X163262Y669611D01*
X163269Y669593D01*
X163374Y669462D01*
X164697Y668139D01*
X165541Y666102D01*
X165541Y663898D01*
X164697Y661861D01*
X163139Y660303D01*
X161102Y659459D01*
X158898Y659459D01*
G37*
%LPD*%
%LPC*%
G36*
X8898Y734459D02*
X8898Y734459D01*
X6861Y735303D01*
X5303Y736861D01*
X4459Y738898D01*
X4459Y741102D01*
X5303Y743139D01*
X6626Y744462D01*
X6638Y744478D01*
X6653Y744490D01*
X6709Y744578D01*
X6769Y744661D01*
X6775Y744680D01*
X6786Y744697D01*
X6811Y744798D01*
X6842Y744897D01*
X6841Y744916D01*
X6846Y744936D01*
X6838Y745039D01*
X6835Y745142D01*
X6829Y745161D01*
X6827Y745181D01*
X6787Y745276D01*
X6751Y745373D01*
X6738Y745389D01*
X6731Y745407D01*
X6626Y745538D01*
X5303Y746861D01*
X4459Y748898D01*
X4459Y751102D01*
X5303Y753139D01*
X6861Y754697D01*
X8898Y755541D01*
X11102Y755541D01*
X13139Y754697D01*
X14697Y753139D01*
X15541Y751102D01*
X15541Y748898D01*
X14697Y746861D01*
X13374Y745538D01*
X13362Y745522D01*
X13347Y745510D01*
X13291Y745422D01*
X13231Y745339D01*
X13225Y745320D01*
X13214Y745303D01*
X13189Y745202D01*
X13158Y745103D01*
X13159Y745084D01*
X13154Y745064D01*
X13162Y744961D01*
X13165Y744858D01*
X13171Y744839D01*
X13173Y744819D01*
X13213Y744724D01*
X13249Y744627D01*
X13261Y744611D01*
X13269Y744593D01*
X13374Y744462D01*
X14697Y743139D01*
X15541Y741102D01*
X15541Y738898D01*
X14697Y736861D01*
X13139Y735303D01*
X11102Y734459D01*
X8898Y734459D01*
G37*
%LPD*%
%LPC*%
G36*
X8898Y619459D02*
X8898Y619459D01*
X6861Y620303D01*
X5303Y621861D01*
X4459Y623898D01*
X4459Y626102D01*
X5303Y628139D01*
X6626Y629462D01*
X6638Y629478D01*
X6653Y629490D01*
X6709Y629578D01*
X6769Y629661D01*
X6775Y629680D01*
X6786Y629697D01*
X6811Y629798D01*
X6842Y629897D01*
X6841Y629916D01*
X6846Y629936D01*
X6838Y630039D01*
X6835Y630142D01*
X6829Y630161D01*
X6827Y630181D01*
X6787Y630276D01*
X6751Y630373D01*
X6739Y630389D01*
X6731Y630407D01*
X6626Y630538D01*
X5303Y631861D01*
X4459Y633898D01*
X4459Y636102D01*
X5303Y638139D01*
X6861Y639697D01*
X8898Y640541D01*
X11102Y640541D01*
X13139Y639697D01*
X14697Y638139D01*
X15541Y636102D01*
X15541Y633898D01*
X14697Y631861D01*
X13374Y630538D01*
X13362Y630522D01*
X13347Y630510D01*
X13291Y630422D01*
X13231Y630339D01*
X13225Y630320D01*
X13214Y630303D01*
X13189Y630202D01*
X13158Y630103D01*
X13159Y630084D01*
X13154Y630064D01*
X13162Y629961D01*
X13165Y629858D01*
X13171Y629839D01*
X13173Y629819D01*
X13213Y629724D01*
X13249Y629627D01*
X13262Y629611D01*
X13269Y629593D01*
X13374Y629462D01*
X14697Y628139D01*
X15541Y626102D01*
X15541Y623898D01*
X14697Y621861D01*
X13139Y620303D01*
X11102Y619459D01*
X8898Y619459D01*
G37*
%LPD*%
%LPC*%
G36*
X123898Y659459D02*
X123898Y659459D01*
X121861Y660303D01*
X120303Y661861D01*
X119459Y663898D01*
X119459Y666102D01*
X120303Y668139D01*
X121626Y669462D01*
X121638Y669478D01*
X121653Y669490D01*
X121709Y669578D01*
X121769Y669661D01*
X121775Y669680D01*
X121786Y669697D01*
X121811Y669798D01*
X121842Y669897D01*
X121841Y669916D01*
X121846Y669936D01*
X121838Y670039D01*
X121835Y670142D01*
X121829Y670161D01*
X121827Y670181D01*
X121787Y670276D01*
X121751Y670373D01*
X121739Y670389D01*
X121731Y670407D01*
X121626Y670538D01*
X120303Y671861D01*
X119459Y673898D01*
X119459Y676102D01*
X120303Y678139D01*
X121861Y679697D01*
X123898Y680541D01*
X126102Y680541D01*
X128139Y679697D01*
X129697Y678139D01*
X130541Y676102D01*
X130541Y673898D01*
X129697Y671861D01*
X128374Y670538D01*
X128362Y670522D01*
X128347Y670510D01*
X128291Y670422D01*
X128231Y670339D01*
X128225Y670320D01*
X128214Y670303D01*
X128189Y670202D01*
X128158Y670103D01*
X128159Y670084D01*
X128154Y670064D01*
X128162Y669961D01*
X128165Y669858D01*
X128171Y669839D01*
X128173Y669819D01*
X128213Y669724D01*
X128249Y669627D01*
X128262Y669611D01*
X128269Y669593D01*
X128374Y669462D01*
X129697Y668139D01*
X130541Y666102D01*
X130541Y663898D01*
X129697Y661861D01*
X128139Y660303D01*
X126102Y659459D01*
X123898Y659459D01*
G37*
%LPD*%
%LPC*%
G36*
X27898Y349459D02*
X27898Y349459D01*
X25861Y350303D01*
X24303Y351861D01*
X23459Y353898D01*
X23459Y356102D01*
X23585Y356407D01*
X23596Y356451D01*
X23615Y356493D01*
X23624Y356570D01*
X23642Y356646D01*
X23637Y356692D01*
X23642Y356737D01*
X23626Y356814D01*
X23619Y356891D01*
X23600Y356933D01*
X23590Y356978D01*
X23550Y357045D01*
X23519Y357116D01*
X23487Y357150D01*
X23464Y357189D01*
X23405Y357240D01*
X23352Y357297D01*
X23312Y357319D01*
X23277Y357349D01*
X23205Y357378D01*
X23137Y357415D01*
X23092Y357424D01*
X23049Y357441D01*
X22913Y357456D01*
X22901Y357458D01*
X20861Y358303D01*
X19303Y359861D01*
X18459Y361898D01*
X18459Y364102D01*
X19303Y366139D01*
X20861Y367697D01*
X22898Y368541D01*
X25102Y368541D01*
X27139Y367697D01*
X28697Y366139D01*
X29541Y364102D01*
X29541Y361898D01*
X29415Y361593D01*
X29404Y361549D01*
X29385Y361507D01*
X29376Y361430D01*
X29358Y361354D01*
X29363Y361308D01*
X29358Y361263D01*
X29374Y361186D01*
X29381Y361109D01*
X29400Y361067D01*
X29410Y361022D01*
X29450Y360955D01*
X29481Y360884D01*
X29513Y360850D01*
X29536Y360811D01*
X29595Y360760D01*
X29648Y360703D01*
X29688Y360681D01*
X29723Y360651D01*
X29795Y360622D01*
X29863Y360585D01*
X29908Y360576D01*
X29951Y360559D01*
X30087Y360544D01*
X30099Y360542D01*
X32139Y359697D01*
X33697Y358139D01*
X34541Y356102D01*
X34541Y353898D01*
X33697Y351861D01*
X32139Y350303D01*
X30102Y349459D01*
X27898Y349459D01*
G37*
%LPD*%
%LPC*%
G36*
X238898Y390459D02*
X238898Y390459D01*
X236861Y391303D01*
X235303Y392861D01*
X234459Y394898D01*
X234459Y397102D01*
X235303Y399139D01*
X236861Y400697D01*
X238898Y401541D01*
X241102Y401541D01*
X243139Y400697D01*
X243962Y399874D01*
X243978Y399862D01*
X243990Y399847D01*
X244078Y399791D01*
X244161Y399731D01*
X244180Y399725D01*
X244197Y399714D01*
X244298Y399689D01*
X244397Y399658D01*
X244416Y399659D01*
X244436Y399654D01*
X244539Y399662D01*
X244642Y399665D01*
X244661Y399671D01*
X244681Y399673D01*
X244776Y399713D01*
X244873Y399749D01*
X244889Y399762D01*
X244907Y399769D01*
X245038Y399874D01*
X245861Y400697D01*
X247898Y401541D01*
X250102Y401541D01*
X252139Y400697D01*
X253697Y399139D01*
X254541Y397102D01*
X254541Y394898D01*
X253697Y392861D01*
X252139Y391303D01*
X250102Y390459D01*
X247898Y390459D01*
X245861Y391303D01*
X245038Y392126D01*
X245022Y392138D01*
X245010Y392153D01*
X244922Y392209D01*
X244839Y392269D01*
X244820Y392275D01*
X244803Y392286D01*
X244702Y392311D01*
X244603Y392342D01*
X244584Y392341D01*
X244564Y392346D01*
X244461Y392338D01*
X244358Y392335D01*
X244339Y392329D01*
X244319Y392327D01*
X244224Y392287D01*
X244127Y392251D01*
X244111Y392239D01*
X244093Y392231D01*
X243962Y392126D01*
X243139Y391303D01*
X241102Y390459D01*
X238898Y390459D01*
G37*
%LPD*%
%LPC*%
G36*
X238898Y429459D02*
X238898Y429459D01*
X236861Y430303D01*
X235303Y431861D01*
X234459Y433898D01*
X234459Y436102D01*
X235303Y438139D01*
X236126Y438962D01*
X236138Y438978D01*
X236153Y438990D01*
X236209Y439078D01*
X236269Y439161D01*
X236275Y439180D01*
X236286Y439197D01*
X236311Y439298D01*
X236342Y439397D01*
X236341Y439416D01*
X236346Y439436D01*
X236338Y439539D01*
X236335Y439642D01*
X236329Y439661D01*
X236327Y439681D01*
X236287Y439776D01*
X236251Y439873D01*
X236239Y439889D01*
X236231Y439907D01*
X236126Y440038D01*
X235303Y440861D01*
X234459Y442898D01*
X234459Y445102D01*
X235303Y447139D01*
X236861Y448697D01*
X238898Y449541D01*
X241102Y449541D01*
X243139Y448697D01*
X244697Y447139D01*
X245541Y445102D01*
X245541Y442898D01*
X244697Y440861D01*
X243874Y440038D01*
X243862Y440022D01*
X243847Y440010D01*
X243791Y439922D01*
X243731Y439839D01*
X243725Y439820D01*
X243714Y439803D01*
X243689Y439702D01*
X243658Y439603D01*
X243659Y439584D01*
X243654Y439564D01*
X243662Y439461D01*
X243665Y439358D01*
X243671Y439339D01*
X243673Y439319D01*
X243713Y439224D01*
X243749Y439127D01*
X243762Y439111D01*
X243769Y439093D01*
X243874Y438962D01*
X244697Y438139D01*
X245541Y436102D01*
X245541Y433898D01*
X244697Y431861D01*
X243139Y430303D01*
X241102Y429459D01*
X238898Y429459D01*
G37*
%LPD*%
%LPC*%
G36*
X213898Y399459D02*
X213898Y399459D01*
X211861Y400303D01*
X210303Y401861D01*
X209459Y403898D01*
X209459Y406102D01*
X210303Y408139D01*
X211861Y409697D01*
X213898Y410541D01*
X216102Y410541D01*
X218139Y409697D01*
X219697Y408139D01*
X220541Y406102D01*
X220541Y403898D01*
X219697Y401861D01*
X218139Y400303D01*
X216102Y399459D01*
X213898Y399459D01*
G37*
%LPD*%
%LPC*%
G36*
X33898Y384459D02*
X33898Y384459D01*
X31861Y385303D01*
X30303Y386861D01*
X29459Y388898D01*
X29459Y391102D01*
X30303Y393139D01*
X31861Y394697D01*
X33898Y395541D01*
X36102Y395541D01*
X38139Y394697D01*
X39697Y393139D01*
X40541Y391102D01*
X40541Y388898D01*
X39697Y386861D01*
X38139Y385303D01*
X36102Y384459D01*
X33898Y384459D01*
G37*
%LPD*%
%LPC*%
G36*
X13898Y339459D02*
X13898Y339459D01*
X11861Y340303D01*
X10303Y341861D01*
X9459Y343898D01*
X9459Y346102D01*
X10303Y348139D01*
X11861Y349697D01*
X13898Y350541D01*
X16102Y350541D01*
X18139Y349697D01*
X19697Y348139D01*
X20541Y346102D01*
X20541Y343898D01*
X19697Y341861D01*
X18139Y340303D01*
X16102Y339459D01*
X13898Y339459D01*
G37*
%LPD*%
%LPC*%
G36*
X18898Y429459D02*
X18898Y429459D01*
X16861Y430303D01*
X15303Y431861D01*
X14459Y433898D01*
X14459Y436102D01*
X15303Y438139D01*
X16861Y439697D01*
X18898Y440541D01*
X21102Y440541D01*
X23139Y439697D01*
X24697Y438139D01*
X25541Y436102D01*
X25541Y433898D01*
X24697Y431861D01*
X23139Y430303D01*
X21102Y429459D01*
X18898Y429459D01*
G37*
%LPD*%
%LPC*%
G36*
X108898Y554459D02*
X108898Y554459D01*
X106861Y555303D01*
X105303Y556861D01*
X104459Y558898D01*
X104459Y561102D01*
X105303Y563139D01*
X106861Y564697D01*
X108898Y565541D01*
X111102Y565541D01*
X113139Y564697D01*
X114697Y563139D01*
X115541Y561102D01*
X115541Y558898D01*
X114697Y556861D01*
X113139Y555303D01*
X111102Y554459D01*
X108898Y554459D01*
G37*
%LPD*%
%LPC*%
G36*
X28898Y439459D02*
X28898Y439459D01*
X26861Y440303D01*
X25303Y441861D01*
X24459Y443898D01*
X24459Y446102D01*
X25303Y448139D01*
X26861Y449697D01*
X28898Y450541D01*
X31102Y450541D01*
X33139Y449697D01*
X34697Y448139D01*
X35541Y446102D01*
X35541Y443898D01*
X34697Y441861D01*
X33139Y440303D01*
X31102Y439459D01*
X28898Y439459D01*
G37*
%LPD*%
%LPC*%
G36*
X226898Y291459D02*
X226898Y291459D01*
X224861Y292303D01*
X223303Y293861D01*
X222459Y295898D01*
X222459Y298102D01*
X223303Y300139D01*
X224861Y301697D01*
X226898Y302541D01*
X229102Y302541D01*
X231139Y301697D01*
X232697Y300139D01*
X233541Y298102D01*
X233541Y295898D01*
X232697Y293861D01*
X231139Y292303D01*
X229102Y291459D01*
X226898Y291459D01*
G37*
%LPD*%
%LPC*%
G36*
X8898Y489459D02*
X8898Y489459D01*
X6861Y490303D01*
X5303Y491861D01*
X4459Y493898D01*
X4459Y496102D01*
X5303Y498139D01*
X6861Y499697D01*
X8898Y500541D01*
X11102Y500541D01*
X13139Y499697D01*
X14697Y498139D01*
X15541Y496102D01*
X15541Y493898D01*
X14697Y491861D01*
X13139Y490303D01*
X11102Y489459D01*
X8898Y489459D01*
G37*
%LPD*%
%LPC*%
G36*
X8898Y284459D02*
X8898Y284459D01*
X6861Y285303D01*
X5303Y286861D01*
X4459Y288898D01*
X4459Y291102D01*
X5303Y293139D01*
X6861Y294697D01*
X8898Y295541D01*
X11102Y295541D01*
X13139Y294697D01*
X14697Y293139D01*
X15541Y291102D01*
X15541Y288898D01*
X14697Y286861D01*
X13139Y285303D01*
X11102Y284459D01*
X8898Y284459D01*
G37*
%LPD*%
%LPC*%
G36*
X258898Y629459D02*
X258898Y629459D01*
X256861Y630303D01*
X255303Y631861D01*
X254459Y633898D01*
X254459Y636102D01*
X255303Y638139D01*
X256861Y639697D01*
X258898Y640541D01*
X261102Y640541D01*
X263139Y639697D01*
X264697Y638139D01*
X265541Y636102D01*
X265541Y633898D01*
X264697Y631861D01*
X263139Y630303D01*
X261102Y629459D01*
X258898Y629459D01*
G37*
%LPD*%
%LPC*%
G36*
X98898Y525459D02*
X98898Y525459D01*
X96861Y526303D01*
X95303Y527861D01*
X94459Y529898D01*
X94459Y532102D01*
X95303Y534139D01*
X96861Y535697D01*
X98898Y536541D01*
X101102Y536541D01*
X103139Y535697D01*
X104697Y534139D01*
X105541Y532102D01*
X105541Y529898D01*
X104697Y527861D01*
X103139Y526303D01*
X101102Y525459D01*
X98898Y525459D01*
G37*
%LPD*%
%LPC*%
G36*
X98898Y564459D02*
X98898Y564459D01*
X96861Y565303D01*
X95303Y566861D01*
X94459Y568898D01*
X94459Y571102D01*
X95303Y573139D01*
X96861Y574697D01*
X98898Y575541D01*
X101102Y575541D01*
X103139Y574697D01*
X104697Y573139D01*
X105541Y571102D01*
X105541Y568898D01*
X104697Y566861D01*
X103139Y565303D01*
X101102Y564459D01*
X98898Y564459D01*
G37*
%LPD*%
%LPC*%
G36*
X8898Y314459D02*
X8898Y314459D01*
X6861Y315303D01*
X5303Y316861D01*
X4459Y318898D01*
X4459Y321102D01*
X5303Y323139D01*
X6861Y324697D01*
X8898Y325541D01*
X11102Y325541D01*
X13139Y324697D01*
X14697Y323139D01*
X15541Y321102D01*
X15541Y318898D01*
X14697Y316861D01*
X13139Y315303D01*
X11102Y314459D01*
X8898Y314459D01*
G37*
%LPD*%
D10*
X250200Y719000D03*
X250200Y769000D03*
X225200Y719000D03*
X225200Y769000D03*
X200200Y719000D03*
X200200Y769000D03*
X175200Y719000D03*
X175200Y769000D03*
X150200Y719000D03*
X150200Y769000D03*
X111600Y719000D03*
X111600Y769000D03*
X86600Y719000D03*
X86600Y769000D03*
X61600Y719000D03*
X61600Y769000D03*
X36600Y719000D03*
X36600Y769000D03*
X11600Y719000D03*
X11600Y769000D03*
D11*
X236000Y522400D03*
X236000Y509700D03*
X236000Y497000D03*
X236000Y484300D03*
X236000Y471600D03*
X248700Y522400D03*
X248700Y509700D03*
X248700Y497000D03*
X248700Y484300D03*
X248700Y471600D03*
D12*
X114000Y601500D03*
X114000Y590500D03*
D13*
X127500Y542500D03*
X192500Y542500D03*
X127500Y497500D03*
X192500Y497500D03*
X17500Y462500D03*
X82500Y462500D03*
X17500Y417500D03*
X82500Y417500D03*
D14*
X260000Y635000D03*
X252000Y296000D03*
X30000Y197000D03*
X30000Y208000D03*
X30000Y219000D03*
X254000Y197000D03*
X254000Y208000D03*
X254000Y219000D03*
X35000Y390000D03*
X25000Y405000D03*
X240000Y396000D03*
X249000Y396000D03*
X240000Y435000D03*
X15000Y385000D03*
X31000Y295000D03*
X57000Y384000D03*
X31000Y286000D03*
X228000Y297000D03*
X58000Y296000D03*
X263000Y242000D03*
X261000Y359000D03*
X253000Y359000D03*
X10000Y125000D03*
X10000Y135000D03*
X10000Y185000D03*
X10000Y195000D03*
X10000Y205000D03*
X10000Y215000D03*
X10000Y225000D03*
X10000Y235000D03*
X10000Y245000D03*
X10000Y255000D03*
X10000Y265000D03*
X10000Y290000D03*
X10000Y320000D03*
X15000Y345000D03*
X15000Y395000D03*
X55000Y395000D03*
X20000Y435000D03*
X30000Y445000D03*
X10000Y495000D03*
X10000Y510000D03*
X10000Y520000D03*
X10000Y530000D03*
X10000Y540000D03*
X10000Y550000D03*
X10000Y560000D03*
X10000Y570000D03*
X10000Y580000D03*
X10000Y635000D03*
X10000Y625000D03*
X10000Y685000D03*
X10000Y695000D03*
X10000Y740000D03*
X10000Y750000D03*
X10000Y790000D03*
X20000Y790000D03*
X30000Y790000D03*
X40000Y790000D03*
X50000Y790000D03*
X60000Y790000D03*
X70000Y790000D03*
X80000Y790000D03*
X90000Y790000D03*
X100000Y790000D03*
X110000Y790000D03*
X120000Y790000D03*
X130000Y790000D03*
X140000Y790000D03*
X150000Y790000D03*
X160000Y790000D03*
X170000Y790000D03*
X180000Y790000D03*
X190000Y790000D03*
X200000Y790000D03*
X210000Y790000D03*
X220000Y790000D03*
X230000Y790000D03*
X240000Y790000D03*
X250000Y790000D03*
X260000Y790000D03*
X260000Y755000D03*
X260000Y745000D03*
X260000Y735000D03*
X260000Y705000D03*
X260000Y695000D03*
X260000Y685000D03*
X260000Y610000D03*
X260000Y600000D03*
X260000Y590000D03*
X260000Y580000D03*
X260000Y555000D03*
X260000Y545000D03*
X260000Y535000D03*
X260000Y525000D03*
X260000Y515000D03*
X260000Y505000D03*
X260000Y495000D03*
X260000Y485000D03*
X260000Y475000D03*
X260000Y465000D03*
X255000Y455000D03*
X260000Y125000D03*
X260000Y135000D03*
X260000Y145000D03*
X260000Y155000D03*
X260000Y165000D03*
X260000Y175000D03*
X260000Y185000D03*
X260000Y270000D03*
X260000Y280000D03*
X260000Y290000D03*
X260000Y305000D03*
X260000Y315000D03*
X260000Y325000D03*
X80000Y665000D03*
X90000Y665000D03*
X90000Y675000D03*
X125000Y675000D03*
X125000Y665000D03*
X160000Y675000D03*
X160000Y665000D03*
X90000Y630000D03*
X87000Y640000D03*
X67000Y610000D03*
X95000Y610000D03*
X95000Y620000D03*
X100000Y570000D03*
X110000Y560000D03*
X173000Y458000D03*
X141000Y413000D03*
X117000Y405000D03*
X173000Y405000D03*
X215000Y405000D03*
X240000Y444000D03*
X264000Y395000D03*
X264000Y386000D03*
X264000Y377000D03*
X264000Y368000D03*
X90000Y523000D03*
X100000Y531000D03*
X67000Y599000D03*
X146000Y563000D03*
X255000Y441000D03*
X66000Y551000D03*
X29000Y503000D03*
D15*
X22000Y510000D01*
X22000Y513000D01*
D14*
X138447Y473553D03*
X123000Y470000D03*
D15*
X121000Y468000D01*
X121000Y467000D01*
D14*
X105000Y539000D03*
D15*
X105000Y543000D01*
X103000Y545000D01*
D14*
X200000Y569000D03*
D15*
X201000Y570000D01*
X204000Y570000D01*
D14*
X219000Y568000D03*
D15*
X217000Y568000D01*
X214000Y565000D01*
D14*
X211000Y620000D03*
D15*
X210000Y621000D01*
X210000Y628000D01*
D14*
X181000Y696000D03*
D16*
X186000Y701000D01*
X212000Y701000D01*
D14*
X217000Y696000D03*
D16*
X212000Y701000D01*
D14*
X103000Y617000D03*
D17*
X102000Y616000D01*
X102000Y611000D01*
D14*
X58000Y275000D03*
X58000Y285000D03*
X31000Y241000D03*
X13000Y374000D03*
X108500Y404340D03*
D17*
X78160Y374000D01*
X13000Y374000D01*
D14*
X203288Y641712D03*
X165000Y638000D03*
X121000Y638000D03*
X92000Y556000D03*
D18*
X78000Y570000D02*
X78000Y645000D01*
X78000Y570000D02*
X92000Y556000D01*
X83000Y650000D02*
X121000Y650000D01*
X165000Y650000D01*
X198000Y650000D01*
X203288Y644712D01*
X203288Y641712D01*
X83000Y650000D02*
X78000Y645000D01*
X165000Y650000D02*
X165000Y638000D01*
X121000Y638000D02*
X121000Y650000D01*
D14*
X252000Y307000D03*
X186000Y455000D03*
X252000Y329000D03*
X200000Y455000D03*
X264000Y251000D03*
X149000Y421000D03*
X126000Y406000D03*
X253000Y229000D03*
X134000Y406000D03*
X253000Y237000D03*
X264000Y340000D03*
X206275Y449725D03*
X24000Y363000D03*
X88000Y513000D03*
X252000Y264000D03*
X158000Y414000D03*
X252000Y274000D03*
X166000Y411000D03*
X36000Y409000D03*
X31000Y263000D03*
X48000Y407000D03*
X31230Y252000D03*
X29000Y355000D03*
X30000Y340000D03*
X30000Y329000D03*
X31000Y307000D03*
X252000Y318000D03*
X193000Y450000D03*
X252000Y285000D03*
X179750Y450000D03*
M02*
