G04 EAGLE Gerber RS-274X export*
G75*
%MOMM*%
%FSLAX34Y34*%
%LPD*%
%IN*%
%IPPOS*%
%AMOC8*
5,1,8,0,0,1.08239X$1,22.5*%
G01*
%ADD10C,0.254000*%


D10*
X0Y0D02*
X270000Y0D01*
X270000Y800000D01*
X0Y800000D01*
X0Y0D01*
X32500Y659509D02*
X32423Y658530D01*
X32269Y657560D01*
X32040Y656604D01*
X31736Y655670D01*
X31361Y654763D01*
X30915Y653888D01*
X30401Y653050D01*
X29824Y652255D01*
X29186Y651508D01*
X28492Y650814D01*
X27745Y650176D01*
X26950Y649599D01*
X26112Y649085D01*
X25237Y648639D01*
X24330Y648264D01*
X23396Y647960D01*
X22441Y647731D01*
X21470Y647577D01*
X20491Y647500D01*
X19509Y647500D01*
X18530Y647577D01*
X17560Y647731D01*
X16604Y647960D01*
X15670Y648264D01*
X14763Y648639D01*
X13888Y649085D01*
X13050Y649599D01*
X12255Y650176D01*
X11508Y650814D01*
X10814Y651508D01*
X10176Y652255D01*
X9599Y653050D01*
X9085Y653888D01*
X8639Y654763D01*
X8264Y655670D01*
X7960Y656604D01*
X7731Y657560D01*
X7577Y658530D01*
X7500Y659509D01*
X7500Y660491D01*
X7577Y661470D01*
X7731Y662441D01*
X7960Y663396D01*
X8264Y664330D01*
X8639Y665237D01*
X9085Y666112D01*
X9599Y666950D01*
X10176Y667745D01*
X10814Y668492D01*
X11508Y669186D01*
X12255Y669824D01*
X13050Y670401D01*
X13888Y670915D01*
X14763Y671361D01*
X15670Y671736D01*
X16604Y672040D01*
X17560Y672269D01*
X18530Y672423D01*
X19509Y672500D01*
X20491Y672500D01*
X21470Y672423D01*
X22441Y672269D01*
X23396Y672040D01*
X24330Y671736D01*
X25237Y671361D01*
X26112Y670915D01*
X26950Y670401D01*
X27745Y669824D01*
X28492Y669186D01*
X29186Y668492D01*
X29824Y667745D01*
X30401Y666950D01*
X30915Y666112D01*
X31361Y665237D01*
X31736Y664330D01*
X32040Y663396D01*
X32269Y662441D01*
X32423Y661470D01*
X32500Y660491D01*
X32500Y659509D01*
X262500Y659509D02*
X262423Y658530D01*
X262269Y657560D01*
X262040Y656604D01*
X261736Y655670D01*
X261361Y654763D01*
X260915Y653888D01*
X260401Y653050D01*
X259824Y652255D01*
X259186Y651508D01*
X258492Y650814D01*
X257745Y650176D01*
X256950Y649599D01*
X256112Y649085D01*
X255237Y648639D01*
X254330Y648264D01*
X253396Y647960D01*
X252441Y647731D01*
X251470Y647577D01*
X250491Y647500D01*
X249509Y647500D01*
X248530Y647577D01*
X247560Y647731D01*
X246604Y647960D01*
X245670Y648264D01*
X244763Y648639D01*
X243888Y649085D01*
X243050Y649599D01*
X242255Y650176D01*
X241508Y650814D01*
X240814Y651508D01*
X240176Y652255D01*
X239599Y653050D01*
X239085Y653888D01*
X238639Y654763D01*
X238264Y655670D01*
X237960Y656604D01*
X237731Y657560D01*
X237577Y658530D01*
X237500Y659509D01*
X237500Y660491D01*
X237577Y661470D01*
X237731Y662441D01*
X237960Y663396D01*
X238264Y664330D01*
X238639Y665237D01*
X239085Y666112D01*
X239599Y666950D01*
X240176Y667745D01*
X240814Y668492D01*
X241508Y669186D01*
X242255Y669824D01*
X243050Y670401D01*
X243888Y670915D01*
X244763Y671361D01*
X245670Y671736D01*
X246604Y672040D01*
X247560Y672269D01*
X248530Y672423D01*
X249509Y672500D01*
X250491Y672500D01*
X251470Y672423D01*
X252441Y672269D01*
X253396Y672040D01*
X254330Y671736D01*
X255237Y671361D01*
X256112Y670915D01*
X256950Y670401D01*
X257745Y669824D01*
X258492Y669186D01*
X259186Y668492D01*
X259824Y667745D01*
X260401Y666950D01*
X260915Y666112D01*
X261361Y665237D01*
X261736Y664330D01*
X262040Y663396D01*
X262269Y662441D01*
X262423Y661470D01*
X262500Y660491D01*
X262500Y659509D01*
X32500Y159509D02*
X32423Y158530D01*
X32269Y157560D01*
X32040Y156604D01*
X31736Y155670D01*
X31361Y154763D01*
X30915Y153888D01*
X30401Y153050D01*
X29824Y152255D01*
X29186Y151508D01*
X28492Y150814D01*
X27745Y150176D01*
X26950Y149599D01*
X26112Y149085D01*
X25237Y148639D01*
X24330Y148264D01*
X23396Y147960D01*
X22441Y147731D01*
X21470Y147577D01*
X20491Y147500D01*
X19509Y147500D01*
X18530Y147577D01*
X17560Y147731D01*
X16604Y147960D01*
X15670Y148264D01*
X14763Y148639D01*
X13888Y149085D01*
X13050Y149599D01*
X12255Y150176D01*
X11508Y150814D01*
X10814Y151508D01*
X10176Y152255D01*
X9599Y153050D01*
X9085Y153888D01*
X8639Y154763D01*
X8264Y155670D01*
X7960Y156604D01*
X7731Y157560D01*
X7577Y158530D01*
X7500Y159509D01*
X7500Y160491D01*
X7577Y161470D01*
X7731Y162441D01*
X7960Y163396D01*
X8264Y164330D01*
X8639Y165237D01*
X9085Y166112D01*
X9599Y166950D01*
X10176Y167745D01*
X10814Y168492D01*
X11508Y169186D01*
X12255Y169824D01*
X13050Y170401D01*
X13888Y170915D01*
X14763Y171361D01*
X15670Y171736D01*
X16604Y172040D01*
X17560Y172269D01*
X18530Y172423D01*
X19509Y172500D01*
X20491Y172500D01*
X21470Y172423D01*
X22441Y172269D01*
X23396Y172040D01*
X24330Y171736D01*
X25237Y171361D01*
X26112Y170915D01*
X26950Y170401D01*
X27745Y169824D01*
X28492Y169186D01*
X29186Y168492D01*
X29824Y167745D01*
X30401Y166950D01*
X30915Y166112D01*
X31361Y165237D01*
X31736Y164330D01*
X32040Y163396D01*
X32269Y162441D01*
X32423Y161470D01*
X32500Y160491D01*
X32500Y159509D01*
M02*
