G04 EAGLE Gerber RS-274X export*
G75*
%MOMM*%
%FSLAX34Y34*%
%LPD*%
%INSilkscreen Bottom*%
%IPPOS*%
%AMOC8*
5,1,8,0,0,1.08239X$1,22.5*%
G01*
%ADD10C,0.279400*%
%ADD11C,0.127000*%
%ADD12C,0.152400*%
%ADD13C,0.050800*%


D10*
X225603Y179383D02*
X220608Y164397D01*
X215612Y179383D01*
X206545Y170225D02*
X202799Y170225D01*
X206545Y170225D02*
X206651Y170223D01*
X206758Y170217D01*
X206864Y170208D01*
X206969Y170194D01*
X207074Y170177D01*
X207179Y170155D01*
X207282Y170130D01*
X207385Y170101D01*
X207486Y170069D01*
X207586Y170033D01*
X207685Y169993D01*
X207782Y169949D01*
X207877Y169903D01*
X207971Y169852D01*
X208063Y169798D01*
X208153Y169741D01*
X208241Y169681D01*
X208326Y169617D01*
X208409Y169551D01*
X208490Y169481D01*
X208568Y169409D01*
X208643Y169334D01*
X208715Y169256D01*
X208785Y169175D01*
X208851Y169092D01*
X208915Y169007D01*
X208975Y168919D01*
X209032Y168829D01*
X209086Y168737D01*
X209137Y168643D01*
X209183Y168548D01*
X209227Y168451D01*
X209267Y168352D01*
X209303Y168252D01*
X209335Y168151D01*
X209364Y168048D01*
X209389Y167945D01*
X209411Y167840D01*
X209428Y167735D01*
X209442Y167630D01*
X209451Y167524D01*
X209457Y167417D01*
X209459Y167311D01*
X209457Y167205D01*
X209451Y167098D01*
X209442Y166992D01*
X209428Y166887D01*
X209411Y166782D01*
X209389Y166677D01*
X209364Y166574D01*
X209335Y166471D01*
X209303Y166370D01*
X209267Y166270D01*
X209227Y166171D01*
X209183Y166074D01*
X209137Y165979D01*
X209086Y165885D01*
X209032Y165793D01*
X208975Y165703D01*
X208915Y165615D01*
X208851Y165530D01*
X208785Y165447D01*
X208715Y165366D01*
X208643Y165288D01*
X208568Y165213D01*
X208490Y165141D01*
X208409Y165071D01*
X208326Y165005D01*
X208241Y164941D01*
X208153Y164881D01*
X208063Y164824D01*
X207971Y164770D01*
X207877Y164719D01*
X207782Y164673D01*
X207685Y164629D01*
X207586Y164589D01*
X207486Y164553D01*
X207385Y164521D01*
X207282Y164492D01*
X207179Y164467D01*
X207074Y164445D01*
X206969Y164428D01*
X206864Y164414D01*
X206758Y164405D01*
X206651Y164399D01*
X206545Y164397D01*
X202799Y164397D01*
X202799Y171890D01*
X202798Y171890D02*
X202800Y171988D01*
X202806Y172086D01*
X202815Y172184D01*
X202829Y172281D01*
X202846Y172377D01*
X202867Y172473D01*
X202892Y172568D01*
X202920Y172662D01*
X202952Y172755D01*
X202988Y172846D01*
X203027Y172936D01*
X203070Y173024D01*
X203117Y173111D01*
X203166Y173195D01*
X203219Y173278D01*
X203275Y173358D01*
X203334Y173437D01*
X203397Y173512D01*
X203462Y173586D01*
X203530Y173656D01*
X203600Y173724D01*
X203674Y173790D01*
X203750Y173852D01*
X203828Y173911D01*
X203908Y173967D01*
X203991Y174020D01*
X204075Y174070D01*
X204162Y174116D01*
X204250Y174159D01*
X204340Y174198D01*
X204431Y174234D01*
X204524Y174266D01*
X204618Y174294D01*
X204713Y174319D01*
X204809Y174340D01*
X204905Y174357D01*
X205002Y174371D01*
X205100Y174380D01*
X205198Y174386D01*
X205296Y174388D01*
X208627Y174388D01*
X195802Y159402D02*
X194137Y159402D01*
X189141Y174388D01*
X195802Y174388D02*
X192472Y164397D01*
X182255Y166895D02*
X182255Y174388D01*
X182255Y166895D02*
X182253Y166797D01*
X182247Y166699D01*
X182238Y166601D01*
X182224Y166504D01*
X182207Y166408D01*
X182186Y166312D01*
X182161Y166217D01*
X182133Y166123D01*
X182101Y166030D01*
X182065Y165939D01*
X182026Y165849D01*
X181983Y165761D01*
X181936Y165674D01*
X181887Y165590D01*
X181834Y165507D01*
X181778Y165427D01*
X181719Y165349D01*
X181657Y165273D01*
X181591Y165199D01*
X181523Y165129D01*
X181453Y165061D01*
X181379Y164996D01*
X181304Y164933D01*
X181225Y164874D01*
X181145Y164818D01*
X181062Y164765D01*
X180978Y164716D01*
X180891Y164669D01*
X180803Y164626D01*
X180713Y164587D01*
X180622Y164551D01*
X180529Y164519D01*
X180435Y164491D01*
X180340Y164466D01*
X180244Y164445D01*
X180148Y164428D01*
X180051Y164414D01*
X179953Y164405D01*
X179855Y164399D01*
X179757Y164397D01*
X175594Y164397D01*
X175594Y174388D01*
X168708Y162732D02*
X162047Y162732D01*
X154813Y164397D02*
X154813Y179383D01*
X150650Y179383D01*
X150522Y179381D01*
X150394Y179375D01*
X150266Y179365D01*
X150138Y179351D01*
X150011Y179334D01*
X149885Y179312D01*
X149759Y179287D01*
X149635Y179257D01*
X149511Y179224D01*
X149388Y179187D01*
X149266Y179146D01*
X149146Y179102D01*
X149027Y179054D01*
X148910Y179002D01*
X148794Y178947D01*
X148681Y178888D01*
X148569Y178825D01*
X148458Y178759D01*
X148351Y178690D01*
X148245Y178618D01*
X148141Y178542D01*
X148040Y178463D01*
X147941Y178381D01*
X147845Y178296D01*
X147752Y178209D01*
X147661Y178118D01*
X147574Y178025D01*
X147489Y177929D01*
X147407Y177830D01*
X147328Y177729D01*
X147252Y177625D01*
X147180Y177519D01*
X147111Y177412D01*
X147045Y177302D01*
X146982Y177189D01*
X146923Y177076D01*
X146868Y176960D01*
X146816Y176843D01*
X146768Y176724D01*
X146724Y176604D01*
X146683Y176482D01*
X146646Y176359D01*
X146613Y176235D01*
X146583Y176111D01*
X146558Y175985D01*
X146536Y175859D01*
X146519Y175732D01*
X146505Y175604D01*
X146495Y175476D01*
X146489Y175348D01*
X146487Y175220D01*
X146489Y175092D01*
X146495Y174964D01*
X146505Y174836D01*
X146519Y174708D01*
X146536Y174581D01*
X146558Y174455D01*
X146583Y174329D01*
X146613Y174205D01*
X146646Y174081D01*
X146683Y173958D01*
X146724Y173836D01*
X146768Y173716D01*
X146816Y173597D01*
X146868Y173480D01*
X146923Y173364D01*
X146982Y173251D01*
X147045Y173139D01*
X147111Y173028D01*
X147180Y172921D01*
X147252Y172815D01*
X147328Y172711D01*
X147407Y172610D01*
X147489Y172511D01*
X147574Y172415D01*
X147661Y172322D01*
X147752Y172231D01*
X147845Y172144D01*
X147941Y172059D01*
X148040Y171977D01*
X148141Y171898D01*
X148245Y171822D01*
X148351Y171750D01*
X148458Y171681D01*
X148568Y171615D01*
X148681Y171552D01*
X148794Y171493D01*
X148910Y171438D01*
X149027Y171386D01*
X149146Y171338D01*
X149266Y171294D01*
X149388Y171253D01*
X149511Y171216D01*
X149635Y171183D01*
X149759Y171153D01*
X149885Y171128D01*
X150011Y171106D01*
X150138Y171089D01*
X150266Y171075D01*
X150394Y171065D01*
X150522Y171059D01*
X150650Y171057D01*
X154813Y171057D01*
X149818Y171057D02*
X146487Y164397D01*
X139320Y176053D02*
X135157Y179383D01*
X135157Y164397D01*
X139320Y164397D02*
X130994Y164397D01*
X124521Y164397D02*
X119526Y179383D01*
X114531Y164397D01*
X115779Y168144D02*
X123272Y168144D01*
X224603Y155383D02*
X224603Y140397D01*
X219608Y147057D02*
X224603Y155383D01*
X219608Y147057D02*
X214612Y155383D01*
X214612Y140397D01*
X203982Y146225D02*
X200236Y146225D01*
X203982Y146225D02*
X204088Y146223D01*
X204195Y146217D01*
X204301Y146208D01*
X204406Y146194D01*
X204511Y146177D01*
X204616Y146155D01*
X204719Y146130D01*
X204822Y146101D01*
X204923Y146069D01*
X205023Y146033D01*
X205122Y145993D01*
X205219Y145949D01*
X205314Y145903D01*
X205408Y145852D01*
X205500Y145798D01*
X205590Y145741D01*
X205678Y145681D01*
X205763Y145617D01*
X205846Y145551D01*
X205927Y145481D01*
X206005Y145409D01*
X206080Y145334D01*
X206152Y145256D01*
X206222Y145175D01*
X206288Y145092D01*
X206352Y145007D01*
X206412Y144919D01*
X206469Y144829D01*
X206523Y144737D01*
X206574Y144643D01*
X206620Y144548D01*
X206664Y144451D01*
X206704Y144352D01*
X206740Y144252D01*
X206772Y144151D01*
X206801Y144048D01*
X206826Y143945D01*
X206848Y143840D01*
X206865Y143735D01*
X206879Y143630D01*
X206888Y143524D01*
X206894Y143417D01*
X206896Y143311D01*
X206894Y143205D01*
X206888Y143098D01*
X206879Y142992D01*
X206865Y142887D01*
X206848Y142782D01*
X206826Y142677D01*
X206801Y142574D01*
X206772Y142471D01*
X206740Y142370D01*
X206704Y142270D01*
X206664Y142171D01*
X206620Y142074D01*
X206574Y141979D01*
X206523Y141885D01*
X206469Y141793D01*
X206412Y141703D01*
X206352Y141615D01*
X206288Y141530D01*
X206222Y141447D01*
X206152Y141366D01*
X206080Y141288D01*
X206005Y141213D01*
X205927Y141141D01*
X205846Y141071D01*
X205763Y141005D01*
X205678Y140941D01*
X205590Y140881D01*
X205500Y140824D01*
X205408Y140770D01*
X205314Y140719D01*
X205219Y140673D01*
X205122Y140629D01*
X205023Y140589D01*
X204923Y140553D01*
X204822Y140521D01*
X204719Y140492D01*
X204616Y140467D01*
X204511Y140445D01*
X204406Y140428D01*
X204301Y140414D01*
X204195Y140405D01*
X204088Y140399D01*
X203982Y140397D01*
X200236Y140397D01*
X200236Y147890D01*
X200235Y147890D02*
X200237Y147988D01*
X200243Y148086D01*
X200252Y148184D01*
X200266Y148281D01*
X200283Y148377D01*
X200304Y148473D01*
X200329Y148568D01*
X200357Y148662D01*
X200389Y148755D01*
X200425Y148846D01*
X200464Y148936D01*
X200507Y149024D01*
X200554Y149111D01*
X200603Y149195D01*
X200656Y149278D01*
X200712Y149358D01*
X200771Y149437D01*
X200834Y149512D01*
X200899Y149586D01*
X200967Y149656D01*
X201037Y149724D01*
X201111Y149790D01*
X201187Y149852D01*
X201265Y149911D01*
X201345Y149967D01*
X201428Y150020D01*
X201512Y150070D01*
X201599Y150116D01*
X201687Y150159D01*
X201777Y150198D01*
X201868Y150234D01*
X201961Y150266D01*
X202055Y150294D01*
X202150Y150319D01*
X202246Y150340D01*
X202342Y150357D01*
X202439Y150371D01*
X202537Y150380D01*
X202635Y150386D01*
X202733Y150388D01*
X206064Y150388D01*
X192069Y150388D02*
X192069Y140397D01*
X192069Y150388D02*
X187073Y150388D01*
X187073Y148723D01*
X181776Y147057D02*
X181776Y143727D01*
X181775Y147057D02*
X181773Y147171D01*
X181767Y147284D01*
X181758Y147398D01*
X181744Y147510D01*
X181727Y147623D01*
X181705Y147735D01*
X181680Y147845D01*
X181652Y147955D01*
X181619Y148064D01*
X181583Y148172D01*
X181543Y148279D01*
X181499Y148384D01*
X181452Y148487D01*
X181402Y148589D01*
X181348Y148689D01*
X181290Y148787D01*
X181229Y148883D01*
X181166Y148977D01*
X181098Y149069D01*
X181028Y149159D01*
X180955Y149245D01*
X180879Y149330D01*
X180800Y149412D01*
X180718Y149491D01*
X180633Y149567D01*
X180547Y149640D01*
X180457Y149710D01*
X180365Y149778D01*
X180271Y149841D01*
X180175Y149902D01*
X180077Y149960D01*
X179977Y150014D01*
X179875Y150064D01*
X179772Y150111D01*
X179667Y150155D01*
X179560Y150195D01*
X179452Y150231D01*
X179343Y150264D01*
X179233Y150292D01*
X179123Y150317D01*
X179011Y150339D01*
X178898Y150356D01*
X178786Y150370D01*
X178672Y150379D01*
X178559Y150385D01*
X178445Y150387D01*
X178331Y150385D01*
X178218Y150379D01*
X178104Y150370D01*
X177992Y150356D01*
X177879Y150339D01*
X177767Y150317D01*
X177657Y150292D01*
X177547Y150264D01*
X177438Y150231D01*
X177330Y150195D01*
X177223Y150155D01*
X177118Y150111D01*
X177015Y150064D01*
X176913Y150014D01*
X176813Y149960D01*
X176715Y149902D01*
X176619Y149841D01*
X176525Y149778D01*
X176433Y149710D01*
X176343Y149640D01*
X176257Y149567D01*
X176172Y149491D01*
X176090Y149412D01*
X176011Y149330D01*
X175935Y149245D01*
X175862Y149159D01*
X175792Y149069D01*
X175724Y148977D01*
X175661Y148883D01*
X175600Y148787D01*
X175542Y148689D01*
X175488Y148589D01*
X175438Y148487D01*
X175391Y148384D01*
X175347Y148279D01*
X175307Y148172D01*
X175271Y148064D01*
X175238Y147955D01*
X175210Y147845D01*
X175185Y147735D01*
X175163Y147623D01*
X175146Y147510D01*
X175132Y147398D01*
X175123Y147284D01*
X175117Y147171D01*
X175115Y147057D01*
X175115Y143727D01*
X175117Y143613D01*
X175123Y143500D01*
X175132Y143386D01*
X175146Y143274D01*
X175163Y143161D01*
X175185Y143049D01*
X175210Y142939D01*
X175238Y142829D01*
X175271Y142720D01*
X175307Y142612D01*
X175347Y142505D01*
X175391Y142400D01*
X175438Y142297D01*
X175488Y142195D01*
X175542Y142095D01*
X175600Y141997D01*
X175661Y141901D01*
X175724Y141807D01*
X175792Y141715D01*
X175862Y141625D01*
X175935Y141539D01*
X176011Y141454D01*
X176090Y141372D01*
X176172Y141293D01*
X176257Y141217D01*
X176343Y141144D01*
X176433Y141074D01*
X176525Y141006D01*
X176619Y140943D01*
X176715Y140882D01*
X176813Y140824D01*
X176913Y140770D01*
X177015Y140720D01*
X177118Y140673D01*
X177223Y140629D01*
X177330Y140589D01*
X177438Y140553D01*
X177547Y140520D01*
X177657Y140492D01*
X177767Y140467D01*
X177879Y140445D01*
X177992Y140428D01*
X178104Y140414D01*
X178218Y140405D01*
X178331Y140399D01*
X178445Y140397D01*
X178559Y140399D01*
X178672Y140405D01*
X178786Y140414D01*
X178898Y140428D01*
X179011Y140445D01*
X179123Y140467D01*
X179233Y140492D01*
X179343Y140520D01*
X179452Y140553D01*
X179560Y140589D01*
X179667Y140629D01*
X179772Y140673D01*
X179875Y140720D01*
X179977Y140770D01*
X180077Y140824D01*
X180175Y140882D01*
X180271Y140943D01*
X180365Y141006D01*
X180457Y141074D01*
X180547Y141144D01*
X180633Y141217D01*
X180718Y141293D01*
X180800Y141372D01*
X180879Y141454D01*
X180955Y141539D01*
X181028Y141625D01*
X181098Y141715D01*
X181166Y141807D01*
X181229Y141901D01*
X181290Y141997D01*
X181348Y142095D01*
X181402Y142195D01*
X181452Y142297D01*
X181499Y142400D01*
X181543Y142505D01*
X181583Y142612D01*
X181619Y142720D01*
X181652Y142829D01*
X181680Y142939D01*
X181705Y143049D01*
X181727Y143161D01*
X181744Y143274D01*
X181758Y143386D01*
X181767Y143500D01*
X181773Y143613D01*
X181775Y143727D01*
X168136Y142895D02*
X168136Y155383D01*
X168136Y142895D02*
X168134Y142797D01*
X168128Y142699D01*
X168119Y142601D01*
X168105Y142504D01*
X168088Y142408D01*
X168067Y142312D01*
X168042Y142217D01*
X168014Y142123D01*
X167982Y142030D01*
X167946Y141939D01*
X167907Y141849D01*
X167864Y141761D01*
X167817Y141674D01*
X167768Y141590D01*
X167715Y141507D01*
X167659Y141427D01*
X167600Y141349D01*
X167538Y141273D01*
X167472Y141199D01*
X167404Y141129D01*
X167334Y141061D01*
X167260Y140996D01*
X167185Y140933D01*
X167106Y140874D01*
X167026Y140818D01*
X166943Y140765D01*
X166859Y140716D01*
X166772Y140669D01*
X166684Y140626D01*
X166594Y140587D01*
X166503Y140551D01*
X166410Y140519D01*
X166316Y140491D01*
X166221Y140466D01*
X166125Y140445D01*
X166029Y140428D01*
X165932Y140414D01*
X165834Y140405D01*
X165736Y140399D01*
X165638Y140397D01*
X160209Y140397D02*
X160209Y150388D01*
X160625Y154550D02*
X160625Y155383D01*
X159793Y155383D01*
X159793Y154550D01*
X160625Y154550D01*
X150836Y146225D02*
X147090Y146225D01*
X150836Y146225D02*
X150942Y146223D01*
X151049Y146217D01*
X151155Y146208D01*
X151260Y146194D01*
X151365Y146177D01*
X151470Y146155D01*
X151573Y146130D01*
X151676Y146101D01*
X151777Y146069D01*
X151877Y146033D01*
X151976Y145993D01*
X152073Y145949D01*
X152168Y145903D01*
X152262Y145852D01*
X152354Y145798D01*
X152444Y145741D01*
X152532Y145681D01*
X152617Y145617D01*
X152700Y145551D01*
X152781Y145481D01*
X152859Y145409D01*
X152934Y145334D01*
X153006Y145256D01*
X153076Y145175D01*
X153142Y145092D01*
X153206Y145007D01*
X153266Y144919D01*
X153323Y144829D01*
X153377Y144737D01*
X153428Y144643D01*
X153474Y144548D01*
X153518Y144451D01*
X153558Y144352D01*
X153594Y144252D01*
X153626Y144151D01*
X153655Y144048D01*
X153680Y143945D01*
X153702Y143840D01*
X153719Y143735D01*
X153733Y143630D01*
X153742Y143524D01*
X153748Y143417D01*
X153750Y143311D01*
X153748Y143205D01*
X153742Y143098D01*
X153733Y142992D01*
X153719Y142887D01*
X153702Y142782D01*
X153680Y142677D01*
X153655Y142574D01*
X153626Y142471D01*
X153594Y142370D01*
X153558Y142270D01*
X153518Y142171D01*
X153474Y142074D01*
X153428Y141979D01*
X153377Y141885D01*
X153323Y141793D01*
X153266Y141703D01*
X153206Y141615D01*
X153142Y141530D01*
X153076Y141447D01*
X153006Y141366D01*
X152934Y141288D01*
X152859Y141213D01*
X152781Y141141D01*
X152700Y141071D01*
X152617Y141005D01*
X152532Y140941D01*
X152444Y140881D01*
X152354Y140824D01*
X152262Y140770D01*
X152168Y140719D01*
X152073Y140673D01*
X151976Y140629D01*
X151877Y140589D01*
X151777Y140553D01*
X151676Y140521D01*
X151573Y140492D01*
X151470Y140467D01*
X151365Y140445D01*
X151260Y140428D01*
X151155Y140414D01*
X151049Y140405D01*
X150942Y140399D01*
X150836Y140397D01*
X147090Y140397D01*
X147090Y147890D01*
X147089Y147890D02*
X147091Y147988D01*
X147097Y148086D01*
X147106Y148184D01*
X147120Y148281D01*
X147137Y148377D01*
X147158Y148473D01*
X147183Y148568D01*
X147211Y148662D01*
X147243Y148755D01*
X147279Y148846D01*
X147318Y148936D01*
X147361Y149024D01*
X147408Y149111D01*
X147457Y149195D01*
X147510Y149278D01*
X147566Y149358D01*
X147625Y149437D01*
X147688Y149512D01*
X147753Y149586D01*
X147821Y149656D01*
X147891Y149724D01*
X147965Y149790D01*
X148041Y149852D01*
X148119Y149911D01*
X148199Y149967D01*
X148282Y150020D01*
X148366Y150070D01*
X148453Y150116D01*
X148541Y150159D01*
X148631Y150198D01*
X148722Y150234D01*
X148815Y150266D01*
X148909Y150294D01*
X149004Y150319D01*
X149100Y150340D01*
X149196Y150357D01*
X149293Y150371D01*
X149391Y150380D01*
X149489Y150386D01*
X149587Y150388D01*
X152917Y150388D01*
D11*
X19317Y684616D02*
X19317Y685759D01*
X15507Y685759D01*
X15507Y683473D01*
X15509Y683396D01*
X15515Y683319D01*
X15525Y683242D01*
X15538Y683166D01*
X15556Y683091D01*
X15577Y683017D01*
X15602Y682944D01*
X15631Y682872D01*
X15663Y682802D01*
X15698Y682733D01*
X15738Y682667D01*
X15780Y682602D01*
X15826Y682540D01*
X15875Y682480D01*
X15926Y682423D01*
X15981Y682368D01*
X16038Y682317D01*
X16098Y682268D01*
X16160Y682222D01*
X16225Y682180D01*
X16291Y682140D01*
X16360Y682105D01*
X16430Y682073D01*
X16502Y682044D01*
X16575Y682019D01*
X16649Y681998D01*
X16724Y681980D01*
X16800Y681967D01*
X16877Y681957D01*
X16954Y681951D01*
X17031Y681949D01*
X20841Y681949D01*
X20918Y681951D01*
X20995Y681957D01*
X21072Y681967D01*
X21148Y681980D01*
X21223Y681998D01*
X21297Y682019D01*
X21370Y682044D01*
X21442Y682073D01*
X21512Y682105D01*
X21581Y682140D01*
X21647Y682180D01*
X21712Y682222D01*
X21774Y682268D01*
X21834Y682317D01*
X21891Y682368D01*
X21946Y682423D01*
X21997Y682480D01*
X22046Y682540D01*
X22092Y682602D01*
X22134Y682667D01*
X22174Y682733D01*
X22209Y682802D01*
X22241Y682872D01*
X22270Y682944D01*
X22295Y683017D01*
X22316Y683091D01*
X22334Y683166D01*
X22347Y683242D01*
X22357Y683319D01*
X22363Y683396D01*
X22365Y683473D01*
X22365Y685759D01*
X22365Y689752D02*
X15507Y689752D01*
X15507Y693562D02*
X22365Y689752D01*
X22365Y693562D02*
X15507Y693562D01*
X15507Y697555D02*
X22365Y697555D01*
X22365Y699460D01*
X22363Y699545D01*
X22357Y699631D01*
X22348Y699716D01*
X22334Y699800D01*
X22317Y699884D01*
X22296Y699967D01*
X22272Y700049D01*
X22244Y700129D01*
X22212Y700209D01*
X22176Y700287D01*
X22138Y700363D01*
X22095Y700437D01*
X22050Y700509D01*
X22001Y700580D01*
X21949Y700648D01*
X21895Y700713D01*
X21837Y700776D01*
X21776Y700837D01*
X21713Y700895D01*
X21648Y700949D01*
X21580Y701001D01*
X21509Y701050D01*
X21437Y701095D01*
X21363Y701138D01*
X21287Y701176D01*
X21209Y701212D01*
X21129Y701244D01*
X21049Y701272D01*
X20967Y701296D01*
X20884Y701317D01*
X20800Y701334D01*
X20716Y701348D01*
X20631Y701357D01*
X20545Y701363D01*
X20460Y701365D01*
X17412Y701365D01*
X17327Y701363D01*
X17241Y701357D01*
X17156Y701348D01*
X17072Y701334D01*
X16988Y701317D01*
X16905Y701296D01*
X16823Y701272D01*
X16743Y701244D01*
X16663Y701212D01*
X16585Y701176D01*
X16509Y701138D01*
X16435Y701095D01*
X16363Y701050D01*
X16292Y701001D01*
X16224Y700949D01*
X16159Y700895D01*
X16096Y700837D01*
X16035Y700776D01*
X15977Y700713D01*
X15923Y700648D01*
X15871Y700580D01*
X15822Y700509D01*
X15777Y700437D01*
X15734Y700363D01*
X15696Y700287D01*
X15660Y700209D01*
X15628Y700129D01*
X15600Y700049D01*
X15576Y699967D01*
X15555Y699884D01*
X15538Y699800D01*
X15524Y699716D01*
X15515Y699631D01*
X15509Y699545D01*
X15507Y699460D01*
X15507Y697555D01*
X34174Y679932D02*
X34174Y675360D01*
X31888Y677646D02*
X36460Y677646D01*
X36841Y683544D02*
X38365Y685449D01*
X31507Y685449D01*
X31507Y683544D02*
X31507Y687354D01*
X38366Y692954D02*
X38364Y693036D01*
X38358Y693117D01*
X38349Y693198D01*
X38335Y693279D01*
X38318Y693358D01*
X38297Y693437D01*
X38272Y693515D01*
X38243Y693591D01*
X38211Y693666D01*
X38175Y693740D01*
X38136Y693812D01*
X38094Y693881D01*
X38048Y693949D01*
X37999Y694014D01*
X37947Y694077D01*
X37892Y694137D01*
X37834Y694195D01*
X37774Y694250D01*
X37711Y694302D01*
X37646Y694351D01*
X37578Y694397D01*
X37509Y694439D01*
X37437Y694478D01*
X37363Y694514D01*
X37288Y694546D01*
X37212Y694575D01*
X37134Y694600D01*
X37055Y694621D01*
X36976Y694638D01*
X36895Y694652D01*
X36814Y694661D01*
X36733Y694667D01*
X36651Y694669D01*
X38365Y692954D02*
X38363Y692862D01*
X38357Y692770D01*
X38348Y692678D01*
X38334Y692586D01*
X38317Y692496D01*
X38296Y692406D01*
X38271Y692317D01*
X38242Y692229D01*
X38210Y692142D01*
X38174Y692057D01*
X38135Y691974D01*
X38092Y691892D01*
X38046Y691812D01*
X37996Y691734D01*
X37944Y691658D01*
X37888Y691585D01*
X37829Y691514D01*
X37767Y691445D01*
X37702Y691379D01*
X37635Y691316D01*
X37565Y691256D01*
X37493Y691198D01*
X37418Y691144D01*
X37341Y691093D01*
X37262Y691045D01*
X37181Y691001D01*
X37098Y690960D01*
X37014Y690922D01*
X36928Y690888D01*
X36841Y690858D01*
X35317Y694097D02*
X35376Y694156D01*
X35437Y694212D01*
X35500Y694265D01*
X35566Y694316D01*
X35634Y694363D01*
X35704Y694407D01*
X35776Y694448D01*
X35850Y694486D01*
X35925Y694520D01*
X36002Y694551D01*
X36080Y694578D01*
X36160Y694602D01*
X36240Y694623D01*
X36321Y694639D01*
X36403Y694652D01*
X36485Y694662D01*
X36568Y694667D01*
X36651Y694669D01*
X35317Y694097D02*
X31507Y690859D01*
X31507Y694669D01*
X31507Y700079D02*
X38365Y697793D01*
X38365Y702365D02*
X31507Y700079D01*
X55507Y664348D02*
X62365Y664348D01*
X59317Y664348D02*
X59317Y668158D01*
X62365Y668158D02*
X55507Y668158D01*
X55507Y672172D02*
X55507Y675220D01*
X55507Y672172D02*
X62365Y672172D01*
X62365Y675220D01*
X59317Y674458D02*
X59317Y672172D01*
X55507Y677866D02*
X62365Y680152D01*
X55507Y682438D01*
X57222Y681866D02*
X57222Y678437D01*
X55507Y686979D02*
X62365Y686979D01*
X62365Y685074D02*
X62365Y688884D01*
X55507Y692167D02*
X55507Y695215D01*
X55507Y692167D02*
X62365Y692167D01*
X62365Y695215D01*
X59317Y694453D02*
X59317Y692167D01*
X62365Y698555D02*
X55507Y698555D01*
X62365Y698555D02*
X62365Y700460D01*
X62363Y700545D01*
X62357Y700631D01*
X62348Y700716D01*
X62334Y700800D01*
X62317Y700884D01*
X62296Y700967D01*
X62272Y701049D01*
X62244Y701129D01*
X62212Y701209D01*
X62176Y701287D01*
X62138Y701363D01*
X62095Y701437D01*
X62050Y701509D01*
X62001Y701580D01*
X61949Y701648D01*
X61895Y701713D01*
X61837Y701776D01*
X61776Y701837D01*
X61713Y701895D01*
X61648Y701949D01*
X61580Y702001D01*
X61509Y702050D01*
X61437Y702095D01*
X61363Y702138D01*
X61287Y702176D01*
X61209Y702212D01*
X61129Y702244D01*
X61049Y702272D01*
X60967Y702296D01*
X60884Y702317D01*
X60800Y702334D01*
X60716Y702348D01*
X60631Y702357D01*
X60545Y702363D01*
X60460Y702365D01*
X60375Y702363D01*
X60289Y702357D01*
X60204Y702348D01*
X60120Y702334D01*
X60036Y702317D01*
X59953Y702296D01*
X59871Y702272D01*
X59791Y702244D01*
X59711Y702212D01*
X59633Y702176D01*
X59557Y702138D01*
X59483Y702095D01*
X59411Y702050D01*
X59340Y702001D01*
X59272Y701949D01*
X59207Y701895D01*
X59144Y701837D01*
X59083Y701776D01*
X59025Y701713D01*
X58971Y701648D01*
X58919Y701580D01*
X58870Y701509D01*
X58825Y701437D01*
X58782Y701363D01*
X58744Y701287D01*
X58708Y701209D01*
X58676Y701129D01*
X58648Y701049D01*
X58624Y700967D01*
X58603Y700884D01*
X58586Y700800D01*
X58572Y700716D01*
X58563Y700631D01*
X58557Y700545D01*
X58555Y700460D01*
X58555Y698555D01*
X58555Y700841D02*
X55507Y702365D01*
X110174Y654247D02*
X110174Y649675D01*
X107888Y651961D02*
X112460Y651961D01*
X112841Y657858D02*
X114365Y659763D01*
X107507Y659763D01*
X107507Y657858D02*
X107507Y661668D01*
X114366Y667269D02*
X114364Y667351D01*
X114358Y667432D01*
X114349Y667513D01*
X114335Y667594D01*
X114318Y667673D01*
X114297Y667752D01*
X114272Y667830D01*
X114243Y667906D01*
X114211Y667981D01*
X114175Y668055D01*
X114136Y668127D01*
X114094Y668196D01*
X114048Y668264D01*
X113999Y668329D01*
X113947Y668392D01*
X113892Y668452D01*
X113834Y668510D01*
X113774Y668565D01*
X113711Y668617D01*
X113646Y668666D01*
X113578Y668712D01*
X113509Y668754D01*
X113437Y668793D01*
X113363Y668829D01*
X113288Y668861D01*
X113212Y668890D01*
X113134Y668915D01*
X113055Y668936D01*
X112976Y668953D01*
X112895Y668967D01*
X112814Y668976D01*
X112733Y668982D01*
X112651Y668984D01*
X114365Y667269D02*
X114363Y667177D01*
X114357Y667085D01*
X114348Y666993D01*
X114334Y666901D01*
X114317Y666811D01*
X114296Y666721D01*
X114271Y666632D01*
X114242Y666544D01*
X114210Y666457D01*
X114174Y666372D01*
X114135Y666289D01*
X114092Y666207D01*
X114046Y666127D01*
X113996Y666049D01*
X113944Y665973D01*
X113888Y665900D01*
X113829Y665829D01*
X113767Y665760D01*
X113702Y665694D01*
X113635Y665631D01*
X113565Y665571D01*
X113493Y665513D01*
X113418Y665459D01*
X113341Y665408D01*
X113262Y665360D01*
X113181Y665316D01*
X113098Y665275D01*
X113014Y665237D01*
X112928Y665203D01*
X112841Y665173D01*
X111317Y668412D02*
X111376Y668471D01*
X111437Y668527D01*
X111500Y668580D01*
X111566Y668631D01*
X111634Y668678D01*
X111704Y668722D01*
X111776Y668763D01*
X111850Y668801D01*
X111925Y668835D01*
X112002Y668866D01*
X112080Y668893D01*
X112160Y668917D01*
X112240Y668938D01*
X112321Y668954D01*
X112403Y668967D01*
X112485Y668977D01*
X112568Y668982D01*
X112651Y668984D01*
X111317Y668412D02*
X107507Y665174D01*
X107507Y668984D01*
X107507Y674394D02*
X114365Y672108D01*
X114365Y676680D02*
X107507Y674394D01*
X106745Y679454D02*
X106745Y682502D01*
X107507Y685921D02*
X114365Y685921D01*
X114365Y688969D01*
X111317Y688969D02*
X111317Y685921D01*
X107507Y691615D02*
X114365Y693901D01*
X107507Y696187D01*
X109222Y695615D02*
X109222Y692186D01*
X107507Y699555D02*
X114365Y699555D01*
X107507Y703365D01*
X114365Y703365D01*
X146507Y653817D02*
X153365Y653817D01*
X153365Y656865D01*
X150317Y656865D02*
X150317Y653817D01*
X146507Y659510D02*
X153365Y661796D01*
X146507Y664082D01*
X148222Y663511D02*
X148222Y660082D01*
X146507Y667450D02*
X153365Y667450D01*
X146507Y671260D01*
X153365Y671260D01*
X145745Y674659D02*
X145745Y677707D01*
X146507Y681265D02*
X153365Y681265D01*
X153365Y683170D01*
X153363Y683255D01*
X153357Y683341D01*
X153348Y683426D01*
X153334Y683510D01*
X153317Y683594D01*
X153296Y683677D01*
X153272Y683759D01*
X153244Y683839D01*
X153212Y683919D01*
X153176Y683997D01*
X153138Y684073D01*
X153095Y684147D01*
X153050Y684219D01*
X153001Y684290D01*
X152949Y684358D01*
X152895Y684423D01*
X152837Y684486D01*
X152776Y684547D01*
X152713Y684605D01*
X152648Y684659D01*
X152580Y684711D01*
X152509Y684760D01*
X152437Y684805D01*
X152363Y684848D01*
X152287Y684886D01*
X152209Y684922D01*
X152129Y684954D01*
X152049Y684982D01*
X151967Y685006D01*
X151884Y685027D01*
X151800Y685044D01*
X151716Y685058D01*
X151631Y685067D01*
X151545Y685073D01*
X151460Y685075D01*
X151375Y685073D01*
X151289Y685067D01*
X151204Y685058D01*
X151120Y685044D01*
X151036Y685027D01*
X150953Y685006D01*
X150871Y684982D01*
X150791Y684954D01*
X150711Y684922D01*
X150633Y684886D01*
X150557Y684848D01*
X150483Y684805D01*
X150411Y684760D01*
X150340Y684711D01*
X150272Y684659D01*
X150207Y684605D01*
X150144Y684547D01*
X150083Y684486D01*
X150025Y684423D01*
X149971Y684358D01*
X149919Y684290D01*
X149870Y684219D01*
X149825Y684147D01*
X149782Y684073D01*
X149744Y683997D01*
X149708Y683919D01*
X149676Y683839D01*
X149648Y683759D01*
X149624Y683677D01*
X149603Y683594D01*
X149586Y683510D01*
X149572Y683426D01*
X149563Y683341D01*
X149557Y683255D01*
X149555Y683170D01*
X149555Y681265D01*
X153365Y688009D02*
X146507Y689533D01*
X151079Y691057D01*
X146507Y692581D01*
X153365Y694105D01*
X153365Y697793D02*
X146507Y697793D01*
X149555Y700079D02*
X153365Y697793D01*
X149555Y700079D02*
X153365Y702365D01*
X146507Y702365D01*
X168507Y645932D02*
X175365Y645932D01*
X175365Y648980D01*
X172317Y648980D02*
X172317Y645932D01*
X168507Y651625D02*
X175365Y653911D01*
X168507Y656197D01*
X170222Y655626D02*
X170222Y652197D01*
X168507Y659565D02*
X175365Y659565D01*
X168507Y663375D01*
X175365Y663375D01*
X167745Y666774D02*
X167745Y669822D01*
X168507Y674394D02*
X175365Y674394D01*
X175365Y672489D02*
X175365Y676299D01*
X168507Y679582D02*
X168507Y682630D01*
X168507Y679582D02*
X175365Y679582D01*
X175365Y682630D01*
X172317Y681868D02*
X172317Y679582D01*
X168507Y687149D02*
X168507Y688673D01*
X168507Y687149D02*
X168509Y687072D01*
X168515Y686995D01*
X168525Y686918D01*
X168538Y686842D01*
X168556Y686767D01*
X168577Y686693D01*
X168602Y686620D01*
X168631Y686548D01*
X168663Y686478D01*
X168698Y686409D01*
X168738Y686343D01*
X168780Y686278D01*
X168826Y686216D01*
X168875Y686156D01*
X168926Y686099D01*
X168981Y686044D01*
X169038Y685993D01*
X169098Y685944D01*
X169160Y685898D01*
X169225Y685856D01*
X169291Y685816D01*
X169360Y685781D01*
X169430Y685749D01*
X169502Y685720D01*
X169575Y685695D01*
X169649Y685674D01*
X169724Y685656D01*
X169800Y685643D01*
X169877Y685633D01*
X169954Y685627D01*
X170031Y685625D01*
X173841Y685625D01*
X173918Y685627D01*
X173995Y685633D01*
X174072Y685643D01*
X174148Y685656D01*
X174223Y685674D01*
X174297Y685695D01*
X174370Y685720D01*
X174442Y685749D01*
X174512Y685781D01*
X174581Y685816D01*
X174647Y685856D01*
X174712Y685898D01*
X174774Y685944D01*
X174834Y685993D01*
X174891Y686044D01*
X174946Y686099D01*
X174997Y686156D01*
X175046Y686216D01*
X175092Y686278D01*
X175134Y686343D01*
X175174Y686409D01*
X175209Y686478D01*
X175241Y686548D01*
X175270Y686620D01*
X175295Y686693D01*
X175316Y686767D01*
X175334Y686842D01*
X175347Y686918D01*
X175357Y686995D01*
X175363Y687072D01*
X175365Y687149D01*
X175365Y688673D01*
X175365Y691996D02*
X168507Y691996D01*
X172317Y691996D02*
X172317Y695806D01*
X175365Y695806D02*
X168507Y695806D01*
X170412Y699555D02*
X173460Y699555D01*
X173545Y699557D01*
X173631Y699563D01*
X173716Y699572D01*
X173800Y699586D01*
X173884Y699603D01*
X173967Y699624D01*
X174049Y699648D01*
X174129Y699676D01*
X174209Y699708D01*
X174287Y699744D01*
X174363Y699782D01*
X174437Y699825D01*
X174509Y699870D01*
X174580Y699919D01*
X174648Y699971D01*
X174713Y700025D01*
X174776Y700083D01*
X174837Y700144D01*
X174895Y700207D01*
X174949Y700272D01*
X175001Y700340D01*
X175050Y700411D01*
X175095Y700483D01*
X175138Y700557D01*
X175176Y700633D01*
X175212Y700711D01*
X175244Y700791D01*
X175272Y700871D01*
X175296Y700953D01*
X175317Y701036D01*
X175334Y701120D01*
X175348Y701204D01*
X175357Y701289D01*
X175363Y701375D01*
X175365Y701460D01*
X175363Y701545D01*
X175357Y701631D01*
X175348Y701716D01*
X175334Y701800D01*
X175317Y701884D01*
X175296Y701967D01*
X175272Y702049D01*
X175244Y702129D01*
X175212Y702209D01*
X175176Y702287D01*
X175138Y702363D01*
X175095Y702437D01*
X175050Y702509D01*
X175001Y702580D01*
X174949Y702648D01*
X174895Y702713D01*
X174837Y702776D01*
X174776Y702837D01*
X174713Y702895D01*
X174648Y702949D01*
X174580Y703001D01*
X174509Y703050D01*
X174437Y703095D01*
X174363Y703138D01*
X174287Y703176D01*
X174209Y703212D01*
X174129Y703244D01*
X174049Y703272D01*
X173967Y703296D01*
X173884Y703317D01*
X173800Y703334D01*
X173716Y703348D01*
X173631Y703357D01*
X173545Y703363D01*
X173460Y703365D01*
X170412Y703365D01*
X170327Y703363D01*
X170241Y703357D01*
X170156Y703348D01*
X170072Y703334D01*
X169988Y703317D01*
X169905Y703296D01*
X169823Y703272D01*
X169743Y703244D01*
X169663Y703212D01*
X169585Y703176D01*
X169509Y703138D01*
X169435Y703095D01*
X169363Y703050D01*
X169292Y703001D01*
X169224Y702949D01*
X169159Y702895D01*
X169096Y702837D01*
X169035Y702776D01*
X168977Y702713D01*
X168923Y702648D01*
X168871Y702580D01*
X168822Y702509D01*
X168777Y702437D01*
X168734Y702363D01*
X168696Y702287D01*
X168660Y702209D01*
X168628Y702129D01*
X168600Y702049D01*
X168576Y701967D01*
X168555Y701884D01*
X168538Y701800D01*
X168524Y701716D01*
X168515Y701631D01*
X168509Y701545D01*
X168507Y701460D01*
X168509Y701375D01*
X168515Y701289D01*
X168524Y701204D01*
X168538Y701120D01*
X168555Y701036D01*
X168576Y700953D01*
X168600Y700871D01*
X168628Y700791D01*
X168660Y700711D01*
X168696Y700633D01*
X168734Y700557D01*
X168777Y700483D01*
X168822Y700411D01*
X168871Y700340D01*
X168923Y700272D01*
X168977Y700207D01*
X169035Y700144D01*
X169096Y700083D01*
X169159Y700025D01*
X169224Y699971D01*
X169292Y699919D01*
X169363Y699870D01*
X169435Y699825D01*
X169509Y699782D01*
X169585Y699744D01*
X169663Y699708D01*
X169743Y699676D01*
X169823Y699648D01*
X169905Y699624D01*
X169988Y699603D01*
X170072Y699586D01*
X170156Y699572D01*
X170241Y699563D01*
X170327Y699557D01*
X170412Y699555D01*
X245507Y686450D02*
X252365Y686450D01*
X245507Y690260D01*
X252365Y690260D01*
X252365Y695426D02*
X245507Y695426D01*
X252365Y693521D02*
X252365Y697331D01*
X245507Y701841D02*
X245507Y703365D01*
X245507Y701841D02*
X245509Y701764D01*
X245515Y701687D01*
X245525Y701610D01*
X245538Y701534D01*
X245556Y701459D01*
X245577Y701385D01*
X245602Y701312D01*
X245631Y701240D01*
X245663Y701170D01*
X245698Y701101D01*
X245738Y701035D01*
X245780Y700970D01*
X245826Y700908D01*
X245875Y700848D01*
X245926Y700791D01*
X245981Y700736D01*
X246038Y700685D01*
X246098Y700636D01*
X246160Y700590D01*
X246225Y700548D01*
X246291Y700508D01*
X246360Y700473D01*
X246430Y700441D01*
X246502Y700412D01*
X246575Y700387D01*
X246649Y700366D01*
X246724Y700348D01*
X246800Y700335D01*
X246877Y700325D01*
X246954Y700319D01*
X247031Y700317D01*
X250841Y700317D01*
X250918Y700319D01*
X250995Y700325D01*
X251072Y700335D01*
X251148Y700348D01*
X251223Y700366D01*
X251297Y700387D01*
X251370Y700412D01*
X251442Y700441D01*
X251512Y700473D01*
X251581Y700508D01*
X251647Y700548D01*
X251712Y700590D01*
X251774Y700636D01*
X251834Y700685D01*
X251891Y700736D01*
X251946Y700791D01*
X251997Y700848D01*
X252046Y700908D01*
X252092Y700970D01*
X252134Y701035D01*
X252174Y701101D01*
X252209Y701170D01*
X252241Y701240D01*
X252270Y701312D01*
X252295Y701385D01*
X252316Y701459D01*
X252334Y701534D01*
X252347Y701610D01*
X252357Y701687D01*
X252363Y701764D01*
X252365Y701841D01*
X252365Y703365D01*
X226365Y686450D02*
X219507Y686450D01*
X219507Y690260D02*
X226365Y686450D01*
X226365Y690260D02*
X219507Y690260D01*
X219507Y695426D02*
X226365Y695426D01*
X226365Y693521D02*
X226365Y697331D01*
X219507Y701841D02*
X219507Y703365D01*
X219507Y701841D02*
X219509Y701764D01*
X219515Y701687D01*
X219525Y701610D01*
X219538Y701534D01*
X219556Y701459D01*
X219577Y701385D01*
X219602Y701312D01*
X219631Y701240D01*
X219663Y701170D01*
X219698Y701101D01*
X219738Y701035D01*
X219780Y700970D01*
X219826Y700908D01*
X219875Y700848D01*
X219926Y700791D01*
X219981Y700736D01*
X220038Y700685D01*
X220098Y700636D01*
X220160Y700590D01*
X220225Y700548D01*
X220291Y700508D01*
X220360Y700473D01*
X220430Y700441D01*
X220502Y700412D01*
X220575Y700387D01*
X220649Y700366D01*
X220724Y700348D01*
X220800Y700335D01*
X220877Y700325D01*
X220954Y700319D01*
X221031Y700317D01*
X224841Y700317D01*
X224918Y700319D01*
X224995Y700325D01*
X225072Y700335D01*
X225148Y700348D01*
X225223Y700366D01*
X225297Y700387D01*
X225370Y700412D01*
X225442Y700441D01*
X225512Y700473D01*
X225581Y700508D01*
X225647Y700548D01*
X225712Y700590D01*
X225774Y700636D01*
X225834Y700685D01*
X225891Y700736D01*
X225946Y700791D01*
X225997Y700848D01*
X226046Y700908D01*
X226092Y700970D01*
X226134Y701035D01*
X226174Y701101D01*
X226209Y701170D01*
X226241Y701240D01*
X226270Y701312D01*
X226295Y701385D01*
X226316Y701459D01*
X226334Y701534D01*
X226347Y701610D01*
X226357Y701687D01*
X226363Y701764D01*
X226365Y701841D01*
X226365Y703365D01*
X87365Y664348D02*
X80507Y664348D01*
X84317Y664348D02*
X84317Y668158D01*
X87365Y668158D02*
X80507Y668158D01*
X80507Y672172D02*
X80507Y675220D01*
X80507Y672172D02*
X87365Y672172D01*
X87365Y675220D01*
X84317Y674458D02*
X84317Y672172D01*
X80507Y677866D02*
X87365Y680152D01*
X80507Y682438D01*
X82222Y681866D02*
X82222Y678437D01*
X80507Y686979D02*
X87365Y686979D01*
X87365Y685074D02*
X87365Y688884D01*
X80507Y692167D02*
X80507Y695215D01*
X80507Y692167D02*
X87365Y692167D01*
X87365Y695215D01*
X84317Y694453D02*
X84317Y692167D01*
X87365Y698555D02*
X80507Y698555D01*
X87365Y698555D02*
X87365Y700460D01*
X87363Y700545D01*
X87357Y700631D01*
X87348Y700716D01*
X87334Y700800D01*
X87317Y700884D01*
X87296Y700967D01*
X87272Y701049D01*
X87244Y701129D01*
X87212Y701209D01*
X87176Y701287D01*
X87138Y701363D01*
X87095Y701437D01*
X87050Y701509D01*
X87001Y701580D01*
X86949Y701648D01*
X86895Y701713D01*
X86837Y701776D01*
X86776Y701837D01*
X86713Y701895D01*
X86648Y701949D01*
X86580Y702001D01*
X86509Y702050D01*
X86437Y702095D01*
X86363Y702138D01*
X86287Y702176D01*
X86209Y702212D01*
X86129Y702244D01*
X86049Y702272D01*
X85967Y702296D01*
X85884Y702317D01*
X85800Y702334D01*
X85716Y702348D01*
X85631Y702357D01*
X85545Y702363D01*
X85460Y702365D01*
X85375Y702363D01*
X85289Y702357D01*
X85204Y702348D01*
X85120Y702334D01*
X85036Y702317D01*
X84953Y702296D01*
X84871Y702272D01*
X84791Y702244D01*
X84711Y702212D01*
X84633Y702176D01*
X84557Y702138D01*
X84483Y702095D01*
X84411Y702050D01*
X84340Y702001D01*
X84272Y701949D01*
X84207Y701895D01*
X84144Y701837D01*
X84083Y701776D01*
X84025Y701713D01*
X83971Y701648D01*
X83919Y701580D01*
X83870Y701509D01*
X83825Y701437D01*
X83782Y701363D01*
X83744Y701287D01*
X83708Y701209D01*
X83676Y701129D01*
X83648Y701049D01*
X83624Y700967D01*
X83603Y700884D01*
X83586Y700800D01*
X83572Y700716D01*
X83563Y700631D01*
X83557Y700545D01*
X83555Y700460D01*
X83555Y698555D01*
X83555Y700841D02*
X80507Y702365D01*
X194507Y673592D02*
X201365Y673592D01*
X201365Y676640D01*
X198317Y676640D02*
X198317Y673592D01*
X194507Y679286D02*
X201365Y681572D01*
X194507Y683858D01*
X196222Y683286D02*
X196222Y679857D01*
X194507Y687226D02*
X201365Y687226D01*
X194507Y691036D01*
X201365Y691036D01*
X197174Y698793D02*
X197174Y703365D01*
D12*
X236738Y131898D02*
X236738Y123262D01*
X232900Y123262D01*
X229488Y123262D02*
X229488Y129019D01*
X229728Y131418D02*
X229728Y131898D01*
X229248Y131898D01*
X229248Y131418D01*
X229728Y131418D01*
X224162Y123262D02*
X222243Y123262D01*
X224162Y123262D02*
X224237Y123264D01*
X224312Y123270D01*
X224387Y123280D01*
X224461Y123293D01*
X224534Y123311D01*
X224607Y123332D01*
X224678Y123358D01*
X224747Y123386D01*
X224815Y123419D01*
X224882Y123455D01*
X224946Y123494D01*
X225008Y123537D01*
X225068Y123583D01*
X225125Y123632D01*
X225180Y123683D01*
X225231Y123738D01*
X225280Y123795D01*
X225326Y123855D01*
X225369Y123917D01*
X225408Y123982D01*
X225444Y124048D01*
X225477Y124116D01*
X225505Y124185D01*
X225531Y124256D01*
X225552Y124329D01*
X225570Y124402D01*
X225583Y124476D01*
X225593Y124551D01*
X225599Y124626D01*
X225601Y124701D01*
X225601Y127580D01*
X225599Y127655D01*
X225593Y127730D01*
X225583Y127805D01*
X225570Y127879D01*
X225552Y127952D01*
X225531Y128025D01*
X225505Y128096D01*
X225477Y128165D01*
X225444Y128233D01*
X225408Y128300D01*
X225369Y128364D01*
X225326Y128426D01*
X225280Y128486D01*
X225231Y128543D01*
X225180Y128598D01*
X225125Y128649D01*
X225068Y128698D01*
X225008Y128744D01*
X224946Y128787D01*
X224882Y128826D01*
X224815Y128862D01*
X224747Y128895D01*
X224678Y128923D01*
X224607Y128949D01*
X224534Y128970D01*
X224461Y128988D01*
X224387Y129001D01*
X224312Y129011D01*
X224237Y129017D01*
X224162Y129019D01*
X222243Y129019D01*
X217167Y123262D02*
X214768Y123262D01*
X217167Y123262D02*
X217242Y123264D01*
X217317Y123270D01*
X217392Y123280D01*
X217466Y123293D01*
X217539Y123311D01*
X217612Y123332D01*
X217683Y123358D01*
X217752Y123386D01*
X217820Y123419D01*
X217887Y123455D01*
X217951Y123494D01*
X218013Y123537D01*
X218073Y123583D01*
X218130Y123632D01*
X218185Y123683D01*
X218236Y123738D01*
X218285Y123795D01*
X218331Y123855D01*
X218374Y123917D01*
X218413Y123982D01*
X218449Y124048D01*
X218482Y124116D01*
X218510Y124185D01*
X218536Y124256D01*
X218557Y124329D01*
X218575Y124402D01*
X218588Y124476D01*
X218598Y124551D01*
X218604Y124626D01*
X218606Y124701D01*
X218606Y127100D01*
X218604Y127186D01*
X218598Y127272D01*
X218589Y127358D01*
X218575Y127443D01*
X218558Y127527D01*
X218537Y127611D01*
X218512Y127693D01*
X218484Y127774D01*
X218452Y127854D01*
X218416Y127933D01*
X218377Y128009D01*
X218334Y128084D01*
X218289Y128157D01*
X218240Y128228D01*
X218187Y128296D01*
X218132Y128363D01*
X218074Y128426D01*
X218013Y128487D01*
X217950Y128545D01*
X217883Y128600D01*
X217815Y128653D01*
X217744Y128702D01*
X217671Y128747D01*
X217596Y128790D01*
X217520Y128829D01*
X217441Y128865D01*
X217361Y128897D01*
X217280Y128925D01*
X217198Y128950D01*
X217114Y128971D01*
X217030Y128988D01*
X216945Y129002D01*
X216859Y129011D01*
X216773Y129017D01*
X216687Y129019D01*
X216601Y129017D01*
X216515Y129011D01*
X216429Y129002D01*
X216344Y128988D01*
X216260Y128971D01*
X216176Y128950D01*
X216094Y128925D01*
X216013Y128897D01*
X215933Y128865D01*
X215854Y128829D01*
X215778Y128790D01*
X215703Y128747D01*
X215630Y128702D01*
X215559Y128653D01*
X215491Y128600D01*
X215424Y128545D01*
X215361Y128487D01*
X215300Y128426D01*
X215242Y128363D01*
X215187Y128296D01*
X215134Y128228D01*
X215085Y128157D01*
X215040Y128084D01*
X214997Y128009D01*
X214958Y127933D01*
X214922Y127854D01*
X214890Y127774D01*
X214862Y127693D01*
X214837Y127611D01*
X214816Y127527D01*
X214799Y127443D01*
X214785Y127358D01*
X214776Y127272D01*
X214770Y127186D01*
X214768Y127100D01*
X214768Y126141D01*
X218606Y126141D01*
X210376Y129019D02*
X210376Y123262D01*
X210376Y129019D02*
X207977Y129019D01*
X207902Y129017D01*
X207827Y129011D01*
X207752Y129001D01*
X207678Y128988D01*
X207605Y128970D01*
X207532Y128949D01*
X207461Y128923D01*
X207392Y128895D01*
X207324Y128862D01*
X207258Y128826D01*
X207193Y128787D01*
X207131Y128744D01*
X207071Y128698D01*
X207014Y128649D01*
X206959Y128598D01*
X206908Y128543D01*
X206859Y128486D01*
X206813Y128426D01*
X206770Y128364D01*
X206731Y128300D01*
X206695Y128233D01*
X206662Y128165D01*
X206634Y128096D01*
X206608Y128025D01*
X206587Y127952D01*
X206569Y127879D01*
X206556Y127805D01*
X206546Y127730D01*
X206540Y127655D01*
X206538Y127580D01*
X206538Y123262D01*
X201427Y126620D02*
X199028Y125661D01*
X201427Y126620D02*
X201490Y126647D01*
X201552Y126678D01*
X201612Y126713D01*
X201670Y126750D01*
X201726Y126791D01*
X201779Y126834D01*
X201830Y126881D01*
X201878Y126930D01*
X201924Y126982D01*
X201966Y127037D01*
X202006Y127094D01*
X202042Y127152D01*
X202075Y127213D01*
X202104Y127275D01*
X202130Y127339D01*
X202153Y127405D01*
X202171Y127471D01*
X202186Y127539D01*
X202198Y127607D01*
X202205Y127675D01*
X202209Y127744D01*
X202208Y127813D01*
X202204Y127882D01*
X202196Y127951D01*
X202185Y128019D01*
X202169Y128086D01*
X202150Y128153D01*
X202128Y128218D01*
X202101Y128282D01*
X202071Y128344D01*
X202038Y128404D01*
X202001Y128463D01*
X201962Y128519D01*
X201919Y128574D01*
X201873Y128625D01*
X201825Y128674D01*
X201773Y128721D01*
X201720Y128764D01*
X201664Y128804D01*
X201605Y128841D01*
X201545Y128875D01*
X201483Y128906D01*
X201420Y128933D01*
X201355Y128956D01*
X201289Y128976D01*
X201222Y128992D01*
X201154Y129005D01*
X201085Y129013D01*
X201016Y129018D01*
X200947Y129019D01*
X200808Y129016D01*
X200669Y129008D01*
X200530Y128997D01*
X200392Y128983D01*
X200254Y128965D01*
X200116Y128944D01*
X199979Y128919D01*
X199843Y128890D01*
X199707Y128858D01*
X199573Y128823D01*
X199439Y128784D01*
X199306Y128742D01*
X199175Y128696D01*
X199045Y128647D01*
X198916Y128595D01*
X198788Y128540D01*
X199028Y125661D02*
X198965Y125634D01*
X198903Y125603D01*
X198843Y125568D01*
X198785Y125531D01*
X198729Y125490D01*
X198676Y125447D01*
X198625Y125400D01*
X198577Y125351D01*
X198531Y125299D01*
X198489Y125244D01*
X198449Y125187D01*
X198413Y125129D01*
X198380Y125068D01*
X198351Y125005D01*
X198325Y124942D01*
X198302Y124876D01*
X198284Y124810D01*
X198269Y124742D01*
X198257Y124674D01*
X198250Y124606D01*
X198246Y124537D01*
X198247Y124468D01*
X198251Y124399D01*
X198259Y124330D01*
X198270Y124262D01*
X198286Y124195D01*
X198305Y124128D01*
X198327Y124063D01*
X198354Y123999D01*
X198384Y123937D01*
X198417Y123877D01*
X198454Y123818D01*
X198493Y123762D01*
X198536Y123707D01*
X198582Y123656D01*
X198630Y123607D01*
X198682Y123560D01*
X198735Y123517D01*
X198791Y123477D01*
X198850Y123440D01*
X198910Y123406D01*
X198972Y123375D01*
X199035Y123348D01*
X199100Y123325D01*
X199166Y123305D01*
X199233Y123289D01*
X199301Y123276D01*
X199370Y123268D01*
X199439Y123263D01*
X199508Y123262D01*
X199508Y123263D02*
X199701Y123268D01*
X199893Y123277D01*
X200085Y123292D01*
X200276Y123310D01*
X200467Y123333D01*
X200658Y123361D01*
X200848Y123393D01*
X201036Y123430D01*
X201224Y123471D01*
X201411Y123517D01*
X201597Y123567D01*
X201782Y123621D01*
X201965Y123680D01*
X202147Y123743D01*
X192783Y123262D02*
X190384Y123262D01*
X192783Y123262D02*
X192858Y123264D01*
X192933Y123270D01*
X193008Y123280D01*
X193082Y123293D01*
X193155Y123311D01*
X193228Y123332D01*
X193299Y123358D01*
X193368Y123386D01*
X193436Y123419D01*
X193503Y123455D01*
X193567Y123494D01*
X193629Y123537D01*
X193689Y123583D01*
X193746Y123632D01*
X193801Y123683D01*
X193852Y123738D01*
X193901Y123795D01*
X193947Y123855D01*
X193990Y123917D01*
X194029Y123982D01*
X194065Y124048D01*
X194098Y124116D01*
X194126Y124185D01*
X194152Y124256D01*
X194173Y124329D01*
X194191Y124402D01*
X194204Y124476D01*
X194214Y124551D01*
X194220Y124626D01*
X194222Y124701D01*
X194222Y127100D01*
X194220Y127186D01*
X194214Y127272D01*
X194205Y127358D01*
X194191Y127443D01*
X194174Y127527D01*
X194153Y127611D01*
X194128Y127693D01*
X194100Y127774D01*
X194068Y127854D01*
X194032Y127933D01*
X193993Y128009D01*
X193950Y128084D01*
X193905Y128157D01*
X193856Y128228D01*
X193803Y128296D01*
X193748Y128363D01*
X193690Y128426D01*
X193629Y128487D01*
X193566Y128545D01*
X193499Y128600D01*
X193431Y128653D01*
X193360Y128702D01*
X193287Y128747D01*
X193212Y128790D01*
X193136Y128829D01*
X193057Y128865D01*
X192977Y128897D01*
X192896Y128925D01*
X192814Y128950D01*
X192730Y128971D01*
X192646Y128988D01*
X192561Y129002D01*
X192475Y129011D01*
X192389Y129017D01*
X192303Y129019D01*
X192217Y129017D01*
X192131Y129011D01*
X192045Y129002D01*
X191960Y128988D01*
X191876Y128971D01*
X191792Y128950D01*
X191710Y128925D01*
X191629Y128897D01*
X191549Y128865D01*
X191470Y128829D01*
X191394Y128790D01*
X191319Y128747D01*
X191246Y128702D01*
X191175Y128653D01*
X191107Y128600D01*
X191040Y128545D01*
X190977Y128487D01*
X190916Y128426D01*
X190858Y128363D01*
X190803Y128296D01*
X190750Y128228D01*
X190701Y128157D01*
X190656Y128084D01*
X190613Y128009D01*
X190574Y127933D01*
X190538Y127854D01*
X190506Y127774D01*
X190478Y127693D01*
X190453Y127611D01*
X190432Y127527D01*
X190415Y127443D01*
X190401Y127358D01*
X190392Y127272D01*
X190386Y127186D01*
X190384Y127100D01*
X190384Y126141D01*
X194222Y126141D01*
X182527Y123262D02*
X182527Y131898D01*
X182527Y123262D02*
X184926Y123262D01*
X185001Y123264D01*
X185076Y123270D01*
X185151Y123280D01*
X185225Y123293D01*
X185298Y123311D01*
X185371Y123332D01*
X185442Y123358D01*
X185511Y123386D01*
X185579Y123419D01*
X185646Y123455D01*
X185710Y123494D01*
X185772Y123537D01*
X185832Y123583D01*
X185889Y123632D01*
X185944Y123683D01*
X185995Y123738D01*
X186044Y123795D01*
X186090Y123855D01*
X186133Y123917D01*
X186172Y123982D01*
X186208Y124048D01*
X186241Y124116D01*
X186269Y124185D01*
X186295Y124256D01*
X186316Y124329D01*
X186334Y124402D01*
X186347Y124476D01*
X186357Y124551D01*
X186363Y124626D01*
X186365Y124701D01*
X186365Y127580D01*
X186363Y127655D01*
X186357Y127730D01*
X186347Y127805D01*
X186334Y127879D01*
X186316Y127952D01*
X186295Y128025D01*
X186269Y128096D01*
X186241Y128165D01*
X186208Y128233D01*
X186172Y128300D01*
X186133Y128364D01*
X186090Y128426D01*
X186044Y128486D01*
X185995Y128543D01*
X185944Y128598D01*
X185889Y128649D01*
X185832Y128698D01*
X185772Y128744D01*
X185710Y128787D01*
X185646Y128826D01*
X185579Y128862D01*
X185511Y128895D01*
X185442Y128923D01*
X185371Y128949D01*
X185298Y128970D01*
X185225Y128988D01*
X185151Y129001D01*
X185076Y129011D01*
X185001Y129017D01*
X184926Y129019D01*
X182527Y129019D01*
X172886Y129019D02*
X172886Y124701D01*
X172884Y124626D01*
X172878Y124551D01*
X172868Y124476D01*
X172855Y124402D01*
X172837Y124329D01*
X172816Y124256D01*
X172790Y124185D01*
X172762Y124116D01*
X172729Y124048D01*
X172693Y123982D01*
X172654Y123917D01*
X172611Y123855D01*
X172565Y123795D01*
X172516Y123738D01*
X172465Y123683D01*
X172410Y123632D01*
X172353Y123583D01*
X172293Y123537D01*
X172231Y123494D01*
X172167Y123455D01*
X172100Y123419D01*
X172032Y123386D01*
X171963Y123358D01*
X171892Y123332D01*
X171819Y123311D01*
X171746Y123293D01*
X171672Y123280D01*
X171597Y123270D01*
X171522Y123264D01*
X171447Y123262D01*
X169048Y123262D01*
X169048Y129019D01*
X164352Y129019D02*
X164352Y123262D01*
X164352Y129019D02*
X161953Y129019D01*
X161878Y129017D01*
X161803Y129011D01*
X161728Y129001D01*
X161654Y128988D01*
X161581Y128970D01*
X161508Y128949D01*
X161437Y128923D01*
X161368Y128895D01*
X161300Y128862D01*
X161234Y128826D01*
X161169Y128787D01*
X161107Y128744D01*
X161047Y128698D01*
X160990Y128649D01*
X160935Y128598D01*
X160884Y128543D01*
X160835Y128486D01*
X160789Y128426D01*
X160746Y128364D01*
X160707Y128300D01*
X160671Y128233D01*
X160638Y128165D01*
X160610Y128096D01*
X160584Y128025D01*
X160563Y127952D01*
X160545Y127879D01*
X160532Y127805D01*
X160522Y127730D01*
X160516Y127655D01*
X160514Y127580D01*
X160514Y123262D01*
X152352Y123262D02*
X152352Y131898D01*
X152352Y123262D02*
X154751Y123262D01*
X154826Y123264D01*
X154901Y123270D01*
X154976Y123280D01*
X155050Y123293D01*
X155123Y123311D01*
X155196Y123332D01*
X155267Y123358D01*
X155336Y123386D01*
X155404Y123419D01*
X155471Y123455D01*
X155535Y123494D01*
X155597Y123537D01*
X155657Y123583D01*
X155714Y123632D01*
X155769Y123683D01*
X155820Y123738D01*
X155869Y123795D01*
X155915Y123855D01*
X155958Y123917D01*
X155997Y123982D01*
X156033Y124048D01*
X156066Y124116D01*
X156094Y124185D01*
X156120Y124256D01*
X156141Y124329D01*
X156159Y124402D01*
X156172Y124476D01*
X156182Y124551D01*
X156188Y124626D01*
X156190Y124701D01*
X156190Y127580D01*
X156188Y127655D01*
X156182Y127730D01*
X156172Y127805D01*
X156159Y127879D01*
X156141Y127952D01*
X156120Y128025D01*
X156094Y128096D01*
X156066Y128165D01*
X156033Y128233D01*
X155997Y128300D01*
X155958Y128364D01*
X155915Y128426D01*
X155869Y128486D01*
X155820Y128543D01*
X155769Y128598D01*
X155714Y128649D01*
X155657Y128698D01*
X155597Y128744D01*
X155535Y128787D01*
X155471Y128826D01*
X155404Y128862D01*
X155336Y128895D01*
X155267Y128923D01*
X155196Y128949D01*
X155123Y128970D01*
X155050Y128988D01*
X154976Y129001D01*
X154901Y129011D01*
X154826Y129017D01*
X154751Y129019D01*
X152352Y129019D01*
X146453Y123262D02*
X144054Y123262D01*
X146453Y123262D02*
X146528Y123264D01*
X146603Y123270D01*
X146678Y123280D01*
X146752Y123293D01*
X146825Y123311D01*
X146898Y123332D01*
X146969Y123358D01*
X147038Y123386D01*
X147106Y123419D01*
X147173Y123455D01*
X147237Y123494D01*
X147299Y123537D01*
X147359Y123583D01*
X147416Y123632D01*
X147471Y123683D01*
X147522Y123738D01*
X147571Y123795D01*
X147617Y123855D01*
X147660Y123917D01*
X147699Y123982D01*
X147735Y124048D01*
X147768Y124116D01*
X147796Y124185D01*
X147822Y124256D01*
X147843Y124329D01*
X147861Y124402D01*
X147874Y124476D01*
X147884Y124551D01*
X147890Y124626D01*
X147892Y124701D01*
X147893Y124701D02*
X147893Y127100D01*
X147891Y127186D01*
X147885Y127272D01*
X147876Y127358D01*
X147862Y127443D01*
X147845Y127527D01*
X147824Y127611D01*
X147799Y127693D01*
X147771Y127774D01*
X147739Y127854D01*
X147703Y127933D01*
X147664Y128009D01*
X147621Y128084D01*
X147576Y128157D01*
X147527Y128228D01*
X147474Y128296D01*
X147419Y128363D01*
X147361Y128426D01*
X147300Y128487D01*
X147237Y128545D01*
X147170Y128600D01*
X147102Y128653D01*
X147031Y128702D01*
X146958Y128747D01*
X146883Y128790D01*
X146807Y128829D01*
X146728Y128865D01*
X146648Y128897D01*
X146567Y128925D01*
X146485Y128950D01*
X146401Y128971D01*
X146317Y128988D01*
X146232Y129002D01*
X146146Y129011D01*
X146060Y129017D01*
X145974Y129019D01*
X145888Y129017D01*
X145802Y129011D01*
X145716Y129002D01*
X145631Y128988D01*
X145547Y128971D01*
X145463Y128950D01*
X145381Y128925D01*
X145300Y128897D01*
X145220Y128865D01*
X145141Y128829D01*
X145065Y128790D01*
X144990Y128747D01*
X144917Y128702D01*
X144846Y128653D01*
X144778Y128600D01*
X144711Y128545D01*
X144648Y128487D01*
X144587Y128426D01*
X144529Y128363D01*
X144474Y128296D01*
X144421Y128228D01*
X144372Y128157D01*
X144327Y128084D01*
X144284Y128009D01*
X144245Y127933D01*
X144209Y127854D01*
X144177Y127774D01*
X144149Y127693D01*
X144124Y127611D01*
X144103Y127527D01*
X144086Y127443D01*
X144072Y127358D01*
X144063Y127272D01*
X144057Y127186D01*
X144055Y127100D01*
X144054Y127100D02*
X144054Y126141D01*
X147893Y126141D01*
X139587Y123262D02*
X139587Y129019D01*
X136708Y129019D01*
X136708Y128060D01*
X126680Y123262D02*
X124761Y123262D01*
X126680Y123262D02*
X126766Y123264D01*
X126852Y123270D01*
X126938Y123279D01*
X127023Y123293D01*
X127107Y123310D01*
X127191Y123331D01*
X127273Y123356D01*
X127354Y123384D01*
X127434Y123416D01*
X127513Y123452D01*
X127589Y123491D01*
X127664Y123534D01*
X127737Y123579D01*
X127808Y123629D01*
X127876Y123681D01*
X127943Y123736D01*
X128006Y123794D01*
X128067Y123855D01*
X128125Y123918D01*
X128180Y123985D01*
X128233Y124053D01*
X128282Y124124D01*
X128327Y124197D01*
X128370Y124272D01*
X128409Y124348D01*
X128445Y124427D01*
X128477Y124507D01*
X128505Y124588D01*
X128530Y124671D01*
X128551Y124754D01*
X128568Y124838D01*
X128582Y124923D01*
X128591Y125009D01*
X128597Y125095D01*
X128599Y125181D01*
X128599Y129979D01*
X128597Y130065D01*
X128591Y130151D01*
X128582Y130237D01*
X128568Y130322D01*
X128551Y130406D01*
X128530Y130490D01*
X128505Y130572D01*
X128477Y130653D01*
X128445Y130733D01*
X128409Y130812D01*
X128370Y130888D01*
X128327Y130963D01*
X128282Y131036D01*
X128233Y131107D01*
X128180Y131175D01*
X128125Y131242D01*
X128067Y131305D01*
X128006Y131366D01*
X127943Y131424D01*
X127877Y131479D01*
X127808Y131531D01*
X127737Y131581D01*
X127664Y131626D01*
X127589Y131669D01*
X127513Y131708D01*
X127434Y131744D01*
X127354Y131776D01*
X127273Y131804D01*
X127191Y131829D01*
X127107Y131850D01*
X127023Y131867D01*
X126938Y131881D01*
X126852Y131890D01*
X126766Y131896D01*
X126680Y131898D01*
X124761Y131898D01*
X120610Y123262D02*
X116772Y123262D01*
X120610Y123262D02*
X120610Y131898D01*
X116772Y131898D01*
X117731Y128060D02*
X120610Y128060D01*
X112626Y131898D02*
X112626Y123262D01*
X112626Y131898D02*
X110228Y131898D01*
X110131Y131896D01*
X110035Y131890D01*
X109939Y131881D01*
X109843Y131867D01*
X109748Y131850D01*
X109654Y131828D01*
X109561Y131803D01*
X109468Y131775D01*
X109377Y131742D01*
X109288Y131706D01*
X109200Y131666D01*
X109113Y131623D01*
X109029Y131577D01*
X108946Y131527D01*
X108865Y131473D01*
X108787Y131417D01*
X108711Y131357D01*
X108637Y131295D01*
X108566Y131229D01*
X108498Y131161D01*
X108432Y131090D01*
X108370Y131016D01*
X108310Y130940D01*
X108254Y130862D01*
X108200Y130781D01*
X108150Y130699D01*
X108104Y130614D01*
X108061Y130527D01*
X108021Y130439D01*
X107985Y130350D01*
X107952Y130259D01*
X107924Y130166D01*
X107899Y130073D01*
X107877Y129979D01*
X107860Y129884D01*
X107846Y129788D01*
X107837Y129692D01*
X107831Y129596D01*
X107829Y129499D01*
X107831Y129402D01*
X107837Y129306D01*
X107846Y129210D01*
X107860Y129114D01*
X107877Y129019D01*
X107899Y128925D01*
X107924Y128832D01*
X107952Y128739D01*
X107985Y128648D01*
X108021Y128559D01*
X108061Y128471D01*
X108104Y128384D01*
X108150Y128300D01*
X108200Y128217D01*
X108254Y128136D01*
X108310Y128058D01*
X108370Y127982D01*
X108432Y127908D01*
X108498Y127837D01*
X108566Y127769D01*
X108637Y127703D01*
X108711Y127641D01*
X108787Y127581D01*
X108865Y127525D01*
X108946Y127471D01*
X109028Y127421D01*
X109113Y127375D01*
X109200Y127332D01*
X109288Y127292D01*
X109377Y127256D01*
X109468Y127223D01*
X109561Y127195D01*
X109654Y127170D01*
X109748Y127148D01*
X109843Y127131D01*
X109939Y127117D01*
X110035Y127108D01*
X110131Y127102D01*
X110228Y127100D01*
X112626Y127100D01*
X109748Y127100D02*
X107829Y123262D01*
X103262Y123262D02*
X103262Y131898D01*
X98465Y123262D01*
X98465Y131898D01*
X93684Y126620D02*
X87926Y126620D01*
X83450Y125661D02*
X83450Y129499D01*
X83448Y129596D01*
X83442Y129692D01*
X83433Y129788D01*
X83419Y129884D01*
X83402Y129979D01*
X83380Y130073D01*
X83355Y130166D01*
X83327Y130259D01*
X83294Y130350D01*
X83258Y130439D01*
X83218Y130527D01*
X83175Y130614D01*
X83129Y130699D01*
X83079Y130781D01*
X83025Y130862D01*
X82969Y130940D01*
X82909Y131016D01*
X82847Y131090D01*
X82781Y131161D01*
X82713Y131229D01*
X82642Y131295D01*
X82568Y131357D01*
X82492Y131417D01*
X82414Y131473D01*
X82333Y131527D01*
X82251Y131577D01*
X82166Y131623D01*
X82079Y131666D01*
X81991Y131706D01*
X81902Y131742D01*
X81811Y131775D01*
X81718Y131803D01*
X81625Y131828D01*
X81531Y131850D01*
X81436Y131867D01*
X81340Y131881D01*
X81244Y131890D01*
X81148Y131896D01*
X81051Y131898D01*
X80954Y131896D01*
X80858Y131890D01*
X80762Y131881D01*
X80666Y131867D01*
X80571Y131850D01*
X80477Y131828D01*
X80384Y131803D01*
X80291Y131775D01*
X80200Y131742D01*
X80111Y131706D01*
X80023Y131666D01*
X79936Y131623D01*
X79852Y131577D01*
X79769Y131527D01*
X79688Y131473D01*
X79610Y131417D01*
X79534Y131357D01*
X79460Y131295D01*
X79389Y131229D01*
X79321Y131161D01*
X79255Y131090D01*
X79193Y131016D01*
X79133Y130940D01*
X79077Y130862D01*
X79023Y130781D01*
X78973Y130699D01*
X78927Y130614D01*
X78884Y130527D01*
X78844Y130439D01*
X78808Y130350D01*
X78775Y130259D01*
X78747Y130166D01*
X78722Y130073D01*
X78700Y129979D01*
X78683Y129884D01*
X78669Y129788D01*
X78660Y129692D01*
X78654Y129596D01*
X78652Y129499D01*
X78653Y129499D02*
X78653Y125661D01*
X78652Y125661D02*
X78654Y125564D01*
X78660Y125468D01*
X78669Y125372D01*
X78683Y125276D01*
X78700Y125181D01*
X78722Y125087D01*
X78747Y124994D01*
X78775Y124901D01*
X78808Y124810D01*
X78844Y124721D01*
X78884Y124633D01*
X78927Y124546D01*
X78973Y124462D01*
X79023Y124379D01*
X79077Y124298D01*
X79133Y124220D01*
X79193Y124144D01*
X79255Y124070D01*
X79321Y123999D01*
X79389Y123931D01*
X79460Y123865D01*
X79534Y123803D01*
X79610Y123743D01*
X79688Y123687D01*
X79769Y123633D01*
X79851Y123583D01*
X79936Y123537D01*
X80023Y123494D01*
X80111Y123454D01*
X80200Y123418D01*
X80291Y123385D01*
X80384Y123357D01*
X80477Y123332D01*
X80571Y123310D01*
X80666Y123293D01*
X80762Y123279D01*
X80858Y123270D01*
X80954Y123264D01*
X81051Y123262D01*
X81148Y123264D01*
X81244Y123270D01*
X81340Y123279D01*
X81436Y123293D01*
X81531Y123310D01*
X81625Y123332D01*
X81718Y123357D01*
X81811Y123385D01*
X81902Y123418D01*
X81991Y123454D01*
X82079Y123494D01*
X82166Y123537D01*
X82250Y123583D01*
X82333Y123633D01*
X82414Y123687D01*
X82492Y123743D01*
X82568Y123803D01*
X82642Y123865D01*
X82713Y123931D01*
X82781Y123999D01*
X82847Y124070D01*
X82909Y124144D01*
X82969Y124220D01*
X83025Y124298D01*
X83079Y124379D01*
X83129Y124461D01*
X83175Y124546D01*
X83218Y124633D01*
X83258Y124721D01*
X83294Y124810D01*
X83327Y124901D01*
X83355Y124994D01*
X83380Y125087D01*
X83402Y125181D01*
X83419Y125276D01*
X83433Y125372D01*
X83442Y125468D01*
X83448Y125564D01*
X83450Y125661D01*
X74002Y123262D02*
X74002Y131898D01*
X74002Y128060D02*
X69204Y128060D01*
X69204Y131898D02*
X69204Y123262D01*
X64222Y123262D02*
X64222Y131898D01*
X64222Y123262D02*
X60384Y123262D01*
X56498Y126620D02*
X50741Y126620D01*
X45765Y123262D02*
X45765Y131898D01*
X43366Y131898D01*
X43269Y131896D01*
X43173Y131890D01*
X43077Y131881D01*
X42981Y131867D01*
X42886Y131850D01*
X42792Y131828D01*
X42699Y131803D01*
X42606Y131775D01*
X42515Y131742D01*
X42426Y131706D01*
X42338Y131666D01*
X42251Y131623D01*
X42167Y131577D01*
X42084Y131527D01*
X42003Y131473D01*
X41925Y131417D01*
X41849Y131357D01*
X41775Y131295D01*
X41704Y131229D01*
X41636Y131161D01*
X41570Y131090D01*
X41508Y131016D01*
X41448Y130940D01*
X41392Y130862D01*
X41338Y130781D01*
X41288Y130699D01*
X41242Y130614D01*
X41199Y130527D01*
X41159Y130439D01*
X41123Y130350D01*
X41090Y130259D01*
X41062Y130166D01*
X41037Y130073D01*
X41015Y129979D01*
X40998Y129884D01*
X40984Y129788D01*
X40975Y129692D01*
X40969Y129596D01*
X40967Y129499D01*
X40969Y129402D01*
X40975Y129306D01*
X40984Y129210D01*
X40998Y129114D01*
X41015Y129019D01*
X41037Y128925D01*
X41062Y128832D01*
X41090Y128739D01*
X41123Y128648D01*
X41159Y128559D01*
X41199Y128471D01*
X41242Y128384D01*
X41288Y128300D01*
X41338Y128217D01*
X41392Y128136D01*
X41448Y128058D01*
X41508Y127982D01*
X41570Y127908D01*
X41636Y127837D01*
X41704Y127769D01*
X41775Y127703D01*
X41849Y127641D01*
X41925Y127581D01*
X42003Y127525D01*
X42084Y127471D01*
X42166Y127421D01*
X42251Y127375D01*
X42338Y127332D01*
X42426Y127292D01*
X42515Y127256D01*
X42606Y127223D01*
X42699Y127195D01*
X42792Y127170D01*
X42886Y127148D01*
X42981Y127131D01*
X43077Y127117D01*
X43173Y127108D01*
X43269Y127102D01*
X43366Y127100D01*
X45765Y127100D01*
X32679Y129019D02*
X30760Y123262D01*
X28841Y129019D01*
X22290Y131898D02*
X22198Y131896D01*
X22107Y131890D01*
X22016Y131881D01*
X21925Y131867D01*
X21835Y131850D01*
X21746Y131828D01*
X21658Y131803D01*
X21571Y131775D01*
X21485Y131742D01*
X21401Y131706D01*
X21318Y131667D01*
X21237Y131624D01*
X21158Y131577D01*
X21081Y131528D01*
X21006Y131475D01*
X20934Y131419D01*
X20864Y131360D01*
X20796Y131298D01*
X20731Y131233D01*
X20669Y131165D01*
X20610Y131095D01*
X20554Y131023D01*
X20501Y130948D01*
X20452Y130871D01*
X20405Y130792D01*
X20362Y130711D01*
X20323Y130628D01*
X20287Y130544D01*
X20254Y130458D01*
X20226Y130371D01*
X20201Y130283D01*
X20179Y130194D01*
X20162Y130104D01*
X20148Y130013D01*
X20139Y129922D01*
X20133Y129831D01*
X20131Y129739D01*
X22290Y131898D02*
X22393Y131896D01*
X22495Y131890D01*
X22597Y131881D01*
X22699Y131868D01*
X22800Y131851D01*
X22901Y131830D01*
X23000Y131806D01*
X23099Y131777D01*
X23196Y131746D01*
X23293Y131710D01*
X23388Y131672D01*
X23481Y131629D01*
X23573Y131583D01*
X23663Y131534D01*
X23751Y131482D01*
X23838Y131426D01*
X23922Y131367D01*
X24003Y131306D01*
X24083Y131241D01*
X24160Y131173D01*
X24235Y131102D01*
X24306Y131029D01*
X24375Y130953D01*
X24442Y130875D01*
X24505Y130794D01*
X24565Y130711D01*
X24622Y130626D01*
X24676Y130539D01*
X24727Y130449D01*
X24774Y130358D01*
X24818Y130266D01*
X24859Y130171D01*
X24896Y130076D01*
X24929Y129979D01*
X20851Y128060D02*
X20784Y128126D01*
X20720Y128195D01*
X20659Y128266D01*
X20601Y128340D01*
X20546Y128416D01*
X20494Y128494D01*
X20445Y128574D01*
X20399Y128656D01*
X20357Y128740D01*
X20318Y128826D01*
X20283Y128913D01*
X20252Y129001D01*
X20224Y129091D01*
X20199Y129181D01*
X20178Y129273D01*
X20161Y129365D01*
X20148Y129458D01*
X20139Y129551D01*
X20133Y129645D01*
X20131Y129739D01*
X20851Y128060D02*
X24929Y123262D01*
X20131Y123262D01*
D13*
X227094Y528954D02*
X227094Y534542D01*
X228646Y534542D02*
X225542Y534542D01*
X223260Y534542D02*
X223260Y528954D01*
X223260Y534542D02*
X221707Y534542D01*
X221630Y534540D01*
X221552Y534534D01*
X221476Y534525D01*
X221399Y534511D01*
X221324Y534494D01*
X221250Y534473D01*
X221176Y534448D01*
X221104Y534420D01*
X221034Y534388D01*
X220965Y534353D01*
X220898Y534314D01*
X220833Y534272D01*
X220770Y534227D01*
X220709Y534179D01*
X220651Y534128D01*
X220596Y534074D01*
X220543Y534017D01*
X220494Y533958D01*
X220447Y533896D01*
X220403Y533832D01*
X220363Y533766D01*
X220326Y533698D01*
X220292Y533628D01*
X220262Y533557D01*
X220236Y533484D01*
X220213Y533410D01*
X220194Y533335D01*
X220179Y533260D01*
X220167Y533183D01*
X220159Y533106D01*
X220155Y533029D01*
X220155Y532951D01*
X220159Y532874D01*
X220167Y532797D01*
X220179Y532720D01*
X220194Y532645D01*
X220213Y532570D01*
X220236Y532496D01*
X220262Y532423D01*
X220292Y532352D01*
X220326Y532282D01*
X220363Y532214D01*
X220403Y532148D01*
X220447Y532084D01*
X220494Y532022D01*
X220543Y531963D01*
X220596Y531906D01*
X220651Y531852D01*
X220709Y531801D01*
X220770Y531753D01*
X220833Y531708D01*
X220898Y531666D01*
X220965Y531627D01*
X221034Y531592D01*
X221104Y531560D01*
X221176Y531532D01*
X221250Y531507D01*
X221324Y531486D01*
X221399Y531469D01*
X221476Y531455D01*
X221552Y531446D01*
X221630Y531440D01*
X221707Y531438D01*
X223260Y531438D01*
X218039Y533300D02*
X216487Y534542D01*
X216487Y528954D01*
X218039Y528954D02*
X214935Y528954D01*
X227094Y509142D02*
X227094Y503554D01*
X228646Y509142D02*
X225542Y509142D01*
X223260Y509142D02*
X223260Y503554D01*
X223260Y509142D02*
X221707Y509142D01*
X221630Y509140D01*
X221552Y509134D01*
X221476Y509125D01*
X221399Y509111D01*
X221324Y509094D01*
X221250Y509073D01*
X221176Y509048D01*
X221104Y509020D01*
X221034Y508988D01*
X220965Y508953D01*
X220898Y508914D01*
X220833Y508872D01*
X220770Y508827D01*
X220709Y508779D01*
X220651Y508728D01*
X220596Y508674D01*
X220543Y508617D01*
X220494Y508558D01*
X220447Y508496D01*
X220403Y508432D01*
X220363Y508366D01*
X220326Y508298D01*
X220292Y508228D01*
X220262Y508157D01*
X220236Y508084D01*
X220213Y508010D01*
X220194Y507935D01*
X220179Y507860D01*
X220167Y507783D01*
X220159Y507706D01*
X220155Y507629D01*
X220155Y507551D01*
X220159Y507474D01*
X220167Y507397D01*
X220179Y507320D01*
X220194Y507245D01*
X220213Y507170D01*
X220236Y507096D01*
X220262Y507023D01*
X220292Y506952D01*
X220326Y506882D01*
X220363Y506814D01*
X220403Y506748D01*
X220447Y506684D01*
X220494Y506622D01*
X220543Y506563D01*
X220596Y506506D01*
X220651Y506452D01*
X220709Y506401D01*
X220770Y506353D01*
X220833Y506308D01*
X220898Y506266D01*
X220965Y506227D01*
X221034Y506192D01*
X221104Y506160D01*
X221176Y506132D01*
X221250Y506107D01*
X221324Y506086D01*
X221399Y506069D01*
X221476Y506055D01*
X221552Y506046D01*
X221630Y506040D01*
X221707Y506038D01*
X223260Y506038D01*
X216332Y509142D02*
X216259Y509140D01*
X216186Y509134D01*
X216113Y509125D01*
X216042Y509111D01*
X215970Y509094D01*
X215900Y509074D01*
X215831Y509049D01*
X215764Y509021D01*
X215698Y508990D01*
X215634Y508955D01*
X215571Y508917D01*
X215511Y508875D01*
X215453Y508831D01*
X215397Y508783D01*
X215344Y508733D01*
X215294Y508680D01*
X215246Y508624D01*
X215202Y508566D01*
X215160Y508506D01*
X215122Y508444D01*
X215087Y508379D01*
X215056Y508313D01*
X215028Y508246D01*
X215003Y508177D01*
X214983Y508107D01*
X214966Y508035D01*
X214952Y507964D01*
X214943Y507891D01*
X214937Y507818D01*
X214935Y507745D01*
X216332Y509142D02*
X216416Y509140D01*
X216499Y509134D01*
X216582Y509125D01*
X216664Y509111D01*
X216746Y509094D01*
X216827Y509072D01*
X216907Y509047D01*
X216985Y509019D01*
X217063Y508987D01*
X217138Y508951D01*
X217212Y508912D01*
X217284Y508869D01*
X217354Y508823D01*
X217421Y508774D01*
X217487Y508721D01*
X217549Y508666D01*
X217609Y508608D01*
X217667Y508547D01*
X217721Y508484D01*
X217773Y508418D01*
X217821Y508350D01*
X217866Y508279D01*
X217908Y508207D01*
X217946Y508132D01*
X217981Y508056D01*
X218012Y507979D01*
X218040Y507900D01*
X215401Y506659D02*
X215347Y506712D01*
X215296Y506769D01*
X215248Y506828D01*
X215203Y506889D01*
X215162Y506952D01*
X215123Y507018D01*
X215088Y507085D01*
X215056Y507154D01*
X215028Y507225D01*
X215004Y507296D01*
X214983Y507369D01*
X214966Y507443D01*
X214952Y507518D01*
X214943Y507593D01*
X214937Y507669D01*
X214935Y507745D01*
X215400Y506658D02*
X218039Y503554D01*
X214935Y503554D01*
X227094Y484742D02*
X227094Y479154D01*
X228646Y484742D02*
X225542Y484742D01*
X223260Y484742D02*
X223260Y479154D01*
X223260Y484742D02*
X221707Y484742D01*
X221630Y484740D01*
X221552Y484734D01*
X221476Y484725D01*
X221399Y484711D01*
X221324Y484694D01*
X221250Y484673D01*
X221176Y484648D01*
X221104Y484620D01*
X221034Y484588D01*
X220965Y484553D01*
X220898Y484514D01*
X220833Y484472D01*
X220770Y484427D01*
X220709Y484379D01*
X220651Y484328D01*
X220596Y484274D01*
X220543Y484217D01*
X220494Y484158D01*
X220447Y484096D01*
X220403Y484032D01*
X220363Y483966D01*
X220326Y483898D01*
X220292Y483828D01*
X220262Y483757D01*
X220236Y483684D01*
X220213Y483610D01*
X220194Y483535D01*
X220179Y483460D01*
X220167Y483383D01*
X220159Y483306D01*
X220155Y483229D01*
X220155Y483151D01*
X220159Y483074D01*
X220167Y482997D01*
X220179Y482920D01*
X220194Y482845D01*
X220213Y482770D01*
X220236Y482696D01*
X220262Y482623D01*
X220292Y482552D01*
X220326Y482482D01*
X220363Y482414D01*
X220403Y482348D01*
X220447Y482284D01*
X220494Y482222D01*
X220543Y482163D01*
X220596Y482106D01*
X220651Y482052D01*
X220709Y482001D01*
X220770Y481953D01*
X220833Y481908D01*
X220898Y481866D01*
X220965Y481827D01*
X221034Y481792D01*
X221104Y481760D01*
X221176Y481732D01*
X221250Y481707D01*
X221324Y481686D01*
X221399Y481669D01*
X221476Y481655D01*
X221552Y481646D01*
X221630Y481640D01*
X221707Y481638D01*
X223260Y481638D01*
X218039Y479154D02*
X216487Y479154D01*
X216410Y479156D01*
X216332Y479162D01*
X216256Y479171D01*
X216179Y479185D01*
X216104Y479202D01*
X216030Y479223D01*
X215956Y479248D01*
X215884Y479276D01*
X215814Y479308D01*
X215745Y479343D01*
X215678Y479382D01*
X215613Y479424D01*
X215550Y479469D01*
X215489Y479517D01*
X215431Y479568D01*
X215376Y479622D01*
X215323Y479679D01*
X215274Y479738D01*
X215227Y479800D01*
X215183Y479864D01*
X215143Y479930D01*
X215106Y479998D01*
X215072Y480068D01*
X215042Y480139D01*
X215016Y480212D01*
X214993Y480286D01*
X214974Y480361D01*
X214959Y480436D01*
X214947Y480513D01*
X214939Y480590D01*
X214935Y480667D01*
X214935Y480745D01*
X214939Y480822D01*
X214947Y480899D01*
X214959Y480976D01*
X214974Y481051D01*
X214993Y481126D01*
X215016Y481200D01*
X215042Y481273D01*
X215072Y481344D01*
X215106Y481414D01*
X215143Y481482D01*
X215183Y481548D01*
X215227Y481612D01*
X215274Y481674D01*
X215323Y481733D01*
X215376Y481790D01*
X215431Y481844D01*
X215489Y481895D01*
X215550Y481943D01*
X215613Y481988D01*
X215678Y482030D01*
X215745Y482069D01*
X215814Y482104D01*
X215884Y482136D01*
X215956Y482164D01*
X216030Y482189D01*
X216104Y482210D01*
X216179Y482227D01*
X216256Y482241D01*
X216332Y482250D01*
X216410Y482256D01*
X216487Y482258D01*
X216176Y484742D02*
X218039Y484742D01*
X216176Y484742D02*
X216106Y484740D01*
X216037Y484734D01*
X215968Y484724D01*
X215900Y484711D01*
X215832Y484693D01*
X215766Y484672D01*
X215701Y484647D01*
X215637Y484619D01*
X215575Y484587D01*
X215515Y484552D01*
X215457Y484513D01*
X215402Y484471D01*
X215348Y484426D01*
X215298Y484378D01*
X215250Y484328D01*
X215205Y484274D01*
X215163Y484219D01*
X215124Y484161D01*
X215089Y484101D01*
X215057Y484039D01*
X215029Y483975D01*
X215004Y483910D01*
X214983Y483844D01*
X214965Y483776D01*
X214952Y483708D01*
X214942Y483639D01*
X214936Y483570D01*
X214934Y483500D01*
X214936Y483430D01*
X214942Y483361D01*
X214952Y483292D01*
X214965Y483224D01*
X214983Y483156D01*
X215004Y483090D01*
X215029Y483025D01*
X215057Y482961D01*
X215089Y482899D01*
X215124Y482839D01*
X215163Y482781D01*
X215205Y482726D01*
X215250Y482672D01*
X215298Y482622D01*
X215348Y482574D01*
X215402Y482529D01*
X215457Y482487D01*
X215515Y482448D01*
X215575Y482413D01*
X215637Y482381D01*
X215701Y482353D01*
X215766Y482328D01*
X215832Y482307D01*
X215900Y482289D01*
X215968Y482276D01*
X216037Y482266D01*
X216106Y482260D01*
X216176Y482258D01*
X217418Y482258D01*
X228094Y458342D02*
X228094Y452754D01*
X229646Y458342D02*
X226542Y458342D01*
X224260Y458342D02*
X224260Y452754D01*
X224260Y458342D02*
X222707Y458342D01*
X222630Y458340D01*
X222552Y458334D01*
X222476Y458325D01*
X222399Y458311D01*
X222324Y458294D01*
X222250Y458273D01*
X222176Y458248D01*
X222104Y458220D01*
X222034Y458188D01*
X221965Y458153D01*
X221898Y458114D01*
X221833Y458072D01*
X221770Y458027D01*
X221709Y457979D01*
X221651Y457928D01*
X221596Y457874D01*
X221543Y457817D01*
X221494Y457758D01*
X221447Y457696D01*
X221403Y457632D01*
X221363Y457566D01*
X221326Y457498D01*
X221292Y457428D01*
X221262Y457357D01*
X221236Y457284D01*
X221213Y457210D01*
X221194Y457135D01*
X221179Y457060D01*
X221167Y456983D01*
X221159Y456906D01*
X221155Y456829D01*
X221155Y456751D01*
X221159Y456674D01*
X221167Y456597D01*
X221179Y456520D01*
X221194Y456445D01*
X221213Y456370D01*
X221236Y456296D01*
X221262Y456223D01*
X221292Y456152D01*
X221326Y456082D01*
X221363Y456014D01*
X221403Y455948D01*
X221447Y455884D01*
X221494Y455822D01*
X221543Y455763D01*
X221596Y455706D01*
X221651Y455652D01*
X221709Y455601D01*
X221770Y455553D01*
X221833Y455508D01*
X221898Y455466D01*
X221965Y455427D01*
X222034Y455392D01*
X222104Y455360D01*
X222176Y455332D01*
X222250Y455307D01*
X222324Y455286D01*
X222399Y455269D01*
X222476Y455255D01*
X222552Y455246D01*
X222630Y455240D01*
X222707Y455238D01*
X224260Y455238D01*
X219039Y453996D02*
X217797Y458342D01*
X219039Y453996D02*
X215935Y453996D01*
X216866Y455238D02*
X216866Y452754D01*
X227094Y554354D02*
X227094Y559942D01*
X228646Y559942D02*
X225542Y559942D01*
X223260Y559942D02*
X223260Y554354D01*
X223260Y559942D02*
X221707Y559942D01*
X221630Y559940D01*
X221552Y559934D01*
X221476Y559925D01*
X221399Y559911D01*
X221324Y559894D01*
X221250Y559873D01*
X221176Y559848D01*
X221104Y559820D01*
X221034Y559788D01*
X220965Y559753D01*
X220898Y559714D01*
X220833Y559672D01*
X220770Y559627D01*
X220709Y559579D01*
X220651Y559528D01*
X220596Y559474D01*
X220543Y559417D01*
X220494Y559358D01*
X220447Y559296D01*
X220403Y559232D01*
X220363Y559166D01*
X220326Y559098D01*
X220292Y559028D01*
X220262Y558957D01*
X220236Y558884D01*
X220213Y558810D01*
X220194Y558735D01*
X220179Y558660D01*
X220167Y558583D01*
X220159Y558506D01*
X220155Y558429D01*
X220155Y558351D01*
X220159Y558274D01*
X220167Y558197D01*
X220179Y558120D01*
X220194Y558045D01*
X220213Y557970D01*
X220236Y557896D01*
X220262Y557823D01*
X220292Y557752D01*
X220326Y557682D01*
X220363Y557614D01*
X220403Y557548D01*
X220447Y557484D01*
X220494Y557422D01*
X220543Y557363D01*
X220596Y557306D01*
X220651Y557252D01*
X220709Y557201D01*
X220770Y557153D01*
X220833Y557108D01*
X220898Y557066D01*
X220965Y557027D01*
X221034Y556992D01*
X221104Y556960D01*
X221176Y556932D01*
X221250Y556907D01*
X221324Y556886D01*
X221399Y556869D01*
X221476Y556855D01*
X221552Y556846D01*
X221630Y556840D01*
X221707Y556838D01*
X223260Y556838D01*
X218039Y554354D02*
X216176Y554354D01*
X216106Y554356D01*
X216037Y554362D01*
X215968Y554372D01*
X215900Y554385D01*
X215832Y554403D01*
X215766Y554424D01*
X215701Y554449D01*
X215637Y554477D01*
X215575Y554509D01*
X215515Y554544D01*
X215457Y554583D01*
X215402Y554625D01*
X215348Y554670D01*
X215298Y554718D01*
X215250Y554768D01*
X215205Y554822D01*
X215163Y554877D01*
X215124Y554935D01*
X215089Y554995D01*
X215057Y555057D01*
X215029Y555121D01*
X215004Y555186D01*
X214983Y555252D01*
X214965Y555320D01*
X214952Y555388D01*
X214942Y555457D01*
X214936Y555526D01*
X214934Y555596D01*
X214935Y555596D02*
X214935Y556217D01*
X214934Y556217D02*
X214936Y556287D01*
X214942Y556356D01*
X214952Y556425D01*
X214965Y556493D01*
X214983Y556561D01*
X215004Y556627D01*
X215029Y556692D01*
X215057Y556756D01*
X215089Y556818D01*
X215124Y556878D01*
X215163Y556936D01*
X215205Y556991D01*
X215250Y557045D01*
X215298Y557095D01*
X215348Y557143D01*
X215402Y557188D01*
X215457Y557230D01*
X215515Y557269D01*
X215575Y557304D01*
X215637Y557336D01*
X215701Y557364D01*
X215766Y557389D01*
X215832Y557410D01*
X215900Y557428D01*
X215968Y557441D01*
X216037Y557451D01*
X216106Y557457D01*
X216176Y557459D01*
X216176Y557458D02*
X218039Y557458D01*
X218039Y559942D01*
X214935Y559942D01*
X65994Y567054D02*
X65994Y572642D01*
X67546Y572642D02*
X64442Y572642D01*
X62160Y572642D02*
X62160Y567054D01*
X62160Y572642D02*
X60607Y572642D01*
X60530Y572640D01*
X60452Y572634D01*
X60376Y572625D01*
X60299Y572611D01*
X60224Y572594D01*
X60150Y572573D01*
X60076Y572548D01*
X60004Y572520D01*
X59934Y572488D01*
X59865Y572453D01*
X59798Y572414D01*
X59733Y572372D01*
X59670Y572327D01*
X59609Y572279D01*
X59551Y572228D01*
X59496Y572174D01*
X59443Y572117D01*
X59394Y572058D01*
X59347Y571996D01*
X59303Y571932D01*
X59263Y571866D01*
X59226Y571798D01*
X59192Y571728D01*
X59162Y571657D01*
X59136Y571584D01*
X59113Y571510D01*
X59094Y571435D01*
X59079Y571360D01*
X59067Y571283D01*
X59059Y571206D01*
X59055Y571129D01*
X59055Y571051D01*
X59059Y570974D01*
X59067Y570897D01*
X59079Y570820D01*
X59094Y570745D01*
X59113Y570670D01*
X59136Y570596D01*
X59162Y570523D01*
X59192Y570452D01*
X59226Y570382D01*
X59263Y570314D01*
X59303Y570248D01*
X59347Y570184D01*
X59394Y570122D01*
X59443Y570063D01*
X59496Y570006D01*
X59551Y569952D01*
X59609Y569901D01*
X59670Y569853D01*
X59733Y569808D01*
X59798Y569766D01*
X59865Y569727D01*
X59934Y569692D01*
X60004Y569660D01*
X60076Y569632D01*
X60150Y569607D01*
X60224Y569586D01*
X60299Y569569D01*
X60376Y569555D01*
X60452Y569546D01*
X60530Y569540D01*
X60607Y569538D01*
X62160Y569538D01*
X56939Y570158D02*
X55076Y570158D01*
X55076Y570159D02*
X55006Y570157D01*
X54937Y570151D01*
X54868Y570141D01*
X54800Y570128D01*
X54732Y570110D01*
X54666Y570089D01*
X54601Y570064D01*
X54537Y570036D01*
X54475Y570004D01*
X54415Y569969D01*
X54357Y569930D01*
X54302Y569888D01*
X54248Y569843D01*
X54198Y569795D01*
X54150Y569745D01*
X54105Y569691D01*
X54063Y569636D01*
X54024Y569578D01*
X53989Y569518D01*
X53957Y569456D01*
X53929Y569392D01*
X53904Y569327D01*
X53883Y569261D01*
X53865Y569193D01*
X53852Y569125D01*
X53842Y569056D01*
X53836Y568987D01*
X53834Y568917D01*
X53835Y568917D02*
X53835Y568606D01*
X53837Y568529D01*
X53843Y568451D01*
X53852Y568375D01*
X53866Y568298D01*
X53883Y568223D01*
X53904Y568149D01*
X53929Y568075D01*
X53957Y568003D01*
X53989Y567933D01*
X54024Y567864D01*
X54063Y567797D01*
X54105Y567732D01*
X54150Y567669D01*
X54198Y567608D01*
X54249Y567550D01*
X54303Y567495D01*
X54360Y567442D01*
X54419Y567393D01*
X54481Y567346D01*
X54545Y567302D01*
X54611Y567262D01*
X54679Y567225D01*
X54749Y567191D01*
X54820Y567161D01*
X54893Y567135D01*
X54967Y567112D01*
X55042Y567093D01*
X55117Y567078D01*
X55194Y567066D01*
X55271Y567058D01*
X55348Y567054D01*
X55426Y567054D01*
X55503Y567058D01*
X55580Y567066D01*
X55657Y567078D01*
X55732Y567093D01*
X55807Y567112D01*
X55881Y567135D01*
X55954Y567161D01*
X56025Y567191D01*
X56095Y567225D01*
X56163Y567262D01*
X56229Y567302D01*
X56293Y567346D01*
X56355Y567393D01*
X56414Y567442D01*
X56471Y567495D01*
X56525Y567550D01*
X56576Y567608D01*
X56624Y567669D01*
X56669Y567732D01*
X56711Y567797D01*
X56750Y567864D01*
X56785Y567933D01*
X56817Y568003D01*
X56845Y568075D01*
X56870Y568149D01*
X56891Y568223D01*
X56908Y568298D01*
X56922Y568375D01*
X56931Y568451D01*
X56937Y568529D01*
X56939Y568606D01*
X56939Y570158D01*
X56937Y570256D01*
X56931Y570353D01*
X56922Y570450D01*
X56908Y570547D01*
X56891Y570643D01*
X56870Y570738D01*
X56846Y570832D01*
X56817Y570926D01*
X56785Y571018D01*
X56750Y571109D01*
X56711Y571198D01*
X56668Y571286D01*
X56622Y571372D01*
X56573Y571456D01*
X56520Y571538D01*
X56465Y571618D01*
X56406Y571696D01*
X56344Y571771D01*
X56279Y571844D01*
X56211Y571914D01*
X56141Y571982D01*
X56068Y572047D01*
X55993Y572109D01*
X55915Y572168D01*
X55835Y572223D01*
X55753Y572276D01*
X55669Y572325D01*
X55583Y572371D01*
X55495Y572414D01*
X55406Y572453D01*
X55315Y572488D01*
X55223Y572520D01*
X55129Y572549D01*
X55035Y572573D01*
X54940Y572594D01*
X54844Y572611D01*
X54747Y572625D01*
X54650Y572634D01*
X54553Y572640D01*
X54455Y572642D01*
X91394Y572642D02*
X91394Y567054D01*
X92946Y572642D02*
X89842Y572642D01*
X87560Y572642D02*
X87560Y567054D01*
X87560Y572642D02*
X86007Y572642D01*
X85930Y572640D01*
X85852Y572634D01*
X85776Y572625D01*
X85699Y572611D01*
X85624Y572594D01*
X85550Y572573D01*
X85476Y572548D01*
X85404Y572520D01*
X85334Y572488D01*
X85265Y572453D01*
X85198Y572414D01*
X85133Y572372D01*
X85070Y572327D01*
X85009Y572279D01*
X84951Y572228D01*
X84896Y572174D01*
X84843Y572117D01*
X84794Y572058D01*
X84747Y571996D01*
X84703Y571932D01*
X84663Y571866D01*
X84626Y571798D01*
X84592Y571728D01*
X84562Y571657D01*
X84536Y571584D01*
X84513Y571510D01*
X84494Y571435D01*
X84479Y571360D01*
X84467Y571283D01*
X84459Y571206D01*
X84455Y571129D01*
X84455Y571051D01*
X84459Y570974D01*
X84467Y570897D01*
X84479Y570820D01*
X84494Y570745D01*
X84513Y570670D01*
X84536Y570596D01*
X84562Y570523D01*
X84592Y570452D01*
X84626Y570382D01*
X84663Y570314D01*
X84703Y570248D01*
X84747Y570184D01*
X84794Y570122D01*
X84843Y570063D01*
X84896Y570006D01*
X84951Y569952D01*
X85009Y569901D01*
X85070Y569853D01*
X85133Y569808D01*
X85198Y569766D01*
X85265Y569727D01*
X85334Y569692D01*
X85404Y569660D01*
X85476Y569632D01*
X85550Y569607D01*
X85624Y569586D01*
X85699Y569569D01*
X85776Y569555D01*
X85852Y569546D01*
X85930Y569540D01*
X86007Y569538D01*
X87560Y569538D01*
X82339Y572021D02*
X82339Y572642D01*
X79235Y572642D01*
X80787Y567054D01*
X16113Y268146D02*
X16113Y262558D01*
X17665Y268146D02*
X14561Y268146D01*
X12279Y268146D02*
X12279Y262558D01*
X12279Y268146D02*
X10727Y268146D01*
X10650Y268144D01*
X10572Y268138D01*
X10496Y268129D01*
X10419Y268115D01*
X10344Y268098D01*
X10270Y268077D01*
X10196Y268052D01*
X10124Y268024D01*
X10054Y267992D01*
X9985Y267957D01*
X9918Y267918D01*
X9853Y267876D01*
X9790Y267831D01*
X9729Y267783D01*
X9671Y267732D01*
X9616Y267678D01*
X9563Y267621D01*
X9514Y267562D01*
X9467Y267500D01*
X9423Y267436D01*
X9383Y267370D01*
X9346Y267302D01*
X9312Y267232D01*
X9282Y267161D01*
X9256Y267088D01*
X9233Y267014D01*
X9214Y266939D01*
X9199Y266864D01*
X9187Y266787D01*
X9179Y266710D01*
X9175Y266633D01*
X9175Y266555D01*
X9179Y266478D01*
X9187Y266401D01*
X9199Y266324D01*
X9214Y266249D01*
X9233Y266174D01*
X9256Y266100D01*
X9282Y266027D01*
X9312Y265956D01*
X9346Y265886D01*
X9383Y265818D01*
X9423Y265752D01*
X9467Y265688D01*
X9514Y265626D01*
X9563Y265567D01*
X9616Y265510D01*
X9671Y265456D01*
X9729Y265405D01*
X9790Y265357D01*
X9853Y265312D01*
X9918Y265270D01*
X9985Y265231D01*
X10054Y265196D01*
X10124Y265164D01*
X10196Y265136D01*
X10270Y265111D01*
X10344Y265090D01*
X10419Y265073D01*
X10496Y265059D01*
X10572Y265050D01*
X10650Y265044D01*
X10727Y265042D01*
X12279Y265042D01*
X7058Y264110D02*
X7056Y264187D01*
X7050Y264265D01*
X7041Y264341D01*
X7027Y264418D01*
X7010Y264493D01*
X6989Y264567D01*
X6964Y264641D01*
X6936Y264713D01*
X6904Y264783D01*
X6869Y264852D01*
X6830Y264919D01*
X6788Y264984D01*
X6743Y265047D01*
X6695Y265108D01*
X6644Y265166D01*
X6590Y265221D01*
X6533Y265274D01*
X6474Y265323D01*
X6412Y265370D01*
X6348Y265414D01*
X6282Y265454D01*
X6214Y265491D01*
X6144Y265525D01*
X6073Y265555D01*
X6000Y265581D01*
X5926Y265604D01*
X5851Y265623D01*
X5776Y265638D01*
X5699Y265650D01*
X5622Y265658D01*
X5545Y265662D01*
X5467Y265662D01*
X5390Y265658D01*
X5313Y265650D01*
X5236Y265638D01*
X5161Y265623D01*
X5086Y265604D01*
X5012Y265581D01*
X4939Y265555D01*
X4868Y265525D01*
X4798Y265491D01*
X4730Y265454D01*
X4664Y265414D01*
X4600Y265370D01*
X4538Y265323D01*
X4479Y265274D01*
X4422Y265221D01*
X4368Y265166D01*
X4317Y265108D01*
X4269Y265047D01*
X4224Y264984D01*
X4182Y264919D01*
X4143Y264852D01*
X4108Y264783D01*
X4076Y264713D01*
X4048Y264641D01*
X4023Y264567D01*
X4002Y264493D01*
X3985Y264418D01*
X3971Y264341D01*
X3962Y264265D01*
X3956Y264187D01*
X3954Y264110D01*
X3956Y264033D01*
X3962Y263955D01*
X3971Y263879D01*
X3985Y263802D01*
X4002Y263727D01*
X4023Y263653D01*
X4048Y263579D01*
X4076Y263507D01*
X4108Y263437D01*
X4143Y263368D01*
X4182Y263301D01*
X4224Y263236D01*
X4269Y263173D01*
X4317Y263112D01*
X4368Y263054D01*
X4422Y262999D01*
X4479Y262946D01*
X4538Y262897D01*
X4600Y262850D01*
X4664Y262806D01*
X4730Y262766D01*
X4798Y262729D01*
X4868Y262695D01*
X4939Y262665D01*
X5012Y262639D01*
X5086Y262616D01*
X5161Y262597D01*
X5236Y262582D01*
X5313Y262570D01*
X5390Y262562D01*
X5467Y262558D01*
X5545Y262558D01*
X5622Y262562D01*
X5699Y262570D01*
X5776Y262582D01*
X5851Y262597D01*
X5926Y262616D01*
X6000Y262639D01*
X6073Y262665D01*
X6144Y262695D01*
X6214Y262729D01*
X6282Y262766D01*
X6348Y262806D01*
X6412Y262850D01*
X6474Y262897D01*
X6533Y262946D01*
X6590Y262999D01*
X6644Y263054D01*
X6695Y263112D01*
X6743Y263173D01*
X6788Y263236D01*
X6830Y263301D01*
X6869Y263368D01*
X6904Y263437D01*
X6936Y263507D01*
X6964Y263579D01*
X6989Y263653D01*
X7010Y263727D01*
X7027Y263802D01*
X7041Y263879D01*
X7050Y263955D01*
X7056Y264033D01*
X7058Y264110D01*
X6748Y266904D02*
X6746Y266974D01*
X6740Y267043D01*
X6730Y267112D01*
X6717Y267180D01*
X6699Y267248D01*
X6678Y267314D01*
X6653Y267379D01*
X6625Y267443D01*
X6593Y267505D01*
X6558Y267565D01*
X6519Y267623D01*
X6477Y267678D01*
X6432Y267732D01*
X6384Y267782D01*
X6334Y267830D01*
X6280Y267875D01*
X6225Y267917D01*
X6167Y267956D01*
X6107Y267991D01*
X6045Y268023D01*
X5981Y268051D01*
X5916Y268076D01*
X5850Y268097D01*
X5782Y268115D01*
X5714Y268128D01*
X5645Y268138D01*
X5576Y268144D01*
X5506Y268146D01*
X5436Y268144D01*
X5367Y268138D01*
X5298Y268128D01*
X5230Y268115D01*
X5162Y268097D01*
X5096Y268076D01*
X5031Y268051D01*
X4967Y268023D01*
X4905Y267991D01*
X4845Y267956D01*
X4787Y267917D01*
X4732Y267875D01*
X4678Y267830D01*
X4628Y267782D01*
X4580Y267732D01*
X4535Y267678D01*
X4493Y267623D01*
X4454Y267565D01*
X4419Y267505D01*
X4387Y267443D01*
X4359Y267379D01*
X4334Y267314D01*
X4313Y267248D01*
X4295Y267180D01*
X4282Y267112D01*
X4272Y267043D01*
X4266Y266974D01*
X4264Y266904D01*
X4266Y266834D01*
X4272Y266765D01*
X4282Y266696D01*
X4295Y266628D01*
X4313Y266560D01*
X4334Y266494D01*
X4359Y266429D01*
X4387Y266365D01*
X4419Y266303D01*
X4454Y266243D01*
X4493Y266185D01*
X4535Y266130D01*
X4580Y266076D01*
X4628Y266026D01*
X4678Y265978D01*
X4732Y265933D01*
X4787Y265891D01*
X4845Y265852D01*
X4905Y265817D01*
X4967Y265785D01*
X5031Y265757D01*
X5096Y265732D01*
X5162Y265711D01*
X5230Y265693D01*
X5298Y265680D01*
X5367Y265670D01*
X5436Y265664D01*
X5506Y265662D01*
X5576Y265664D01*
X5645Y265670D01*
X5714Y265680D01*
X5782Y265693D01*
X5850Y265711D01*
X5916Y265732D01*
X5981Y265757D01*
X6045Y265785D01*
X6107Y265817D01*
X6167Y265852D01*
X6225Y265891D01*
X6280Y265933D01*
X6334Y265978D01*
X6384Y266026D01*
X6432Y266076D01*
X6477Y266130D01*
X6519Y266185D01*
X6558Y266243D01*
X6593Y266303D01*
X6625Y266365D01*
X6653Y266429D01*
X6678Y266494D01*
X6699Y266560D01*
X6717Y266628D01*
X6730Y266696D01*
X6740Y266765D01*
X6746Y266834D01*
X6748Y266904D01*
X15113Y289958D02*
X15113Y295546D01*
X16665Y295546D02*
X13561Y295546D01*
X11279Y295546D02*
X11279Y289958D01*
X11279Y295546D02*
X9727Y295546D01*
X9650Y295544D01*
X9572Y295538D01*
X9496Y295529D01*
X9419Y295515D01*
X9344Y295498D01*
X9270Y295477D01*
X9196Y295452D01*
X9124Y295424D01*
X9054Y295392D01*
X8985Y295357D01*
X8918Y295318D01*
X8853Y295276D01*
X8790Y295231D01*
X8729Y295183D01*
X8671Y295132D01*
X8616Y295078D01*
X8563Y295021D01*
X8514Y294962D01*
X8467Y294900D01*
X8423Y294836D01*
X8383Y294770D01*
X8346Y294702D01*
X8312Y294632D01*
X8282Y294561D01*
X8256Y294488D01*
X8233Y294414D01*
X8214Y294339D01*
X8199Y294264D01*
X8187Y294187D01*
X8179Y294110D01*
X8175Y294033D01*
X8175Y293955D01*
X8179Y293878D01*
X8187Y293801D01*
X8199Y293724D01*
X8214Y293649D01*
X8233Y293574D01*
X8256Y293500D01*
X8282Y293427D01*
X8312Y293356D01*
X8346Y293286D01*
X8383Y293218D01*
X8423Y293152D01*
X8467Y293088D01*
X8514Y293026D01*
X8563Y292967D01*
X8616Y292910D01*
X8671Y292856D01*
X8729Y292805D01*
X8790Y292757D01*
X8853Y292712D01*
X8918Y292670D01*
X8985Y292631D01*
X9054Y292596D01*
X9124Y292564D01*
X9196Y292536D01*
X9270Y292511D01*
X9344Y292490D01*
X9419Y292473D01*
X9496Y292459D01*
X9572Y292450D01*
X9650Y292444D01*
X9727Y292442D01*
X11279Y292442D01*
X4817Y292442D02*
X2954Y292442D01*
X4817Y292441D02*
X4887Y292443D01*
X4956Y292449D01*
X5025Y292459D01*
X5093Y292472D01*
X5161Y292490D01*
X5227Y292511D01*
X5292Y292536D01*
X5356Y292564D01*
X5418Y292596D01*
X5478Y292631D01*
X5536Y292670D01*
X5591Y292712D01*
X5645Y292757D01*
X5695Y292805D01*
X5743Y292855D01*
X5788Y292909D01*
X5830Y292964D01*
X5869Y293022D01*
X5904Y293082D01*
X5936Y293144D01*
X5964Y293208D01*
X5989Y293273D01*
X6010Y293339D01*
X6028Y293407D01*
X6041Y293475D01*
X6051Y293544D01*
X6057Y293613D01*
X6059Y293683D01*
X6058Y293683D02*
X6058Y293994D01*
X6056Y294071D01*
X6050Y294149D01*
X6041Y294225D01*
X6027Y294302D01*
X6010Y294377D01*
X5989Y294451D01*
X5964Y294525D01*
X5936Y294597D01*
X5904Y294667D01*
X5869Y294736D01*
X5830Y294803D01*
X5788Y294868D01*
X5743Y294931D01*
X5695Y294992D01*
X5644Y295050D01*
X5590Y295105D01*
X5533Y295158D01*
X5474Y295207D01*
X5412Y295254D01*
X5348Y295298D01*
X5282Y295338D01*
X5214Y295375D01*
X5144Y295409D01*
X5073Y295439D01*
X5000Y295465D01*
X4926Y295488D01*
X4851Y295507D01*
X4776Y295522D01*
X4699Y295534D01*
X4622Y295542D01*
X4545Y295546D01*
X4467Y295546D01*
X4390Y295542D01*
X4313Y295534D01*
X4236Y295522D01*
X4161Y295507D01*
X4086Y295488D01*
X4012Y295465D01*
X3939Y295439D01*
X3868Y295409D01*
X3798Y295375D01*
X3730Y295338D01*
X3664Y295298D01*
X3600Y295254D01*
X3538Y295207D01*
X3479Y295158D01*
X3422Y295105D01*
X3368Y295050D01*
X3317Y294992D01*
X3269Y294931D01*
X3224Y294868D01*
X3182Y294803D01*
X3143Y294736D01*
X3108Y294667D01*
X3076Y294597D01*
X3048Y294525D01*
X3023Y294451D01*
X3002Y294377D01*
X2985Y294302D01*
X2971Y294225D01*
X2962Y294149D01*
X2956Y294071D01*
X2954Y293994D01*
X2954Y292442D01*
X2956Y292344D01*
X2962Y292247D01*
X2971Y292150D01*
X2985Y292053D01*
X3002Y291957D01*
X3023Y291862D01*
X3047Y291768D01*
X3076Y291674D01*
X3108Y291582D01*
X3143Y291491D01*
X3182Y291402D01*
X3225Y291314D01*
X3271Y291228D01*
X3320Y291144D01*
X3373Y291062D01*
X3428Y290982D01*
X3487Y290904D01*
X3549Y290829D01*
X3614Y290756D01*
X3682Y290686D01*
X3752Y290618D01*
X3825Y290553D01*
X3900Y290491D01*
X3978Y290432D01*
X4058Y290377D01*
X4140Y290324D01*
X4224Y290275D01*
X4310Y290229D01*
X4398Y290186D01*
X4487Y290147D01*
X4578Y290112D01*
X4670Y290080D01*
X4764Y290051D01*
X4858Y290027D01*
X4953Y290006D01*
X5049Y289989D01*
X5146Y289975D01*
X5243Y289966D01*
X5340Y289960D01*
X5438Y289958D01*
X22600Y315358D02*
X22600Y320946D01*
X24152Y320946D02*
X21047Y320946D01*
X18765Y320946D02*
X18765Y315358D01*
X18765Y320946D02*
X17213Y320946D01*
X17136Y320944D01*
X17058Y320938D01*
X16982Y320929D01*
X16905Y320915D01*
X16830Y320898D01*
X16756Y320877D01*
X16682Y320852D01*
X16610Y320824D01*
X16540Y320792D01*
X16471Y320757D01*
X16404Y320718D01*
X16339Y320676D01*
X16276Y320631D01*
X16215Y320583D01*
X16157Y320532D01*
X16102Y320478D01*
X16049Y320421D01*
X16000Y320362D01*
X15953Y320300D01*
X15909Y320236D01*
X15869Y320170D01*
X15832Y320102D01*
X15798Y320032D01*
X15768Y319961D01*
X15742Y319888D01*
X15719Y319814D01*
X15700Y319739D01*
X15685Y319664D01*
X15673Y319587D01*
X15665Y319510D01*
X15661Y319433D01*
X15661Y319355D01*
X15665Y319278D01*
X15673Y319201D01*
X15685Y319124D01*
X15700Y319049D01*
X15719Y318974D01*
X15742Y318900D01*
X15768Y318827D01*
X15798Y318756D01*
X15832Y318686D01*
X15869Y318618D01*
X15909Y318552D01*
X15953Y318488D01*
X16000Y318426D01*
X16049Y318367D01*
X16102Y318310D01*
X16157Y318256D01*
X16215Y318205D01*
X16276Y318157D01*
X16339Y318112D01*
X16404Y318070D01*
X16471Y318031D01*
X16540Y317996D01*
X16610Y317964D01*
X16682Y317936D01*
X16756Y317911D01*
X16830Y317890D01*
X16905Y317873D01*
X16982Y317859D01*
X17058Y317850D01*
X17136Y317844D01*
X17213Y317842D01*
X18765Y317842D01*
X13545Y319704D02*
X11993Y320946D01*
X11993Y315358D01*
X13545Y315358D02*
X10440Y315358D01*
X8058Y318152D02*
X8056Y318283D01*
X8051Y318413D01*
X8041Y318543D01*
X8028Y318673D01*
X8012Y318803D01*
X7992Y318932D01*
X7968Y319060D01*
X7940Y319187D01*
X7909Y319314D01*
X7874Y319440D01*
X7836Y319565D01*
X7794Y319689D01*
X7749Y319811D01*
X7700Y319932D01*
X7648Y320052D01*
X7592Y320170D01*
X7593Y320170D02*
X7570Y320230D01*
X7544Y320290D01*
X7515Y320347D01*
X7482Y320403D01*
X7446Y320457D01*
X7408Y320509D01*
X7366Y320559D01*
X7322Y320606D01*
X7275Y320651D01*
X7225Y320693D01*
X7174Y320732D01*
X7120Y320768D01*
X7064Y320801D01*
X7007Y320831D01*
X6948Y320858D01*
X6887Y320881D01*
X6826Y320901D01*
X6763Y320917D01*
X6699Y320930D01*
X6635Y320939D01*
X6571Y320944D01*
X6506Y320946D01*
X6441Y320944D01*
X6377Y320939D01*
X6313Y320930D01*
X6249Y320917D01*
X6186Y320901D01*
X6125Y320881D01*
X6064Y320858D01*
X6005Y320831D01*
X5948Y320801D01*
X5892Y320768D01*
X5838Y320732D01*
X5787Y320693D01*
X5737Y320651D01*
X5690Y320606D01*
X5646Y320559D01*
X5604Y320509D01*
X5566Y320457D01*
X5530Y320403D01*
X5497Y320347D01*
X5468Y320290D01*
X5442Y320230D01*
X5419Y320170D01*
X5420Y320170D02*
X5364Y320052D01*
X5312Y319932D01*
X5263Y319811D01*
X5218Y319689D01*
X5176Y319565D01*
X5138Y319440D01*
X5103Y319314D01*
X5072Y319188D01*
X5044Y319060D01*
X5020Y318932D01*
X5000Y318803D01*
X4984Y318673D01*
X4971Y318543D01*
X4961Y318413D01*
X4956Y318283D01*
X4954Y318152D01*
X8058Y318152D02*
X8056Y318021D01*
X8051Y317891D01*
X8041Y317761D01*
X8028Y317631D01*
X8012Y317501D01*
X7992Y317373D01*
X7968Y317244D01*
X7940Y317117D01*
X7909Y316990D01*
X7874Y316864D01*
X7836Y316739D01*
X7794Y316616D01*
X7749Y316493D01*
X7700Y316372D01*
X7648Y316252D01*
X7592Y316134D01*
X7593Y316134D02*
X7570Y316074D01*
X7544Y316014D01*
X7515Y315957D01*
X7482Y315901D01*
X7446Y315847D01*
X7408Y315795D01*
X7366Y315745D01*
X7322Y315698D01*
X7275Y315653D01*
X7225Y315611D01*
X7174Y315572D01*
X7120Y315536D01*
X7064Y315503D01*
X7007Y315473D01*
X6948Y315446D01*
X6887Y315423D01*
X6826Y315403D01*
X6763Y315387D01*
X6699Y315374D01*
X6635Y315365D01*
X6571Y315360D01*
X6506Y315358D01*
X5420Y316134D02*
X5364Y316252D01*
X5312Y316372D01*
X5263Y316493D01*
X5218Y316615D01*
X5176Y316739D01*
X5138Y316864D01*
X5103Y316990D01*
X5072Y317116D01*
X5044Y317244D01*
X5020Y317372D01*
X5000Y317501D01*
X4984Y317631D01*
X4971Y317761D01*
X4961Y317891D01*
X4956Y318021D01*
X4954Y318152D01*
X5419Y316134D02*
X5442Y316074D01*
X5468Y316014D01*
X5497Y315957D01*
X5530Y315901D01*
X5566Y315847D01*
X5604Y315795D01*
X5646Y315745D01*
X5690Y315698D01*
X5737Y315653D01*
X5787Y315611D01*
X5838Y315572D01*
X5892Y315536D01*
X5948Y315503D01*
X6005Y315473D01*
X6064Y315446D01*
X6125Y315423D01*
X6186Y315403D01*
X6249Y315387D01*
X6313Y315374D01*
X6377Y315365D01*
X6441Y315360D01*
X6506Y315358D01*
X7748Y316600D02*
X5264Y319704D01*
X21600Y341758D02*
X21600Y347346D01*
X23152Y347346D02*
X20047Y347346D01*
X17765Y347346D02*
X17765Y341758D01*
X17765Y347346D02*
X16213Y347346D01*
X16136Y347344D01*
X16058Y347338D01*
X15982Y347329D01*
X15905Y347315D01*
X15830Y347298D01*
X15756Y347277D01*
X15682Y347252D01*
X15610Y347224D01*
X15540Y347192D01*
X15471Y347157D01*
X15404Y347118D01*
X15339Y347076D01*
X15276Y347031D01*
X15215Y346983D01*
X15157Y346932D01*
X15102Y346878D01*
X15049Y346821D01*
X15000Y346762D01*
X14953Y346700D01*
X14909Y346636D01*
X14869Y346570D01*
X14832Y346502D01*
X14798Y346432D01*
X14768Y346361D01*
X14742Y346288D01*
X14719Y346214D01*
X14700Y346139D01*
X14685Y346064D01*
X14673Y345987D01*
X14665Y345910D01*
X14661Y345833D01*
X14661Y345755D01*
X14665Y345678D01*
X14673Y345601D01*
X14685Y345524D01*
X14700Y345449D01*
X14719Y345374D01*
X14742Y345300D01*
X14768Y345227D01*
X14798Y345156D01*
X14832Y345086D01*
X14869Y345018D01*
X14909Y344952D01*
X14953Y344888D01*
X15000Y344826D01*
X15049Y344767D01*
X15102Y344710D01*
X15157Y344656D01*
X15215Y344605D01*
X15276Y344557D01*
X15339Y344512D01*
X15404Y344470D01*
X15471Y344431D01*
X15540Y344396D01*
X15610Y344364D01*
X15682Y344336D01*
X15756Y344311D01*
X15830Y344290D01*
X15905Y344273D01*
X15982Y344259D01*
X16058Y344250D01*
X16136Y344244D01*
X16213Y344242D01*
X17765Y344242D01*
X12545Y346104D02*
X10993Y347346D01*
X10993Y341758D01*
X12545Y341758D02*
X9440Y341758D01*
X7058Y346104D02*
X5506Y347346D01*
X5506Y341758D01*
X7058Y341758D02*
X3954Y341758D01*
X40594Y567054D02*
X40594Y572642D01*
X42146Y572642D02*
X39042Y572642D01*
X36760Y572642D02*
X36760Y567054D01*
X36760Y572642D02*
X35207Y572642D01*
X35130Y572640D01*
X35052Y572634D01*
X34976Y572625D01*
X34899Y572611D01*
X34824Y572594D01*
X34750Y572573D01*
X34676Y572548D01*
X34604Y572520D01*
X34534Y572488D01*
X34465Y572453D01*
X34398Y572414D01*
X34333Y572372D01*
X34270Y572327D01*
X34209Y572279D01*
X34151Y572228D01*
X34096Y572174D01*
X34043Y572117D01*
X33994Y572058D01*
X33947Y571996D01*
X33903Y571932D01*
X33863Y571866D01*
X33826Y571798D01*
X33792Y571728D01*
X33762Y571657D01*
X33736Y571584D01*
X33713Y571510D01*
X33694Y571435D01*
X33679Y571360D01*
X33667Y571283D01*
X33659Y571206D01*
X33655Y571129D01*
X33655Y571051D01*
X33659Y570974D01*
X33667Y570897D01*
X33679Y570820D01*
X33694Y570745D01*
X33713Y570670D01*
X33736Y570596D01*
X33762Y570523D01*
X33792Y570452D01*
X33826Y570382D01*
X33863Y570314D01*
X33903Y570248D01*
X33947Y570184D01*
X33994Y570122D01*
X34043Y570063D01*
X34096Y570006D01*
X34151Y569952D01*
X34209Y569901D01*
X34270Y569853D01*
X34333Y569808D01*
X34398Y569766D01*
X34465Y569727D01*
X34534Y569692D01*
X34604Y569660D01*
X34676Y569632D01*
X34750Y569607D01*
X34824Y569586D01*
X34899Y569569D01*
X34976Y569555D01*
X35052Y569546D01*
X35130Y569540D01*
X35207Y569538D01*
X36760Y569538D01*
X31539Y571400D02*
X29987Y572642D01*
X29987Y567054D01*
X31539Y567054D02*
X28435Y567054D01*
X22948Y571245D02*
X22950Y571318D01*
X22956Y571391D01*
X22965Y571464D01*
X22979Y571535D01*
X22996Y571607D01*
X23016Y571677D01*
X23041Y571746D01*
X23069Y571813D01*
X23100Y571879D01*
X23135Y571944D01*
X23173Y572006D01*
X23215Y572066D01*
X23259Y572124D01*
X23307Y572180D01*
X23357Y572233D01*
X23410Y572283D01*
X23466Y572331D01*
X23524Y572375D01*
X23584Y572417D01*
X23647Y572455D01*
X23711Y572490D01*
X23777Y572521D01*
X23844Y572549D01*
X23913Y572574D01*
X23983Y572594D01*
X24055Y572611D01*
X24126Y572625D01*
X24199Y572634D01*
X24272Y572640D01*
X24345Y572642D01*
X24429Y572640D01*
X24512Y572634D01*
X24595Y572625D01*
X24677Y572611D01*
X24759Y572594D01*
X24840Y572572D01*
X24920Y572547D01*
X24998Y572519D01*
X25076Y572487D01*
X25151Y572451D01*
X25225Y572412D01*
X25297Y572369D01*
X25367Y572323D01*
X25434Y572274D01*
X25500Y572221D01*
X25562Y572166D01*
X25622Y572108D01*
X25680Y572047D01*
X25734Y571984D01*
X25786Y571918D01*
X25834Y571850D01*
X25879Y571779D01*
X25921Y571707D01*
X25959Y571632D01*
X25994Y571556D01*
X26025Y571479D01*
X26053Y571400D01*
X23415Y570159D02*
X23361Y570212D01*
X23310Y570269D01*
X23262Y570328D01*
X23217Y570389D01*
X23176Y570452D01*
X23137Y570518D01*
X23102Y570585D01*
X23070Y570654D01*
X23042Y570725D01*
X23018Y570796D01*
X22997Y570869D01*
X22980Y570943D01*
X22966Y571018D01*
X22957Y571093D01*
X22951Y571169D01*
X22949Y571245D01*
X23414Y570158D02*
X26053Y567054D01*
X22948Y567054D01*
M02*
