G04 EAGLE Gerber RS-274X export*
G75*
%MOMM*%
%FSLAX34Y34*%
%LPD*%
%INSoldermask Top*%
%IPPOS*%
%AMOC8*
5,1,8,0,0,1.08239X$1,22.5*%
G01*
%ADD10C,2.500000*%
%ADD11C,0.812800*%
%ADD12C,1.800000*%
%ADD13C,0.080000*%
%ADD14C,1.050000*%
%ADD15R,0.800000X0.900000*%
%ADD16R,1.100000X1.000000*%
%ADD17R,1.000000X1.100000*%
%ADD18R,0.700000X0.600000*%
%ADD19R,0.600000X0.700000*%
%ADD20C,0.070000*%
%ADD21R,0.900000X1.600000*%
%ADD22R,1.500000X1.300000*%
%ADD23R,1.600000X0.500000*%
%ADD24R,0.600000X0.540000*%
%ADD25C,0.600000*%
%ADD26R,0.540000X0.600000*%
%ADD27R,1.300000X1.500000*%
%ADD28R,1.800000X1.350000*%
%ADD29R,1.800000X1.200000*%
%ADD30R,1.550000X0.600000*%
%ADD31R,1.350000X1.800000*%
%ADD32C,1.930400*%
%ADD33C,0.050000*%
%ADD34R,0.900000X0.700000*%
%ADD35R,1.000000X0.600000*%
%ADD36R,0.457200X1.168400*%


D10*
X20000Y660000D03*
X250000Y660000D03*
X20000Y160000D03*
D11*
X3000Y660000D02*
X3005Y660417D01*
X3020Y660834D01*
X3046Y661251D01*
X3082Y661666D01*
X3128Y662081D01*
X3184Y662494D01*
X3250Y662906D01*
X3327Y663317D01*
X3413Y663725D01*
X3509Y664131D01*
X3616Y664534D01*
X3732Y664935D01*
X3858Y665333D01*
X3994Y665727D01*
X4139Y666118D01*
X4294Y666506D01*
X4458Y666889D01*
X4632Y667268D01*
X4815Y667643D01*
X5007Y668014D01*
X5209Y668379D01*
X5419Y668740D01*
X5637Y669095D01*
X5865Y669445D01*
X6101Y669789D01*
X6345Y670127D01*
X6598Y670459D01*
X6859Y670785D01*
X7127Y671104D01*
X7404Y671417D01*
X7688Y671722D01*
X7979Y672021D01*
X8278Y672312D01*
X8583Y672596D01*
X8896Y672873D01*
X9215Y673141D01*
X9541Y673402D01*
X9873Y673655D01*
X10211Y673899D01*
X10555Y674135D01*
X10905Y674363D01*
X11260Y674581D01*
X11621Y674791D01*
X11986Y674993D01*
X12357Y675185D01*
X12732Y675368D01*
X13111Y675542D01*
X13494Y675706D01*
X13882Y675861D01*
X14273Y676006D01*
X14667Y676142D01*
X15065Y676268D01*
X15466Y676384D01*
X15869Y676491D01*
X16275Y676587D01*
X16683Y676673D01*
X17094Y676750D01*
X17506Y676816D01*
X17919Y676872D01*
X18334Y676918D01*
X18749Y676954D01*
X19166Y676980D01*
X19583Y676995D01*
X20000Y677000D01*
X20417Y676995D01*
X20834Y676980D01*
X21251Y676954D01*
X21666Y676918D01*
X22081Y676872D01*
X22494Y676816D01*
X22906Y676750D01*
X23317Y676673D01*
X23725Y676587D01*
X24131Y676491D01*
X24534Y676384D01*
X24935Y676268D01*
X25333Y676142D01*
X25727Y676006D01*
X26118Y675861D01*
X26506Y675706D01*
X26889Y675542D01*
X27268Y675368D01*
X27643Y675185D01*
X28014Y674993D01*
X28379Y674791D01*
X28740Y674581D01*
X29095Y674363D01*
X29445Y674135D01*
X29789Y673899D01*
X30127Y673655D01*
X30459Y673402D01*
X30785Y673141D01*
X31104Y672873D01*
X31417Y672596D01*
X31722Y672312D01*
X32021Y672021D01*
X32312Y671722D01*
X32596Y671417D01*
X32873Y671104D01*
X33141Y670785D01*
X33402Y670459D01*
X33655Y670127D01*
X33899Y669789D01*
X34135Y669445D01*
X34363Y669095D01*
X34581Y668740D01*
X34791Y668379D01*
X34993Y668014D01*
X35185Y667643D01*
X35368Y667268D01*
X35542Y666889D01*
X35706Y666506D01*
X35861Y666118D01*
X36006Y665727D01*
X36142Y665333D01*
X36268Y664935D01*
X36384Y664534D01*
X36491Y664131D01*
X36587Y663725D01*
X36673Y663317D01*
X36750Y662906D01*
X36816Y662494D01*
X36872Y662081D01*
X36918Y661666D01*
X36954Y661251D01*
X36980Y660834D01*
X36995Y660417D01*
X37000Y660000D01*
X36995Y659583D01*
X36980Y659166D01*
X36954Y658749D01*
X36918Y658334D01*
X36872Y657919D01*
X36816Y657506D01*
X36750Y657094D01*
X36673Y656683D01*
X36587Y656275D01*
X36491Y655869D01*
X36384Y655466D01*
X36268Y655065D01*
X36142Y654667D01*
X36006Y654273D01*
X35861Y653882D01*
X35706Y653494D01*
X35542Y653111D01*
X35368Y652732D01*
X35185Y652357D01*
X34993Y651986D01*
X34791Y651621D01*
X34581Y651260D01*
X34363Y650905D01*
X34135Y650555D01*
X33899Y650211D01*
X33655Y649873D01*
X33402Y649541D01*
X33141Y649215D01*
X32873Y648896D01*
X32596Y648583D01*
X32312Y648278D01*
X32021Y647979D01*
X31722Y647688D01*
X31417Y647404D01*
X31104Y647127D01*
X30785Y646859D01*
X30459Y646598D01*
X30127Y646345D01*
X29789Y646101D01*
X29445Y645865D01*
X29095Y645637D01*
X28740Y645419D01*
X28379Y645209D01*
X28014Y645007D01*
X27643Y644815D01*
X27268Y644632D01*
X26889Y644458D01*
X26506Y644294D01*
X26118Y644139D01*
X25727Y643994D01*
X25333Y643858D01*
X24935Y643732D01*
X24534Y643616D01*
X24131Y643509D01*
X23725Y643413D01*
X23317Y643327D01*
X22906Y643250D01*
X22494Y643184D01*
X22081Y643128D01*
X21666Y643082D01*
X21251Y643046D01*
X20834Y643020D01*
X20417Y643005D01*
X20000Y643000D01*
X19583Y643005D01*
X19166Y643020D01*
X18749Y643046D01*
X18334Y643082D01*
X17919Y643128D01*
X17506Y643184D01*
X17094Y643250D01*
X16683Y643327D01*
X16275Y643413D01*
X15869Y643509D01*
X15466Y643616D01*
X15065Y643732D01*
X14667Y643858D01*
X14273Y643994D01*
X13882Y644139D01*
X13494Y644294D01*
X13111Y644458D01*
X12732Y644632D01*
X12357Y644815D01*
X11986Y645007D01*
X11621Y645209D01*
X11260Y645419D01*
X10905Y645637D01*
X10555Y645865D01*
X10211Y646101D01*
X9873Y646345D01*
X9541Y646598D01*
X9215Y646859D01*
X8896Y647127D01*
X8583Y647404D01*
X8278Y647688D01*
X7979Y647979D01*
X7688Y648278D01*
X7404Y648583D01*
X7127Y648896D01*
X6859Y649215D01*
X6598Y649541D01*
X6345Y649873D01*
X6101Y650211D01*
X5865Y650555D01*
X5637Y650905D01*
X5419Y651260D01*
X5209Y651621D01*
X5007Y651986D01*
X4815Y652357D01*
X4632Y652732D01*
X4458Y653111D01*
X4294Y653494D01*
X4139Y653882D01*
X3994Y654273D01*
X3858Y654667D01*
X3732Y655065D01*
X3616Y655466D01*
X3509Y655869D01*
X3413Y656275D01*
X3327Y656683D01*
X3250Y657094D01*
X3184Y657506D01*
X3128Y657919D01*
X3082Y658334D01*
X3046Y658749D01*
X3020Y659166D01*
X3005Y659583D01*
X3000Y660000D01*
X233000Y660000D02*
X233005Y660417D01*
X233020Y660834D01*
X233046Y661251D01*
X233082Y661666D01*
X233128Y662081D01*
X233184Y662494D01*
X233250Y662906D01*
X233327Y663317D01*
X233413Y663725D01*
X233509Y664131D01*
X233616Y664534D01*
X233732Y664935D01*
X233858Y665333D01*
X233994Y665727D01*
X234139Y666118D01*
X234294Y666506D01*
X234458Y666889D01*
X234632Y667268D01*
X234815Y667643D01*
X235007Y668014D01*
X235209Y668379D01*
X235419Y668740D01*
X235637Y669095D01*
X235865Y669445D01*
X236101Y669789D01*
X236345Y670127D01*
X236598Y670459D01*
X236859Y670785D01*
X237127Y671104D01*
X237404Y671417D01*
X237688Y671722D01*
X237979Y672021D01*
X238278Y672312D01*
X238583Y672596D01*
X238896Y672873D01*
X239215Y673141D01*
X239541Y673402D01*
X239873Y673655D01*
X240211Y673899D01*
X240555Y674135D01*
X240905Y674363D01*
X241260Y674581D01*
X241621Y674791D01*
X241986Y674993D01*
X242357Y675185D01*
X242732Y675368D01*
X243111Y675542D01*
X243494Y675706D01*
X243882Y675861D01*
X244273Y676006D01*
X244667Y676142D01*
X245065Y676268D01*
X245466Y676384D01*
X245869Y676491D01*
X246275Y676587D01*
X246683Y676673D01*
X247094Y676750D01*
X247506Y676816D01*
X247919Y676872D01*
X248334Y676918D01*
X248749Y676954D01*
X249166Y676980D01*
X249583Y676995D01*
X250000Y677000D01*
X250417Y676995D01*
X250834Y676980D01*
X251251Y676954D01*
X251666Y676918D01*
X252081Y676872D01*
X252494Y676816D01*
X252906Y676750D01*
X253317Y676673D01*
X253725Y676587D01*
X254131Y676491D01*
X254534Y676384D01*
X254935Y676268D01*
X255333Y676142D01*
X255727Y676006D01*
X256118Y675861D01*
X256506Y675706D01*
X256889Y675542D01*
X257268Y675368D01*
X257643Y675185D01*
X258014Y674993D01*
X258379Y674791D01*
X258740Y674581D01*
X259095Y674363D01*
X259445Y674135D01*
X259789Y673899D01*
X260127Y673655D01*
X260459Y673402D01*
X260785Y673141D01*
X261104Y672873D01*
X261417Y672596D01*
X261722Y672312D01*
X262021Y672021D01*
X262312Y671722D01*
X262596Y671417D01*
X262873Y671104D01*
X263141Y670785D01*
X263402Y670459D01*
X263655Y670127D01*
X263899Y669789D01*
X264135Y669445D01*
X264363Y669095D01*
X264581Y668740D01*
X264791Y668379D01*
X264993Y668014D01*
X265185Y667643D01*
X265368Y667268D01*
X265542Y666889D01*
X265706Y666506D01*
X265861Y666118D01*
X266006Y665727D01*
X266142Y665333D01*
X266268Y664935D01*
X266384Y664534D01*
X266491Y664131D01*
X266587Y663725D01*
X266673Y663317D01*
X266750Y662906D01*
X266816Y662494D01*
X266872Y662081D01*
X266918Y661666D01*
X266954Y661251D01*
X266980Y660834D01*
X266995Y660417D01*
X267000Y660000D01*
X266995Y659583D01*
X266980Y659166D01*
X266954Y658749D01*
X266918Y658334D01*
X266872Y657919D01*
X266816Y657506D01*
X266750Y657094D01*
X266673Y656683D01*
X266587Y656275D01*
X266491Y655869D01*
X266384Y655466D01*
X266268Y655065D01*
X266142Y654667D01*
X266006Y654273D01*
X265861Y653882D01*
X265706Y653494D01*
X265542Y653111D01*
X265368Y652732D01*
X265185Y652357D01*
X264993Y651986D01*
X264791Y651621D01*
X264581Y651260D01*
X264363Y650905D01*
X264135Y650555D01*
X263899Y650211D01*
X263655Y649873D01*
X263402Y649541D01*
X263141Y649215D01*
X262873Y648896D01*
X262596Y648583D01*
X262312Y648278D01*
X262021Y647979D01*
X261722Y647688D01*
X261417Y647404D01*
X261104Y647127D01*
X260785Y646859D01*
X260459Y646598D01*
X260127Y646345D01*
X259789Y646101D01*
X259445Y645865D01*
X259095Y645637D01*
X258740Y645419D01*
X258379Y645209D01*
X258014Y645007D01*
X257643Y644815D01*
X257268Y644632D01*
X256889Y644458D01*
X256506Y644294D01*
X256118Y644139D01*
X255727Y643994D01*
X255333Y643858D01*
X254935Y643732D01*
X254534Y643616D01*
X254131Y643509D01*
X253725Y643413D01*
X253317Y643327D01*
X252906Y643250D01*
X252494Y643184D01*
X252081Y643128D01*
X251666Y643082D01*
X251251Y643046D01*
X250834Y643020D01*
X250417Y643005D01*
X250000Y643000D01*
X249583Y643005D01*
X249166Y643020D01*
X248749Y643046D01*
X248334Y643082D01*
X247919Y643128D01*
X247506Y643184D01*
X247094Y643250D01*
X246683Y643327D01*
X246275Y643413D01*
X245869Y643509D01*
X245466Y643616D01*
X245065Y643732D01*
X244667Y643858D01*
X244273Y643994D01*
X243882Y644139D01*
X243494Y644294D01*
X243111Y644458D01*
X242732Y644632D01*
X242357Y644815D01*
X241986Y645007D01*
X241621Y645209D01*
X241260Y645419D01*
X240905Y645637D01*
X240555Y645865D01*
X240211Y646101D01*
X239873Y646345D01*
X239541Y646598D01*
X239215Y646859D01*
X238896Y647127D01*
X238583Y647404D01*
X238278Y647688D01*
X237979Y647979D01*
X237688Y648278D01*
X237404Y648583D01*
X237127Y648896D01*
X236859Y649215D01*
X236598Y649541D01*
X236345Y649873D01*
X236101Y650211D01*
X235865Y650555D01*
X235637Y650905D01*
X235419Y651260D01*
X235209Y651621D01*
X235007Y651986D01*
X234815Y652357D01*
X234632Y652732D01*
X234458Y653111D01*
X234294Y653494D01*
X234139Y653882D01*
X233994Y654273D01*
X233858Y654667D01*
X233732Y655065D01*
X233616Y655466D01*
X233509Y655869D01*
X233413Y656275D01*
X233327Y656683D01*
X233250Y657094D01*
X233184Y657506D01*
X233128Y657919D01*
X233082Y658334D01*
X233046Y658749D01*
X233020Y659166D01*
X233005Y659583D01*
X233000Y660000D01*
X3000Y160000D02*
X3005Y160417D01*
X3020Y160834D01*
X3046Y161251D01*
X3082Y161666D01*
X3128Y162081D01*
X3184Y162494D01*
X3250Y162906D01*
X3327Y163317D01*
X3413Y163725D01*
X3509Y164131D01*
X3616Y164534D01*
X3732Y164935D01*
X3858Y165333D01*
X3994Y165727D01*
X4139Y166118D01*
X4294Y166506D01*
X4458Y166889D01*
X4632Y167268D01*
X4815Y167643D01*
X5007Y168014D01*
X5209Y168379D01*
X5419Y168740D01*
X5637Y169095D01*
X5865Y169445D01*
X6101Y169789D01*
X6345Y170127D01*
X6598Y170459D01*
X6859Y170785D01*
X7127Y171104D01*
X7404Y171417D01*
X7688Y171722D01*
X7979Y172021D01*
X8278Y172312D01*
X8583Y172596D01*
X8896Y172873D01*
X9215Y173141D01*
X9541Y173402D01*
X9873Y173655D01*
X10211Y173899D01*
X10555Y174135D01*
X10905Y174363D01*
X11260Y174581D01*
X11621Y174791D01*
X11986Y174993D01*
X12357Y175185D01*
X12732Y175368D01*
X13111Y175542D01*
X13494Y175706D01*
X13882Y175861D01*
X14273Y176006D01*
X14667Y176142D01*
X15065Y176268D01*
X15466Y176384D01*
X15869Y176491D01*
X16275Y176587D01*
X16683Y176673D01*
X17094Y176750D01*
X17506Y176816D01*
X17919Y176872D01*
X18334Y176918D01*
X18749Y176954D01*
X19166Y176980D01*
X19583Y176995D01*
X20000Y177000D01*
X20417Y176995D01*
X20834Y176980D01*
X21251Y176954D01*
X21666Y176918D01*
X22081Y176872D01*
X22494Y176816D01*
X22906Y176750D01*
X23317Y176673D01*
X23725Y176587D01*
X24131Y176491D01*
X24534Y176384D01*
X24935Y176268D01*
X25333Y176142D01*
X25727Y176006D01*
X26118Y175861D01*
X26506Y175706D01*
X26889Y175542D01*
X27268Y175368D01*
X27643Y175185D01*
X28014Y174993D01*
X28379Y174791D01*
X28740Y174581D01*
X29095Y174363D01*
X29445Y174135D01*
X29789Y173899D01*
X30127Y173655D01*
X30459Y173402D01*
X30785Y173141D01*
X31104Y172873D01*
X31417Y172596D01*
X31722Y172312D01*
X32021Y172021D01*
X32312Y171722D01*
X32596Y171417D01*
X32873Y171104D01*
X33141Y170785D01*
X33402Y170459D01*
X33655Y170127D01*
X33899Y169789D01*
X34135Y169445D01*
X34363Y169095D01*
X34581Y168740D01*
X34791Y168379D01*
X34993Y168014D01*
X35185Y167643D01*
X35368Y167268D01*
X35542Y166889D01*
X35706Y166506D01*
X35861Y166118D01*
X36006Y165727D01*
X36142Y165333D01*
X36268Y164935D01*
X36384Y164534D01*
X36491Y164131D01*
X36587Y163725D01*
X36673Y163317D01*
X36750Y162906D01*
X36816Y162494D01*
X36872Y162081D01*
X36918Y161666D01*
X36954Y161251D01*
X36980Y160834D01*
X36995Y160417D01*
X37000Y160000D01*
X36995Y159583D01*
X36980Y159166D01*
X36954Y158749D01*
X36918Y158334D01*
X36872Y157919D01*
X36816Y157506D01*
X36750Y157094D01*
X36673Y156683D01*
X36587Y156275D01*
X36491Y155869D01*
X36384Y155466D01*
X36268Y155065D01*
X36142Y154667D01*
X36006Y154273D01*
X35861Y153882D01*
X35706Y153494D01*
X35542Y153111D01*
X35368Y152732D01*
X35185Y152357D01*
X34993Y151986D01*
X34791Y151621D01*
X34581Y151260D01*
X34363Y150905D01*
X34135Y150555D01*
X33899Y150211D01*
X33655Y149873D01*
X33402Y149541D01*
X33141Y149215D01*
X32873Y148896D01*
X32596Y148583D01*
X32312Y148278D01*
X32021Y147979D01*
X31722Y147688D01*
X31417Y147404D01*
X31104Y147127D01*
X30785Y146859D01*
X30459Y146598D01*
X30127Y146345D01*
X29789Y146101D01*
X29445Y145865D01*
X29095Y145637D01*
X28740Y145419D01*
X28379Y145209D01*
X28014Y145007D01*
X27643Y144815D01*
X27268Y144632D01*
X26889Y144458D01*
X26506Y144294D01*
X26118Y144139D01*
X25727Y143994D01*
X25333Y143858D01*
X24935Y143732D01*
X24534Y143616D01*
X24131Y143509D01*
X23725Y143413D01*
X23317Y143327D01*
X22906Y143250D01*
X22494Y143184D01*
X22081Y143128D01*
X21666Y143082D01*
X21251Y143046D01*
X20834Y143020D01*
X20417Y143005D01*
X20000Y143000D01*
X19583Y143005D01*
X19166Y143020D01*
X18749Y143046D01*
X18334Y143082D01*
X17919Y143128D01*
X17506Y143184D01*
X17094Y143250D01*
X16683Y143327D01*
X16275Y143413D01*
X15869Y143509D01*
X15466Y143616D01*
X15065Y143732D01*
X14667Y143858D01*
X14273Y143994D01*
X13882Y144139D01*
X13494Y144294D01*
X13111Y144458D01*
X12732Y144632D01*
X12357Y144815D01*
X11986Y145007D01*
X11621Y145209D01*
X11260Y145419D01*
X10905Y145637D01*
X10555Y145865D01*
X10211Y146101D01*
X9873Y146345D01*
X9541Y146598D01*
X9215Y146859D01*
X8896Y147127D01*
X8583Y147404D01*
X8278Y147688D01*
X7979Y147979D01*
X7688Y148278D01*
X7404Y148583D01*
X7127Y148896D01*
X6859Y149215D01*
X6598Y149541D01*
X6345Y149873D01*
X6101Y150211D01*
X5865Y150555D01*
X5637Y150905D01*
X5419Y151260D01*
X5209Y151621D01*
X5007Y151986D01*
X4815Y152357D01*
X4632Y152732D01*
X4458Y153111D01*
X4294Y153494D01*
X4139Y153882D01*
X3994Y154273D01*
X3858Y154667D01*
X3732Y155065D01*
X3616Y155466D01*
X3509Y155869D01*
X3413Y156275D01*
X3327Y156683D01*
X3250Y157094D01*
X3184Y157506D01*
X3128Y157919D01*
X3082Y158334D01*
X3046Y158749D01*
X3020Y159166D01*
X3005Y159583D01*
X3000Y160000D01*
D12*
X250200Y719000D03*
X250200Y769000D03*
X225200Y719000D03*
X225200Y769000D03*
X200200Y719000D03*
X200200Y769000D03*
X175200Y719000D03*
X175200Y769000D03*
X150200Y719000D03*
X150200Y769000D03*
X111600Y719000D03*
X111600Y769000D03*
X86600Y719000D03*
X86600Y769000D03*
X61600Y719000D03*
X61600Y769000D03*
X36600Y719000D03*
X36600Y769000D03*
X11600Y719000D03*
X11600Y769000D03*
D13*
X232900Y387700D02*
X247100Y387700D01*
X247100Y380500D01*
X232900Y380500D01*
X232900Y387700D01*
X232900Y381260D02*
X247100Y381260D01*
X247100Y382020D02*
X232900Y382020D01*
X232900Y382780D02*
X247100Y382780D01*
X247100Y383540D02*
X232900Y383540D01*
X232900Y384300D02*
X247100Y384300D01*
X247100Y385060D02*
X232900Y385060D01*
X232900Y385820D02*
X247100Y385820D01*
X247100Y386580D02*
X232900Y386580D01*
X232900Y387340D02*
X247100Y387340D01*
X247100Y376700D02*
X232900Y376700D01*
X247100Y376700D02*
X247100Y369500D01*
X232900Y369500D01*
X232900Y376700D01*
X232900Y370260D02*
X247100Y370260D01*
X247100Y371020D02*
X232900Y371020D01*
X232900Y371780D02*
X247100Y371780D01*
X247100Y372540D02*
X232900Y372540D01*
X232900Y373300D02*
X247100Y373300D01*
X247100Y374060D02*
X232900Y374060D01*
X232900Y374820D02*
X247100Y374820D01*
X247100Y375580D02*
X232900Y375580D01*
X232900Y376340D02*
X247100Y376340D01*
X247100Y365700D02*
X232900Y365700D01*
X247100Y365700D02*
X247100Y358500D01*
X232900Y358500D01*
X232900Y365700D01*
X232900Y359260D02*
X247100Y359260D01*
X247100Y360020D02*
X232900Y360020D01*
X232900Y360780D02*
X247100Y360780D01*
X247100Y361540D02*
X232900Y361540D01*
X232900Y362300D02*
X247100Y362300D01*
X247100Y363060D02*
X232900Y363060D01*
X232900Y363820D02*
X247100Y363820D01*
X247100Y364580D02*
X232900Y364580D01*
X232900Y365340D02*
X247100Y365340D01*
X247100Y354700D02*
X232900Y354700D01*
X247100Y354700D02*
X247100Y347500D01*
X232900Y347500D01*
X232900Y354700D01*
X232900Y348260D02*
X247100Y348260D01*
X247100Y349020D02*
X232900Y349020D01*
X232900Y349780D02*
X247100Y349780D01*
X247100Y350540D02*
X232900Y350540D01*
X232900Y351300D02*
X247100Y351300D01*
X247100Y352060D02*
X232900Y352060D01*
X232900Y352820D02*
X247100Y352820D01*
X247100Y353580D02*
X232900Y353580D01*
X232900Y354340D02*
X247100Y354340D01*
X247100Y343700D02*
X232900Y343700D01*
X247100Y343700D02*
X247100Y336500D01*
X232900Y336500D01*
X232900Y343700D01*
X232900Y337260D02*
X247100Y337260D01*
X247100Y338020D02*
X232900Y338020D01*
X232900Y338780D02*
X247100Y338780D01*
X247100Y339540D02*
X232900Y339540D01*
X232900Y340300D02*
X247100Y340300D01*
X247100Y341060D02*
X232900Y341060D01*
X232900Y341820D02*
X247100Y341820D01*
X247100Y342580D02*
X232900Y342580D01*
X232900Y343340D02*
X247100Y343340D01*
X247100Y332700D02*
X232900Y332700D01*
X247100Y332700D02*
X247100Y325500D01*
X232900Y325500D01*
X232900Y332700D01*
X232900Y326260D02*
X247100Y326260D01*
X247100Y327020D02*
X232900Y327020D01*
X232900Y327780D02*
X247100Y327780D01*
X247100Y328540D02*
X232900Y328540D01*
X232900Y329300D02*
X247100Y329300D01*
X247100Y330060D02*
X232900Y330060D01*
X232900Y330820D02*
X247100Y330820D01*
X247100Y331580D02*
X232900Y331580D01*
X232900Y332340D02*
X247100Y332340D01*
X247100Y321700D02*
X232900Y321700D01*
X247100Y321700D02*
X247100Y314500D01*
X232900Y314500D01*
X232900Y321700D01*
X232900Y315260D02*
X247100Y315260D01*
X247100Y316020D02*
X232900Y316020D01*
X232900Y316780D02*
X247100Y316780D01*
X247100Y317540D02*
X232900Y317540D01*
X232900Y318300D02*
X247100Y318300D01*
X247100Y319060D02*
X232900Y319060D01*
X232900Y319820D02*
X247100Y319820D01*
X247100Y320580D02*
X232900Y320580D01*
X232900Y321340D02*
X247100Y321340D01*
X247100Y310700D02*
X232900Y310700D01*
X247100Y310700D02*
X247100Y303500D01*
X232900Y303500D01*
X232900Y310700D01*
X232900Y304260D02*
X247100Y304260D01*
X247100Y305020D02*
X232900Y305020D01*
X232900Y305780D02*
X247100Y305780D01*
X247100Y306540D02*
X232900Y306540D01*
X232900Y307300D02*
X247100Y307300D01*
X247100Y308060D02*
X232900Y308060D01*
X232900Y308820D02*
X247100Y308820D01*
X247100Y309580D02*
X232900Y309580D01*
X232900Y310340D02*
X247100Y310340D01*
X247100Y299700D02*
X232900Y299700D01*
X247100Y299700D02*
X247100Y292500D01*
X232900Y292500D01*
X232900Y299700D01*
X232900Y293260D02*
X247100Y293260D01*
X247100Y294020D02*
X232900Y294020D01*
X232900Y294780D02*
X247100Y294780D01*
X247100Y295540D02*
X232900Y295540D01*
X232900Y296300D02*
X247100Y296300D01*
X247100Y297060D02*
X232900Y297060D01*
X232900Y297820D02*
X247100Y297820D01*
X247100Y298580D02*
X232900Y298580D01*
X232900Y299340D02*
X247100Y299340D01*
X247100Y288700D02*
X232900Y288700D01*
X247100Y288700D02*
X247100Y281500D01*
X232900Y281500D01*
X232900Y288700D01*
X232900Y282260D02*
X247100Y282260D01*
X247100Y283020D02*
X232900Y283020D01*
X232900Y283780D02*
X247100Y283780D01*
X247100Y284540D02*
X232900Y284540D01*
X232900Y285300D02*
X247100Y285300D01*
X247100Y286060D02*
X232900Y286060D01*
X232900Y286820D02*
X247100Y286820D01*
X247100Y287580D02*
X232900Y287580D01*
X232900Y288340D02*
X247100Y288340D01*
X247100Y277700D02*
X232900Y277700D01*
X247100Y277700D02*
X247100Y270500D01*
X232900Y270500D01*
X232900Y277700D01*
X232900Y271260D02*
X247100Y271260D01*
X247100Y272020D02*
X232900Y272020D01*
X232900Y272780D02*
X247100Y272780D01*
X247100Y273540D02*
X232900Y273540D01*
X232900Y274300D02*
X247100Y274300D01*
X247100Y275060D02*
X232900Y275060D01*
X232900Y275820D02*
X247100Y275820D01*
X247100Y276580D02*
X232900Y276580D01*
X232900Y277340D02*
X247100Y277340D01*
X247100Y266700D02*
X232900Y266700D01*
X247100Y266700D02*
X247100Y259500D01*
X232900Y259500D01*
X232900Y266700D01*
X232900Y260260D02*
X247100Y260260D01*
X247100Y261020D02*
X232900Y261020D01*
X232900Y261780D02*
X247100Y261780D01*
X247100Y262540D02*
X232900Y262540D01*
X232900Y263300D02*
X247100Y263300D01*
X247100Y264060D02*
X232900Y264060D01*
X232900Y264820D02*
X247100Y264820D01*
X247100Y265580D02*
X232900Y265580D01*
X232900Y266340D02*
X247100Y266340D01*
X247100Y255700D02*
X232900Y255700D01*
X247100Y255700D02*
X247100Y248500D01*
X232900Y248500D01*
X232900Y255700D01*
X232900Y249260D02*
X247100Y249260D01*
X247100Y250020D02*
X232900Y250020D01*
X232900Y250780D02*
X247100Y250780D01*
X247100Y251540D02*
X232900Y251540D01*
X232900Y252300D02*
X247100Y252300D01*
X247100Y253060D02*
X232900Y253060D01*
X232900Y253820D02*
X247100Y253820D01*
X247100Y254580D02*
X232900Y254580D01*
X232900Y255340D02*
X247100Y255340D01*
X247100Y244700D02*
X232900Y244700D01*
X247100Y244700D02*
X247100Y237500D01*
X232900Y237500D01*
X232900Y244700D01*
X232900Y238260D02*
X247100Y238260D01*
X247100Y239020D02*
X232900Y239020D01*
X232900Y239780D02*
X247100Y239780D01*
X247100Y240540D02*
X232900Y240540D01*
X232900Y241300D02*
X247100Y241300D01*
X247100Y242060D02*
X232900Y242060D01*
X232900Y242820D02*
X247100Y242820D01*
X247100Y243580D02*
X232900Y243580D01*
X232900Y244340D02*
X247100Y244340D01*
X247100Y233700D02*
X232900Y233700D01*
X247100Y233700D02*
X247100Y226500D01*
X232900Y226500D01*
X232900Y233700D01*
X232900Y227260D02*
X247100Y227260D01*
X247100Y228020D02*
X232900Y228020D01*
X232900Y228780D02*
X247100Y228780D01*
X247100Y229540D02*
X232900Y229540D01*
X232900Y230300D02*
X247100Y230300D01*
X247100Y231060D02*
X232900Y231060D01*
X232900Y231820D02*
X247100Y231820D01*
X247100Y232580D02*
X232900Y232580D01*
X232900Y233340D02*
X247100Y233340D01*
X247100Y222700D02*
X232900Y222700D01*
X247100Y222700D02*
X247100Y215500D01*
X232900Y215500D01*
X232900Y222700D01*
X232900Y216260D02*
X247100Y216260D01*
X247100Y217020D02*
X232900Y217020D01*
X232900Y217780D02*
X247100Y217780D01*
X247100Y218540D02*
X232900Y218540D01*
X232900Y219300D02*
X247100Y219300D01*
X247100Y220060D02*
X232900Y220060D01*
X232900Y220820D02*
X247100Y220820D01*
X247100Y221580D02*
X232900Y221580D01*
X232900Y222340D02*
X247100Y222340D01*
X247100Y211700D02*
X232900Y211700D01*
X247100Y211700D02*
X247100Y204500D01*
X232900Y204500D01*
X232900Y211700D01*
X232900Y205260D02*
X247100Y205260D01*
X247100Y206020D02*
X232900Y206020D01*
X232900Y206780D02*
X247100Y206780D01*
X247100Y207540D02*
X232900Y207540D01*
X232900Y208300D02*
X247100Y208300D01*
X247100Y209060D02*
X232900Y209060D01*
X232900Y209820D02*
X247100Y209820D01*
X247100Y210580D02*
X232900Y210580D01*
X232900Y211340D02*
X247100Y211340D01*
X247100Y200700D02*
X232900Y200700D01*
X247100Y200700D02*
X247100Y193500D01*
X232900Y193500D01*
X232900Y200700D01*
X232900Y194260D02*
X247100Y194260D01*
X247100Y195020D02*
X232900Y195020D01*
X232900Y195780D02*
X247100Y195780D01*
X247100Y196540D02*
X232900Y196540D01*
X232900Y197300D02*
X247100Y197300D01*
X247100Y198060D02*
X232900Y198060D01*
X232900Y198820D02*
X247100Y198820D01*
X247100Y199580D02*
X232900Y199580D01*
X232900Y200340D02*
X247100Y200340D01*
X52100Y387700D02*
X37900Y387700D01*
X52100Y387700D02*
X52100Y380500D01*
X37900Y380500D01*
X37900Y387700D01*
X37900Y381260D02*
X52100Y381260D01*
X52100Y382020D02*
X37900Y382020D01*
X37900Y382780D02*
X52100Y382780D01*
X52100Y383540D02*
X37900Y383540D01*
X37900Y384300D02*
X52100Y384300D01*
X52100Y385060D02*
X37900Y385060D01*
X37900Y385820D02*
X52100Y385820D01*
X52100Y386580D02*
X37900Y386580D01*
X37900Y387340D02*
X52100Y387340D01*
X52100Y376700D02*
X37900Y376700D01*
X52100Y376700D02*
X52100Y369500D01*
X37900Y369500D01*
X37900Y376700D01*
X37900Y370260D02*
X52100Y370260D01*
X52100Y371020D02*
X37900Y371020D01*
X37900Y371780D02*
X52100Y371780D01*
X52100Y372540D02*
X37900Y372540D01*
X37900Y373300D02*
X52100Y373300D01*
X52100Y374060D02*
X37900Y374060D01*
X37900Y374820D02*
X52100Y374820D01*
X52100Y375580D02*
X37900Y375580D01*
X37900Y376340D02*
X52100Y376340D01*
X52100Y365700D02*
X37900Y365700D01*
X52100Y365700D02*
X52100Y358500D01*
X37900Y358500D01*
X37900Y365700D01*
X37900Y359260D02*
X52100Y359260D01*
X52100Y360020D02*
X37900Y360020D01*
X37900Y360780D02*
X52100Y360780D01*
X52100Y361540D02*
X37900Y361540D01*
X37900Y362300D02*
X52100Y362300D01*
X52100Y363060D02*
X37900Y363060D01*
X37900Y363820D02*
X52100Y363820D01*
X52100Y364580D02*
X37900Y364580D01*
X37900Y365340D02*
X52100Y365340D01*
X52100Y354700D02*
X37900Y354700D01*
X52100Y354700D02*
X52100Y347500D01*
X37900Y347500D01*
X37900Y354700D01*
X37900Y348260D02*
X52100Y348260D01*
X52100Y349020D02*
X37900Y349020D01*
X37900Y349780D02*
X52100Y349780D01*
X52100Y350540D02*
X37900Y350540D01*
X37900Y351300D02*
X52100Y351300D01*
X52100Y352060D02*
X37900Y352060D01*
X37900Y352820D02*
X52100Y352820D01*
X52100Y353580D02*
X37900Y353580D01*
X37900Y354340D02*
X52100Y354340D01*
X52100Y343700D02*
X37900Y343700D01*
X52100Y343700D02*
X52100Y336500D01*
X37900Y336500D01*
X37900Y343700D01*
X37900Y337260D02*
X52100Y337260D01*
X52100Y338020D02*
X37900Y338020D01*
X37900Y338780D02*
X52100Y338780D01*
X52100Y339540D02*
X37900Y339540D01*
X37900Y340300D02*
X52100Y340300D01*
X52100Y341060D02*
X37900Y341060D01*
X37900Y341820D02*
X52100Y341820D01*
X52100Y342580D02*
X37900Y342580D01*
X37900Y343340D02*
X52100Y343340D01*
X52100Y332700D02*
X37900Y332700D01*
X52100Y332700D02*
X52100Y325500D01*
X37900Y325500D01*
X37900Y332700D01*
X37900Y326260D02*
X52100Y326260D01*
X52100Y327020D02*
X37900Y327020D01*
X37900Y327780D02*
X52100Y327780D01*
X52100Y328540D02*
X37900Y328540D01*
X37900Y329300D02*
X52100Y329300D01*
X52100Y330060D02*
X37900Y330060D01*
X37900Y330820D02*
X52100Y330820D01*
X52100Y331580D02*
X37900Y331580D01*
X37900Y332340D02*
X52100Y332340D01*
X52100Y321700D02*
X37900Y321700D01*
X52100Y321700D02*
X52100Y314500D01*
X37900Y314500D01*
X37900Y321700D01*
X37900Y315260D02*
X52100Y315260D01*
X52100Y316020D02*
X37900Y316020D01*
X37900Y316780D02*
X52100Y316780D01*
X52100Y317540D02*
X37900Y317540D01*
X37900Y318300D02*
X52100Y318300D01*
X52100Y319060D02*
X37900Y319060D01*
X37900Y319820D02*
X52100Y319820D01*
X52100Y320580D02*
X37900Y320580D01*
X37900Y321340D02*
X52100Y321340D01*
X52100Y310700D02*
X37900Y310700D01*
X52100Y310700D02*
X52100Y303500D01*
X37900Y303500D01*
X37900Y310700D01*
X37900Y304260D02*
X52100Y304260D01*
X52100Y305020D02*
X37900Y305020D01*
X37900Y305780D02*
X52100Y305780D01*
X52100Y306540D02*
X37900Y306540D01*
X37900Y307300D02*
X52100Y307300D01*
X52100Y308060D02*
X37900Y308060D01*
X37900Y308820D02*
X52100Y308820D01*
X52100Y309580D02*
X37900Y309580D01*
X37900Y310340D02*
X52100Y310340D01*
X52100Y299700D02*
X37900Y299700D01*
X52100Y299700D02*
X52100Y292500D01*
X37900Y292500D01*
X37900Y299700D01*
X37900Y293260D02*
X52100Y293260D01*
X52100Y294020D02*
X37900Y294020D01*
X37900Y294780D02*
X52100Y294780D01*
X52100Y295540D02*
X37900Y295540D01*
X37900Y296300D02*
X52100Y296300D01*
X52100Y297060D02*
X37900Y297060D01*
X37900Y297820D02*
X52100Y297820D01*
X52100Y298580D02*
X37900Y298580D01*
X37900Y299340D02*
X52100Y299340D01*
X52100Y288700D02*
X37900Y288700D01*
X52100Y288700D02*
X52100Y281500D01*
X37900Y281500D01*
X37900Y288700D01*
X37900Y282260D02*
X52100Y282260D01*
X52100Y283020D02*
X37900Y283020D01*
X37900Y283780D02*
X52100Y283780D01*
X52100Y284540D02*
X37900Y284540D01*
X37900Y285300D02*
X52100Y285300D01*
X52100Y286060D02*
X37900Y286060D01*
X37900Y286820D02*
X52100Y286820D01*
X52100Y287580D02*
X37900Y287580D01*
X37900Y288340D02*
X52100Y288340D01*
X52100Y277700D02*
X37900Y277700D01*
X52100Y277700D02*
X52100Y270500D01*
X37900Y270500D01*
X37900Y277700D01*
X37900Y271260D02*
X52100Y271260D01*
X52100Y272020D02*
X37900Y272020D01*
X37900Y272780D02*
X52100Y272780D01*
X52100Y273540D02*
X37900Y273540D01*
X37900Y274300D02*
X52100Y274300D01*
X52100Y275060D02*
X37900Y275060D01*
X37900Y275820D02*
X52100Y275820D01*
X52100Y276580D02*
X37900Y276580D01*
X37900Y277340D02*
X52100Y277340D01*
X52100Y266700D02*
X37900Y266700D01*
X52100Y266700D02*
X52100Y259500D01*
X37900Y259500D01*
X37900Y266700D01*
X37900Y260260D02*
X52100Y260260D01*
X52100Y261020D02*
X37900Y261020D01*
X37900Y261780D02*
X52100Y261780D01*
X52100Y262540D02*
X37900Y262540D01*
X37900Y263300D02*
X52100Y263300D01*
X52100Y264060D02*
X37900Y264060D01*
X37900Y264820D02*
X52100Y264820D01*
X52100Y265580D02*
X37900Y265580D01*
X37900Y266340D02*
X52100Y266340D01*
X52100Y255700D02*
X37900Y255700D01*
X52100Y255700D02*
X52100Y248500D01*
X37900Y248500D01*
X37900Y255700D01*
X37900Y249260D02*
X52100Y249260D01*
X52100Y250020D02*
X37900Y250020D01*
X37900Y250780D02*
X52100Y250780D01*
X52100Y251540D02*
X37900Y251540D01*
X37900Y252300D02*
X52100Y252300D01*
X52100Y253060D02*
X37900Y253060D01*
X37900Y253820D02*
X52100Y253820D01*
X52100Y254580D02*
X37900Y254580D01*
X37900Y255340D02*
X52100Y255340D01*
X52100Y244700D02*
X37900Y244700D01*
X52100Y244700D02*
X52100Y237500D01*
X37900Y237500D01*
X37900Y244700D01*
X37900Y238260D02*
X52100Y238260D01*
X52100Y239020D02*
X37900Y239020D01*
X37900Y239780D02*
X52100Y239780D01*
X52100Y240540D02*
X37900Y240540D01*
X37900Y241300D02*
X52100Y241300D01*
X52100Y242060D02*
X37900Y242060D01*
X37900Y242820D02*
X52100Y242820D01*
X52100Y243580D02*
X37900Y243580D01*
X37900Y244340D02*
X52100Y244340D01*
X52100Y233700D02*
X37900Y233700D01*
X52100Y233700D02*
X52100Y226500D01*
X37900Y226500D01*
X37900Y233700D01*
X37900Y227260D02*
X52100Y227260D01*
X52100Y228020D02*
X37900Y228020D01*
X37900Y228780D02*
X52100Y228780D01*
X52100Y229540D02*
X37900Y229540D01*
X37900Y230300D02*
X52100Y230300D01*
X52100Y231060D02*
X37900Y231060D01*
X37900Y231820D02*
X52100Y231820D01*
X52100Y232580D02*
X37900Y232580D01*
X37900Y233340D02*
X52100Y233340D01*
X52100Y222700D02*
X37900Y222700D01*
X52100Y222700D02*
X52100Y215500D01*
X37900Y215500D01*
X37900Y222700D01*
X37900Y216260D02*
X52100Y216260D01*
X52100Y217020D02*
X37900Y217020D01*
X37900Y217780D02*
X52100Y217780D01*
X52100Y218540D02*
X37900Y218540D01*
X37900Y219300D02*
X52100Y219300D01*
X52100Y220060D02*
X37900Y220060D01*
X37900Y220820D02*
X52100Y220820D01*
X52100Y221580D02*
X37900Y221580D01*
X37900Y222340D02*
X52100Y222340D01*
X52100Y211700D02*
X37900Y211700D01*
X52100Y211700D02*
X52100Y204500D01*
X37900Y204500D01*
X37900Y211700D01*
X37900Y205260D02*
X52100Y205260D01*
X52100Y206020D02*
X37900Y206020D01*
X37900Y206780D02*
X52100Y206780D01*
X52100Y207540D02*
X37900Y207540D01*
X37900Y208300D02*
X52100Y208300D01*
X52100Y209060D02*
X37900Y209060D01*
X37900Y209820D02*
X52100Y209820D01*
X52100Y210580D02*
X37900Y210580D01*
X37900Y211340D02*
X52100Y211340D01*
X52100Y200700D02*
X37900Y200700D01*
X52100Y200700D02*
X52100Y193500D01*
X37900Y193500D01*
X37900Y200700D01*
X37900Y194260D02*
X52100Y194260D01*
X52100Y195020D02*
X37900Y195020D01*
X37900Y195780D02*
X52100Y195780D01*
X52100Y196540D02*
X37900Y196540D01*
X37900Y197300D02*
X52100Y197300D01*
X52100Y198060D02*
X37900Y198060D01*
X37900Y198820D02*
X52100Y198820D01*
X52100Y199580D02*
X37900Y199580D01*
X37900Y200340D02*
X52100Y200340D01*
D14*
X236000Y522400D03*
X236000Y509700D03*
X236000Y497000D03*
X236000Y484300D03*
X236000Y471600D03*
X248700Y522400D03*
X248700Y509700D03*
X248700Y497000D03*
X248700Y484300D03*
X248700Y471600D03*
D15*
X142000Y667000D03*
X132500Y647000D03*
X151500Y647000D03*
D16*
X257500Y409000D03*
X240500Y409000D03*
X257500Y424000D03*
X240500Y424000D03*
D17*
X24000Y374500D03*
X24000Y391500D03*
D18*
X167000Y675000D03*
X167000Y665000D03*
D19*
X137000Y633000D03*
X147000Y633000D03*
D18*
X261000Y296000D03*
X261000Y306000D03*
X100000Y634000D03*
X100000Y644000D03*
X112000Y644000D03*
X112000Y634000D03*
X117000Y446000D03*
X117000Y456000D03*
X117000Y422000D03*
X117000Y432000D03*
X133000Y422000D03*
X133000Y432000D03*
D19*
X207000Y684000D03*
X217000Y684000D03*
D20*
X107500Y602450D02*
X100800Y602450D01*
X100800Y604550D01*
X107500Y604550D01*
X107500Y602450D01*
X107500Y603115D02*
X100800Y603115D01*
X100800Y603780D02*
X107500Y603780D01*
X107500Y604445D02*
X100800Y604445D01*
X100800Y597450D02*
X107500Y597450D01*
X100800Y597450D02*
X100800Y599550D01*
X107500Y599550D01*
X107500Y597450D01*
X107500Y598115D02*
X100800Y598115D01*
X100800Y598780D02*
X107500Y598780D01*
X107500Y599445D02*
X100800Y599445D01*
X100800Y592450D02*
X107500Y592450D01*
X100800Y592450D02*
X100800Y594550D01*
X107500Y594550D01*
X107500Y592450D01*
X107500Y593115D02*
X100800Y593115D01*
X100800Y593780D02*
X107500Y593780D01*
X107500Y594445D02*
X100800Y594445D01*
X100800Y587450D02*
X107500Y587450D01*
X100800Y587450D02*
X100800Y589550D01*
X107500Y589550D01*
X107500Y587450D01*
X107500Y588115D02*
X100800Y588115D01*
X100800Y588780D02*
X107500Y588780D01*
X107500Y589445D02*
X100800Y589445D01*
X120500Y587450D02*
X127200Y587450D01*
X120500Y587450D02*
X120500Y589550D01*
X127200Y589550D01*
X127200Y587450D01*
X127200Y588115D02*
X120500Y588115D01*
X120500Y588780D02*
X127200Y588780D01*
X127200Y589445D02*
X120500Y589445D01*
X120500Y592450D02*
X127200Y592450D01*
X120500Y592450D02*
X120500Y594550D01*
X127200Y594550D01*
X127200Y592450D01*
X127200Y593115D02*
X120500Y593115D01*
X120500Y593780D02*
X127200Y593780D01*
X127200Y594445D02*
X120500Y594445D01*
X120500Y597450D02*
X127200Y597450D01*
X120500Y597450D02*
X120500Y599550D01*
X127200Y599550D01*
X127200Y597450D01*
X127200Y598115D02*
X120500Y598115D01*
X120500Y598780D02*
X127200Y598780D01*
X127200Y599445D02*
X120500Y599445D01*
X120500Y602450D02*
X127200Y602450D01*
X120500Y602450D02*
X120500Y604550D01*
X127200Y604550D01*
X127200Y602450D01*
X127200Y603115D02*
X120500Y603115D01*
X120500Y603780D02*
X127200Y603780D01*
X127200Y604445D02*
X120500Y604445D01*
D21*
X114000Y596000D03*
D19*
X122000Y617000D03*
X112000Y617000D03*
D22*
X81000Y590500D03*
X81000Y609500D03*
D16*
X127500Y574000D03*
X110500Y574000D03*
D23*
X142000Y601500D03*
X142000Y586500D03*
D18*
X112000Y508000D03*
X112000Y518000D03*
D24*
X100000Y506700D03*
X100000Y515300D03*
X18000Y481700D03*
X18000Y490300D03*
D18*
X29000Y481000D03*
X29000Y491000D03*
D15*
X23000Y630000D03*
X13500Y610000D03*
X32500Y610000D03*
D25*
X47400Y642650D02*
X53400Y642650D01*
X47400Y642650D02*
X47400Y651350D01*
X53400Y651350D01*
X53400Y642650D01*
X53400Y648350D02*
X47400Y648350D01*
X64600Y642650D02*
X70600Y642650D01*
X64600Y642650D02*
X64600Y651350D01*
X70600Y651350D01*
X70600Y642650D01*
X70600Y648350D02*
X64600Y648350D01*
D26*
X49700Y664000D03*
X58300Y664000D03*
X69700Y629000D03*
X78300Y629000D03*
D27*
X51500Y576000D03*
X32500Y576000D03*
D19*
X24000Y596000D03*
X14000Y596000D03*
D28*
X52000Y597500D03*
X52000Y626500D03*
D19*
X191000Y684000D03*
X181000Y684000D03*
D29*
X255750Y625000D03*
X255750Y569000D03*
D30*
X217000Y582000D03*
X217000Y592000D03*
X217000Y602000D03*
X217000Y612000D03*
D18*
X200000Y601000D03*
X200000Y611000D03*
X200000Y589000D03*
X200000Y579000D03*
D31*
X46500Y683000D03*
X75500Y683000D03*
D32*
X127500Y542500D03*
X192500Y542500D03*
X127500Y497500D03*
X192500Y497500D03*
X17500Y462500D03*
X82500Y462500D03*
X17500Y417500D03*
X82500Y417500D03*
D33*
X57250Y507000D02*
X57250Y515000D01*
X57250Y507000D02*
X52750Y507000D01*
X52750Y515000D01*
X57250Y515000D01*
X57250Y507475D02*
X52750Y507475D01*
X52750Y507950D02*
X57250Y507950D01*
X57250Y508425D02*
X52750Y508425D01*
X52750Y508900D02*
X57250Y508900D01*
X57250Y509375D02*
X52750Y509375D01*
X52750Y509850D02*
X57250Y509850D01*
X57250Y510325D02*
X52750Y510325D01*
X52750Y510800D02*
X57250Y510800D01*
X57250Y511275D02*
X52750Y511275D01*
X52750Y511750D02*
X57250Y511750D01*
X57250Y512225D02*
X52750Y512225D01*
X52750Y512700D02*
X57250Y512700D01*
X57250Y513175D02*
X52750Y513175D01*
X52750Y513650D02*
X57250Y513650D01*
X57250Y514125D02*
X52750Y514125D01*
X52750Y514600D02*
X57250Y514600D01*
X57250Y525000D02*
X57250Y533000D01*
X57250Y525000D02*
X52750Y525000D01*
X52750Y533000D01*
X57250Y533000D01*
X57250Y525475D02*
X52750Y525475D01*
X52750Y525950D02*
X57250Y525950D01*
X57250Y526425D02*
X52750Y526425D01*
X52750Y526900D02*
X57250Y526900D01*
X57250Y527375D02*
X52750Y527375D01*
X52750Y527850D02*
X57250Y527850D01*
X57250Y528325D02*
X52750Y528325D01*
X52750Y528800D02*
X57250Y528800D01*
X57250Y529275D02*
X52750Y529275D01*
X52750Y529750D02*
X57250Y529750D01*
X57250Y530225D02*
X52750Y530225D01*
X52750Y530700D02*
X57250Y530700D01*
X57250Y531175D02*
X52750Y531175D01*
X52750Y531650D02*
X57250Y531650D01*
X57250Y532125D02*
X52750Y532125D01*
X52750Y532600D02*
X57250Y532600D01*
X47250Y533000D02*
X47250Y525000D01*
X42750Y525000D01*
X42750Y533000D01*
X47250Y533000D01*
X47250Y525475D02*
X42750Y525475D01*
X42750Y525950D02*
X47250Y525950D01*
X47250Y526425D02*
X42750Y526425D01*
X42750Y526900D02*
X47250Y526900D01*
X47250Y527375D02*
X42750Y527375D01*
X42750Y527850D02*
X47250Y527850D01*
X47250Y528325D02*
X42750Y528325D01*
X42750Y528800D02*
X47250Y528800D01*
X47250Y529275D02*
X42750Y529275D01*
X42750Y529750D02*
X47250Y529750D01*
X47250Y530225D02*
X42750Y530225D01*
X42750Y530700D02*
X47250Y530700D01*
X47250Y531175D02*
X42750Y531175D01*
X42750Y531650D02*
X47250Y531650D01*
X47250Y532125D02*
X42750Y532125D01*
X42750Y532600D02*
X47250Y532600D01*
X47250Y515000D02*
X47250Y507000D01*
X42750Y507000D01*
X42750Y515000D01*
X47250Y515000D01*
X47250Y507475D02*
X42750Y507475D01*
X42750Y507950D02*
X47250Y507950D01*
X47250Y508425D02*
X42750Y508425D01*
X42750Y508900D02*
X47250Y508900D01*
X47250Y509375D02*
X42750Y509375D01*
X42750Y509850D02*
X47250Y509850D01*
X47250Y510325D02*
X42750Y510325D01*
X42750Y510800D02*
X47250Y510800D01*
X47250Y511275D02*
X42750Y511275D01*
X42750Y511750D02*
X47250Y511750D01*
X47250Y512225D02*
X42750Y512225D01*
X42750Y512700D02*
X47250Y512700D01*
X47250Y513175D02*
X42750Y513175D01*
X42750Y513650D02*
X47250Y513650D01*
X47250Y514125D02*
X42750Y514125D01*
X42750Y514600D02*
X47250Y514600D01*
X167250Y435000D02*
X167250Y427000D01*
X162750Y427000D01*
X162750Y435000D01*
X167250Y435000D01*
X167250Y427475D02*
X162750Y427475D01*
X162750Y427950D02*
X167250Y427950D01*
X167250Y428425D02*
X162750Y428425D01*
X162750Y428900D02*
X167250Y428900D01*
X167250Y429375D02*
X162750Y429375D01*
X162750Y429850D02*
X167250Y429850D01*
X167250Y430325D02*
X162750Y430325D01*
X162750Y430800D02*
X167250Y430800D01*
X167250Y431275D02*
X162750Y431275D01*
X162750Y431750D02*
X167250Y431750D01*
X167250Y432225D02*
X162750Y432225D01*
X162750Y432700D02*
X167250Y432700D01*
X167250Y433175D02*
X162750Y433175D01*
X162750Y433650D02*
X167250Y433650D01*
X167250Y434125D02*
X162750Y434125D01*
X162750Y434600D02*
X167250Y434600D01*
X167250Y445000D02*
X167250Y453000D01*
X167250Y445000D02*
X162750Y445000D01*
X162750Y453000D01*
X167250Y453000D01*
X167250Y445475D02*
X162750Y445475D01*
X162750Y445950D02*
X167250Y445950D01*
X167250Y446425D02*
X162750Y446425D01*
X162750Y446900D02*
X167250Y446900D01*
X167250Y447375D02*
X162750Y447375D01*
X162750Y447850D02*
X167250Y447850D01*
X167250Y448325D02*
X162750Y448325D01*
X162750Y448800D02*
X167250Y448800D01*
X167250Y449275D02*
X162750Y449275D01*
X162750Y449750D02*
X167250Y449750D01*
X167250Y450225D02*
X162750Y450225D01*
X162750Y450700D02*
X167250Y450700D01*
X167250Y451175D02*
X162750Y451175D01*
X162750Y451650D02*
X167250Y451650D01*
X167250Y452125D02*
X162750Y452125D01*
X162750Y452600D02*
X167250Y452600D01*
X157250Y453000D02*
X157250Y445000D01*
X152750Y445000D01*
X152750Y453000D01*
X157250Y453000D01*
X157250Y445475D02*
X152750Y445475D01*
X152750Y445950D02*
X157250Y445950D01*
X157250Y446425D02*
X152750Y446425D01*
X152750Y446900D02*
X157250Y446900D01*
X157250Y447375D02*
X152750Y447375D01*
X152750Y447850D02*
X157250Y447850D01*
X157250Y448325D02*
X152750Y448325D01*
X152750Y448800D02*
X157250Y448800D01*
X157250Y449275D02*
X152750Y449275D01*
X152750Y449750D02*
X157250Y449750D01*
X157250Y450225D02*
X152750Y450225D01*
X152750Y450700D02*
X157250Y450700D01*
X157250Y451175D02*
X152750Y451175D01*
X152750Y451650D02*
X157250Y451650D01*
X157250Y452125D02*
X152750Y452125D01*
X152750Y452600D02*
X157250Y452600D01*
X157250Y435000D02*
X157250Y427000D01*
X152750Y427000D01*
X152750Y435000D01*
X157250Y435000D01*
X157250Y427475D02*
X152750Y427475D01*
X152750Y427950D02*
X157250Y427950D01*
X157250Y428425D02*
X152750Y428425D01*
X152750Y428900D02*
X157250Y428900D01*
X157250Y429375D02*
X152750Y429375D01*
X152750Y429850D02*
X157250Y429850D01*
X157250Y430325D02*
X152750Y430325D01*
X152750Y430800D02*
X157250Y430800D01*
X157250Y431275D02*
X152750Y431275D01*
X152750Y431750D02*
X157250Y431750D01*
X157250Y432225D02*
X152750Y432225D01*
X152750Y432700D02*
X157250Y432700D01*
X157250Y433175D02*
X152750Y433175D01*
X152750Y433650D02*
X157250Y433650D01*
X157250Y434125D02*
X152750Y434125D01*
X152750Y434600D02*
X157250Y434600D01*
D18*
X36000Y551000D03*
X36000Y541000D03*
X55000Y551000D03*
X55000Y541000D03*
X161000Y473000D03*
X161000Y463000D03*
X150000Y473000D03*
X150000Y463000D03*
D26*
X254700Y250000D03*
X263300Y250000D03*
D24*
X255000Y340700D03*
X255000Y349300D03*
D34*
X146500Y619500D03*
D35*
X164500Y613000D03*
X164500Y626000D03*
D18*
X133000Y446000D03*
X133000Y456000D03*
X102000Y422000D03*
X102000Y432000D03*
X102000Y446000D03*
X102000Y456000D03*
D31*
X122500Y683500D03*
X151500Y683500D03*
D36*
X180896Y652602D03*
X194104Y652602D03*
X187500Y671398D03*
D19*
X187000Y639000D03*
X177000Y639000D03*
X177000Y628000D03*
X187000Y628000D03*
D15*
X102000Y676000D03*
X92500Y656000D03*
X111500Y656000D03*
D24*
X262000Y223300D03*
X262000Y214700D03*
D26*
X254700Y239000D03*
X263300Y239000D03*
D18*
X163000Y598000D03*
X163000Y588000D03*
M02*
